<?xml version="1.0" standalone="no"?>
<!DOCTYPE svg PUBLIC "-//W3C//DTD SVG 1.1//EN" "http://www.w3.org/Graphics/SVG/1.1/DTD/svg11.dtd" >
<svg xmlns="http://www.w3.org/2000/svg" xmlns:xlink="http://www.w3.org/1999/xlink" version="1.1">
<metadata></metadata>
<defs>
<font id="ageolight" horiz-adv-x="1116" >
<font-face units-per-em="2048" ascent="1556" descent="-492" />
<missing-glyph horiz-adv-x="512" />
<glyph unicode="&#xfb01;" horiz-adv-x="1054" d="M12 848v41q0 18 19 18h180v260q0 163 81 248.5t245 85.5q67 0 125 -20t92.5 -47t62.5 -61.5t38.5 -54.5t16.5 -36q5 -13 -4 -20l-47 -39q-9 -9 -16 6q-9 19 -18 35.5t-33 47t-51 51.5t-71.5 37.5t-94.5 16.5q-118 0 -179.5 -60.5t-62.5 -199.5l2 -250h559q18 0 18 -16 v-873q0 -18 -16 -18h-51q-16 0 -16 18v811h-494v-811q0 -18 -18 -18h-50q-16 0 -16 18l-2 811h-180q-19 0 -19 19z" />
<glyph unicode="&#xfb02;" horiz-adv-x="1054" d="M12 846v43q0 18 17 18h180v260q0 154 88 243.5t238 88.5q29 0 58 -2.5t52 -5.5t50 -8.5t43 -9.5t40 -11.5t32.5 -10.5t27.5 -10l20 -7q12 -2 16 -27v-1389q0 -20 -16 -20h-49q-18 0 -18 20l-3 1342q-135 55 -249 55q-241 0 -244 -260v-248h260q16 0 16 -16v-45 q0 -17 -16 -17h-260v-813q0 -16 -16 -16h-50q-18 0 -18 16l-2 813h-180q-17 0 -17 17z" />
<glyph unicode="&#xfb03;" horiz-adv-x="1665" d="M12 848v41q0 18 19 18h180v260q0 161 61 247.5t179 86.5q16 0 32.5 -2t31.5 -5.5t27.5 -7.5t26 -10t22.5 -10.5t20.5 -11.5t16.5 -10t14.5 -9.5t10.5 -7.5q11 -11 4 -24l-28 -45q-9 -12 -25 -2q-78 61 -151 61q-77 0 -117 -60.5t-41 -199.5l2 -250h524v260 q-2 162 79.5 248t246.5 86q67 0 125 -20t93 -47t63 -61.5t38.5 -55t16.5 -35.5q5 -13 -4 -20l-47 -39q-9 -9 -17 6q-9 19 -18 35.5t-33 47t-51 51.5t-71.5 37.5t-94.5 16.5q-118 0 -179.5 -60.5t-62.5 -199.5l2 -250h559q19 0 19 -18v-871q0 -18 -17 -18h-51q-16 0 -16 18 v811h-494v-811q0 -18 -18 -18h-49q-17 0 -17 18l-2 811h-524v-811q0 -18 -18 -18h-50q-16 0 -16 18l-2 811h-180q-19 0 -19 19z" />
<glyph unicode="&#xfb04;" horiz-adv-x="1665" d="M12 848v41q0 18 19 18h180v260q0 161 61 247.5t179 86.5q16 0 32.5 -2t31.5 -5.5t27.5 -7.5t26 -10t22.5 -10.5t20.5 -11.5t16.5 -10t14.5 -9.5t10.5 -7.5q11 -11 4 -24l-28 -45q-9 -12 -25 -2q-78 61 -151 61q-77 0 -117 -60.5t-41 -199.5l2 -250h522v260 q0 154 88.5 244t237.5 88q55 0 112.5 -9t88.5 -17.5t76 -23.5t46 -15q17 -3 17 -27v-1389q0 -20 -17 -20h-49q-18 0 -18 20l-2 1342q-135 55 -250 55q-241 0 -244 -260v-248h258q19 0 19 -16v-45q0 -18 -19 -15h-258l2 -815q0 -16 -18 -16h-49q-19 0 -19 16l-2 815l-522 -2 v-811q0 -18 -18 -18h-50q-16 0 -16 18l-2 811h-180q-19 0 -19 19z" />
<glyph horiz-adv-x="0" />
<glyph horiz-adv-x="682" />
<glyph horiz-adv-x="0" />
<glyph horiz-adv-x="0" />
<glyph unicode="&#xd;" horiz-adv-x="0" />
<glyph unicode=" "  horiz-adv-x="512" />
<glyph unicode="&#x09;" horiz-adv-x="512" />
<glyph unicode="&#xa0;" horiz-adv-x="512" />
<glyph unicode="!" horiz-adv-x="516" d="M174 66q0 36 23.5 58.5t60.5 22.5q38 0 61 -22t23 -59q0 -38 -23 -62t-61 -24q-37 0 -60.5 24t-23.5 62zM209 1403q0 18 18 18h64q16 -3 16 -18l-4 -1000q0 -18 -16 -18h-56q-18 0 -18 18z" />
<glyph unicode="&#x22;" horiz-adv-x="780" d="M109 944q-8 13 4 25q64 48 115.5 129.5t52.5 169.5q-8 -4 -17 -4q-40 0 -64 25t-24 65t24 65t64 25q65 0 84 -55q41 -114 -24 -262t-170 -214q-15 -9 -25 5zM422 942q-12 15 4 27q63 48 114 130t54 169q-12 -4 -16 -4q-40 0 -65.5 25t-25.5 65t25.5 65t65.5 25 q65 0 84 -55q41 -113 -25.5 -261t-171.5 -215q-10 -8 -23 5z" />
<glyph unicode="#" horiz-adv-x="1335" d="M84 459l16 45q4 13 27 16h209l96 363h-242q-10 0 -13.5 3t-0.5 13l14 45q6 17 27 17h236l116 442q3 18 23 18h49q19 -3 14 -18l-116 -442h366l117 442q6 18 25 18h47q19 0 16 -18l-117 -442h244q20 0 14 -21l-14 -39q-9 -18 -25 -18h-241l-94 -363h268q23 0 14 -18 l-14 -45q-6 -17 -27 -17h-264l-111 -420q-3 -20 -22 -20h-51q-19 0 -13 20l111 420h-367l-112 -420q-3 -20 -21 -20h-53q-15 0 -12 20l112 420h-215q-21 0 -16 19zM422 520h366l97 363h-367z" />
<glyph unicode="$" horiz-adv-x="1146" d="M96 178l31 51q9 15 27 0q30 -29 71 -56.5t129 -60t187 -38.5v583q-230 60 -330.5 149.5t-104.5 242.5q-5 158 118.5 268.5t316.5 120.5v61q0 19 16 19h37q17 0 20 -19v-61q77 -3 143.5 -18.5t112 -39t72 -41.5t45.5 -36q13 -10 6 -27l-26 -57q-7 -15 -23 -2 q-139 119 -330 131v-605q236 -62 336.5 -143.5t104.5 -220.5q5 -172 -109.5 -282t-331.5 -117v-191q0 -18 -20 -18h-35q-18 0 -18 18v193q-91 4 -170.5 24.5t-133.5 50t-84 50.5t-53 43q-15 15 -4 28zM199 1055q0 -113 76.5 -174.5t265.5 -116.5v584q-148 -9 -245 -91.5 t-97 -201.5zM614 72q159 4 253 82t96 202q0 108 -78 169.5t-271 113.5v-567z" />
<glyph unicode="%" horiz-adv-x="1589" d="M78 1124q0 143 86.5 229.5t228.5 86.5q141 0 227.5 -87t86.5 -229q0 -141 -86.5 -227t-227.5 -86q-142 0 -228.5 86t-86.5 227zM168 1124q0 -100 61.5 -161.5t161.5 -61.5q101 0 163 61t62 162t-62 163.5t-163 62.5q-100 0 -161.5 -62.5t-61.5 -163.5zM377 23l813 1441 q8 15 20 15h62q23 0 10 -23l-813 -1442q-11 -14 -23 -14h-63q-21 0 -6 23zM913 295q0 141 87 228t229 87q141 0 227 -87t86 -228t-86 -228t-227 -87q-142 0 -229 87t-87 228zM1004 295q0 -100 61.5 -161.5t161.5 -61.5q101 0 163 61t62 162t-62 163t-163 62 q-100 0 -161.5 -62t-61.5 -163z" />
<glyph unicode="&#x26;" horiz-adv-x="1390" d="M92 428q0 140 75.5 237.5t209.5 139.5q-74 74 -115 145t-41 160q0 153 92.5 241.5t249.5 88.5q99 0 174 -40t113 -116q9 -19 -4 -27l-51 -34q-13 -10 -23 6q-31 53 -81 88t-140 35q-108 0 -174 -66t-66 -182q0 -26 7.5 -54t16.5 -49.5t30 -50.5t33.5 -45.5t43 -47 t42.5 -41.5t47.5 -43.5t43.5 -39.5l463 -432q110 184 113 455q0 18 18 18h58q18 0 18 -18q-6 -316 -135 -523l225 -213q23 -20 -8 -20h-67q-20 0 -37 14l-162 152q-163 -199 -418 -199q-247 0 -399 129t-152 332zM184 428q0 -164 126.5 -267.5t330.5 -103.5q211 0 350 172 q-67 64 -275.5 257.5t-275.5 256.5q-114 -30 -185 -115t-71 -200z" />
<glyph unicode="'" horiz-adv-x="468" d="M100 942q-12 15 4 27q64 49 115.5 130.5t52.5 168.5q-8 -4 -16 -4q-40 0 -65 25t-25 65t25 65t65 25q65 0 84 -55q41 -114 -25 -262t-172 -214q-10 -7 -22 5z" />
<glyph unicode="(" horiz-adv-x="618" d="M145 545q0 123 20.5 249t47.5 217.5t64 180.5t59 132.5t43 78.5q11 18 31 18h53q9 0 12 -5.5t-2 -12.5q-22 -37 -44 -79t-59.5 -132t-65 -181t-48.5 -217t-20 -249q-1 -128 19.5 -257t47 -217.5t65.5 -178.5t59 -127t44 -76q10 -17 -8 -17h-57q-19 0 -27 19 q-21 32 -44 74.5t-59 128t-63.5 176.5t-47.5 218.5t-20 256.5z" />
<glyph unicode=")" horiz-adv-x="618" d="M146 -323q-3 5 1 12q23 36 45 75.5t60.5 127.5t65.5 178t47.5 218t19.5 257q1 123 -20 249t-48.5 216.5t-65.5 181.5t-60 132t-44 79q-4 7 -1 12.5t12 5.5h51q22 0 33 -18q21 -35 43 -78.5t58.5 -132.5t63.5 -181t47.5 -217.5t20.5 -248.5q0 -129 -20.5 -257t-47.5 -218 t-63.5 -177t-58.5 -127.5t-43 -74.5q-11 -19 -27 -19h-57q-9 0 -12 5z" />
<glyph unicode="*" horiz-adv-x="946" d="M125 1171l29 50q13 16 26 6l254 -162l-10 334q0 18 20 18h60q20 0 20 -18l-10 -334l254 162q15 11 25 -6l30 -50q10 -17 -6 -24l-276 -158l196 -229q11 -14 -2 -27l-41 -37q-16 -16 -26 0l-193 252l-194 -252q-12 -15 -27 0l-41 37q-13 13 -4 27l197 229l-275 158 q-20 7 -6 24z" />
<glyph unicode="+" horiz-adv-x="1124" d="M115 569v52q0 20 18 20h383v385q0 18 19 18h55q18 0 18 -18v-385h383q19 0 19 -18v-50q0 -18 -19 -18h-383v-387q0 -18 -18 -18h-55q-19 0 -19 18v387h-383q-18 0 -18 14z" />
<glyph unicode="," horiz-adv-x="497" d="M109 -291q-10 13 4 27q64 48 115.5 129.5t52.5 169.5q-8 -4 -17 -4q-40 0 -64 25t-24 65q0 41 24 65.5t64 24.5q65 0 84 -55q41 -112 -24 -260.5t-170 -214.5q-14 -8 -25 6z" />
<glyph unicode="-" horiz-adv-x="813" d="M115 575v52q0 18 16 18h549q18 0 18 -18v-52q0 -18 -18 -18h-549q-16 0 -16 18z" />
<glyph unicode="." horiz-adv-x="538" d="M180 80q0 41 24 66.5t64 25.5t65 -25.5t25 -66.5q0 -40 -25 -64t-65 -24t-64 24t-24 64z" />
<glyph unicode="/" horiz-adv-x="759" d="M23 18l622 1442q9 19 27 19h53q18 0 12 -19l-622 -1442q-6 -18 -25 -18h-57q-16 0 -10 18z" />
<glyph unicode="0" horiz-adv-x="1222" d="M117 711q0 216 61.5 381.5t174 256.5t259.5 91q222 0 358 -201t136 -528q0 -217 -61.5 -382.5t-173.5 -256t-259 -90.5q-223 0 -359 200.5t-136 528.5zM209 711q0 -287 111 -463t292 -176q180 0 291 176t111 463t-111 463t-291 176q-181 0 -292 -176t-111 -463z" />
<glyph unicode="1" horiz-adv-x="638" d="M164 1354v49q0 18 18 18h273q20 -3 20 -22l2 -1381q0 -18 -18 -18h-58q-16 0 -16 18l-2 1317h-201q-18 0 -18 19z" />
<glyph unicode="2" horiz-adv-x="1124" d="M141 7q-4 7 4 18q36 46 202.5 249t314.5 382l149 180l9 12t20.5 32t25.5 49t20 60t9 68q0 133 -80 214t-211 81q-93 0 -174.5 -42t-138.5 -116q-13 -16 -25 0l-37 41q-13 16 0 29q148 176 375 176q171 0 276.5 -105.5t104.5 -277.5q0 -48 -11 -96t-26.5 -81.5t-31 -60 t-26.5 -39.5l-11 -14q-1 -1 -109 -130t-248.5 -297.5t-210.5 -252.5h678q19 0 19 -16v-54q0 -16 -19 -16h-745h-21h-65q-13 0 -17 7z" />
<glyph unicode="3" d="M117 362q0 19 18 19h58q16 0 16 -19q9 -137 104.5 -221t243.5 -84q156 0 253 96t97 246q0 129 -84.5 213t-222.5 88l-135 -2q-19 0 -19 19v43q0 16 19 16h106q133 -1 213 76.5t80 204.5q0 132 -80.5 213.5t-210.5 81.5q-180 0 -313 -156q-13 -16 -24 -2l-39 41 q-11 13 2 29q147 176 374 176q171 0 276 -105t105 -278q0 -115 -49.5 -196t-140.5 -120q111 -39 173 -127.5t62 -214.5q0 -190 -122 -311t-320 -121q-192 0 -312 108t-128 287z" />
<glyph unicode="4" horiz-adv-x="1253" d="M119.5 327.5q-4.5 8.5 3.5 18.5l688 1057q11 18 31 18l80 -2q9 1 14.5 -5t5.5 -15v-993h176q19 0 19 -17v-53q0 -17 -19 -17h-176v-301q0 -18 -18 -18h-58q-16 0 -16 18v301h-643h-10h-60q-13 0 -17.5 8.5zM260 406h590v899z" />
<glyph unicode="5" d="M117 362q0 19 16 19h60q15 0 18 -19q9 -140 103 -222.5t243 -82.5q157 0 253.5 101.5t96.5 261.5q0 158 -100.5 258t-263.5 100q-151 0 -275 -133h-65q-9 0 -15 6t-6 15l51 733q4 22 25 22h627q18 0 18 -18v-47q0 -21 -18 -21h-568l-41 -573q126 106 269 106 q203 0 328.5 -124.5t125.5 -323.5q0 -200 -122 -326.5t-320 -126.5q-192 0 -312 108t-128 287z" />
<glyph unicode="6" horiz-adv-x="1103" d="M117 412q0 98 33 182q69 147 372 811q10 16 25 16h61q22 0 10 -28l-280 -609q96 58 215 58q197 0 315.5 -117t118.5 -313q0 -195 -119 -315t-315 -120q-195 0 -315.5 120t-120.5 315zM205 412q0 -157 95.5 -251.5t252.5 -94.5q154 0 250 96t96 250q0 157 -95.5 252.5 t-250.5 95.5q-153 0 -250.5 -96.5t-97.5 -251.5z" />
<glyph unicode="7" horiz-adv-x="989" d="M59 1354v49q0 18 19 18h829q29 0 19 -30l-518 -1373q-6 -18 -25 -18h-68q-16 0 -10 18l500 1317h-727q-19 0 -19 19z" />
<glyph unicode="8" horiz-adv-x="1148" d="M117 397q0 128 71.5 224t198.5 139q-91 40 -142.5 121t-51.5 186q0 167 105 270t275 103q172 0 277.5 -103t105.5 -270q0 -105 -51.5 -186t-142.5 -121q125 -43 197 -139t73 -224q0 -189 -126 -303t-333 -114q-205 0 -330.5 114.5t-125.5 302.5zM209 399 q0 -148 101 -238.5t265 -90.5t264.5 90.5t100.5 238.5q0 140 -101.5 230t-263.5 90t-264 -90t-102 -230zM283 1067q0 -118 81.5 -196t210.5 -78t210 78t81 196q0 129 -80 207t-211 78q-132 0 -212 -78t-80 -207z" />
<glyph unicode="9" horiz-adv-x="1103" d="M117 1006q0 195 119.5 314.5t314.5 119.5t315.5 -119.5t120.5 -314.5q0 -107 -53 -226l-354 -764q-8 -16 -27 -16h-59q-26 0 -13 27l283 604q-92 -56 -213 -56q-195 0 -314.5 118t-119.5 313zM207 1008q0 -157 94.5 -253t249.5 -96t251.5 97t96.5 252t-95.5 250.5 t-252.5 95.5q-154 0 -249 -96t-95 -250z" />
<glyph unicode=":" horiz-adv-x="487" d="M147 76q0 42 27 68t70 26t69.5 -25.5t26.5 -68.5q0 -41 -26.5 -67.5t-69.5 -26.5t-70 26.5t-27 67.5zM147 903q0 41 27 66.5t70 25.5t69.5 -25.5t26.5 -66.5q0 -43 -26.5 -69.5t-69.5 -26.5t-70 26.5t-27 69.5z" />
<glyph unicode=";" horiz-adv-x="522" d="M117 -291q-10 13 4 27q64 48 115.5 129.5t52.5 169.5q-8 -4 -17 -4q-40 0 -64 25t-24 65q0 41 24 65.5t64 24.5q65 0 84 -55q41 -112 -24 -260.5t-170 -214.5q-14 -8 -25 6zM170 903q0 41 26.5 66.5t69.5 25.5t68.5 -25.5t25.5 -66.5q0 -43 -25.5 -69.5t-68.5 -26.5 t-69.5 26.5t-26.5 69.5z" />
<glyph unicode="&#x3c;" horiz-adv-x="1103" d="M78 578v75q0 16 18 27l910 424q20 10 20 -10v-64q0 -16 -20 -26l-856 -390l856 -397q20 -10 20 -27v-63q0 -20 -20 -10l-910 434q-18 7 -18 27z" />
<glyph unicode="=" horiz-adv-x="1073" d="M156 440v54q0 16 18 16h725q19 0 19 -16v-54q0 -18 -19 -18h-725q-18 0 -18 18zM156 762v53q0 19 18 19h725q19 0 19 -19v-53q0 -17 -19 -17h-725q-18 0 -18 17z" />
<glyph unicode="&#x3e;" horiz-adv-x="1103" d="M78 127v63q0 16 18 27l856 397l-856 390q-18 11 -18 26v64q0 9 5 12t13 -2l910 -424q20 -10 20 -27v-75q0 -20 -20 -27l-910 -434q-8 -5 -13 -2t-5 12z" />
<glyph unicode="?" horiz-adv-x="1030" d="M127 1262q148 178 377 178q173 0 280 -105.5t107 -277.5q0 -75 -20.5 -137.5t-52.5 -106.5t-70.5 -83t-78 -74.5t-73 -71.5t-56 -84t-26.5 -103q0 -18 -16 -18h-64q-19 0 -16 18q2 65 24.5 120.5t56.5 94.5t74.5 75.5t80 73t72 76.5t52.5 96.5t19 123.5q0 132 -81 213.5 t-210 81.5q-190 0 -316 -156q-12 -15 -22 -2l-39 39q-14 14 -2 29zM387 66q0 38 24 61t62 23t61 -23t23 -61t-23 -62t-61 -24t-62 24t-24 62z" />
<glyph unicode="@" horiz-adv-x="1855" d="M117 633q0 179 61.5 329.5t172 255.5t269.5 163.5t349 58.5q169 0 312 -55t244 -153t157.5 -240t56.5 -310q0 -177 -87.5 -289t-228.5 -117q-164 0 -221 148q-40 -89 -119 -138.5t-188 -49.5q-163 0 -264 109.5t-103 285.5q0 177 101.5 285t265.5 108q98 0 172.5 -41.5 t118.5 -116.5l12 107q4 12 14 12h43q13 0 13 -12v-418q-2 -93 40.5 -145t123.5 -52q100 0 161.5 89.5t61.5 234.5q0 196 -87.5 349t-243.5 237t-355 84q-169 0 -311.5 -52t-242 -145.5t-155 -227t-55.5 -292.5q0 -322 210.5 -519.5t553.5 -197.5q139 0 259 48t202 130 q17 13 28 2l39 -43q12 -12 -2 -26q-205 -199 -526 -199q-253 0 -447 100t-299.5 282.5t-105.5 420.5zM616 629q-1 -138 78.5 -221.5t210.5 -83.5q130 0 201.5 87.5t71.5 221.5q0 132 -73.5 217.5t-199.5 85.5q-130 0 -209.5 -84.5t-79.5 -222.5z" />
<glyph unicode="A" horiz-adv-x="1320" d="M25 23l575 1378q9 18 25 18h69q19 0 25 -18l575 -1378q5 -11 3 -17.5t-13 -5.5h-63q-13 0 -19 12l-194 467h-697l-192 -465q-7 -14 -19 -14h-63q-22 0 -12 23zM346 563h627l-314 752z" />
<glyph unicode="B" horiz-adv-x="1230" d="M190 20v1379q0 22 23 22h379q208 -1 332 -91q125 -91 125 -248q1 -101 -59 -178q-60 -78 -171 -118q148 -37 231.5 -133t86.5 -239v-9q0 -180 -124 -291q-127 -114 -339 -114h-463q-21 0 -21 20zM283 84l383 2q171 0 274.5 90t103.5 238q-2 140 -100 232.5t-260 92.5 l-401 -2v-653zM283 809q253 0 333 2q159 0 249.5 77t90.5 195q0 116 -97.5 184t-266.5 68h-309v-526z" />
<glyph unicode="C" horiz-adv-x="1419" d="M94 709q0 169 57.5 308.5t156.5 231t230.5 141.5t280.5 50q143 0 277 -49t233 -142q12 -12 0 -26l-39 -35q-12 -12 -26 0q-181 162 -445 162q-283 0 -457 -176.5t-174 -464.5q0 -287 173.5 -462t457.5 -177q263 2 447 161q12 12 24 0l43 -36q13 -13 -2 -27 q-197 -188 -512 -188q-160 0 -295 53.5t-229.5 148.5t-147.5 231t-53 296z" />
<glyph unicode="D" horiz-adv-x="1398" d="M190 20v1381q0 20 21 20h364q329 0 528.5 -194t199.5 -519q-1 -321 -199 -514q-200 -194 -529 -194h-364q-21 0 -21 20zM283 86h292q289 0 463 170t174 455q-1 285 -174.5 454.5t-462.5 169.5l-292 2v-1251z" />
<glyph unicode="E" horiz-adv-x="1067" d="M190 20v1381q0 20 21 20h739q19 0 19 -18v-51q0 -17 -17 -17h-669v-567h571q18 0 18 -16v-54q0 -16 -18 -16h-571v-596h688q18 0 18 -16v-54q0 -16 -18 -16h-760q-21 0 -21 20z" />
<glyph unicode="F" horiz-adv-x="1028" d="M190 20v1379q0 22 23 22h739q19 0 19 -18v-49q0 -19 -21 -19h-667v-567h571q18 0 18 -18v-50q0 -18 -18 -18h-571v-662q0 -20 -19 -20h-55q-19 0 -19 20z" />
<glyph unicode="G" horiz-adv-x="1552" d="M94 711q0 327 201.5 528t529.5 201q299 0 504 -189q13 -13 2 -24l-41 -39q-11 -11 -26 0q-176 162 -439 162q-287 0 -463 -176q-174 -175 -174 -460q0 -290 167.5 -466t441.5 -176q260 0 406 146.5t165 418.5h-524q-19 0 -19 18v50q0 18 19 18h594q9 0 14.5 -5.5 t3.5 -12.5q-5 -347 -175 -535q-169 -188 -481 -188h-3q-317 0 -510 200.5t-193 528.5z" />
<glyph unicode="H" horiz-adv-x="1380" d="M190 18v1385q0 18 19 18h57q17 0 17 -18v-635h815v635q0 18 18 18h58q16 0 16 -18v-1385q0 -18 -19 -18h-57q-16 0 -16 18v664h-815v-664q0 -18 -19 -18h-55q-19 0 -19 18z" />
<glyph unicode="I" horiz-adv-x="473" d="M190 16v1387q0 18 19 18h55q19 0 19 -18v-1387q0 -16 -19 -16h-55q-19 0 -19 16z" />
<glyph unicode="J" horiz-adv-x="798" d="M35 121l28 47q10 17 27 4q130 -100 227 -102q195 3 201 249l-2 1084q0 18 19 18h55q18 0 18 -18l2 -1086q1 -155 -78 -245t-219 -92q-60 1 -121.5 25t-94 46t-58.5 45q-11 7 -4 25z" />
<glyph unicode="K" horiz-adv-x="1122" d="M190 16v1387q0 18 19 18h55q19 0 19 -18v-676l641 682q16 12 24 12h78q30 0 8 -22l-651 -688l713 -688q23 -23 -9 -23h-83q-17 0 -27 10l-694 684v-678q0 -16 -19 -16h-55q-19 0 -19 16z" />
<glyph unicode="L" horiz-adv-x="923" d="M190 18v1385q0 18 19 18h55q19 0 19 -18v-1317h563q18 0 18 -18v-52q0 -16 -18 -16h-637q-19 0 -19 18z" />
<glyph unicode="M" horiz-adv-x="1769" d="M190 25v1372q0 24 23 24h59q15 0 23 -16l586 -1102l594 1104q8 14 22 14h64q18 0 18 -20v-1383q0 -18 -18 -18h-56q-18 0 -18 20v1217l-553 -1008q-8 -13 -21 -16h-63q-13 0 -23 14l-544 1008v-1215q0 -20 -19 -20h-51q-10 0 -16.5 7t-6.5 18z" />
<glyph unicode="N" horiz-adv-x="1484" d="M190 18v1383q0 20 21 20h74q13 0 24 -14l893 -1274v1270q0 18 19 18h57q16 0 16 -18v-1383q0 -20 -20 -20h-76q-15 0 -24 12l-891 1270v-1264q0 -18 -19 -18h-55q-19 0 -19 18z" />
<glyph unicode="O" horiz-adv-x="1648" d="M94 711q0 327 201.5 528t529.5 201q217 0 382 -91t255 -256.5t90 -381.5q0 -329 -199.5 -529t-527.5 -200q-329 0 -530 200.5t-201 528.5zM363.5 248q175.5 -176 461.5 -176t460.5 176t174.5 463t-174.5 463t-460.5 176q-287 0 -463 -176q-175 -175 -174 -460 q0 -290 175.5 -466z" />
<glyph unicode="P" horiz-adv-x="1153" d="M190 18v1381q0 22 21 22h424q210 0 333 -108t124 -295q-1 -187 -124.5 -296.5t-332.5 -109.5h-350l-2 -594q0 -18 -19 -18h-55q-19 0 -19 18zM285 698h354q168 0 263 85.5t95 232.5q1 148 -95 234q-94 85 -259 85h-4h-354v-637z" />
<glyph unicode="Q" horiz-adv-x="1648" d="M94 711q0 327 201.5 528t529.5 201q217 0 382 -91t255 -256.5t90 -381.5q0 -244 -114.5 -422.5t-315.5 -255.5l389 -219q17 -11 7 -25l-33 -51q-11 -15 -27 -2l-448 264q-86 -18 -185 -18q-329 0 -530 200.5t-201 528.5zM188 711q0 -287 175.5 -463t461.5 -176t460.5 176 t174.5 463t-174.5 463t-460.5 176q-287 0 -462 -176t-175 -463z" />
<glyph unicode="R" horiz-adv-x="1148" d="M190 18v1383q0 20 21 20h401q211 0 334.5 -108t124.5 -295q-1 -176 -110.5 -284t-296.5 -120l380 -591q14 -23 -10 -23h-78q-11 0 -18 10l-377 602h-276v-594q0 -18 -19 -18h-57q-19 0 -19 18zM285 698h331q169 0 265 85.5t96 232.5q0 148 -96 234q-95 85 -261 85h-4 h-331v-637z" />
<glyph unicode="S" horiz-adv-x="1157" d="M100 178l31 49q10 19 29 0q25 -23 57 -44.5t86.5 -49.5t131.5 -45t163 -18q169 0 269 78.5t100 207.5q0 117 -90.5 179.5t-323.5 119.5q-236 59 -336.5 148.5t-103.5 245.5v10q-1 104 57 190q60 90 171 141q108 50 242 50h5q84 -1 157 -16.5t122 -40t76.5 -43t47.5 -37.5 q14 -11 8 -27l-26 -55q-8 -16 -27 -2q-150 129 -368 129q-160 0 -266.5 -83.5t-106.5 -209.5v-6q0 -60 21 -104q22 -46 76.5 -82t127.5 -62.5t193 -57.5q231 -61 331.5 -142.5t104.5 -221.5v-17q0 -168 -116 -272q-121 -110 -353 -110h-4q-100 1 -187.5 20.5t-146.5 51 t-91 54.5t-55 46q-15 11 -6 26z" />
<glyph unicode="T" horiz-adv-x="1091" d="M18 1354v49q0 18 19 18h1018q18 0 18 -18v-49q0 -19 -18 -19h-463v-1319q0 -16 -17 -16h-57q-18 0 -18 16v1319h-463q-19 0 -19 19z" />
<glyph unicode="U" horiz-adv-x="1392" d="M190 557v844q0 18 19 18h55q19 0 19 -18v-846q0 -227 112.5 -355t302.5 -128q187 0 298.5 127.5t111.5 355.5v848q0 16 18 16h58q18 0 18 -16v-848q0 -268 -137.5 -420.5t-366.5 -152.5h-6q-228 0 -364 151q-138 153 -138 424z" />
<glyph unicode="V" horiz-adv-x="1284" d="M27 1395q-9 24 12 24h70q13 0 20 -14l514 -1294l512 1294q7 14 21 14h69q19 0 10 -24l-557 -1377q-6 -18 -24 -18h-66q-15 0 -24 18z" />
<glyph unicode="W" horiz-adv-x="1746" d="M27 1399q-6 22 12 22h61q18 0 21 -14l356 -1257l342 1255q4 16 21 16h65q17 0 21 -16l344 -1260l356 1262q5 14 19 14h63q18 0 12 -22l-401 -1383q-6 -16 -25 -16h-53q-19 0 -24 16l-345 1274l-344 -1274q-3 -16 -20 -16h-55q-19 0 -25 16z" />
<glyph unicode="X" horiz-adv-x="1153" d="M29 20l487 687l-471 694q-14 20 10 20h78q16 0 25 -12l413 -623l443 621q6 12 24 12h72q26 0 14 -18l-499 -694l471 -689q12 -18 -13 -18h-77q-14 0 -23 12l-414 617l-430 -617q-9 -12 -26 -12h-72q-23 0 -12 20z" />
<glyph unicode="Y" d="M29 1399q-11 20 14 20h68q18 0 26 -16l418 -741l426 741q10 16 27 16h69q21 0 8 -22l-485 -824v-557q0 -16 -18 -16h-56q-18 0 -18 16v555z" />
<glyph unicode="Z" horiz-adv-x="1146" d="M57.5 9q-5.5 9 3.5 24l852 1300h-817q-18 0 -18 19v51q0 16 18 16h944q17 0 22.5 -9t-3.5 -24l-852 -1300h864q16 0 16 -18v-50q0 -18 -16 -18h-991q-17 0 -22.5 9z" />
<glyph unicode="[" horiz-adv-x="679" d="M156 -311v1712q0 20 20 20h369q18 0 18 -16v-47q0 -19 -18 -19h-301v-1589h301q18 0 18 -18v-45q0 -19 -18 -19l-369 2q-20 0 -20 19z" />
<glyph unicode="\" horiz-adv-x="751" d="M25 1456q-10 23 12 23h57q13 0 19 -15l622 -1439q11 -25 -10 -25h-57q-16 0 -19 14z" />
<glyph unicode="]" horiz-adv-x="679" d="M117 -266q0 18 18 18h301v1587h-301q-18 0 -18 19v47q0 16 18 16h369q20 0 20 -20v-1712q0 -19 -20 -19h-369q-18 0 -18 17v47z" />
<glyph unicode="^" horiz-adv-x="1169" d="M125 553l391 848q11 18 29 18h78q21 0 28 -18l393 -848q10 -23 -12 -23h-63q-15 0 -21 15l-364 798l-365 -798q-6 -15 -20 -15h-62q-25 0 -12 23z" />
<glyph unicode="_" horiz-adv-x="1189" d="M117 -215q0 18 18 18h920q18 0 18 -16v-45q0 -16 -18 -16h-920q-18 0 -18 18v41z" />
<glyph unicode="`" horiz-adv-x="538" d="M86 1389l47 61q13 14 27 0l293 -258q8 -8 0 -21l-29 -28q-9 -12 -23 -2l-311 225q-14 10 -4 23z" />
<glyph unicode="a" horiz-adv-x="1181" d="M78 455q0 212 128 342.5t337 130.5q140 0 244 -62.5t157 -173.5l12 199q3 18 19 18h37q16 0 16 -18v-875q0 -16 -18 -16h-35q-19 0 -19 16l-12 199q-53 -110 -157.5 -172.5t-243.5 -62.5q-209 0 -337 131t-128 344zM162 455q0 -175 107 -283.5t280 -108.5 q175 0 283.5 107.5t111.5 284.5q-2 175 -110 282t-285 107q-173 0 -280 -107t-107 -282z" />
<glyph unicode="b" horiz-adv-x="1191" d="M164 16v1444q0 19 16 19h51q17 0 17 -19v-768q53 112 157.5 174t245.5 62q207 0 335 -130.5t128 -342.5t-128 -343.5t-335 -131.5q-141 0 -245.5 62.5t-157.5 174.5l-12 -201q-3 -16 -21 -16h-33q-18 0 -18 16zM248 457q0 -176 110 -285t285 -109q173 0 281 108.5 t108 283.5t-107 282t-282 107t-285 -107t-110 -280z" />
<glyph unicode="c" horiz-adv-x="1019" d="M78 455q0 115 40.5 207.5t108 149.5t151 87.5t173.5 30.5q118 0 222.5 -50.5t168.5 -146.5q10 -16 -2 -26l-37 -33q-14 -11 -26 6q-50 74 -132.5 120t-195.5 46q-173 0 -280 -108t-107 -283t107 -283.5t280 -108.5q111 0 196 46t132 120q12 19 24 7l41 -35q10 -10 0 -27 q-61 -92 -162.5 -143t-230.5 -51q-211 0 -341 131.5t-130 343.5z" />
<glyph unicode="d" horiz-adv-x="1191" d="M78 455q0 212 128 342.5t337 130.5q139 0 243.5 -62t157.5 -172v766q0 19 17 19h51q16 0 16 -19v-1444q0 -16 -16 -16h-35q-16 0 -19 16l-14 199q-53 -110 -157.5 -172.5t-243.5 -62.5q-209 0 -337 131t-128 344zM162 455q0 -175 107 -283.5t280 -108.5q175 0 285 109 t110 285q0 173 -110 280t-285 107q-173 0 -280 -107t-107 -282z" />
<glyph unicode="e" horiz-adv-x="1099" d="M78 455q0 212 130 342.5t341 130.5q218 0 345.5 -133t127.5 -359q0 -20 -21 -20h-837q12 -159 123 -256t284 -97q197 0 303 119q16 16 29 4l39 -36q12 -12 -2 -25q-132 -145 -369 -145q-221 0 -357 131.5t-136 343.5zM164 494h772q-12 159 -117 254.5t-270 95.5 q-164 0 -268.5 -95.5t-116.5 -254.5z" />
<glyph unicode="f" horiz-adv-x="610" d="M12 848v41q0 18 19 18h180v260v10q0 153 60 237q62 87 180 87q16 0 32.5 -2t31.5 -5.5t27.5 -7.5t26 -10t22.5 -10.5t20.5 -11.5t16.5 -10t14.5 -9.5t10.5 -7.5q11 -11 4 -24l-28 -45q-7 -14 -25 -2q-78 61 -151 61q-77 0 -117 -60.5t-41 -199.5l2 -250h256q18 0 18 -18 v-41q0 -19 -18 -19h-256v-811q0 -18 -18 -18h-50q-16 0 -16 18l-2 811h-180q-19 0 -19 19z" />
<glyph unicode="g" horiz-adv-x="1181" d="M78 455q0 211 128 342t337 131q143 0 247 -64t156 -178l15 205q3 16 18 16h35q16 0 16 -16l2 -903q1 -211 -129 -342t-332 -131q-197 2 -376 102q-13 10 -7 25l27 47q9 12 23 4q76 -44 149 -67t184 -27q167 0 271.5 103t105.5 275v246q-53 -115 -157.5 -179t-247.5 -64 q-209 0 -337 131t-128 344zM162 455q0 -177 106.5 -284.5t280.5 -107.5h6q173 0 281 107q110 108 110 285q0 173 -111 281t-286 108q-173 0 -280 -108t-107 -281z" />
<glyph unicode="h" horiz-adv-x="1114" d="M164 16v1444q0 19 16 19h51q17 0 17 -19v-772q42 111 129 175.5t215 64.5q170 0 266 -100.5t96 -305.5v-504q0 -18 -14 -18h-53q-17 0 -17 18v506q0 161 -74.5 240.5t-211.5 79.5q-141 0 -234 -107.5t-102 -271.5l2 -449q0 -16 -17 -16h-53q-16 0 -16 16z" />
<glyph unicode="i" horiz-adv-x="423" d="M127 1255q0 38 24 61t62 23t61 -23t23 -61t-23 -62t-61 -24t-62 24t-24 62zM170 16v875q0 16 16 16h52q16 0 16 -16v-875q0 -16 -16 -16h-52q-16 0 -16 16z" />
<glyph unicode="j" horiz-adv-x="483" d="M-139 -397l26 43q7 11 29 2q80 -51 156 -51q159 0 159 258v1034q0 18 17 18h51q16 0 16 -18l2 -1043q0 -158 -60.5 -245.5t-180.5 -87.5q-115 2 -209 63q-16 10 -6 27zM182 1255q0 38 24 61t62 23t62 -23t24 -61t-24 -62t-62 -24t-62 24t-24 62z" />
<glyph unicode="k" horiz-adv-x="882" d="M164 16v1446q0 17 18 17h47q19 0 19 -17v-956l428 391q13 10 26 10h80q15 0 18 -5.5t-9 -16.5l-449 -398l514 -467q10 -9 7.5 -14.5t-17.5 -5.5h-80q-17 0 -27 10l-491 451v-445q0 -16 -17 -16h-51q-16 0 -16 16z" />
<glyph unicode="l" horiz-adv-x="423" d="M170 16v1446q0 17 16 17h52q16 0 16 -17v-1446q0 -16 -16 -16h-52q-16 0 -16 16z" />
<glyph unicode="m" horiz-adv-x="1693" d="M164 18v871q0 18 18 18h33q18 0 21 -16l12 -199q39 109 117 172.5t192 63.5q122 0 203.5 -63t109.5 -191q40 117 124 185.5t204 68.5q155 0 243.5 -100.5t88.5 -305.5v-504q0 -18 -14 -18h-52q-18 0 -18 18v506q0 161 -66.5 240.5t-189.5 79.5q-132 0 -215 -112.5 t-86 -289.5v-424q0 -18 -17 -18h-51q-16 0 -16 18v506q0 161 -66.5 240.5t-189.5 79.5q-127 0 -210 -109t-91 -272l2 -445q0 -18 -19 -18h-49q-18 0 -18 18z" />
<glyph unicode="n" horiz-adv-x="1114" d="M164 16v875q0 16 16 16h37q16 0 19 -16l12 -207q40 112 127.5 178t216.5 66q170 0 266 -100.5t96 -305.5v-504q0 -18 -16 -18h-51q-17 0 -17 18v506q0 161 -74.5 240.5t-211.5 79.5q-142 0 -234.5 -109t-101.5 -272l2 -447q0 -16 -17 -16h-51q-18 0 -18 16z" />
<glyph unicode="o" horiz-adv-x="1099" d="M78 455q0 212 130 342.5t341 130.5q212 0 342.5 -130.5t130.5 -342.5t-130.5 -343.5t-342.5 -131.5q-211 0 -341 131.5t-130 343.5zM162 455q0 -175 106.5 -283.5t280.5 -108.5t281.5 108.5t107.5 283.5t-107 282t-282 107q-173 0 -280 -107t-107 -282z" />
<glyph unicode="p" horiz-adv-x="1191" d="M164 -449v1338q0 18 18 18h33q18 0 21 -18l12 -201q53 114 157.5 177t245.5 63q209 0 337 -131t128 -342q0 -213 -128 -344t-337 -131q-140 0 -245 63.5t-158 175.5v-668q0 -18 -17 -18h-49q-18 0 -18 18zM248 455q0 -175 110 -283.5t287 -108.5q174 0 281 108 q106 107 106 281q0 176 -107 284t-280 108q-177 0 -287 -107.5t-110 -281.5z" />
<glyph unicode="q" horiz-adv-x="1193" d="M78 455q0 211 128 342t337 131q141 0 245.5 -63t157.5 -177l12 201q3 18 21 18h33q18 0 18 -18v-1338q0 -18 -18 -18h-49q-17 0 -17 18v668q-53 -112 -158 -175.5t-245 -63.5q-209 0 -337 131t-128 344zM160 455q0 -177 107 -284.5t282 -107.5q178 0 287.5 108t109.5 284 q0 174 -110.5 281.5t-286.5 107.5q-174 0 -281.5 -107.5t-107.5 -281.5z" />
<glyph unicode="r" horiz-adv-x="714" d="M164 16v875q0 16 16 16h37q16 0 19 -16l6 -129q44 72 114 117.5t156 46.5q66 0 150 -25q19 -4 12 -20l-19 -56q-3 -14 -18 -8q-72 25 -139 25q-79 0 -147 -57t-103 -154v-615q0 -16 -15 -16h-53q-16 0 -16 16z" />
<glyph unicode="s" horiz-adv-x="835" d="M82 106l24 44q7 14 23 4q125 -91 285 -91q114 0 185 48t71 120q0 76 -61.5 113t-209.5 76q-164 42 -231 96t-70 154v7q0 111 89 181q91 72 237 72h4q157 0 268 -86q13 -7 6 -25l-20 -43q-6 -15 -23 -6q-112 78 -239 78q-107 0 -172.5 -46t-65.5 -120q0 -32 11.5 -56.5 t28.5 -41t56 -32.5t72 -26t99 -28q161 -45 231.5 -98.5t73.5 -157.5v-7q0 -111 -93 -181q-95 -72 -249 -72h-4q-116 0 -196.5 31.5t-123.5 68.5q-13 8 -6 24z" />
<glyph unicode="t" horiz-adv-x="677" d="M41 848v43q0 16 18 16h181l2 318q0 18 16 18h49q19 0 19 -18l-2 -318h260q18 0 18 -16v-43q0 -19 -18 -19h-260v-503q1 -100 20 -160t47.5 -81t71.5 -22q57 0 121 58q11 11 22 0l33 -45q11 -15 -6 -25q-80 -69 -178 -69q-107 0 -162 86q-53 83 -53 234v11v516h-181 q-18 0 -18 19z" />
<glyph unicode="u" d="M162 385v504q0 18 16 18h51q17 0 17 -18v-506q0 -161 74.5 -240.5t211.5 -79.5q142 0 235 109t101 272v447q0 16 17 16h51q16 0 16 -16v-875q0 -16 -16 -16h-35q-18 0 -18 16l-13 207q-42 -113 -129 -178t-215 -65q-170 0 -267 100t-97 305z" />
<glyph unicode="v" horiz-adv-x="948" d="M29 885q-7 22 12 22h65q14 0 21 -14l348 -803l348 803q3 14 21 14h63q22 0 13 -22l-390 -867q-6 -18 -24 -18h-62q-17 0 -26 18z" />
<glyph unicode="w" horiz-adv-x="1316" d="M29 887q-6 20 10 20h65q15 0 21 -16l244 -799l239 799q6 16 21 16h59q15 0 21 -16l239 -799l246 799q6 16 20 16h64q17 0 10 -20l-282 -871q-6 -16 -27 -16h-61q-22 0 -25 16l-234 777l-233 -777q-6 -16 -27 -16h-61q-19 0 -25 16z" />
<glyph unicode="x" horiz-adv-x="872" d="M47 887q-13 20 10 20h74q17 0 25 -14l276 -373l283 371q13 16 30 16h70q25 0 8 -22l-342 -430l332 -435q14 -20 -8 -20h-74q-19 0 -26 12l-277 371l-270 -369q-11 -14 -29 -14h-70q-24 0 -10 23l328 426z" />
<glyph unicode="y" horiz-adv-x="907" d="M35 881q-13 26 12 26h59q16 0 23 -18l328 -776l321 776q7 18 23 18h59q25 0 12 -26l-555 -1330q-7 -18 -24 -18h-51q-26 0 -11 27l185 450z" />
<glyph unicode="z" horiz-adv-x="923" d="M99.5 9q-5.5 9 4.5 24l576 796h-545q-16 0 -16 17v45q0 16 16 16h660q19 0 23.5 -10t-7.5 -25l-575 -794h573q16 0 16 -17v-45q0 -16 -16 -16h-686q-18 0 -23.5 9z" />
<glyph unicode="{" horiz-adv-x="739" d="M156 516v57q0 15 14 15q59 3 100 62t41 159v336q0 35 3.5 66.5t16 71.5t33.5 68.5t60 48t92 19.5h88q19 0 19 -16v-49q0 -19 -19 -19h-84q-121 0 -121 -190v-328q0 -204 -133 -274q60 -32 96.5 -100.5t36.5 -172.5v-327q-3 -193 121 -193h84q19 0 19 -16v-49 q0 -19 -19 -19h-88q-53 0 -92 20t-60 48.5t-33.5 69t-16 72.5t-3.5 67v333q0 101 -41 160t-100 62q-14 4 -14 18z" />
<glyph unicode="|" horiz-adv-x="442" d="M178 -449v1909q0 19 19 19h51q16 0 16 -19v-1909q0 -18 -16 -18h-51q-19 0 -19 18z" />
<glyph unicode="}" horiz-adv-x="739" d="M117 -266q0 16 18 16h84q121 3 121 193v327q0 104 36.5 172.5t96.5 100.5q-133 70 -133 274v328q0 190 -121 190h-84q-18 0 -18 19v49q0 16 18 16h88q53 0 92 -19.5t60 -48t33.5 -68.5t16 -71.5t3.5 -66.5v-336q0 -100 41 -159t100 -62q15 0 15 -17v-57q0 -12 -15 -16 q-59 -3 -100 -62t-41 -160v-333q0 -35 -3.5 -67t-16 -72.5t-33.5 -69t-60 -48.5t-92 -20h-88q-18 0 -18 19v49z" />
<glyph unicode="~" horiz-adv-x="1132" d="M84 424q40 113 112.5 175.5t163.5 62.5q64 0 114.5 -22.5t82.5 -54t62.5 -63t70.5 -53t90 -20.5q41 1 74.5 17t57.5 45.5t40 58t31 67.5q10 25 27 8l34 -39q10 -10 7 -24q-39 -109 -112 -171.5t-167 -62.5q-63 0 -112.5 22.5t-82.5 54.5t-63.5 63.5t-71.5 53t-90 19.5 q-41 -1 -75 -17.5t-57.5 -46.5t-39.5 -59.5t-30 -68.5q-3 -12 -10.5 -15t-16.5 6l-35 37q-11 11 -4 27z" />
<glyph unicode="&#xa1;" horiz-adv-x="512" d="M172 1356q0 37 23.5 60.5t60.5 23.5q38 0 61 -23.5t23 -60.5q0 -38 -23 -61t-61 -23q-37 0 -60.5 23t-23.5 61zM207 18l4 998q0 18 18 18h56q16 0 16 -18l4 -998q0 -18 -16 -18h-64q-18 0 -18 18z" />
<glyph unicode="&#xa2;" horiz-adv-x="1019" d="M78 455q0 114 40 206t106.5 149.5t149.5 88t173 31.5h33l32 182q4 18 21 18h45q18 0 14 -18l-37 -192q188 -38 289 -189q9 -13 -2 -24l-39 -35q-13 -11 -26 8q-88 125 -236 156l-143 -770q24 -3 51 -3q111 0 196 46t132 120q12 19 24 7l41 -35q12 -12 2 -25 q-62 -93 -164 -144.5t-231 -51.5q-22 0 -68 4l-35 -187q-3 -18 -20 -18h-45q-17 0 -14 18l39 201q-152 42 -240 163.5t-88 293.5zM162 455q0 -139 69 -238.5t189 -134.5l143 762h-22q-170 -2 -274.5 -109t-104.5 -280z" />
<glyph unicode="&#xa3;" horiz-adv-x="1069" d="M117 662v53q0 16 18 16h137q-4 11 -15.5 42t-17 46t-14.5 45.5t-13 54t-7.5 57t-3.5 68.5q0 176 101 286t271 110q226 0 373 -176q14 -17 2 -29l-37 -41q-13 -16 -30 4q-53 67 -131.5 110.5t-178.5 43.5q-127 0 -202.5 -85.5t-77.5 -222.5q0 -45 8.5 -91t17.5 -74t27 -77 t25 -71h313q18 0 18 -16v-53q0 -19 -18 -19h-291q42 -218 -102 -557h602q18 0 18 -18v-52q0 -16 -18 -16h-713q-22 0 -12 23q57 124 91.5 222t46.5 171t11 125.5t-14 101.5h-166q-18 0 -18 19z" />
<glyph unicode="&#xa4;" horiz-adv-x="1196" d="M143 922l47 47q14 11 27 -2l107 -109q110 96 280 96q159 0 270 -90l105 109q15 15 27 2l49 -47q11 -12 -4 -27l-111 -106q78 -104 78 -256q0 -161 -90 -275l119 -112q16 -14 2 -25l-48 -49q-12 -12 -26 2l-117 121q-105 -76 -254 -76q-148 0 -252 72l-116 -123 q-14 -14 -27 -2l-47 49q-11 11 2 24l119 115q-97 111 -97 279q0 142 74 249l-115 107q-15 15 -2 27zM279 539q0 -145 89 -234.5t236 -89.5q145 0 233.5 89.5t88.5 234.5q0 146 -88.5 234.5t-233.5 88.5q-148 0 -236.5 -88.5t-88.5 -234.5z" />
<glyph unicode="&#xa5;" horiz-adv-x="1146" d="M45 1397q-14 22 16 22h62q19 0 29 -16l417 -741l426 741q10 16 31 16h61q12 0 16.5 -5.5t-1.5 -16.5l-475 -805l4 -19h301q18 0 18 -16v-39q0 -18 -18 -18h-316v-158h316q18 0 18 -18v-37q0 -19 -18 -19h-316v-250q0 -18 -18 -18h-55q-19 0 -19 18v250h-317q-19 0 -19 19 v37q0 18 19 18h317v158h-317q-19 0 -19 18v37q0 18 19 18h303l2 17z" />
<glyph unicode="&#xa6;" horiz-adv-x="446" d="M180 236q0 18 19 18h51q16 0 16 -18v-685q0 -18 -16 -18h-51q-19 0 -19 18v685zM180 776v684q0 19 19 19h51q16 0 16 -19v-684q0 -18 -16 -18h-51q-19 0 -19 18z" />
<glyph unicode="&#xa7;" horiz-adv-x="1036" d="M98 -100l27 45q7 15 27 2q30 -27 69 -51.5t123.5 -50t179.5 -25.5q57 0 109 13t97 39t72 72.5t27 106.5q0 102 -73.5 156t-270.5 102q-202 51 -289 128t-90 210q-6 140 105 234q-102 78 -105 221q-5 145 112 242t298 96q71 -1 133 -14t104.5 -33.5t67 -37t41.5 -32.5 q12 -9 6 -27l-22 -45q-8 -15 -27 -4q-113 101 -311 101q-130 0 -219.5 -64.5t-89.5 -175.5q-1 -45 12.5 -80t38.5 -61.5t69.5 -49t96.5 -40t129 -37.5q201 -54 287.5 -123.5t89.5 -190.5q3 -157 -107 -250q110 -80 107 -225q-1 -82 -36.5 -146t-93.5 -102t-129 -57t-149 -18 q-85 1 -159.5 17.5t-125.5 43t-78.5 45.5t-48.5 39q-14 14 -4 27zM199 653q-1 -56 18 -96t65.5 -70.5t105.5 -52t157 -47.5q106 -26 184 -61q46 32 73 79.5t27 102.5q0 101 -73 153.5t-271 100.5q-127 32 -196 67q-90 -68 -90 -176z" />
<glyph unicode="&#xa8;" horiz-adv-x="729" d="M106 1348q0 41 25 66.5t66 25.5q40 0 65 -25.5t25 -66.5q0 -40 -25 -65.5t-65 -25.5q-41 0 -66 25.5t-25 65.5zM442 1348q0 41 24.5 66.5t65.5 25.5q40 0 65.5 -25.5t25.5 -66.5q0 -40 -25.5 -65.5t-65.5 -25.5q-41 0 -65.5 25.5t-24.5 65.5z" />
<glyph unicode="&#xa9;" horiz-adv-x="1691" d="M117 709q0 218 90.5 384t256 256.5t382.5 90.5q328 0 528.5 -201t200.5 -530q0 -327 -201 -528t-528 -201q-328 0 -528.5 201t-200.5 528zM197 709q0 -292 178.5 -470t470.5 -178t470.5 178t178.5 470q0 293 -178.5 472t-470.5 179t-470.5 -179.5t-178.5 -471.5zM463 709 q0 103 40 184t103 127.5t143 67t158 10.5t150 -50.5t117 -107.5q9 -16 0 -25l-35 -30q-10 -10 -23 6q-91 129 -264 129q-139 0 -224 -85.5t-85 -225.5q0 -139 85.5 -225.5t223.5 -86.5q88 0 156 35t106 90q14 17 25 8l35 -32q10 -7 0 -23q-50 -74 -134 -116t-188 -42 q-174 0 -281.5 108.5t-107.5 283.5z" />
<glyph unicode="&#xaa;" horiz-adv-x="886" d="M70 1098q0 154 91 248t240 94q91 0 166 -38t121 -106l6 111q0 18 19 18h35q16 0 16 -18v-616q0 -21 -16 -21h-35q-19 0 -19 18l-8 113q-45 -68 -120 -106.5t-165 -38.5q-149 0 -240 94.5t-91 247.5zM147 1098q0 -121 74 -195t193 -74q120 0 195 74.5t75 194.5t-75 194 t-195 74q-119 0 -193 -73.5t-74 -194.5z" />
<glyph unicode="&#xab;" horiz-adv-x="1052" d="M156 537v18q0 19 14 33l272 303q14 17 27 4l39 -39q11 -14 -4 -29l-258 -282l258 -281q14 -14 4 -26l-39 -39q-14 -14 -27 2l-272 303q-14 14 -14 33zM508 537v18q0 21 12 33l275 303q12 15 26 4l39 -39q11 -14 -4 -29l-258 -282l258 -281q15 -15 4 -26l-39 -39 q-14 -14 -26 2l-275 303q-12 16 -12 33z" />
<glyph unicode="&#xac;" horiz-adv-x="1275" d="M156 711v51q0 18 18 18h928q18 0 18 -20v-391q0 -19 -18 -19h-51q-19 0 -19 19v323h-858q-18 0 -18 19z" />
<glyph unicode="&#xad;" horiz-adv-x="681" />
<glyph unicode="&#xae;" horiz-adv-x="1662" d="M102 709q0 218 90.5 384t256 256.5t382.5 90.5q328 0 529 -201t201 -530q0 -327 -201.5 -528t-528.5 -201q-328 0 -528.5 201t-200.5 528zM182 709q0 -292 178.5 -470t470.5 -178t471 179t179 469q0 292 -179 471.5t-471 179.5t-470.5 -179.5t-178.5 -471.5zM580 346v735 q0 21 22 21h248q118 0 184 -58t66 -163q0 -95 -57.5 -148t-161.5 -59l209 -326q7 -10 4.5 -16t-13.5 -6h-59q-12 0 -23 14l-204 332h-133v-326q-3 -20 -19 -20h-45q-18 0 -18 20zM662 752l190 -2q168 0 168 131q0 68 -44.5 105.5t-123.5 37.5l-190 -2v-270z" />
<glyph unicode="&#xaf;" horiz-adv-x="665" d="M82 1350v53q0 18 16 18h469q17 0 17 -18v-53q0 -19 -17 -19h-469q-16 0 -16 19z" />
<glyph unicode="&#xb0;" horiz-adv-x="864" d="M117 1124q0 143 86.5 229.5t228.5 86.5q140 0 228 -87t88 -229q0 -139 -88 -226t-228 -87q-142 0 -228.5 86.5t-86.5 226.5zM199 1124q0 -104 63.5 -167.5t169.5 -63.5q105 0 169.5 63.5t64.5 167.5q0 105 -64.5 169.5t-169.5 64.5q-104 0 -168.5 -64t-64.5 -170z" />
<glyph unicode="&#xb1;" horiz-adv-x="1206" d="M156 745v52q0 18 18 18h385v346q0 19 19 19h55q18 0 18 -19v-346h381q19 0 19 -16v-54q0 -18 -19 -18h-381v-346q0 -19 -18 -19h-58q-16 0 -16 19v346h-385q-18 0 -18 18zM162 125v53q0 19 18 19h846q18 0 18 -19v-53q0 -16 -18 -16h-846q-18 0 -18 16z" />
<glyph unicode="&#xb2;" horiz-adv-x="688" d="M57.5 526.5q-2.5 8.5 8.5 20.5q31 34 131 148t184 211l84 98q1 1 8 9t10.5 12.5t12 14.5t13 18t11.5 20t11 24t8.5 26t6 29t1.5 31q0 77 -48 124.5t-126 47.5q-120 0 -195 -92q-11 -14 -22 0l-31 37q-11 13 2 26q95 109 235 109q118 0 192.5 -64.5t74.5 -197.5 q1 -69 -26 -125.5t-54 -83.5q-228 -250 -334 -373h387q19 0 19 -16v-43q0 -19 -19 -19h-524q-18 0 -20.5 8.5z" />
<glyph unicode="&#xb3;" horiz-adv-x="679" d="M59 745q-3 19 17 19h47q16 0 16 -14q8 -77 62.5 -123.5t138.5 -46.5q89 0 145 54t56 142q0 82 -47 131t-127 51h-80q-19 0 -19 19v35q0 18 19 18h61q76 0 120 42.5t44 123.5q0 73 -45 118.5t-117 45.5q-107 0 -184 -90q-11 -15 -21 -2l-32 39q-11 11 0 22q93 111 237 111 q109 0 176.5 -67.5t67.5 -176.5q0 -136 -102 -199q62 -28 96.5 -85t34.5 -136q0 -120 -78.5 -198t-204.5 -78q-121 0 -198 67.5t-83 177.5z" />
<glyph unicode="&#xb4;" horiz-adv-x="540" d="M88 1167q-12 13 0 25l293 256q16 12 25 0l47 -59q12 -15 -2 -25l-314 -227q-14 -12 -26 0z" />
<glyph unicode="&#xb5;" d="M164 -446v1335q0 18 18 18h49q17 0 17 -18v-516q3 -156 78 -233t211 -77q140 0 232.5 109t100.5 272v445q0 18 19 18h47q18 0 18 -18l2 -871q0 -18 -18 -18h-33q-20 0 -20 16l-13 207q-42 -113 -129 -178t-215 -65q-198 0 -280 133v-559q0 -19 -17 -19h-51q-16 0 -16 19z " />
<glyph unicode="&#xb6;" horiz-adv-x="1144" d="M117 1044q0 169 102.5 272t269.5 103h46h4h471q18 0 18 -18v-49q0 -19 -18 -19h-90v-1413q0 -18 -19 -18h-49q-18 0 -18 18v1413h-259v-1413q0 -18 -18 -18h-49q-19 0 -19 18v750q-167 0 -269.5 102.5t-102.5 271.5z" />
<glyph unicode="&#xb7;" horiz-adv-x="432" d="M129 573q0 40 23.5 65.5t62.5 25.5t63.5 -25.5t24.5 -65.5q0 -39 -24.5 -63.5t-63.5 -24.5t-62.5 24.5t-23.5 63.5z" />
<glyph unicode="&#xb8;" horiz-adv-x="581" d="M86 -348l23 33q8 11 24 2q85 -56 158 -56q59 0 95 29t36 78q-2 82 -170 82h-53q-20 0 -13 18l70 162h80l-45 -106q96 -5 152 -40.5t57 -115.5q0 -81 -58 -130.5t-151 -49.5q-111 0 -203 71q-12 9 -2 23z" />
<glyph unicode="&#xb9;" horiz-adv-x="452" d="M59 1358v45q0 18 19 18h198q21 0 21 -20v-864q0 -19 -18 -19h-46q-18 0 -18 19v804h-137q-19 0 -19 17z" />
<glyph unicode="&#xba;" horiz-adv-x="800" d="M59 1100q0 154 94 248t246 94q154 0 248 -94t94 -248t-94 -249t-248 -95q-152 0 -246 95t-94 249zM135 1100q0 -122 73 -196.5t191 -74.5q120 0 192.5 74.5t72.5 196.5q0 120 -73 193t-192 73t-191.5 -73t-72.5 -193z" />
<glyph unicode="&#xbb;" horiz-adv-x="1024" d="M164 238q-14 10 2 26l258 281l-258 282q-16 15 -2 29l37 39q14 11 26 -4l275 -303q12 -12 12 -33v-18q0 -17 -12 -33l-275 -303q-12 -16 -26 -2zM514 238q-12 10 4 26l258 281l-258 282q-15 15 -4 29l39 39q15 11 27 -4l272 -303q14 -14 14 -33v-18q0 -19 -14 -33 l-272 -303q-13 -16 -27 -2z" />
<glyph unicode="&#xbc;" horiz-adv-x="1613" d="M121 1358v45q0 18 18 18h199q20 0 20 -20v-864q0 -19 -18 -19h-45q-19 0 -19 19v804h-137q-18 0 -18 17zM318 7q-2 7 4 16l813 1441q7 15 22 15h57q26 0 13 -23l-815 -1442q-7 -14 -23 -14h-57q-12 0 -14 7zM809 219q-5 10 6 25l426 639q13 16 33 16h74q20 0 20 -20v-596 h109q18 0 18 -17v-39q0 -18 -18 -18h-109v-191q0 -18 -18 -18h-47q-19 0 -19 18v191h-450q-20 0 -25 10zM926 283h358v528z" />
<glyph unicode="&#xbd;" horiz-adv-x="1652" d="M121 1358v45q0 18 18 18h199q20 0 20 -20v-864q0 -19 -18 -19h-45q-19 7 -19 19v804h-137q-18 0 -18 17zM322 25l813 1439q7 15 22 15h55q12 0 16 -7.5t-3 -17.5l-813 -1440q-7 -14 -23 -14h-55q-26 0 -12 25zM969 29q31 34 131 148t184 211l84 97q84 84 84 185 q-2 77 -49.5 124.5t-126.5 47.5q-116 0 -195 -92q-11 -14 -22 0l-31 36q-9 12 2 27q95 109 236 109q119 0 193.5 -65t74.5 -198q0 -69 -27 -125.5t-53 -82.5q-1 0 -61.5 -66.5t-143.5 -158.5t-131 -148h387q21 0 21 -17v-43q0 -18 -21 -18h-522q-36 0 -14 29z" />
<glyph unicode="&#xbe;" horiz-adv-x="1867" d="M121 745q-3 19 16 19h47q17 0 17 -14q8 -77 62 -123.5t138 -46.5q89 0 145 54t56 142q0 82 -47.5 132t-126.5 50h-80q-18 0 -18 19v35q0 18 18 18h62q76 0 119.5 42.5t43.5 123.5q0 73 -44.5 118.5t-116.5 45.5q-108 0 -185 -90q-11 -14 -20 -2l-33 39q-11 11 0 22 q93 111 238 111q109 0 176 -67.5t67 -176.5q0 -136 -102 -199q62 -28 96.5 -85t34.5 -136q0 -120 -78.5 -198t-204.5 -78q-121 0 -197.5 67t-82.5 178zM526 25l809 1433q11 21 33 21h49q12 0 15.5 -7.5t-2.5 -17.5l-809 -1434q-10 -20 -35 -20h-47q-27 0 -13 25zM1052.5 219 q-4.5 10 6.5 25l426 639q13 16 33 16h73q21 0 21 -20v-596h108q19 0 19 -17v-39q0 -18 -19 -18h-108v-191q0 -18 -19 -18h-47q-18 0 -18 18v191h-451q-20 0 -24.5 10zM1169 283h359v528z" />
<glyph unicode="&#xbf;" horiz-adv-x="1030" d="M139 362q0 75 20 138t52 107t70.5 83t78 74t73 71t56 84t25.5 103q3 18 18 18h64q16 0 16 -18q-3 -65 -25.5 -120t-56.5 -94t-74.5 -75t-80 -72.5t-72 -76.5t-52.5 -96t-20 -123q1 -133 81.5 -214t211.5 -83q94 0 174.5 41.5t139.5 115.5q13 13 24 2l39 -41q11 -14 0 -28 q-150 -178 -375 -178q-173 0 -280 105t-107 277zM473 1354q0 38 23 62t61 24t61 -24t23 -62q0 -37 -23 -60.5t-61 -23.5t-61 23.5t-23 60.5z" />
<glyph unicode="&#xc0;" horiz-adv-x="1320" d="M25 23l575 1378q9 18 25 18h69q19 0 25 -18l575 -1378q5 -11 3 -17.5t-13 -5.5h-63q-13 0 -19 12l-194 467h-697l-192 -465q-7 -14 -19 -14h-63q-22 0 -12 23zM346 563h627l-314 752zM399 1712l39 64q9 16 25 4l354 -244q14 -8 4 -25l-20 -34q-11 -15 -25 -4l-370 215 q-17 7 -7 24z" />
<glyph unicode="&#xc1;" horiz-adv-x="1320" d="M25 23l575 1378q9 18 25 18h69q19 0 25 -18l575 -1378q5 -11 3 -17.5t-13 -5.5h-63q-13 0 -19 12l-194 467h-697l-192 -465q-7 -14 -19 -14h-63q-22 0 -12 23zM346 563h627l-314 752zM481 1511q-10 16 2 25l357 246q13 10 24 -4l39 -66q11 -14 -6 -24l-371 -213 q-13 -10 -24 4z" />
<glyph unicode="&#xc2;" horiz-adv-x="1320" d="M25 23l575 1378q9 18 25 18h69q19 0 25 -18l575 -1378q5 -11 3 -17.5t-13 -5.5h-63q-13 0 -19 12l-194 467h-697l-192 -465q-7 -14 -19 -14h-63q-22 0 -12 23zM332 1542l270 197q13 10 25 10h63q16 0 29 -10l270 -195q25 -22 -4 -22h-82q-14 0 -26 8l-218 156l-215 -156 q-16 -8 -26 -8h-82q-34 0 -4 20zM346 563h627l-314 752z" />
<glyph unicode="&#xc3;" horiz-adv-x="1320" d="M25 23l575 1378q9 18 25 18h69q19 0 25 -18l575 -1378q5 -11 3 -17.5t-13 -5.5h-63q-13 0 -19 12l-194 467h-697l-192 -465q-7 -14 -19 -14h-63q-22 0 -12 23zM346 563h627l-314 752zM371 1593q28 83 77 126.5t105 43.5q36 0 66 -17.5t50.5 -42.5t39.5 -50t43 -42.5 t51 -17.5q76 5 121 129q6 22 22 9l31 -21q11 -11 6 -24q-27 -84 -76 -127t-108 -43q-35 0 -64.5 17.5t-50.5 42t-40.5 49.5t-43 42t-49.5 16q-43 -1 -73.5 -39.5t-47.5 -89.5q-8 -17 -22 -6l-29 21q-11 7 -8 24z" />
<glyph unicode="&#xc4;" horiz-adv-x="1320" d="M25 23l575 1378q9 18 25 18h69q19 0 25 -18l575 -1378q5 -11 3 -17.5t-13 -5.5h-63q-13 0 -19 12l-194 467h-697l-192 -465q-7 -14 -19 -14h-63q-22 0 -12 23zM346 563h627l-314 752zM401 1620q0 41 26.5 66.5t66.5 25.5t65 -25.5t25 -66.5q0 -38 -25 -63t-65 -25 t-66.5 25t-26.5 63zM739 1620q0 41 24.5 66.5t65.5 25.5q39 0 64 -25.5t25 -66.5q0 -38 -25.5 -63t-63.5 -25q-41 0 -65.5 24.5t-24.5 63.5z" />
<glyph unicode="&#xc5;" horiz-adv-x="1320" d="M25 23l575 1378q9 18 25 18h69q19 0 25 -18l575 -1378q5 -11 3 -17.5t-13 -5.5h-63q-13 0 -19 12l-194 467h-697l-192 -465q-7 -14 -19 -14h-63q-22 0 -12 23zM346 563h627l-314 752zM465 1636q0 83 50.5 134t133.5 51q85 0 137 -51t52 -134q0 -84 -52 -135t-137 -51 q-83 0 -133.5 50.5t-50.5 135.5zM528 1636q0 -54 33.5 -87t87.5 -33q55 0 88 33t33 87q2 54 -32 87.5t-89 33.5q-54 0 -87.5 -33.5t-33.5 -87.5z" />
<glyph unicode="&#xc6;" horiz-adv-x="1615" d="M12 7.5q-4 7.5 2 19.5l766 1376q7 18 29 18h690q21 0 21 -18v-49q0 -19 -19 -19h-571v-565h473q18 0 18 -16v-52q0 -18 -18 -18h-473v-598h590q18 0 18 -18v-50q0 -18 -16 -18h-664q-9 0 -14.5 7t-5.5 16v448h-476l-251 -457q-7 -14 -23 -14h-59q-13 0 -17 7.5zM412 557 h426v774z" />
<glyph unicode="&#xc7;" horiz-adv-x="1419" d="M94 709q0 169 57.5 308.5t156.5 231t230.5 141.5t280.5 50q143 0 277 -49t233 -142q12 -12 0 -26l-39 -35q-12 -12 -26 0q-181 162 -445 162q-283 0 -457 -176.5t-174 -464.5q0 -287 173.5 -462t457.5 -177q263 2 447 161q12 12 24 0l43 -36q13 -13 -2 -27 q-197 -188 -512 -188q-160 0 -295 53.5t-229.5 148.5t-147.5 231t-53 296zM623 -330l22 31q6 12 23 2q76 -53 149 -53q56 0 90.5 27.5t34.5 72.5q-1 45 -44.5 61.5t-117.5 16.5h-51q-17 0 -10 18l65 154h76l-43 -100q92 -5 145 -39t54 -111q0 -76 -55.5 -123t-143.5 -47 q-103 0 -192 68q-12 9 -2 22z" />
<glyph unicode="&#xc8;" horiz-adv-x="1042" d="M190 20v1381q0 20 21 20h739q19 0 19 -18v-51q0 -17 -17 -17h-669v-567h571q18 0 18 -16v-54q0 -16 -18 -16h-571v-596h688q18 0 18 -16v-54q0 -16 -18 -16h-760q-21 0 -21 20zM303 1712l39 64q8 14 25 4l354 -244q14 -8 4 -25l-20 -34q-11 -15 -25 -4l-371 215 q-16 7 -6 24z" />
<glyph unicode="&#xc9;" horiz-adv-x="1042" d="M145 20v1381q0 20 21 20h739q19 0 19 -18v-51q0 -17 -17 -17h-669v-567h571q18 0 18 -16v-54q0 -16 -18 -16h-571v-596h688q18 0 18 -16v-54q0 -16 -18 -16h-760q-21 0 -21 20zM385 1511q-10 16 2 25l356 246q14 11 25 -4l39 -66q11 -14 -6 -24l-371 -213q-13 -10 -24 4z " />
<glyph unicode="&#xca;" horiz-adv-x="1042" d="M190 20v1381q0 20 21 20h739q19 0 19 -18v-51q0 -17 -17 -17h-669v-567h571q18 0 18 -16v-54q0 -16 -18 -16h-571v-596h688q18 0 18 -16v-54q0 -16 -18 -16h-760q-21 0 -21 20zM238.5 1519q-0.5 6 11.5 15l270 197q13 10 25 10h65q14 0 27 -10l270 -195q30 -23 -4 -23 h-82q-8 0 -26 9l-215 155l-218 -155q-18 -9 -26 -9h-82q-15 0 -15.5 6z" />
<glyph unicode="&#xcb;" horiz-adv-x="1042" d="M190 20v1381q0 20 21 20h739q19 0 19 -18v-51q0 -17 -17 -17h-669v-567h571q18 0 18 -16v-54q0 -16 -18 -16h-571v-596h688q18 0 18 -16v-54q0 -16 -18 -16h-760q-21 0 -21 20zM315 1624q0 38 23 62t61 24q40 0 64 -24t24 -62q0 -40 -24 -64t-64 -24q-38 0 -61 24t-23 64 zM639 1624q0 38 24 62t64 24t64 -24t24 -62q0 -40 -24 -64t-64 -24t-64 24t-24 64z" />
<glyph unicode="&#xcc;" horiz-adv-x="473" d="M-27 1712l39 64q9 15 27 4l354 -244q12 -9 2 -25l-20 -34q-12 -15 -23 -4l-372 215q-17 7 -7 24zM190 16v1387q0 18 19 18h55q19 0 19 -18v-1387q0 -16 -19 -16h-55q-19 0 -19 16z" />
<glyph unicode="&#xcd;" horiz-adv-x="473" d="M55 1511q-10 16 2 25l357 246q13 10 24 -4l39 -66q11 -14 -6 -24l-371 -213q-13 -10 -24 4zM190 16v1387q0 18 19 18h55q19 0 19 -18v-1387q0 -16 -19 -16h-55q-19 0 -19 16z" />
<glyph unicode="&#xce;" horiz-adv-x="473" d="M-125.5 1527q0.5 7 14.5 15l283 207q10 10 29 10h59l16 -28l-268 -199q-16 -12 -28 -12h-89q-17 0 -16.5 7zM190 16v1387q0 18 19 18h55q19 0 19 -18v-1387q0 -16 -19 -16h-55q-19 0 -19 16zM193 1731l14 30h61q11 0 27 -12l287 -205q29 -22 -4 -22h-89q-13 0 -26 10z " />
<glyph unicode="&#xcf;" horiz-adv-x="473" d="M-23 1620q0 41 25.5 66.5t65.5 25.5t65 -25.5t25 -66.5q0 -38 -25 -63t-65 -25t-65.5 25t-25.5 63zM190 16v1387q0 18 19 18h55q19 0 19 -18v-1387q0 -16 -19 -16h-55q-19 0 -19 16zM313 1620q0 41 24.5 66.5t65.5 25.5q39 0 64 -25.5t25 -66.5q0 -38 -25.5 -63 t-63.5 -25q-41 0 -65.5 24.5t-24.5 63.5z" />
<glyph unicode="&#xd0;" horiz-adv-x="1363" d="M47 676v53q0 16 16 16h107v656q0 20 20 20h365q329 0 528 -194t199 -516q1 -323 -198 -517t-529 -194h-365q-20 0 -20 20v639h-107q-16 0 -16 17zM262 86h293q289 0 462 170t173 455t-173.5 454.5t-461.5 169.5l-293 2v-592h350q19 0 19 -14v-57q0 -15 -19 -15h-350v-573 z" />
<glyph unicode="&#xd1;" horiz-adv-x="1484" d="M190 18v1383q0 20 21 20h74q13 0 24 -14l893 -1274v1270q0 18 19 18h57q16 0 16 -18v-1383q0 -20 -20 -20h-76q-15 0 -24 12l-891 1270v-1264q0 -18 -19 -18h-55q-19 0 -19 18zM430 1589q28 87 77.5 132.5t106.5 45.5q38 0 69 -18.5t52 -44.5t40.5 -51.5t44 -43 t52.5 -16.5q76 2 121 131q10 19 25 7l31 -23q12 -7 8 -20q-28 -87 -78 -133t-109 -46q-37 0 -67.5 18t-52 44t-41.5 51.5t-44.5 43.5t-52.5 17q-43 -1 -73.5 -40.5t-49.5 -92.5q-5 -17 -22 -8l-31 25q-11 9 -6 22z" />
<glyph unicode="&#xd2;" horiz-adv-x="1632" d="M86 711q0 327 201.5 528t529.5 201q217 0 382 -91t255 -256.5t90 -381.5q0 -329 -199.5 -529t-527.5 -200q-329 0 -530 200.5t-201 528.5zM180 711q0 -287 175.5 -463t461.5 -176t460.5 176t174.5 463t-174.5 463t-460.5 176q-287 0 -462.5 -176t-174.5 -463zM555 1712 l39 64q9 15 27 4l352 -244q14 -8 4 -25l-21 -34q-11 -14 -24 -4l-371 215q-16 7 -6 24z" />
<glyph unicode="&#xd3;" horiz-adv-x="1632" d="M86 711q0 327 201.5 528t529.5 201q217 0 382 -91t255 -256.5t90 -381.5q0 -329 -199.5 -529t-527.5 -200q-329 0 -530 200.5t-201 528.5zM180 711q0 -287 175.5 -463t461.5 -176t460.5 176t174.5 463t-174.5 463t-460.5 176q-287 0 -462.5 -176t-174.5 -463zM637 1511 q-10 16 2 25l356 246q14 11 25 -4l39 -66q11 -14 -6 -24l-371 -213q-14 -11 -25 4z" />
<glyph unicode="&#xd4;" horiz-adv-x="1632" d="M88 713q0 326 200.5 526.5t528.5 200.5t527.5 -200.5t199.5 -526.5q0 -330 -199.5 -530.5t-527.5 -200.5q-217 0 -382.5 90.5t-256 256.5t-90.5 384zM180 711q0 -286 175.5 -462.5t461.5 -176.5t461.5 176t175.5 463q0 288 -175.5 463.5t-461.5 173.5 q-286 0 -461.5 -174.5t-175.5 -462.5zM487 1544l271 197q13 10 24 10h66q13 0 26 -10l271 -195q28 -22 -4 -22h-82q-11 0 -27 8l-215 156l-217 -156q-16 -8 -27 -8h-81q-35 0 -5 20z" />
<glyph unicode="&#xd5;" horiz-adv-x="1632" d="M86 711q0 327 201.5 528t529.5 201q217 0 382 -91t255 -256.5t90 -381.5q0 -329 -199.5 -529t-527.5 -200q-329 0 -530 200.5t-201 528.5zM180 711q0 -287 175.5 -463t461.5 -176t460.5 176t174.5 463t-174.5 463t-460.5 176q-287 0 -462.5 -176t-174.5 -463zM504 1589 q28 87 77.5 132.5t108.5 45.5q37 0 68 -18.5t52 -44.5t40.5 -51.5t43.5 -43t52 -16.5q44 1 72 37.5t51 93.5q9 18 23 7l30 -23q12 -7 8 -20q-29 -87 -78 -133t-108 -46q-37 0 -67.5 18t-52 44t-41 51.5t-44 43.5t-51.5 17q-45 -1 -75.5 -40.5t-47.5 -92.5q-7 -16 -24 -8 l-31 25q-11 9 -6 22z" />
<glyph unicode="&#xd6;" horiz-adv-x="1632" d="M86 711q0 327 201.5 528t529.5 201q217 0 382 -91t255 -256.5t90 -381.5q0 -329 -199.5 -529t-527.5 -200q-329 0 -530 200.5t-201 528.5zM180 711q0 -287 175.5 -463t461.5 -176t460.5 176t174.5 463t-174.5 463t-460.5 176q-287 0 -462.5 -176t-174.5 -463zM559 1620 q0 41 25 66.5t65 25.5t65 -25.5t25 -66.5q0 -38 -25 -63t-65 -25t-65 25t-25 63zM895 1620q0 41 24.5 66.5t65.5 25.5q39 0 63.5 -25.5t24.5 -66.5q0 -38 -25 -63t-63 -25q-41 0 -65.5 24.5t-24.5 63.5z" />
<glyph unicode="&#xd7;" horiz-adv-x="993" d="M162 356q-12 12 0 25l274 272l-274 275q-12 12 0 24l37 37q12 12 26 0l273 -274l272 274q12 13 25 0l36 -37q12 -12 0 -24l-272 -275l272 -272q14 -14 0 -25l-36 -39q-13 -10 -25 2l-272 273l-275 -273q-12 -12 -24 0z" />
<glyph unicode="&#xd8;" horiz-adv-x="1607" d="M94 711q0 327 201.5 528t529.5 201q217 0 382 -91t255 -256.5t90 -381.5q0 -329 -199.5 -529t-527.5 -200q-329 0 -530 200.5t-201 528.5zM147 6q-11 11 0 25l1242 1384q14 14 24 4l39 -33q10 -10 -4 -28l-1239 -1383q-11 -14 -25 0zM188 711q0 -287 175.5 -463 t461.5 -176t460.5 176t174.5 463t-174.5 463t-460.5 176q-287 0 -462.5 -176t-174.5 -463z" />
<glyph unicode="&#xd9;" horiz-adv-x="1363" d="M176 557v844q0 18 19 18h55q18 0 18 -18v-846q0 -227 113 -355t303 -128q187 0 298.5 127.5t111.5 355.5v848q0 16 18 16h57q19 0 19 -16v-848q0 -268 -137.5 -420.5t-366.5 -152.5q-232 -2 -370 151t-138 424zM420 1712l39 64q9 14 26 4l355 -244q12 -9 2 -25l-21 -34 q-11 -15 -22 -4l-373 215q-16 7 -6 24z" />
<glyph unicode="&#xda;" horiz-adv-x="1363" d="M176 557v844q0 18 19 18h55q18 0 18 -18v-846q0 -227 113 -355t303 -128q187 0 298.5 127.5t111.5 355.5v848q0 16 18 16h57q19 0 19 -16v-848q0 -268 -137.5 -420.5t-366.5 -152.5q-232 -2 -370 151t-138 424zM502 1511q-10 16 2 25l356 246q14 11 25 -4l39 -66 q11 -14 -6 -24l-371 -213q-14 -11 -25 4z" />
<glyph unicode="&#xdb;" horiz-adv-x="1363" d="M176 557v844q0 20 17 20h57q20 -3 20 -20v-846q-1 -226 111.5 -353.5t300.5 -127.5q187 0 298.5 127t111.5 354v848q0 18 18 18h57q19 0 19 -18v-848q0 -269 -137.5 -421t-368.5 -152q-230 -2 -367 152t-137 423zM352 1550l271 197q13 10 26 10h64q16 0 26 -10l271 -195 q28 -22 -2 -22h-82q-13 0 -29 8l-215 156l-217 -156q-12 -8 -27 -8h-82q-31 0 -4 20z" />
<glyph unicode="&#xdc;" horiz-adv-x="1363" d="M176 557v844q0 18 19 18h55q18 0 18 -18v-846q0 -227 113 -355t303 -128q187 0 298.5 127.5t111.5 355.5v848q0 16 18 16h57q19 0 19 -16v-848q0 -268 -137.5 -420.5t-366.5 -152.5q-232 -2 -370 151t-138 424zM424 1620q0 41 25 66.5t65 25.5t65 -25.5t25 -66.5 q0 -38 -25 -63t-65 -25t-65 25t-25 63zM760 1620q0 41 24.5 66.5t65.5 25.5q39 0 63.5 -25.5t24.5 -66.5q0 -38 -25 -63t-63 -25q-41 0 -65.5 24.5t-24.5 63.5z" />
<glyph unicode="&#xdd;" d="M29 1399q-11 20 14 20h68q18 0 26 -16l418 -741l426 741q10 16 27 16h69q21 0 8 -22l-485 -824v-557q0 -16 -18 -16h-56q-18 0 -18 16v555zM377 1511q-10 16 2 25l356 246q14 11 25 -4l39 -66q11 -14 -6 -24l-371 -213q-14 -11 -25 4z" />
<glyph unicode="&#xde;" horiz-adv-x="1128" d="M156 18v1383q0 20 18 20h57q19 0 19 -18v-303h330q217 0 336 -99t120 -290q-1 -190 -120.5 -289.5t-335.5 -99.5h-330l-2 -304q0 -18 -19 -18h-55q-18 0 -18 18zM250 408h334q176 -1 268 77t92 224q0 147 -91.5 226t-268.5 79h-334v-606z" />
<glyph unicode="&#xdf;" horiz-adv-x="1181" d="M176 18v957q0 97 25 180.5t73 149t127 102.5t179 37q91 0 169.5 -33.5t129.5 -103.5t51 -164q0 -57 -26 -104.5t-63.5 -79t-75.5 -58.5t-65 -57t-28 -62q0 -25 23 -51t59 -51t80 -53t88.5 -63.5t80.5 -76t59 -97t23 -120.5q0 -140 -101.5 -232.5t-246.5 -92.5 q-104 0 -207 53q-19 6 -12 27l23 55q8 14 24 6q89 -49 170 -49q110 0 184 65.5t74 163.5q0 56 -23 105t-59 84.5t-80.5 68t-88.5 61.5t-80 58.5t-59 66t-23 76.5t26.5 78t64.5 68.5t76 61.5t64.5 69.5t26.5 79.5q0 100 -73.5 154.5t-184.5 54.5q-65 0 -116 -20t-84 -57.5 t-56 -83.5t-35 -105.5t-16.5 -115t-4.5 -120.5v-832q0 -18 -18 -18h-55q-19 0 -19 18z" />
<glyph unicode="&#xe0;" horiz-adv-x="1181" d="M78 455q0 212 128 342.5t337 130.5q140 0 244 -62.5t157 -173.5l12 199q3 18 19 18h37q16 0 16 -18v-875q0 -16 -18 -16h-35q-19 0 -19 16l-12 199q-53 -110 -157.5 -172.5t-243.5 -62.5q-209 0 -337 131t-128 344zM162 455q0 -175 107 -283.5t280 -108.5 q175 0 283.5 107.5t111.5 284.5q-2 175 -110 282t-285 107q-173 0 -280 -107t-107 -282zM336 1341l47 62q13 13 27 0l292 -256q9 -9 0 -23l-28 -28q-9 -12 -23 -2l-311 225q-15 11 -4 22z" />
<glyph unicode="&#xe1;" horiz-adv-x="1181" d="M78 455q0 212 128 342.5t337 130.5q140 0 244 -62.5t157 -173.5l12 199q3 18 19 18h37q16 0 16 -18v-875q0 -16 -18 -16h-35q-19 0 -19 16l-12 199q-53 -110 -157.5 -172.5t-243.5 -62.5q-209 0 -337 131t-128 344zM162 455q0 -175 107 -283.5t280 -108.5 q175 0 283.5 107.5t111.5 284.5q-2 175 -110 282t-285 107q-173 0 -280 -107t-107 -282zM453 1096q-12 12 0 24l301 262q14 14 24 0l51 -61q8 -16 -4 -25l-321 -233q-15 -12 -27 0z" />
<glyph unicode="&#xe2;" horiz-adv-x="1181" d="M78 455q0 212 128 342.5t337 130.5q140 0 244 -62.5t157 -173.5l12 199q3 18 19 18h37q16 0 16 -18v-875q0 -16 -18 -16h-35q-19 0 -19 16l-12 199q-53 -110 -157.5 -172.5t-243.5 -62.5q-209 0 -337 131t-128 344zM162 455q0 -175 107 -283.5t280 -108.5 q175 0 283.5 107.5t111.5 284.5q-2 175 -110 282t-285 107q-173 0 -280 -107t-107 -282zM274 1085l220 273q10 14 26 14h66q14 0 28 -14l215 -271q13 -16 -8 -16h-67q-13 0 -21 8l-180 230l-182 -228q-5 -10 -23 -10h-65q-20 0 -9 14z" />
<glyph unicode="&#xe3;" horiz-adv-x="1232" d="M129 455q0 212 128 342.5t337 130.5q140 0 244 -62.5t157 -173.5l13 199q3 18 18 18h37q16 0 16 -18v-875q0 -16 -18 -16h-35q-18 0 -18 16l-13 199q-53 -110 -157.5 -172.5t-243.5 -62.5q-209 0 -337 131t-128 344zM213 455q0 -175 107 -283.5t280 -108.5 q175 0 283.5 107.5t111.5 284.5q-2 175 -110 282t-285 107q-173 0 -280 -107t-107 -282zM285 1182q30 87 80.5 132.5t109.5 45.5q37 0 67 -18t51 -44t40.5 -51.5t43.5 -43.5t52 -17q44 1 73 38.5t52 94.5q6 18 20 8l35 -27q10 -5 4 -18q-25 -87 -75 -132.5t-111 -45.5 q-36 0 -67 18t-52.5 43.5t-41.5 51t-44 43t-51 16.5q-76 -2 -123 -131q-9 -20 -24 -8l-33 24q-6 4 -6 21z" />
<glyph unicode="&#xe4;" horiz-adv-x="1181" d="M78 455q0 212 128 342.5t337 130.5q140 0 244 -62.5t157 -173.5l12 199q3 18 19 18h37q16 0 16 -18v-875q0 -16 -18 -16h-35q-19 0 -19 16l-12 199q-53 -110 -157.5 -172.5t-243.5 -62.5q-209 0 -337 131t-128 344zM162 455q0 -175 107 -283.5t280 -108.5 q175 0 283.5 107.5t111.5 284.5q-2 175 -110 282t-285 107q-173 0 -280 -107t-107 -282zM313 1264q0 41 24.5 66.5t65.5 25.5q40 0 65.5 -25.5t25.5 -66.5q0 -39 -25.5 -63.5t-65.5 -24.5q-41 0 -65.5 24t-24.5 64zM649 1264q0 41 24 66.5t64 25.5q41 0 66.5 -25.5 t25.5 -66.5q0 -39 -25.5 -63.5t-66.5 -24.5q-39 0 -63.5 24.5t-24.5 63.5z" />
<glyph unicode="&#xe5;" horiz-adv-x="1181" d="M78 455q0 212 128 342.5t337 130.5q140 0 244 -62.5t157 -173.5l12 199q3 18 19 18h37q16 0 16 -18v-875q0 -16 -18 -16h-35q-19 0 -19 16l-12 199q-53 -110 -157.5 -172.5t-243.5 -62.5q-209 0 -337 131t-128 344zM162 455q0 -175 107 -283.5t280 -108.5 q175 0 283.5 107.5t111.5 284.5q-2 175 -110 282t-285 107q-173 0 -280 -107t-107 -282zM354 1243q0 83 50 133.5t135 50.5t135.5 -50.5t50.5 -133.5q0 -85 -50.5 -135.5t-135.5 -50.5t-135 50.5t-50 135.5zM420 1243q0 -54 32.5 -87.5t86.5 -33.5q55 0 87.5 33.5t32.5 87.5 t-32.5 87.5t-87.5 33.5q-54 0 -86.5 -33.5t-32.5 -87.5z" />
<glyph unicode="&#xe6;" horiz-adv-x="1929" d="M78 455q0 212 128 342.5t337 130.5q136 0 233 -59.5t148 -166.5l12 189q3 18 18 18h37q17 0 17 -18v-162q53 95 147.5 147t222.5 52q215 0 343.5 -135t127.5 -361q0 -16 -20 -16h-815q12 -161 113.5 -257t273.5 -96q197 0 303 119q16 16 27 4l38 -36q11 -12 -2 -25 q-129 -145 -366 -145q-137 0 -236.5 53.5t-156.5 152.5v-168q0 -18 -17 -18h-39q-16 0 -16 16l-12 189q-51 -107 -148.5 -166t-232.5 -59q-209 0 -337 131t-128 344zM162 455q0 -175 107 -283.5t280 -108.5q170 0 271 106t104 288q-1 175 -104.5 281t-270.5 106 q-173 0 -280 -107t-107 -282zM1014 494h751q-12 159 -117.5 254.5t-269.5 95.5q-161 0 -256.5 -94.5t-107.5 -255.5z" />
<glyph unicode="&#xe7;" horiz-adv-x="1019" d="M78 455q0 115 40.5 207.5t108 149.5t151 87.5t173.5 30.5q118 0 222.5 -50.5t168.5 -146.5q10 -16 -2 -26l-37 -33q-14 -11 -26 6q-50 74 -132.5 120t-195.5 46q-173 0 -280 -108t-107 -283t107 -283.5t280 -108.5q111 0 196 46t132 120q12 19 24 7l41 -35q10 -10 0 -27 q-61 -92 -162.5 -143t-230.5 -51q-211 0 -341 131.5t-130 343.5zM319 -330l23 31q8 11 23 2q76 -53 149 -53q56 0 90.5 27.5t34.5 72.5q-1 45 -44.5 61.5t-117.5 16.5h-49q-19 0 -12 18l65 154h76l-43 -100q60 -3 101.5 -16.5t69 -47t28.5 -86.5q0 -76 -55.5 -123 t-143.5 -47q-103 0 -192 68q-9 9 -3 22z" />
<glyph unicode="&#xe8;" horiz-adv-x="1099" d="M78 455q0 212 130 342.5t341 130.5q218 0 345.5 -133t127.5 -359q0 -20 -21 -20h-837q12 -159 123 -256t284 -97q197 0 303 119q16 16 29 4l39 -36q12 -12 -2 -25q-132 -145 -369 -145q-221 0 -357 131.5t-136 343.5zM164 494h772q-12 159 -117 254.5t-270 95.5 q-164 0 -268.5 -95.5t-116.5 -254.5zM322 1341l47 60q14 14 24 0l295 -256q9 -9 0 -23l-29 -28q-8 -11 -22 -2l-311 225q-18 10 -4 24z" />
<glyph unicode="&#xe9;" horiz-adv-x="1099" d="M78 455q0 212 130 342.5t341 130.5q218 0 345.5 -133t127.5 -359q0 -20 -21 -20h-837q12 -159 123 -256t284 -97q197 0 303 119q16 16 29 4l39 -36q12 -12 -2 -25q-132 -145 -369 -145q-221 0 -357 131.5t-136 343.5zM164 494h772q-12 159 -117 254.5t-270 95.5 q-164 0 -268.5 -95.5t-116.5 -254.5zM410 1108q-9 12 0 25l295 253q13 13 22 0l49 -59q12 -16 -4 -22l-313 -230q-13 -8 -25 0z" />
<glyph unicode="&#xea;" horiz-adv-x="1097" d="M78 455q0 212 130 342.5t341 130.5q218 0 345.5 -133t127.5 -359q0 -20 -21 -20h-837q12 -159 123 -256t284 -97q197 0 303 119q16 16 29 4l39 -36q12 -12 -2 -25q-132 -145 -369 -145q-221 0 -357 131.5t-136 343.5zM164 494h772q-12 159 -117 254.5t-270 95.5 q-164 0 -268.5 -95.5t-116.5 -254.5zM270 1085l219 273q11 14 27 14h66q14 0 28 -14l215 -271q16 -16 -8 -16h-67q-11 0 -19 8l-182 232l-182 -230q-7 -10 -23 -10h-65q-19 0 -9 14z" />
<glyph unicode="&#xeb;" horiz-adv-x="1099" d="M78 455q0 212 130 342.5t341 130.5q218 0 345.5 -133t127.5 -359q0 -20 -21 -20h-837q12 -159 123 -256t284 -97q197 0 303 119q16 16 29 4l39 -36q12 -12 -2 -25q-132 -145 -369 -145q-221 0 -357 131.5t-136 343.5zM164 494h772q-12 159 -117 254.5t-270 95.5 q-164 0 -268.5 -95.5t-116.5 -254.5zM293 1257q0 40 24.5 65.5t63.5 25.5q40 0 65 -25.5t25 -65.5q0 -41 -25 -65.5t-65 -24.5t-64 24.5t-24 65.5zM627 1257q0 40 24.5 65.5t65.5 25.5q40 0 65 -25.5t25 -65.5t-25 -65t-65 -25q-41 0 -65.5 25t-24.5 65z" />
<glyph unicode="&#xec;" horiz-adv-x="423" d="M-8 1329l47 62q10 10 24 0l293 -258q9 -9 0 -21l-28 -31q-7 -7 -21 -2l-311 228q-16 10 -4 22zM170 891q0 18 18 18h50q16 -3 16 -18v-873q0 -18 -16 -18h-50q-16 0 -16 18z" />
<glyph unicode="&#xed;" horiz-adv-x="423" d="M80 1098q-11 11 0 22l295 256q14 14 24 0l45 -57q11 -14 -2 -27l-315 -225q-13 -13 -25 0zM170 891q0 18 18 18h50q16 -3 16 -18v-873q0 -18 -16 -18h-50q-16 0 -16 18z" />
<glyph unicode="&#xee;" horiz-adv-x="423" d="M-82 1067l229 287q11 14 29 14h70q14 0 28 -14l228 -285q15 -18 -8 -18h-72q-11 0 -21 10l-190 242l-193 -240q-6 -12 -22 -12h-70q-21 0 -8 16zM170 891q0 18 18 18h50q16 -3 16 -18v-873q0 -18 -16 -18h-50q-16 0 -16 18z" />
<glyph unicode="&#xef;" horiz-adv-x="423" d="M-49 1251q0 40 24.5 65t65.5 25q38 0 63 -25t25 -65q0 -41 -24.5 -65.5t-63.5 -24.5q-41 0 -65.5 24.5t-24.5 65.5zM170 891q0 18 18 18h50q16 -3 16 -18v-873q0 -18 -16 -18h-50q-16 0 -16 18zM285 1251q0 40 25 65t65 25q41 0 66.5 -25t25.5 -65t-25.5 -65t-66.5 -25 q-40 0 -65 25t-25 65z" />
<glyph unicode="&#xf0;" horiz-adv-x="1103" d="M117 414q0 196 119 313t315 117q183 0 295 -119q-75 229 -254 408l-264 -134q-13 -6 -21 2l-35 35q-12 12 7 23l253 129q-114 99 -256 164q-18 7 -10 24l25 49q9 17 26 7q173 -75 304 -197l213 108q13 7 24 -4l33 -32q14 -14 -6 -23l-209 -106q152 -159 233 -362.5 t78 -416.5q-4 -189 -124 -304t-312 -115q-195 0 -314.5 119.5t-119.5 314.5zM207 412q0 -155 95 -250.5t249 -95.5q155 0 251.5 97.5t96.5 254.5q-2 156 -95.5 249t-252.5 93q-155 0 -249.5 -95.5t-94.5 -252.5z" />
<glyph unicode="&#xf1;" d="M164 16v875q0 16 16 16h37q16 0 19 -16l12 -207q40 112 127.5 178t216.5 66q170 0 266 -100.5t96 -305.5v-504q0 -18 -16 -18h-51q-17 0 -17 18v506q0 161 -74.5 240.5t-211.5 79.5q-142 0 -234.5 -109t-101.5 -272l2 -447q0 -16 -17 -16h-51q-18 0 -18 16zM254 1190 q29 86 77 131t105 43q36 0 66 -17.5t50 -43t39 -50t43 -41.5t52 -16q43 0 72.5 38t46.5 91q6 18 22 8l33 -26q10 -5 6 -17q-27 -86 -75.5 -131t-106.5 -45q-36 0 -66 17.5t-51 43t-40.5 50.5t-43.5 42.5t-51 16.5q-68 -2 -121 -129q-6 -18 -20 -8l-31 24q-10 7 -6 19z" />
<glyph unicode="&#xf2;" horiz-adv-x="1099" d="M78 455q0 212 130 342.5t341 130.5q212 0 342.5 -130.5t130.5 -342.5t-130.5 -343.5t-342.5 -131.5q-211 0 -341 131.5t-130 343.5zM162 455q0 -175 106.5 -283.5t280.5 -108.5t281.5 108.5t107.5 283.5t-107 282t-282 107q-173 0 -280 -107t-107 -282zM291 1341l47 60 q14 14 24 0l295 -256q9 -9 0 -23l-28 -28q-9 -12 -23 -2l-311 225q-17 10 -4 24z" />
<glyph unicode="&#xf3;" horiz-adv-x="1099" d="M78 455q0 212 130 342.5t341 130.5q212 0 342.5 -130.5t130.5 -342.5t-130.5 -343.5t-342.5 -131.5q-211 0 -341 131.5t-130 343.5zM162 455q0 -175 106.5 -283.5t280.5 -108.5t281.5 108.5t107.5 283.5t-107 282t-282 107q-173 0 -280 -107t-107 -282zM410 1106 q-9 12 0 24l295 254q13 13 22 0l49 -59q12 -16 -4 -22l-313 -230q-13 -8 -25 0z" />
<glyph unicode="&#xf4;" horiz-adv-x="1099" d="M78 455q0 212 130 342.5t341 130.5q212 0 342.5 -130.5t130.5 -342.5t-130.5 -343.5t-342.5 -131.5q-211 0 -341 131.5t-130 343.5zM162 455q0 -175 106.5 -283.5t280.5 -108.5t281.5 108.5t107.5 283.5t-107 282t-282 107q-173 0 -280 -107t-107 -282zM272 1085l217 273 q9 12 27 12h68q14 0 26 -12l215 -271q15 -18 -8 -18h-67q-9 0 -19 10l-182 230l-182 -228q-6 -12 -21 -12h-67q-20 0 -7 16z" />
<glyph unicode="&#xf5;" horiz-adv-x="1099" d="M78 455q0 212 130 342.5t341 130.5q212 0 342.5 -130.5t130.5 -342.5t-130.5 -343.5t-342.5 -131.5q-211 0 -341 131.5t-130 343.5zM162 455q0 -175 106.5 -283.5t280.5 -108.5t281.5 108.5t107.5 283.5t-107 282t-282 107q-173 0 -280 -107t-107 -282zM233 1169 q30 87 80 133t109 46q37 0 67 -18t51 -44t40.5 -51.5t43.5 -42.5t52 -16q79 0 125 131q6 18 20 8l37 -27q8 -6 2 -18q-25 -87 -75 -132.5t-111 -45.5q-36 0 -67 18t-52.5 43.5t-41.5 51t-44 43t-51 16.5q-76 -2 -123 -131q-10 -22 -23 -9l-34 25q-8 8 -5 20z" />
<glyph unicode="&#xf6;" horiz-adv-x="1099" d="M78 455q0 212 130 342.5t341 130.5q212 0 342.5 -130.5t130.5 -342.5t-130.5 -343.5t-342.5 -131.5q-211 0 -341 131.5t-130 343.5zM162 455q0 -175 106.5 -283.5t280.5 -108.5t281.5 108.5t107.5 283.5t-107 282t-282 107q-173 0 -280 -107t-107 -282zM293 1272 q0 41 24 66.5t64 25.5t65 -25.5t25 -66.5q0 -40 -25 -64t-65 -24t-64 24t-24 64zM627 1272q0 41 24.5 66.5t65.5 25.5q40 0 65 -25.5t25 -66.5q0 -38 -25 -63t-65 -25q-41 0 -65.5 24.5t-24.5 63.5z" />
<glyph unicode="&#xf7;" horiz-adv-x="1103" d="M156 578v53q0 19 18 16h758q16 0 16 -16v-53q0 -17 -16 -17h-758q-18 0 -18 17zM453 324q0 44 27 71t71 27q45 0 71.5 -26.5t26.5 -71.5q0 -44 -26.5 -71.5t-71.5 -27.5q-44 0 -71 28t-27 71zM453 899q0 43 27 69.5t71 26.5q45 0 71.5 -26.5t26.5 -69.5 q0 -45 -26.5 -72.5t-71.5 -27.5q-44 0 -71 28t-27 72z" />
<glyph unicode="&#xf8;" horiz-adv-x="1099" d="M78 455q0 212 130 342.5t341 130.5q167 0 287 -84l92 100q11 14 24 4l37 -33q12 -12 0 -26l-90 -101q123 -129 123 -333q0 -212 -130.5 -343.5t-342.5 -131.5q-173 0 -295 92l-92 -101q-12 -16 -27 -4l-35 33q-13 11 0 27l93 102q-115 127 -115 326zM164 455 q0 -158 88 -260l524 583q-95 64 -227 64q-173 0 -279 -107t-106 -280zM313 137q96 -71 236 -71q175 0 281 107t106 282q0 164 -96 268z" />
<glyph unicode="&#xf9;" d="M162 385v504q0 18 16 18h51q17 0 17 -18v-506q0 -161 74.5 -240.5t211.5 -79.5q142 0 235 109t101 272v447q0 16 17 16h51q16 0 16 -16v-875q0 -16 -16 -16h-35q-18 0 -18 16l-13 207q-42 -113 -129 -178t-215 -65q-170 0 -267 100t-97 305zM330 1319l45 61q13 10 26 0 l293 -258q9 -9 0 -20l-28 -31q-8 -8 -21 -2l-311 227q-17 10 -4 23z" />
<glyph unicode="&#xfa;" d="M162 385v504q0 18 16 18h51q17 0 17 -18v-506q0 -161 74.5 -240.5t211.5 -79.5q142 0 235 109t101 272v447q0 16 17 16h51q16 0 16 -16v-875q0 -16 -16 -16h-35q-18 0 -18 16l-13 207q-42 -113 -129 -178t-215 -65q-170 0 -267 100t-97 305zM408 1092q-12 14 0 26 l292 254q14 14 25 0l47 -59q11 -15 -2 -25l-313 -227q-15 -12 -27 0z" />
<glyph unicode="&#xfb;" d="M162 385v504q0 18 16 18h51q17 0 17 -18v-506q0 -161 74.5 -240.5t211.5 -79.5q142 0 235 109t101 272v447q0 16 17 16h51q16 0 16 -16v-875q0 -16 -16 -16h-35q-18 0 -18 16l-13 207q-42 -113 -129 -178t-215 -65q-170 0 -267 100t-97 305zM270 1079l226 279 q10 14 26 14h68q14 0 28 -14l222 -279q7 -7 4.5 -11.5t-13.5 -4.5h-69q-12 0 -19 10l-186 236l-188 -234q-6 -12 -21 -12h-69q-19 0 -9 16z" />
<glyph unicode="&#xfc;" d="M162 385v504q0 18 16 18h51q17 0 17 -18v-506q0 -161 74.5 -240.5t211.5 -79.5q142 0 235 109t101 272v447q0 16 17 16h51q16 0 16 -16v-875q0 -16 -16 -16h-35q-18 0 -18 16l-13 207q-42 -113 -129 -178t-215 -65q-170 0 -267 100t-97 305zM299 1251q0 40 25 65t65 25 t65 -25t25 -65q0 -41 -25 -65.5t-65 -24.5t-65 24.5t-25 65.5zM635 1251q0 40 24.5 65t65.5 25q40 0 65 -25t25 -65t-25 -65t-65 -25q-41 0 -65.5 25t-24.5 65z" />
<glyph unicode="&#xfd;" horiz-adv-x="907" d="M35 881q-13 26 12 26h59q16 0 23 -18l328 -776l321 776q7 18 23 18h59q25 0 12 -26l-555 -1330q-7 -18 -24 -18h-51q-26 0 -11 27l185 450zM344 1065q-9 13 0 25l295 253q13 13 23 0l49 -59q12 -16 -4 -22l-314 -230q-13 -8 -24 0z" />
<glyph unicode="&#xfe;" horiz-adv-x="1183" d="M154 -449v1909q0 19 16 19h51q19 0 19 -19v-774q52 114 156 178t247 64q209 0 337 -130.5t128 -342.5q0 -213 -128 -344t-337 -131q-143 0 -247 64t-156 179v-672q0 -18 -19 -18h-51q-16 0 -16 18zM240 455q0 -177 109.5 -284.5t285.5 -107.5q174 0 281.5 108.5 t107.5 283.5t-107 282t-282 107t-285 -107t-110 -282z" />
<glyph unicode="&#xff;" horiz-adv-x="907" d="M35 881q-13 26 12 26h59q16 0 23 -18l328 -776l321 776q7 18 23 18h59q25 0 12 -26l-555 -1330q-7 -18 -24 -18h-51q-26 0 -11 27l185 450zM186 1231q0 41 24 66.5t64 25.5t65.5 -25.5t25.5 -66.5q0 -39 -25.5 -63.5t-65.5 -24.5t-64 24t-24 64zM520 1231q0 41 24.5 66.5 t65.5 25.5q40 0 65 -25.5t25 -66.5q0 -38 -25 -63t-65 -25q-41 0 -65.5 24.5t-24.5 63.5z" />
<glyph unicode="&#x152;" horiz-adv-x="1564" d="M88 711q0 323 196.5 515t522.5 195h641q18 0 18 -16v-53q0 -17 -18 -17h-571v-567h471q20 0 20 -18v-52q0 -16 -20 -16h-471v-596h591q19 0 19 -16v-54q0 -16 -19 -16h-669q-323 6 -517 197.5t-194 513.5zM180 711q0 -276 165 -443t439 -176v1237q-276 -9 -440 -174.5 t-164 -443.5z" />
<glyph unicode="&#x153;" horiz-adv-x="1912" d="M78 455q0 212 128 342.5t335 130.5q151 0 259 -70.5t158 -195.5q48 125 154.5 195.5t257.5 70.5q219 0 342 -137t123 -359q0 -16 -20 -16h-814q12 -160 116.5 -256.5t275.5 -96.5q187 0 297 119q14 14 26 4l39 -36q13 -10 -2 -25q-132 -145 -358 -145q-160 0 -272.5 71.5 t-164.5 198.5q-48 -127 -156 -198.5t-261 -71.5q-207 0 -335 131t-128 344zM162 455q0 -175 104.5 -283.5t274.5 -108.5q173 0 275 107t102 285q0 175 -102.5 282t-274.5 107q-170 0 -274.5 -107t-104.5 -282zM1001 494h748q-12 160 -113.5 255t-265.5 95 q-162 0 -259.5 -94.5t-109.5 -255.5z" />
<glyph unicode="&#x178;" d="M29 1399q-11 20 14 20h68q18 0 26 -16l418 -741l426 741q10 16 27 16h69q21 0 8 -22l-485 -824v-557q0 -16 -18 -16h-56q-18 0 -18 16v555zM299 1620q0 41 25 66.5t65 25.5t65 -25.5t25 -66.5q0 -38 -25 -63t-65 -25t-65 25t-25 63zM635 1620q0 41 24.5 66.5t65.5 25.5 q39 0 63.5 -25.5t24.5 -66.5q0 -38 -25 -63t-63 -25q-41 0 -65.5 24.5t-24.5 63.5z" />
<glyph unicode="&#x2c6;" horiz-adv-x="806" d="M111 1081l229 287q10 14 29 14h69q15 0 29 -14l227 -285q15 -18 -8 -18h-72q-10 0 -20 10l-191 242l-192 -240q-6 -12 -23 -12h-69q-21 0 -8 16z" />
<glyph unicode="&#x2dc;" horiz-adv-x="794" d="M84 1241q29 87 78.5 133.5t107.5 44.5q37 0 67.5 -18t51.5 -44t40.5 -51.5t44 -42.5t52.5 -16q78 2 123 131q7 21 23 8l35 -26q10 -6 6 -17q-28 -88 -78.5 -134t-110.5 -46q-37 0 -68 18t-52 43.5t-41 51t-44 43t-51 16.5q-44 0 -73 -37t-52 -94q-6 -21 -22 -8l-33 25 q-9 9 -4 20z" />
<glyph unicode="&#x2000;" horiz-adv-x="910" />
<glyph unicode="&#x2001;" horiz-adv-x="1821" />
<glyph unicode="&#x2002;" horiz-adv-x="910" />
<glyph unicode="&#x2003;" horiz-adv-x="1821" />
<glyph unicode="&#x2004;" horiz-adv-x="607" />
<glyph unicode="&#x2005;" horiz-adv-x="455" />
<glyph unicode="&#x2006;" horiz-adv-x="303" />
<glyph unicode="&#x2007;" horiz-adv-x="303" />
<glyph unicode="&#x2008;" horiz-adv-x="227" />
<glyph unicode="&#x2009;" horiz-adv-x="364" />
<glyph unicode="&#x200a;" horiz-adv-x="101" />
<glyph unicode="&#x2010;" horiz-adv-x="813" d="M115 575v52q0 18 16 18h549q18 0 18 -18v-52q0 -18 -18 -18h-549q-16 0 -16 18z" />
<glyph unicode="&#x2011;" horiz-adv-x="813" d="M115 575v52q0 18 16 18h549q18 0 18 -18v-52q0 -18 -18 -18h-549q-16 0 -16 18z" />
<glyph unicode="&#x2012;" horiz-adv-x="813" d="M115 575v52q0 18 16 18h549q18 0 18 -18v-52q0 -18 -18 -18h-549q-16 0 -16 18z" />
<glyph unicode="&#x2013;" horiz-adv-x="1185" d="M156 573v54q0 16 18 16h838q18 0 18 -16v-54q0 -16 -18 -16h-838q-18 0 -18 16z" />
<glyph unicode="&#x2014;" horiz-adv-x="1730" d="M156 573v54q0 16 18 16h1382q19 0 19 -16v-54q0 -18 -19 -18h-1382q-18 0 -18 18z" />
<glyph unicode="&#x2018;" horiz-adv-x="468" d="M121 969q-42 113 23 260.5t171 214.5q12 9 25 -4l18 -25q11 -14 -4 -26q-63 -48 -114 -130t-54 -169q12 4 17 4q41 0 65.5 -25t24.5 -65t-24.5 -65.5t-65.5 -25.5q-29 0 -51 15t-31 41z" />
<glyph unicode="&#x2019;" horiz-adv-x="468" d="M109 944q-12 15 4 27q64 49 115.5 130.5t52.5 168.5q-8 -4 -17 -4q-40 0 -64 25t-24 65t24 65t64 25q65 0 84 -55q41 -114 -24 -262t-170 -214q-13 -8 -25 5z" />
<glyph unicode="&#x201a;" horiz-adv-x="512" d="M123 -305q-11 14 4 26q64 49 115.5 130.5t52.5 168.5q-8 -4 -16 -4q-40 0 -64.5 25t-24.5 65t24.5 65.5t64.5 25.5q64 0 83 -56q41 -114 -24 -261.5t-170 -213.5q-13 -8 -25 4z" />
<glyph unicode="&#x201c;" horiz-adv-x="780" d="M121 969q-41 114 24 261.5t170 215.5q15 6 25 -8l20 -23q10 -12 -4 -26q-64 -48 -115.5 -129.5t-52.5 -169.5q8 4 17 4q40 0 64 -25t24 -65q0 -41 -24 -66t-64 -25q-65 0 -84 56zM432 969q-41 114 24.5 261.5t172.5 215.5q13 7 22 -8l21 -25q10 -13 -4 -24 q-64 -49 -115.5 -130.5t-52.5 -168.5q8 4 16 4q41 0 65.5 -25t24.5 -65q0 -41 -24.5 -66t-65.5 -25q-65 0 -84 56z" />
<glyph unicode="&#x201d;" horiz-adv-x="821" d="M129 944q-8 13 4 25q64 48 115.5 129.5t52.5 169.5q-8 -4 -16 -4q-40 0 -64 25t-24 65t24 65t64 25q65 0 84 -55q41 -114 -24.5 -262t-170.5 -214q-14 -8 -24 5zM442 942q-12 15 4 27q63 48 114 130t54 169q-12 -4 -16 -4q-40 0 -65 25t-25 65t25 65t65 25q65 0 84 -55 q41 -113 -25.5 -261t-171.5 -215q-10 -7 -22 5z" />
<glyph unicode="&#x201e;" horiz-adv-x="821" d="M119 -305q-10 13 4 24q63 48 114 130t54 169q-12 -4 -17 -4q-40 0 -65 25t-25 65t25 65.5t65 25.5q65 0 84 -56q41 -114 -25 -261t-171 -214q-13 -10 -23 4zM430 -307q-10 12 4 26q64 48 115.5 129.5t52.5 169.5q-8 -4 -16 -4q-40 0 -64 25t-24 65t24.5 65.5t63.5 25.5 q65 0 84 -56q41 -114 -24.5 -261.5t-170.5 -213.5q-13 -7 -24 4z" />
<glyph unicode="&#x2022;" horiz-adv-x="768" d="M158 657q0 101 62 163.5t163 62.5t164 -62.5t63 -163.5t-63 -164t-164 -63t-163 63t-62 164z" />
<glyph unicode="&#x2026;" horiz-adv-x="1617" d="M180 80q0 41 24 66.5t64 25.5t65 -25.5t25 -66.5q0 -40 -25 -64t-65 -24t-64 24t-24 64zM719 80q0 41 25 66.5t65 25.5t65 -25.5t25 -66.5q0 -40 -25 -64t-65 -24t-65 24t-25 64zM1257 80q0 41 25.5 66.5t65.5 25.5t65 -25.5t25 -66.5q0 -40 -25 -64t-65 -24t-65.5 24.5 t-25.5 63.5z" />
<glyph unicode="&#x202f;" horiz-adv-x="364" />
<glyph unicode="&#x2039;" horiz-adv-x="698" d="M160 537v18q0 19 14 33l272 303q12 15 27 4l39 -39q11 -14 -4 -29l-258 -282l258 -281q16 -16 4 -26l-39 -39q-14 -14 -27 2l-272 303q-14 14 -14 33z" />
<glyph unicode="&#x203a;" horiz-adv-x="698" d="M188 236q-13 13 2 28l259 281l-259 282q-13 18 -2 27l39 41q15 11 27 -4l272 -303q10 -10 15 -33v-16q-4 -23 -15 -37l-272 -301q-14 -14 -27 -4z" />
<glyph unicode="&#x205f;" horiz-adv-x="455" />
<glyph unicode="&#x20ac;" horiz-adv-x="1273" d="M78 483v54q0 16 18 16h146q-9 77 -9 158v30h-137q-18 0 -18 17v53q0 18 18 18h142q25 278 157.5 444.5t333.5 166.5q143 0 253.5 -87.5t172.5 -244.5q7 -20 -8 -29l-47 -30q-21 -10 -27 14q-46 133 -138.5 210t-207.5 77q-160 0 -266.5 -141.5t-128.5 -379.5h323 q19 0 19 -18v-53q0 -17 -19 -17h-329v-30q0 -76 10 -158h319q19 0 19 -16v-54q0 -18 -19 -18h-303q40 -184 139 -288.5t236 -104.5q111 0 196.5 67t131.5 178q13 23 30 13l45 -29q17 -10 7 -29q-64 -138 -169 -214t-239 -76q-177 0 -302 129t-171 354h-160q-18 0 -18 18z " />
<glyph unicode="&#x2122;" horiz-adv-x="1400" d="M117 1370v33q0 18 18 18h428q19 0 19 -18v-33q0 -18 -19 -18h-178v-539q0 -18 -16 -18h-37q-19 0 -19 18v539h-178q-18 0 -18 18zM670 809v577q0 31 28 31h39q21 0 27 -18l213 -412l213 412q12 18 29 18h45q20 0 20 -22v-586q0 -18 -18 -18h-35q-19 0 -19 18v483 l-200 -389q-9 -15 -25 -18h-18q-16 0 -27 18l-201 391v-485q0 -18 -18 -18h-35q-18 0 -18 18z" />
<glyph unicode="&#x25fc;" horiz-adv-x="911" d="M0 0v911h911v-911h-911z" />
</font>
</defs>
</svg>
