<?xml version="1.0" standalone="no"?>
<!DOCTYPE svg PUBLIC "-//W3C//DTD SVG 1.1//EN" "http://www.w3.org/Graphics/SVG/1.1/DTD/svg11.dtd" >
<svg xmlns="http://www.w3.org/2000/svg" xmlns:xlink="http://www.w3.org/1999/xlink" version="1.1">
<metadata></metadata>
<defs>
<font id="ageoregular_italic" horiz-adv-x="1179" >
<font-face units-per-em="2048" ascent="1556" descent="-492" />
<missing-glyph horiz-adv-x="512" />
<glyph unicode="&#xfb01;" horiz-adv-x="1052" d="M139 811l13 76q3 20 24 20h154l41 260q25 156 129.5 245t269.5 89q57 0 105 -12t80.5 -28t59.5 -40.5t41.5 -43.5t26.5 -44.5t14.5 -34.5t6.5 -22q6 -14 -10 -25l-86 -61q-17 -10 -21 6q-1 2 -9 21t-16 35.5t-27 39.5t-41 39t-59 27.5t-81 11.5q-101 0 -167.5 -53 t-84.5 -160l-39 -250h559q19 0 16 -20l-137 -867q-3 -20 -22 -20h-93q-19 0 -16 20l121 771h-447l-122 -771q0 -9 -7 -14.5t-16 -5.5h-90q-9 0 -14.5 5.5t-4.5 14.5l121 771h-153q-9 0 -14.5 5.5t-4.5 14.5z" />
<glyph unicode="&#xfb02;" horiz-adv-x="1052" d="M139 809l13 78q4 18 22 18h156l41 262q24 152 136 243t265 89q38 0 77.5 -4t69 -9.5t63.5 -14t52 -14t43 -14t29 -9.5q18 -6 14 -27l-219 -1389q-4 -18 -22 -18h-93q-9 0 -13.5 5t-2.5 13l203 1301q-109 51 -217 51q-217 0 -254 -215l-39 -250h233q8 0 13 -5.5t4 -12.5 l-13 -78q-4 -21 -22 -21h-234l-122 -770q-3 -18 -23 -18h-92q-9 0 -14 5t-3 13l121 770h-155q-20 0 -17 21z" />
<glyph unicode="&#xfb03;" horiz-adv-x="1662" d="M139 811l13 76q3 20 24 20h154l41 260q25 155 109.5 244.5t203.5 89.5q120 0 199 -63q7 -3 7.5 -12.5t-5.5 -16.5l-64 -78q-12 -12 -28 -4q-54 43 -125 43q-60 0 -104 -53.5t-62 -159.5l-39 -250h477l41 260q25 156 129.5 245t269.5 89q57 0 105 -12t80.5 -28t59.5 -40.5 t41.5 -43.5t26.5 -44.5t14.5 -34.5t6.5 -22q6 -14 -10 -25l-86 -61q-17 -10 -21 6q-1 2 -9 21t-16 35.5t-27 39.5t-41 39t-59 27.5t-81 11.5q-101 0 -167.5 -53t-84.5 -160l-39 -250h559q20 0 17 -20l-138 -867q-3 -20 -22 -20h-92q-20 0 -17 20l121 771h-446l-123 -771 q0 -9 -7 -14.5t-16 -5.5h-90q-21 0 -18 20l121 771h-478l-122 -771q0 -9 -7 -14.5t-16 -5.5h-90q-9 0 -14.5 5.5t-4.5 14.5l121 771h-153q-9 0 -14.5 5.5t-4.5 14.5z" />
<glyph unicode="&#xfb04;" horiz-adv-x="1662" d="M139 811l13 76q3 20 24 20h154l41 260q25 155 109.5 244.5t203.5 89.5q120 0 199 -63q7 -3 7.5 -12.5t-5.5 -16.5l-64 -78q-12 -12 -28 -4q-54 43 -125 43q-60 0 -104 -53.5t-62 -159.5l-39 -250h477l41 260q16 100 73.5 176.5t143 116.5t184.5 39q38 0 78 -4t69.5 -9.5 t64 -14t52.5 -14t43.5 -14l28.5 -9.5q17 -6 13 -27l-218 -1389q-4 -18 -22 -18h-94q-8 0 -13 5.5t-4 12.5l205 1301q-113 51 -219 51q-215 0 -254 -215l-39 -248h232q21 0 18 -20l-12 -76q-3 -20 -25 -20h-231l-121 -773q-3 -18 -23 -18h-92q-9 0 -13.5 5t-2.5 13l121 773 h-480l-122 -771q0 -9 -7 -14.5t-16 -5.5h-90q-9 0 -14.5 5.5t-4.5 14.5l121 771h-153q-9 0 -14.5 5.5t-4.5 14.5z" />
<glyph horiz-adv-x="0" />
<glyph horiz-adv-x="682" />
<glyph horiz-adv-x="0" />
<glyph horiz-adv-x="0" />
<glyph unicode="&#xd;" horiz-adv-x="512" />
<glyph unicode=" "  horiz-adv-x="512" />
<glyph unicode="&#x09;" horiz-adv-x="512" />
<glyph unicode="&#xa0;" horiz-adv-x="512" />
<glyph unicode="!" horiz-adv-x="514" d="M168 84q7 45 41 72.5t80 27.5t68.5 -27t15.5 -73q-6 -46 -38.5 -75t-78.5 -29t-70 29t-18 75zM250 406l153 995q3 20 25 20h111q19 0 16 -20l-162 -995q0 -9 -6.5 -15t-15.5 -6h-103q-9 0 -14 6t-4 15z" />
<glyph unicode="&#x22;" horiz-adv-x="739" d="M229.5 968q2.5 8 10.5 13q149 104 188 250h-2q-51 0 -77 30.5t-17 81.5q8 53 43.5 85t87.5 32q38 0 63 -19t31 -52q16 -75 -19.5 -174.5t-104.5 -185.5t-146 -124q-20 -8 -29 8l-27 41q-4 6 -1.5 14zM543 954q-11 15 8 27q149 104 188 250h-2q-51 0 -77 30.5t-17 81.5 q8 53 43.5 85t87.5 32q38 0 63 -19t31 -52q16 -75 -19.5 -174.5t-104.5 -185.5t-146 -124q-20 -8 -29 8z" />
<glyph unicode="#" horiz-adv-x="1333" d="M148.5 429q-3.5 5 1.5 13l36 74q10 21 31 21h189l135 321h-222q-19 0 -12 21l39 71q7 21 31 21h213l182 430q7 20 29 20h88q19 0 12 -20l-182 -430h323l183 430q7 20 28 20h88q9 0 13 -5.5t0 -14.5l-183 -430h224q9 0 12 -6t-2 -15l-37 -71q-10 -21 -31 -21h-213 l-135 -321h248q9 0 12 -6t-2 -15l-37 -74q-11 -18 -30 -18h-240l-170 -404q-10 -20 -29 -20h-88q-21 0 -14 20l172 404h-324l-170 -404q-10 -20 -28 -20h-90q-20 0 -13 20l172 404h-196q-10 0 -13.5 5zM535 537h323l137 321h-323z" />
<glyph unicode="$" horiz-adv-x="1144" d="M123 150q-11 15 2 32l70 90q11 14 26 2q24 -26 57.5 -51.5t107 -57.5t155.5 -40l82 506q-207 56 -290.5 159t-62.5 259q22 155 156.5 264.5t323.5 124.5l10 59q4 21 22 21h66q20 0 16 -21l-10 -59q225 -13 338 -133q10 -14 0 -35l-64 -96q-10 -16 -24 -5q-22 23 -50.5 45 t-90.5 48t-132 32l-81 -524q213 -60 298 -146.5t68 -226.5q-24 -184 -150.5 -295t-340.5 -120l-31 -191q-3 -20 -25 -20h-63q-20 0 -17 20l29 191q-85 6 -158 27t-120 49.5t-73 49.5t-44 42zM416 1055q-14 -93 34 -150t199 -106l78 495q-122 -12 -209 -78.5t-102 -160.5z M647 121q133 9 219 78t103 176q12 83 -46 135t-200 94z" />
<glyph unicode="%" horiz-adv-x="1517" d="M256 1124q23 142 123.5 229t241.5 87t214 -87t50 -229q-22 -141 -122 -227t-243 -86q-141 0 -214 86t-50 227zM358 23l1041 1441q11 15 24 15h109q11 0 12 -6.5t-8 -16.5l-1040 -1442q-11 -14 -25 -14h-111q-21 0 -2 23zM395 1124q-12 -78 29 -126t119 -48 q77 0 133.5 47.5t68.5 126.5q14 78 -27 127t-120 49q-78 0 -133.5 -49t-69.5 -127zM961 295q22 141 122.5 228t241.5 87t214 -87t50 -228q-22 -141 -122.5 -228t-241.5 -87t-214 87t-50 228zM1100 295q-12 -79 28.5 -127.5t118.5 -48.5q77 0 134 48.5t69 127.5 q12 78 -28 126t-119 48q-78 0 -134.5 -48t-68.5 -126z" />
<glyph unicode="&#x26;" horiz-adv-x="1366" d="M129 428q21 136 104 233.5t213 145.5q-111 144 -88 293q25 153 135.5 246.5t266.5 93.5q99 0 167.5 -40t96.5 -116q4 -20 -14 -29l-99 -61q-16 -13 -24 6q-39 102 -160 105q-87 0 -149.5 -57t-79.5 -154q-9 -57 21 -124t61 -105t95 -109q11 -13 17 -19l348 -385 q114 168 154 402q3 20 25 20h102q21 0 18 -20q-52 -301 -204 -504l206 -230q17 -20 -12 -20h-129q-21 0 -35 14l-123 133q-189 -180 -436 -180q-246 0 -377 131t-100 330zM274 428q-22 -137 76 -229.5t277 -92.5q180 0 325 142l-428 467q-101 -34 -168 -110.5t-82 -176.5z " />
<glyph unicode="'" horiz-adv-x="428" d="M229.5 968q2.5 8 10.5 13q148 103 190 250h-4q-51 0 -77 30.5t-17 81.5q7 52 43.5 84.5t87.5 32.5q38 0 63 -19t33 -52q15 -75 -21 -174.5t-104.5 -185.5t-144.5 -124q-22 -7 -31 8l-27 41q-4 6 -1.5 14z" />
<glyph unicode="(" horiz-adv-x="589" d="M157.5 288.5q0.5 127.5 20.5 256.5q20 123 60.5 249t82.5 217t93 181t79.5 132.5t55.5 78.5q11 18 33 18h98q20 0 6 -18q-28 -37 -56 -78.5t-79.5 -132t-93 -181.5t-81.5 -217t-59 -249q-22 -129 -22.5 -257t12 -218t36 -177t39.5 -128t32 -76q4 -7 1 -12t-12 -5h-98 q-21 0 -29 19q-15 32 -31.5 74.5t-39 128t-35.5 176.5t-12.5 218.5z" />
<glyph unicode=")" horiz-adv-x="589" d="M78 -311q30 39 56 76t78.5 127t92.5 178.5t81 217.5t60 257q20 123 19.5 248.5t-13 217.5t-35 181t-38.5 132.5t-31 78.5q-7 18 12 18h97q21 0 28 -18q15 -35 31 -78.5t38.5 -132.5t35.5 -181t13.5 -217.5t-19.5 -248.5q-20 -129 -61 -257t-82 -218t-92 -177t-79 -127 t-55 -75q-15 -19 -35 -19h-96q-20 0 -6 17z" />
<glyph unicode="*" horiz-adv-x="849" d="M248 1155l67 86q14 17 29 6l197 -151l34 301q3 20 23 20h102q20 0 17 -20l-60 -301l244 151q7 5 15.5 3t11.5 -9l41 -86q7 -17 -13 -27l-278 -145l145 -207q11 -18 -6 -31l-86 -67q-16 -13 -26 4l-134 240l-211 -240q-13 -17 -26 -4l-64 67q-14 15 2 31l211 207l-233 145 q-15 11 -2 27z" />
<glyph unicode="+" horiz-adv-x="1124" d="M203 551l14 94q3 21 23 21h356l57 358q3 20 23 20h102q9 0 14.5 -5.5t4.5 -14.5l-58 -358h355q9 0 14 -6t4 -15l-14 -94q-4 -21 -25 -21h-354l-57 -360q-3 -20 -25 -20h-102q-20 0 -17 20l55 360h-354q-19 0 -16 21z" />
<glyph unicode="," horiz-adv-x="468" d="M57 -276q-8 14 9 28q148 99 188 248h-2q-52 0 -78 31.5t-18 83.5q9 51 45 82.5t88 31.5q38 0 63 -18.5t31 -50.5q24 -116 -64 -271t-206 -213q-18 -11 -29 7z" />
<glyph unicode="-" horiz-adv-x="811" d="M203 553l14 94q3 21 23 21h544q20 0 17 -21l-17 -94q0 -9 -6.5 -15t-15.5 -6h-543q-19 0 -16 21z" />
<glyph unicode="." horiz-adv-x="538" d="M170 94q9 53 45 84t88 31q51 0 77 -31.5t17 -83.5q-7 -51 -43.5 -82.5t-87.5 -31.5q-52 0 -78 31t-18 83z" />
<glyph unicode="/" horiz-adv-x="763" d="M2.5 5q-2.5 5 3.5 13l850 1442q15 19 33 19h96q9 0 12 -5.5t-2 -13.5l-852 -1442q-11 -18 -32 -18h-97q-9 0 -11.5 5z" />
<glyph unicode="0" horiz-adv-x="1220" d="M229 711q53 327 221 528t390 201q147 0 245 -91t133 -256.5t1 -381.5q-52 -328 -220 -528.5t-391 -200.5q-147 0 -245 90.5t-133.5 256t-0.5 382.5zM373 711q-41 -266 29.5 -428t228.5 -162q157 0 279 162.5t163 427.5q41 266 -29 427.5t-227 161.5t-279 -162t-165 -427z " />
<glyph unicode="1" horiz-adv-x="638" d="M354 20l201 1270h-184q-9 0 -14 6t-3 15l13 88q4 22 24 22h307q9 0 14 -6.5t3 -15.5l-217 -1379q-3 -20 -25 -20h-102q-20 0 -17 20z" />
<glyph unicode="2" horiz-adv-x="1124" d="M120 7q-2 7 7 18l788 843q10 10 24.5 28.5t41.5 68t33 92.5q17 112 -39 180t-164 68q-164 0 -301 -144q-16 -15 -29 -2l-55 74q-11 19 4 31q172 176 401 176q172 0 261 -105t61 -278q-12 -77 -47.5 -150t-64.5 -107l-29 -34l-106 -111q-105 -111 -256 -270t-242 -254h600 q21 0 18 -22l-14 -89q-3 -20 -25 -20h-700h-35h-117q-13 0 -15 7z" />
<glyph unicode="3" horiz-adv-x="1114" d="M174 360q4 21 25 21h102q18 0 18 -21q-11 -113 59 -183.5t195 -70.5q131 0 227.5 84t117.5 209q19 122 -38 201.5t-173 83.5h-132q-19 0 -16 21l10 71q1 9 8.5 15t16.5 6h104q106 0 186 75t97 185q19 112 -37 180t-164 68q-163 0 -303 -144q-12 -16 -26 -2l-56 74 q-14 17 4 31q172 176 402 176q172 0 260.5 -105t60.5 -278q-17 -104 -69.5 -184t-132.5 -128q87 -45 125 -134t18 -212q-30 -187 -172 -309.5t-340 -122.5q-192 0 -294.5 108t-82.5 285z" />
<glyph unicode="4" horiz-adv-x="1251" d="M158.5 312.5q-3.5 7.5 5.5 19.5l821 1071q11 18 33 18l129 -2q19 0 16 -20l-153 -963h174q21 0 18 -20l-14 -90q-4 -21 -25 -21h-174l-45 -285q-3 -20 -22 -20h-103q-21 0 -18 20l45 285h-549h-14h-107q-14 0 -17.5 7.5zM395 436h471l125 778z" />
<glyph unicode="5" horiz-adv-x="1114" d="M174 360q4 21 25 21h102q18 0 18 -21q-11 -113 59 -183.5t195 -70.5q132 0 229 90t118 224q22 134 -50 221.5t-211 87.5q-154 0 -241 -84h-113q-9 0 -14 6t-2 15l166 733q7 22 28 22h625q9 0 13.5 -6.5t2.5 -15.5l-12 -88q-4 -21 -25 -21h-522l-110 -481q102 59 227 59 q203 0 308.5 -126t74.5 -322t-173.5 -324.5t-340.5 -128.5q-192 0 -294.5 108t-82.5 285z" />
<glyph unicode="6" horiz-adv-x="1103" d="M182 412q13 96 64 186q433 700 497 803q13 20 33 20h107q13 0 17 -8t-3 -20l-356 -572q76 21 145 21q197 0 297.5 -117t69.5 -313q-31 -195 -169 -315t-333 -120q-196 0 -298 120t-71 315zM319 412q-22 -135 47.5 -218t204.5 -83q130 0 226 84.5t118 216.5 q22 138 -46 221.5t-203 83.5q-132 0 -228.5 -85t-118.5 -220z" />
<glyph unicode="7" horiz-adv-x="989" d="M248 20l690 1270h-653q-10 0 -15.5 6t-3.5 15l15 88q3 19 24 22h825q14 0 18.5 -8.5t-1.5 -21.5l-737 -1371q-10 -20 -31 -20h-121q-20 0 -10 20z" />
<glyph unicode="8" horiz-adv-x="1146" d="M180 408q20 122 95 214t190 142q-137 86 -107 293q28 173 150.5 278t294.5 105t260.5 -105t60.5 -278q-34 -206 -198 -293q100 -50 145 -142.5t25 -213.5q-31 -192 -175.5 -310t-349.5 -118t-312.5 118t-78.5 310zM326 412q-20 -129 53.5 -210t214.5 -81q140 0 239 80.5 t119 210.5q22 132 -51.5 214.5t-212.5 82.5q-136 0 -239 -84.5t-123 -212.5zM500 1057q-17 -109 39.5 -176.5t165.5 -67.5q107 0 184 67.5t94 176.5q19 112 -36.5 180t-164.5 68t-187 -68t-95 -180z" />
<glyph unicode="9" horiz-adv-x="1103" d="M276 1006q31 195 169 314.5t333 119.5q197 0 298.5 -119.5t70.5 -314.5q-15 -95 -86 -222l-475 -766q-9 -18 -33 -18h-107q-14 0 -17.5 7.5t3.5 19.5l354 569q-74 -21 -145 -21q-195 0 -295.5 118t-69.5 313zM414 1008q-22 -137 46.5 -221.5t203.5 -84.5q132 0 228 85.5 t118 220.5t-47.5 218t-204.5 83q-130 0 -226 -84.5t-118 -216.5z" />
<glyph unicode=":" horiz-adv-x="485" d="M133 106q9 57 50 91t98 34q58 0 86.5 -34t19.5 -91q-9 -56 -48.5 -90t-96.5 -34t-87.5 34.5t-21.5 89.5zM258 897q9 57 50 91t98 34q58 0 86.5 -34t19.5 -91t-48.5 -91t-96.5 -34t-86.5 34t-22.5 91z" />
<glyph unicode=";" horiz-adv-x="522" d="M63 -276q-8 14 9 28q149 98 190 248h-2q-52 0 -78 31.5t-18 83.5q7 51 43.5 82.5t87.5 31.5q38 0 63 -18.5t33 -50.5q15 -76 -21 -176t-104.5 -185.5t-144.5 -122.5q-21 -10 -31 7zM281 897q9 57 49.5 91t97.5 34t86.5 -34t20.5 -91t-49 -91t-97 -34t-87 34t-21 91z" />
<glyph unicode="&#x3c;" horiz-adv-x="1101" d="M164 545l20 131q3 18 25 29l973 399q9 3 13 0t3 -12l-16 -111q-4 -22 -25 -29l-856 -342l748 -342q17 -7 14 -28l-16 -111q-3 -19 -21 -12l-848 399q-17 10 -14 29z" />
<glyph unicode="=" horiz-adv-x="1071" d="M223 428l15 92q4 21 24 21h721q19 0 16 -21l-14 -92q-3 -20 -24 -20h-721q-20 0 -17 20zM272 735l15 92q2 9 8.5 15t15.5 6h719q9 0 14.5 -6t4.5 -15l-17 -92q0 -9 -6.5 -14.5t-15.5 -5.5h-721q-20 0 -17 20z" />
<glyph unicode="&#x3e;" horiz-adv-x="1101" d="M98 129l19 111q4 22 22 28l856 342l-747 342q-8 3 -12 11.5t-3 17.5l17 111q3 18 22 12l846 -399q18 -11 15 -29l-21 -131q-3 -18 -25 -29l-972 -399q-9 -3 -13.5 0t-3.5 12z" />
<glyph unicode="?" horiz-adv-x="980" d="M295 1233q-14 17 4 31q172 176 401 176q171 0 262.5 -105.5t63.5 -277.5q-12 -73 -40 -135t-65 -106t-79 -84t-84.5 -76t-79.5 -72.5t-65.5 -83.5t-39.5 -101q-7 -20 -24 -20h-115q-19 0 -16 20q14 68 44.5 125.5t69.5 99t83 79t87 74t80 75t63.5 91t35.5 114.5 q19 112 -37 180t-164 68q-163 0 -303 -144q-6 -7 -14.5 -7.5t-12.5 5.5zM350 84q7 45 40 72.5t79 27.5t69.5 -27.5t16.5 -72.5q-8 -46 -40 -75t-77 -29q-46 0 -70.5 29t-17.5 75z" />
<glyph unicode="@" horiz-adv-x="1853" d="M217 633q38 239 173 422.5t344.5 284t461.5 100.5q170 0 304.5 -55t219.5 -153t118.5 -240t6.5 -310q-26 -177 -132.5 -289.5t-254.5 -116.5q-73 0 -126.5 32.5t-78.5 90.5q-118 -163 -321 -163q-164 0 -247.5 110t-55.5 285q28 177 146 285t282 108q179 0 250 -127 l39 76q4 12 16 12h70q10 0 10 -12l-66 -418q-15 -70 17 -113t100 -43q83 0 145 77.5t82 205.5q28 179 -33.5 322t-195.5 222t-315 79q-213 0 -390 -83.5t-291 -236t-145 -350.5q-30 -197 36 -349.5t216 -236.5t361 -84q245 0 452 168q7 6 15.5 6t13.5 -6l61 -76 q11 -15 -6 -28q-235 -199 -557 -199q-253 0 -431 100t-255 282.5t-39 420.5zM762 629q-19 -117 36.5 -187.5t164.5 -70.5q113 0 189 71.5t95 186.5q19 122 -36.5 191t-166.5 69q-109 0 -186 -71.5t-96 -188.5z" />
<glyph unicode="A" horiz-adv-x="1318" d="M20 23l781 1378q9 18 30 18h107q22 0 25 -18l344 -1378q3 -10 -2.5 -16.5t-16.5 -6.5h-106q-16 0 -19 14l-108 443h-645l-250 -443q-6 -14 -25 -14h-102q-26 0 -13 23zM483 588h539l-164 663z" />
<glyph unicode="B" horiz-adv-x="1208" d="M180 20l217 1379q3 22 25 22h381q214 -1 320 -93q86 -75 86 -198q0 -29 -5 -61q-13 -92 -71 -164.5t-152 -116.5q118 -46 173 -140q41 -70 41 -160q0 -31 -5 -64q-28 -192 -170.5 -308t-353.5 -116h-469q-20 0 -17 20zM340 129l332 2q152 0 252 79.5t120 213.5q5 30 5 57 q1 91 -53 155q-70 84 -212 85l-350 -2zM451 825h282q147 0 227.5 65.5t98.5 176.5q4 22 4 41q0 76 -56 124q-70 60 -221 60l-262 -2z" />
<glyph unicode="C" horiz-adv-x="1396" d="M201 709q22 142 81.5 262.5t142.5 205.5t185 145.5t211 89t219 28.5h11q137 0 257 -48q126 -50 210 -143q12 -12 -5 -26l-79 -66q-16 -13 -29 0q-139 143 -387 143q-260 0 -446.5 -163t-227.5 -428q-10 -62 -9 -118q-1 -184 101 -308q134 -162 395 -162q245 0 433 143 q16 10 28 -2l62 -65q14 -14 -4 -29q-227 -188 -541 -188q-214 0 -364.5 91.5t-214.5 257.5q-41 107 -41 235q0 69 12 145z" />
<glyph unicode="D" horiz-adv-x="1376" d="M180 20l219 1381q3 20 23 20h364q330 -1 499 -193q130 -148 130 -373q0 -68 -12 -144q-35 -216 -151 -377.5t-294.5 -247.5t-396.5 -86h-364q-20 0 -17 20zM340 131h242q268 0 450 155.5t225 424.5q11 66 11 125q0 182 -101 300q-133 156 -401 156h-242z" />
<glyph unicode="E" horiz-adv-x="1052" d="M180 20l217 1381q3 20 25 20h739q20 0 17 -20l-15 -92q-4 -19 -22 -19h-617l-80 -499h519q9 0 14 -6t4 -15l-14 -90q-1 -9 -8.5 -15t-16.5 -6h-518l-84 -528h635q21 0 18 -20l-14 -93q-4 -18 -23 -18h-759q-20 0 -17 20z" />
<glyph unicode="F" horiz-adv-x="1013" d="M180 20l217 1379q3 22 25 22h737q9 0 14.5 -5.5t4.5 -14.5l-15 -90q-2 -9 -8.5 -15t-15.5 -6h-615l-80 -499h519q9 0 14 -6t4 -15l-14 -90q-1 -9 -8.5 -15t-16.5 -6h-518l-100 -639q-3 -20 -25 -20h-102q-20 0 -17 20z" />
<glyph unicode="G" horiz-adv-x="1536" d="M201 711q51 327 283.5 528t559.5 201q305 0 476 -189q11 -14 -4 -26l-82 -68q-16 -13 -29 0q-134 143 -381 143q-264 0 -451.5 -162t-228.5 -427q-10 -64 -10 -122q0 -182 97 -305q128 -163 378 -163q229 0 381 124.5t217 356.5h-473q-20 0 -16 21l14 90q3 20 22 20h592 q9 0 14 -5t3 -13q-60 -349 -262 -541q-201 -192 -512 -192h-3q-209 0 -354 90.5t-206 255.5q-38 105 -38 231q0 72 13 152z" />
<glyph unicode="H" horiz-adv-x="1370" d="M180 20l219 1381q3 20 23 20h104q9 0 14 -5t3 -13l-99 -612h732l98 610q3 20 22 20h107q8 0 12.5 -5.5t3.5 -12.5l-219 -1383q-1 -9 -7.5 -14.5t-14.5 -5.5h-107q-19 0 -16 20l100 639h-731l-100 -639q-1 -9 -8 -14.5t-15 -5.5h-104q-20 0 -17 20z" />
<glyph unicode="I" horiz-adv-x="495" d="M180 18l217 1383q3 20 23 20h104q20 0 17 -20l-217 -1383q-4 -18 -23 -18h-106q-8 0 -12 5.5t-3 12.5z" />
<glyph unicode="J" horiz-adv-x="802" d="M55 94q-12 9 0 29l64 84q17 20 33 4q109 -90 184 -90q91 0 137 46.5t66 156.5l170 1077q0 9 6.5 14.5t15.5 5.5h103q8 0 12.5 -5.5t3.5 -14.5l-170 -1088q-25 -159 -121 -245t-248 -88q-144 2 -256 114z" />
<glyph unicode="K" horiz-adv-x="1142" d="M180 18l217 1383q3 20 23 20h104q20 0 17 -20l-107 -670l684 678q16 12 25 12h137q8 0 11.5 -3t1.5 -8t-9 -11l-694 -688l543 -686q9 -11 4.5 -18t-19.5 -7h-149q-16 0 -23 10l-518 680l-104 -672q-4 -18 -23 -18h-104q-9 0 -14 5t-3 13z" />
<glyph unicode="L" horiz-adv-x="907" d="M180 18l219 1383q0 9 6.5 14.5t14.5 5.5h106q17 0 17 -20l-203 -1270h512q8 0 12.5 -5.5t3.5 -14.5l-14 -93q-4 -18 -23 -18h-634q-9 0 -14 5t-3 13z" />
<glyph unicode="M" horiz-adv-x="1740" d="M180 31l217 1360q1 13 11 21.5t24 8.5h100q18 0 21 -16l373 -1053l706 1055q8 14 27 14h110q20 0 17 -20l-217 -1381q-3 -20 -25 -20h-102q-20 0 -17 20l177 1113l-615 -904q-10 -16 -26 -16h-113q-6 0 -13 4t-8 10l-327 903l-176 -1110q-3 -20 -25 -20h-92 q-13 0 -21 8.5t-6 22.5z" />
<glyph unicode="N" horiz-adv-x="1454" d="M180 20l219 1381q3 20 23 20h131q13 0 20 -14l598 -1190l189 1184q3 20 22 20h105q8 0 12.5 -5.5t3.5 -14.5l-219 -1381q-1 -9 -7.5 -14.5t-14.5 -5.5h-129q-15 0 -23 12l-600 1190l-186 -1182q-1 -9 -8 -14.5t-15 -5.5h-104q-20 0 -17 20z" />
<glyph unicode="O" horiz-adv-x="1632" d="M201 711q51 327 283.5 528t559.5 201q328 0 497 -201q130 -154 130 -383q0 -69 -12 -145q-53 -329 -284.5 -529t-559.5 -200q-217 0 -369 90t-216 256q-42 107 -41 237q0 70 12 146zM344 711q-10 -62 -9 -118q-1 -186 103 -310q136 -162 400 -162q261 0 447.5 162.5 t227.5 427.5q10 62 10 119q0 184 -103 308q-134 162 -396 162q-263 0 -451 -162t-229 -427z" />
<glyph unicode="P" horiz-adv-x="1116" d="M180 20l217 1379q3 22 25 22h444q214 1 317 -105q80 -82 80 -218q0 -38 -6 -80q-31 -193 -168 -299.5t-352 -106.5h-319l-92 -592q-3 -20 -25 -20h-104q-20 0 -17 20zM440 743h322q151 0 241 71.5t111 201.5q5 31 5 58q1 89 -51 145q-68 73 -220 73l-322 -2z" />
<glyph unicode="Q" horiz-adv-x="1632" d="M201 711q51 327 283.5 528t559.5 201q328 0 497 -201q130 -154 130 -383q0 -69 -12 -145q-38 -236 -172.5 -411t-337.5 -257l340 -209q16 -10 2 -27l-68 -86q-13 -16 -30 -6l-426 279q-73 -12 -152 -12q-217 0 -368.5 90.5t-216.5 255.5q-41 108 -41 237q0 70 12 146z M344 711q-10 -62 -10 -118q0 -186 104 -310q136 -162 400 -162q261 0 447.5 162.5t227.5 427.5q10 62 10 119q0 185 -103 308q-134 162 -396 162q-263 0 -451 -162t-229 -427z" />
<glyph unicode="R" horiz-adv-x="1132" d="M180 20l219 1381q3 20 23 20q0 1 89 1h112q201 0 202 -1q215 0 319 -106q81 -83 81 -218q0 -38 -6 -79q-29 -174 -144.5 -278t-298.5 -124l287 -591q6 -12 1 -18.5t-17 -6.5h-136q-15 0 -18 10l-270 602h-203l-94 -592q-3 -20 -25 -20h-104q-20 0 -17 20zM440 743h281 q153 0 242 71.5t110 201.5q5 31 5 59q0 89 -51 144q-67 73 -218 73h-283z" />
<glyph unicode="S" horiz-adv-x="1144" d="M123 152q-11 11 2 30l65 86q17 20 33 4q20 -21 48.5 -42.5t76.5 -48.5t116.5 -43.5t145.5 -16.5q150 0 245 69t114 185q2 16 2 30q-1 73 -63 119q-76 55 -263 101q-220 55 -308 159q-71 84 -71 205q0 29 4 60q23 168 177 280q153 111 358 111h4q85 -1 155.5 -16.5 t116 -40t70 -43t41.5 -37.5q6 -5 6 -14t-6 -17l-59 -94q-13 -19 -31 -7q-26 27 -60 51.5t-107.5 50t-156.5 25.5q-138 0 -241.5 -69.5t-120.5 -173.5q-4 -24 -4 -45q0 -42 15 -72q22 -46 95.5 -86.5t216.5 -79.5q219 -62 307 -148q73 -71 73 -179q0 -23 -3 -48 q-24 -194 -164 -306q-138 -111 -373 -111h-4q-99 1 -183 20.5t-138 51t-82.5 54.5t-48.5 46z" />
<glyph unicode="T" horiz-adv-x="1091" d="M227 1309l15 92q3 20 22 20h1014q19 0 16 -20l-14 -90q-4 -21 -23 -21h-436l-200 -1272q-4 -18 -23 -18h-104q-8 0 -13 5.5t-4 12.5l201 1272h-434q-9 0 -14 5.5t-3 13.5z" />
<glyph unicode="U" horiz-adv-x="1361" d="M264 557l135 844q0 18 23 18h104q8 0 13 -5.5t4 -14.5l-135 -844q-10 -63 -10 -117q0 -130 56 -208q80 -110 248 -109.5t281 109t147 325.5l136 846q3 20 22 20h105q18 0 18 -20l-135 -846q-45 -279 -204 -426t-392 -147t-346 148q-82 107 -82 283q0 67 12 144z" />
<glyph unicode="V" horiz-adv-x="1306" d="M231 1395q-3 24 21 24h121q17 0 20 -14l289 -1233l678 1233q7 14 24 14h121q25 0 13 -24l-781 -1377q-9 -18 -30 -18h-107q-22 0 -25 18z" />
<glyph unicode="W" horiz-adv-x="1759" d="M231 1401q-3 16 19 20h108q9 0 15 -5t6 -13l151 -1155l488 1155q6 14 26 18h115q9 0 15 -5t6 -13l125 -1163l520 1167q7 14 22 14h113q9 0 12.5 -5.5t-0.5 -14.5l-637 -1385q-10 -16 -28 -16h-90q-21 0 -21 16l-123 1221l-510 -1221q-6 -16 -26 -16h-88q-18 0 -21 16z " />
<glyph unicode="X" horiz-adv-x="1169" d="M16 20l596 687l-362 694q-10 20 16 20h140q16 0 22 -12l289 -580l491 578q9 12 27 12h135q25 0 8 -20l-600 -688l365 -691q4 -9 0 -14.5t-15 -5.5h-139q-16 0 -22 12l-293 576l-490 -576q-9 -12 -26 -12h-133q-26 0 -9 20z" />
<glyph unicode="Y" horiz-adv-x="1146" d="M235 1412.5q5 6.5 19 6.5h121q20 0 26 -16l285 -705l508 705q10 16 31 16h121q12 0 15 -6.5t-5 -17.5l-619 -828l-88 -549q-4 -18 -22 -18h-105q-9 0 -13.5 5t-2.5 13l86 547l-356 830q-6 11 -1 17.5z" />
<glyph unicode="Z" horiz-adv-x="1138" d="M59 33l969 1257h-731q-9 0 -13.5 5.5t-2.5 13.5l14 92q3 20 22 20h943q18 0 21.5 -10t-7.5 -25l-969 -1255h778q20 0 17 -20l-15 -91q-3 -20 -22 -20h-989q-38 0 -15 33z" />
<glyph unicode="[" horiz-adv-x="679" d="M106 -311l271 1712q3 20 24 20h367q21 0 18 -20l-14 -80q-4 -21 -22 -21h-252l-240 -1509h252q19 0 16 -20l-12 -80q-4 -21 -25 -21h-364q-22 0 -19 19z" />
<glyph unicode="\" horiz-adv-x="745" d="M236 1454q-3 10 2 17.5t16 7.5h96q17 0 21 -15l395 -1439q3 -11 -3 -18t-18 -7h-94q-15 0 -22 14z" />
<glyph unicode="]" horiz-adv-x="679" d="M68 -307l12 80q3 20 26 20h250l238 1507h-250q-9 0 -14 6t-4 15l12 80q3 20 24 20h367q19 0 16 -20l-270 -1712q-3 -19 -22 -19l-367 2q-9 0 -14 6t-4 15z" />
<glyph unicode="^" horiz-adv-x="1183" d="M206 537q-3 7 3 18l512 846q11 18 31 18h131q19 0 26 -18l244 -846q3 -11 -2.5 -18t-17.5 -7h-109q-16 0 -20 15l-205 749l-445 -749q-8 -15 -24 -15h-109q-12 0 -15 7z" />
<glyph unicode="_" horiz-adv-x="1187" d="M76 -254l12 76q3 20 25 20h913q18 0 18 -20l-12 -76q0 -9 -6.5 -14.5t-15.5 -5.5h-916q-18 0 -18 20z" />
<glyph unicode="`" horiz-adv-x="561" d="M83 1430q-1 8 5 14l80 98q13 13 27 2l301 -278q12 -9 2 -23l-52 -55q-10 -13 -24 -2l-330 231q-8 5 -9 13z" />
<glyph unicode="a" d="M150 455q34 212 181 342.5t351 130.5q124 0 210 -49t128 -140l47 150q7 20 27 20h65q18 0 15 -20l-138 -869q-3 -20 -22 -20h-68q-8 0 -13 5t-5 13v152q-70 -91 -171.5 -140.5t-224.5 -49.5q-204 0 -310 131q-80 99 -80 245q0 47 8 99zM279 455q-5 -35 -5 -66 q0 -109 61 -183q79 -95 232 -95q154 0 265.5 94.5t140.5 249.5q5 33 5 63q0 112 -65 186q-82 95 -237 95q-153 0 -262.5 -95t-134.5 -249z" />
<glyph unicode="b" d="M152 20l227 1438q2 9 8.5 15t15.5 6h91q20 0 16 -21l-113 -721q70 91 172 141t226 50q203 0 309 -130q80 -99 80 -245q0 -47 -8 -98q-34 -213 -181 -344t-352 -131q-123 0 -209.5 50t-126.5 142l-51 -152q-7 -20 -27 -20h-61q-19 0 -16 20zM352 455q-6 -35 -6 -67 q0 -108 64 -182q84 -96 239 -95q154 0 263.5 95t134.5 249q6 37 6 70q0 107 -61 179q-80 95 -234 95t-267.5 -95.5t-138.5 -248.5z" />
<glyph unicode="c" horiz-adv-x="1019" d="M150 455q18 115 73.5 208t132.5 150.5t166 87.5q86 29 174 29h6q117 0 213 -51t144 -146q7 -16 -8 -31l-78 -57q-23 -17 -33 6q-33 69 -101 107.5t-163 38.5q-154 0 -263 -94t-134 -248q-5 -35 -5 -66q0 -109 61 -183q79 -95 232 -95q95 0 175.5 38t136.5 107q16 19 32 6 l60 -59q6 -5 6 -13t-6 -16q-76 -92 -185.5 -143t-238.5 -51q-211 0 -321 131q-84 100 -84 248q0 46 8 96z" />
<glyph unicode="d" d="M150 455q34 212 181 342.5t351 130.5q124 0 210 -49t126 -140l115 721q4 19 22 19h92q9 0 14 -5.5t3 -13.5l-228 -1442q-4 -18 -22 -18h-62q-8 0 -13 5t-5 13l-4 152q-70 -90 -172.5 -140t-225.5 -50q-204 0 -310 131q-80 99 -80 245q0 47 8 99zM279 455q-5 -35 -5 -66 q0 -109 61 -183q79 -95 232 -95q155 0 269 95.5t137 248.5q6 35 6 67q-1 108 -65 182q-84 96 -238 95q-153 0 -262.5 -95t-134.5 -249z" />
<glyph unicode="e" horiz-adv-x="1097" d="M150 455q34 212 184 342.5t362 130.5q223 0 327 -136q75 -99 75 -251q0 -58 -11 -125q-1 -9 -7.5 -15t-14.5 -6h-791v-6q0 -126 84 -201q86 -77 232 -77q173 0 284 102q16 16 33 2l56 -61q13 -14 -2 -29q-154 -145 -392 -145q-221 0 -337 131q-89 101 -90 251q0 45 8 93z M293 514h676v6q0 126 -77 202q-79 78 -216 77.5t-241 -78t-142 -207.5z" />
<glyph unicode="f" horiz-adv-x="610" d="M139 811l13 76q3 20 24 20h154l41 260q23 154 108.5 244t204.5 90q108 0 199 -63q17 -10 2 -29l-64 -78q-12 -12 -28 -4q-54 43 -125 43q-60 0 -104 -53.5t-62 -159.5l-39 -250h231q9 0 14.5 -5.5t4.5 -14.5l-13 -76q-3 -20 -24 -20h-232l-122 -771q0 -9 -7 -14.5 t-16 -5.5h-90q-9 0 -14.5 5.5t-4.5 14.5l121 771h-153q-9 0 -14.5 5.5t-4.5 14.5z" />
<glyph unicode="g" horiz-adv-x="1181" d="M131 -360l59 79q11 18 25 7q107 -74 279 -82q166 2 272.5 89t132.5 244l31 193q-69 -91 -171.5 -140.5t-226.5 -49.5q-205 0 -310 130q-80 99 -80 245q0 46 8 98q34 212 181 343.5t351 131.5q124 0 210 -50t126 -141l53 152q7 18 27 18h59q9 0 14 -5t3 -13l-140 -901 q-22 -142 -101 -250t-198.5 -165.5t-261.5 -57.5q-196 3 -338 94q-18 11 -4 31zM279 453q-6 -37 -6 -70q0 -107 61 -179q79 -95 233 -95t267.5 95.5t138.5 248.5q6 35 6 67q0 108 -65 182q-83 95 -238 95q-153 0 -262.5 -95t-134.5 -249z" />
<glyph unicode="h" horiz-adv-x="1110" d="M152 18l227 1440q3 21 22 21h93q20 0 16 -21l-115 -725q61 91 151.5 143t205.5 52q170 0 251 -100q58 -71 58 -196q0 -51 -10 -110l-80 -504q0 -7 -6.5 -12.5t-14.5 -5.5h-94q-9 0 -13.5 5t-2.5 13l80 506q7 42 7 78q0 197 -210 197q-130 0 -233.5 -104.5t-133.5 -254.5 l-67 -422q-4 -18 -23 -18h-92q-9 0 -13.5 5t-2.5 13z" />
<glyph unicode="i" horiz-adv-x="442" d="M160 18l137 871q0 7 6.5 12.5t15.5 5.5h93q9 0 13.5 -5t2.5 -13l-137 -871q-4 -18 -23 -18h-92q-9 0 -13.5 5t-2.5 13zM317 1255q7 47 41 75t80 28t68 -28q17 -21 18 -54q0 -10 -2 -21q-8 -46 -39.5 -74t-76.5 -28q-46 0 -70 28q-20 22 -20 57q0 8 1 17z" />
<glyph unicode="j" horiz-adv-x="489" d="M-203 -395l62 76q13 17 32 4q59 -41 123 -41q61 0 104.5 53t61.5 160l164 1030q3 20 23 20h92q8 0 12.5 -5.5t3.5 -14.5l-164 -1041q-23 -154 -108 -243.5t-205 -89.5q-117 2 -199 63q-17 10 -2 29zM362 1255q8 46 41 74.5t80 28.5q46 0 69 -28q17 -22 17 -52 q0 -11 -2 -23q-8 -46 -39.5 -74t-76.5 -28q-46 0 -71 28q-19 22 -19 57q0 8 1 17z" />
<glyph unicode="k" horiz-adv-x="925" d="M152 18l227 1442q4 19 22 19h93q9 0 13.5 -5.5t2.5 -13.5l-152 -956l455 393q13 10 29 10h137q39 0 6 -26l-465 -389l395 -465q11 -12 7 -19.5t-21 -7.5h-137q-15 0 -25 10l-387 455l-69 -447q-4 -18 -23 -18h-92q-9 0 -13.5 5t-2.5 13z" />
<glyph unicode="l" horiz-adv-x="442" d="M160 18l227 1442q4 19 23 19h92q9 0 13.5 -5.5t2.5 -13.5l-227 -1442q-4 -18 -23 -18h-94q-7 0 -11.5 5t-2.5 13z" />
<glyph unicode="m" horiz-adv-x="1691" d="M152 20l137 867q3 20 22 20h62q20 0 20 -20v-152q122 193 330 193q227 0 272 -199q67 92 160.5 145.5t200.5 53.5q157 0 231 -100q51 -70 51 -189q0 -53 -10 -117l-80 -502q-3 -20 -20 -20h-94q-20 0 -17 20l80 504q7 44 7 81q0 194 -185 194q-123 0 -216 -101t-122 -266 l-66 -412q-3 -20 -22 -20h-92q-20 0 -17 20l80 504q7 44 7 81q0 194 -185 194q-118 0 -212 -104t-124 -255l-67 -420q-3 -20 -23 -20h-92q-19 0 -16 20z" />
<glyph unicode="n" horiz-adv-x="1110" d="M152 18l137 871q4 18 22 18h62q20 0 20 -18l-2 -162q61 94 153 147.5t208 53.5q170 0 251 -100q58 -71 58 -196q0 -51 -10 -110l-80 -504q0 -7 -6.5 -12.5t-14.5 -5.5h-94q-9 0 -13.5 5t-2.5 13l80 506q7 42 7 78q0 197 -210 197q-130 0 -233.5 -105t-135.5 -256 l-65 -420q-4 -18 -23 -18h-92q-9 0 -13.5 5t-2.5 13z" />
<glyph unicode="o" horiz-adv-x="1097" d="M150 455q34 212 184 342.5t362 130.5t322 -130q84 -100 84 -247q0 -46 -8 -96q-34 -213 -184.5 -344t-362.5 -131q-211 0 -321 131q-84 100 -84 248q0 46 8 96zM279 455q-5 -35 -5 -66q0 -109 61 -183q79 -95 232 -95q154 0 263.5 95t134.5 249q5 35 5 66q0 109 -62 183 q-80 95 -232.5 95t-262 -95t-134.5 -249z" />
<glyph unicode="p" d="M78 -446l211 1333q3 20 22 20h62q20 0 20 -20l2 -150q70 91 172.5 141t225.5 50q205 0 311 -132q80 -99 80 -245q0 -47 -8 -98q-34 -212 -181.5 -342.5t-351.5 -130.5q-123 0 -209.5 49t-126.5 139l-98 -614q-3 -21 -23 -21h-92q-20 0 -16 21zM352 453q-6 -35 -6 -67 q0 -108 64 -182q84 -95 239 -95q154 0 263.5 95t134.5 249q5 35 5 66q0 109 -62 183q-79 95 -232 95q-155 0 -269 -95.5t-137 -248.5z" />
<glyph unicode="q" d="M150 453q34 212 181 343.5t351 131.5q124 0 210 -50t126 -141l53 150q7 20 27 20h59q20 0 17 -20l-211 -1333q-1 -9 -8.5 -15t-16.5 -6h-90q-20 0 -17 21l97 614q-70 -90 -171.5 -139t-224.5 -49q-205 0 -310 130q-80 99 -80 245q0 46 8 98zM279 453q-6 -37 -6 -70 q0 -107 61 -179q79 -95 233 -95t267.5 95.5t138.5 248.5q6 35 6 67q0 108 -65 182q-83 95 -238 95q-153 0 -262.5 -95t-134.5 -249z" />
<glyph unicode="r" horiz-adv-x="694" d="M152 18l137 871q4 18 22 18h62q20 0 20 -18l2 -78q118 115 258 115q61 0 144 -23q17 -7 8 -26l-43 -97q-6 -19 -25 -12q-73 29 -129 29q-66 0 -124.5 -43.5t-102.5 -116.5l-98 -619q-4 -18 -23 -18h-92q-9 0 -13.5 5t-2.5 13z" />
<glyph unicode="s" horiz-adv-x="808" d="M82 94q0 10 6 17l55 73q14 14 27 4q22 -17 51 -32.5t85 -31t114 -15.5q94 0 156 35.5t71 93.5q1 10 1 19q0 47 -38 73q-46 32 -161 63q-151 43 -211 105q-48 50 -48 128q0 20 3 42q13 116 117 190q102 73 249 72h4q157 0 254 -84q12 -12 0 -31l-49 -76q-11 -19 -27 -6 q-92 68 -206 68q-86 0 -143.5 -33.5t-65.5 -87.5q-2 -12 -2 -22q0 -44 34 -70q42 -32 160 -66q152 -44 214 -104q51 -49 50 -129q0 -18 -2 -37q-14 -124 -122 -198q-105 -73 -259 -72h-8q-191 0 -303 98q-6 4 -6 14z" />
<glyph unicode="t" horiz-adv-x="636" d="M150 809l12 78q3 20 22 20h156l49 316q1 9 8 14.5t15 5.5h94q9 0 13.5 -5t2.5 -13l-51 -318h234q18 0 18 -20l-12 -78q-4 -18 -25 -18h-233l-74 -465q-9 -59 -9 -101q0 -43 10 -67q18 -48 73 -47q39 0 104 45q20 13 29 -2l43 -74q4 -8 2 -16t-10 -13q-31 -25 -84 -47 t-113 -22q-116 0 -162 84q-29 53 -29 136q0 50 11 111l75 478h-153q-9 0 -13.5 5t-2.5 13z" />
<glyph unicode="u" horiz-adv-x="1110" d="M205 385l78 502q1 9 7.5 14.5t14.5 5.5h94q20 0 17 -20l-80 -504q-7 -42 -7 -78q0 -196 210 -196q130 0 233 104.5t135 255.5l66 418q3 20 22 20h92q20 0 17 -20l-137 -869q-4 -18 -23 -18h-61q-9 0 -15 5t-6 13l2 162q-61 -94 -152.5 -147t-207.5 -53q-170 0 -251 100 q-58 71 -58 195q0 51 10 110z" />
<glyph unicode="v" horiz-adv-x="919" d="M156 881q-6 26 22 26h111q17 0 20 -16l174 -739l410 737q11 18 29 18h108q12 0 15.5 -7t-3.5 -19l-501 -863q-9 -18 -31 -18h-98q-21 0 -27 18z" />
<glyph unicode="w" horiz-adv-x="1288" d="M156 889q-2 8 2.5 13t13.5 5h113q8 0 14 -5.5t6 -12.5l76 -733l332 733q7 18 26 18h99q18 0 22 -18l98 -735l310 735q7 18 24 18h113q20 0 10 -20l-399 -871q-10 -16 -27 -16h-110q-18 0 -21 16l-94 732l-326 -732q-10 -16 -26 -16h-111q-20 0 -20 16z" />
<glyph unicode="x" horiz-adv-x="929" d="M49.5 6q-2.5 6 7.5 17l392 421l-265 437q-6 12 -1.5 19t18.5 7h125q20 0 30 -16l195 -334l309 334q13 16 35 16h123q14 0 16 -6.5t-8 -17.5l-414 -428l260 -430q16 -25 -14 -25h-125q-21 0 -31 16l-192 324l-287 -324q-13 -16 -35 -16h-122q-14 0 -16.5 6z" />
<glyph unicode="y" horiz-adv-x="931" d="M143 -440l252 442l-233 879q-3 11 3.5 18.5t18.5 7.5h107q20 0 24 -18l172 -725l412 725q11 18 29 18h106q14 0 18 -7.5t-3 -18.5l-768 -1330q-11 -18 -29 -18h-94q-28 0 -15 27z" />
<glyph unicode="z" horiz-adv-x="913" d="M104 33l619 758h-463q-9 0 -13.5 5t-2.5 13l12 78q0 9 7 14.5t16 5.5h653q19 0 22.5 -10t-8.5 -25l-618 -755h493q9 0 14 -6t3 -15l-13 -76q-3 -20 -22 -20h-686q-39 0 -13 33z" />
<glyph unicode="{" horiz-adv-x="737" d="M236 500l14 88q0 13 16 16q54 9 107 64t67 141l54 336q5 35 13 67t27 71.5t44.5 68t67.5 48t95 19.5h86q20 0 17 -20l-15 -84q-3 -21 -22 -21h-82q-74 0 -98 -149l-52 -328q-16 -95 -68.5 -164t-123.5 -110q59 -39 89.5 -108.5t14.5 -164.5l-51 -327q-24 -152 51 -152h82 q20 0 17 -20l-13 -84q-2 -9 -8.5 -15t-15.5 -6h-86q-52 0 -87.5 20t-52 49t-23 69t-5 72t7.5 67l53 336q12 87 -23 141t-87 63q-13 0 -10 17z" />
<glyph unicode="|" horiz-adv-x="442" d="M86 -446l301 1904q3 21 23 21h92q20 0 16 -21l-301 -1904q-2 -9 -8.5 -15t-15.5 -6h-91q-20 0 -16 21z" />
<glyph unicode="}" horiz-adv-x="737" d="M68 -313l12 86q3 20 24 20h82q75 0 99 150l51 327q16 96 68.5 165.5t123.5 107.5q-60 41 -90 110t-14 164l51 328q24 149 -51 149h-82q-20 0 -16 21l12 84q3 20 24 20h87q52 0 87.5 -19.5t52 -48t22.5 -68.5t4.5 -71.5t-7.5 -66.5l-53 -336q-12 -87 23.5 -141.5 t87.5 -63.5q13 -3 10 -16l-14 -90q0 -15 -17 -15q-54 -9 -107 -63.5t-67 -140.5l-53 -336q-5 -35 -13.5 -67t-27 -72t-44.5 -69t-68 -49t-95 -20h-86q-20 0 -16 21z" />
<glyph unicode="~" horiz-adv-x="1150" d="M152 434q59 113 147 180.5t178 67.5q65 0 114.5 -22t79 -53.5t56 -62.5t60.5 -52.5t77 -20.5q108 2 211 188q13 26 29 7l53 -66q9 -12 2 -29q-57 -110 -144.5 -178.5t-180.5 -68.5q-63 0 -112 22.5t-79.5 54t-57.5 63t-61 53t-75 20.5q-110 -2 -213 -191q-13 -22 -29 -6 l-53 68q-10 10 -2 26z" />
<glyph unicode="&#xa1;" horiz-adv-x="505" d="M182 20l160 994q3 20 25 20h102q19 0 16 -20l-151 -994q-3 -20 -25 -20h-110q-20 0 -17 20zM362 1337q7 46 41 74.5t80 28.5t69 -28.5t15 -74.5t-39.5 -74t-76.5 -28q-46 0 -70.5 28t-18.5 74z" />
<glyph unicode="&#xa2;" horiz-adv-x="1019" d="M150 455q18 114 72.5 206t130.5 149.5t163.5 88t177.5 31.5h15l61 180q7 20 27 20h77q9 0 13.5 -5.5t1.5 -14.5l-68 -195q169 -45 240 -186q3 -13 -8 -24l-82 -60q-19 -16 -29 4q-51 105 -166 135l-233 -673h24q95 0 176 38t136 107q16 22 32 6l62 -61q11 -11 0 -25 q-76 -93 -186.5 -144.5t-239.5 -51.5q-33 0 -49 2l-62 -183q-10 -20 -28 -20h-78q-20 0 -13 20l70 205q-136 44 -199.5 164.5t-37.5 286.5zM279 455q-19 -114 22.5 -199t130.5 -121l230 662h-5q-148 -6 -250.5 -99.5t-127.5 -242.5z" />
<glyph unicode="&#xa3;" horiz-adv-x="1069" d="M170 23q137 224 186.5 361.5t44.5 236.5h-165q-20 0 -17 20l14 92q3 21 23 21h121q-10 40 -15 61.5t-10.5 60.5t-4 80t8.5 88q28 174 151 285t294 111q224 0 346 -176q11 -18 -6 -31l-74 -70q-20 -20 -35 2q-41 63 -106 101.5t-148 38.5q-107 -1 -185 -74.5t-97 -186.5 q-6 -35 -7 -66.5t2.5 -63.5t7.5 -52.5t12 -56t11 -51.5h277q19 0 16 -21l-14 -92q-3 -20 -23 -20h-239q0 -196 -164 -490h534q20 0 17 -22l-15 -89q-3 -20 -22 -20h-709q-23 0 -10 23z" />
<glyph unicode="&#xa4;" horiz-adv-x="1196" d="M170 131q-11 15 6 29l133 119q-61 106 -37 260q17 124 95 229l-97 113q-13 13 4 26l86 74q18 15 27 0l94 -107q119 80 273 80q149 0 241 -73l125 108q16 15 29 2l61 -76q13 -13 -4 -26l-129 -113q48 -101 27 -237q-23 -144 -115 -254l101 -117q11 -14 -5 -27l-86 -75 q-16 -12 -28 0l-103 120q-107 -61 -245 -61q-131 0 -222 57l-141 -125q-6 -6 -14.5 -6t-12.5 6zM414 539q-19 -123 44 -198t187 -75q123 0 210 75t106 198q20 123 -43.5 197.5t-186.5 74.5t-210 -74.5t-107 -197.5z" />
<glyph unicode="&#xa5;" horiz-adv-x="1146" d="M236 272l10 64q3 20 24 20h289l23 144h-289q-20 0 -17 20l11 64q3 20 22 20h260h6l-339 789q-10 26 18 26h119q22 0 28 -16l285 -705l506 705q13 16 35 16h116q14 0 17 -7t-6 -19l-590 -789h10h256q20 0 17 -20l-11 -64q-3 -20 -22 -20h-289l-23 -144h289q20 0 17 -20 l-11 -64q-3 -20 -22 -20h-289l-37 -232q-3 -20 -22 -20h-105q-19 0 -16 20l37 232h-289q-18 0 -18 20z" />
<glyph unicode="&#xa6;" horiz-adv-x="442" d="M86 -446l107 679q2 9 8.5 15t15.5 6h90q9 0 14 -6t3 -15l-107 -679q-2 -9 -8.5 -15t-15.5 -6h-91q-20 0 -16 21zM281 778l106 680q1 9 8.5 15t16.5 6h90q20 0 16 -21l-106 -680q-3 -20 -25 -20h-90q-19 0 -16 20z" />
<glyph unicode="&#xa7;" horiz-adv-x="1060" d="M78.5 -111q0.5 10 7.5 17l55 76q15 19 33 4q27 -24 62.5 -46.5t110 -45.5t157.5 -23q104 0 188.5 51t98.5 148q13 83 -44 129.5t-215 85.5q-191 48 -266.5 138t-56.5 228q18 130 129 223q-76 87 -57 228q19 145 151 242t313 96q70 -1 130 -13.5t99 -33t61.5 -36.5 t37.5 -32q13 -13 0 -33l-51 -80q-16 -19 -35 -6q-104 92 -272 92q-116 0 -197 -52.5t-94 -137.5q-14 -94 42.5 -147t217.5 -97q191 -55 267 -128.5t59 -194.5q-21 -154 -136 -252q91 -84 58 -240q-24 -106 -96.5 -180.5t-165.5 -107t-199 -31.5q-84 0 -155 16t-117.5 42 t-71.5 45.5t-43 39.5q-6 6 -5.5 16zM352 655q-14 -92 42.5 -144.5t217.5 -96.5q73 -22 142 -49q92 55 108 155q13 82 -44 129t-214 86q-92 23 -160 58q-77 -52 -92 -138z" />
<glyph unicode="&#xa8;" horiz-adv-x="731" d="M291 1325q9 52 45 83.5t88 31.5q51 0 77.5 -32t18.5 -83q-9 -51 -45.5 -83t-87.5 -32t-77.5 32t-18.5 83zM633 1325q8 51 44 83t87 32t77.5 -32t18.5 -83t-44 -83t-87 -32q-52 0 -78 31.5t-18 83.5z" />
<glyph unicode="&#xa9;" horiz-adv-x="1691" d="M229 709q35 218 151.5 384t296 256.5t396.5 90.5t368.5 -90.5t216.5 -256.5t30 -384q-53 -327 -285.5 -528t-560.5 -201q-216 0 -367.5 91t-216 256.5t-29.5 381.5zM350 709q-44 -274 97 -441.5t415 -167.5q275 0 468.5 167.5t236.5 441.5q44 275 -96.5 442.5 t-415.5 167.5q-274 0 -468 -167.5t-237 -442.5zM573 709q14 89 55 162t98.5 119.5t125 76t138 33.5t134 -9.5t116.5 -52.5t83 -96q10 -16 -4 -27l-68 -51q-14 -11 -26 10q-27 50 -85.5 78.5t-131.5 28.5q-122 0 -208.5 -74.5t-105.5 -197.5q-20 -123 43 -198t185 -75 q73 0 140.5 28t108.5 75q19 22 33 8l49 -47q11 -12 -4 -27q-62 -76 -152 -117t-196 -41q-174 0 -265 109.5t-63 284.5z" />
<glyph unicode="&#xaa;" horiz-adv-x="886" d="M231 1098q25 154 131 248t254 94q82 0 147.5 -31.5t102.5 -87.5l29 84q1 9 9.5 14.5t17.5 5.5h55q19 0 16 -20l-96 -612q-1 -10 -8.5 -16.5t-16.5 -6.5h-57q-20 0 -20 21l2 90q-60 -59 -136.5 -92t-152.5 -33q-147 0 -223.5 94.5t-53.5 247.5zM346 1098 q-17 -107 39 -171.5t164 -62.5q105 0 182 65t94 169t-40 169.5t-162 63.5q-108 0 -184 -63t-93 -170z" />
<glyph unicode="&#xab;" horiz-adv-x="1052" d="M240 535l4 22q4 22 20 35l322 303q6 7 14 7.5t12 -5.5l56 -70q12 -15 -4 -28l-275 -254l195 -252q9 -16 -6 -31l-76 -67q-17 -13 -29 2l-225 301q-11 18 -8 37zM594 535l4 22q4 24 18 35l322 303q16 15 29 2l55 -70q12 -15 -4 -28l-275 -254l195 -252q9 -16 -6 -31 l-76 -67q-19 -15 -29 2l-225 301q-11 18 -8 37z" />
<glyph unicode="&#xac;" horiz-adv-x="1275" d="M264 682l15 94q1 9 7.5 15t14.5 6h926q19 0 16 -21l-63 -405q-4 -21 -25 -21h-92q-9 0 -14.5 6t-4.5 15l48 291h-811q-20 0 -17 20z" />
<glyph unicode="&#xad;" horiz-adv-x="681" />
<glyph unicode="&#xae;" horiz-adv-x="1662" d="M215 709q35 218 151.5 384t296 256.5t396.5 90.5t368.5 -90.5t216 -256.5t29.5 -384q-53 -327 -285.5 -528t-560.5 -201q-216 0 -367 91t-215.5 256.5t-29.5 381.5zM336 709q-44 -274 97 -441.5t415 -167.5q275 0 468 167.5t236 441.5q44 275 -96.5 442.5t-415.5 167.5 q-274 0 -467.5 -167.5t-236.5 -442.5zM635 348l115 733q4 21 24 21h250q118 0 175 -58t40 -163q-15 -92 -76 -148.5t-157 -68.5l153 -316q9 -22 -16 -22h-99q-15 0 -22 14l-143 322h-76l-49 -314q-3 -22 -25 -22h-78q-19 0 -16 22zM821 776h154q126 0 145 105q7 52 -21.5 79 t-88.5 27l-156 -2z" />
<glyph unicode="&#xaf;" horiz-adv-x="665" d="M289 1305l14 96q1 9 8 14.5t15 5.5h462q20 0 17 -20l-14 -96q-4 -19 -23 -19h-463q-9 0 -13.5 5.5t-2.5 13.5z" />
<glyph unicode="&#xb0;" horiz-adv-x="862" d="M295 1124q23 143 123 229.5t241 86.5t215 -87t52 -229q-23 -140 -124.5 -226.5t-240.5 -86.5q-142 0 -215.5 86.5t-50.5 226.5zM416 1124q-12 -87 32.5 -138.5t131.5 -51.5t148.5 52t74.5 138q13 88 -31.5 141.5t-130.5 53.5q-88 0 -149.5 -53.5t-75.5 -141.5z" />
<glyph unicode="&#xb1;" horiz-adv-x="1206" d="M180 117l15 94q1 9 7.5 14.5t14.5 5.5h844q21 0 18 -20l-16 -94q0 -19 -23 -19h-843q-20 0 -17 19zM270 725l15 92q2 9 8.5 15t15.5 6h355l51 321q2 9 8.5 15t15.5 6h103q20 0 16 -21l-51 -321h356q9 0 14 -6t3 -15l-15 -92q-3 -20 -24 -20h-355l-51 -322q-3 -21 -22 -21 h-105q-20 0 -16 21l51 322h-356q-20 0 -17 20z" />
<glyph unicode="&#xb2;" horiz-adv-x="684" d="M143 528q-3 10 11 23l440 473q10 10 24.5 26.5t41.5 59.5t32 78q9 59 -21.5 96t-90.5 37q-104 0 -183 -82q-16 -13 -26 0l-41 64q-10 14 4 28q113 109 254 109q118 0 182.5 -64.5t42.5 -197.5q-8 -50 -34.5 -102.5t-48.5 -79.5l-23 -27q-193 -203 -318 -336h309 q20 0 17 -21l-10 -71q-2 -9 -9.5 -16t-17.5 -7h-514q-18 0 -21 10z" />
<glyph unicode="&#xb3;" horiz-adv-x="677" d="M176 743q4 21 25 21h82q16 0 16 -16q-5 -59 33.5 -94.5t105.5 -35.5q72 0 123.5 44t61.5 114q12 72 -18.5 118.5t-90.5 49.5h-76q-20 0 -16 21l8 57q3 20 25 20h59q55 0 94.5 42.5t50.5 111.5q9 56 -18.5 91t-81.5 36q-36 0 -83.5 -21t-86.5 -59q-13 -16 -24 -2l-46 64 q-7 15 5 24q107 111 254 111q109 0 166 -67.5t38 -176.5q-18 -126 -114 -197q47 -34 67 -92t10 -131q-21 -121 -110.5 -198.5t-216.5 -77.5q-121 0 -186 66t-56 177z" />
<glyph unicode="&#xb4;" horiz-adv-x="559" d="M272 1178q-7 15 9 28l323 260q16 13 27 -2l61 -92q10 -13 -8 -24l-350 -226q-19 -9 -29 4z" />
<glyph unicode="&#xb5;" horiz-adv-x="1116" d="M78 -444l211 1331q3 20 22 20h92q20 0 17 -20l-80 -504q-42 -274 205 -274q130 0 232 104.5t134 255.5l66 418q3 20 24 20h91q19 0 16 -20l-135 -867q-3 -20 -25 -20h-59q-21 0 -21 20v160q-129 -200 -360 -200q-143 0 -221 69l-78 -493q-1 -9 -8.5 -15t-16.5 -6h-90 q-20 0 -16 21z" />
<glyph unicode="&#xb6;" horiz-adv-x="1142" d="M283 1044q26 169 145.5 272t286.5 103h55h2h461q19 0 16 -20l-14 -88q-3 -21 -23 -21h-69l-215 -1368q-3 -20 -25 -20h-90q-19 0 -16 20l217 1368h-189l-217 -1368q-3 -20 -22 -20h-90q-19 0 -19 20l119 748q-168 0 -254.5 103t-58.5 271z" />
<glyph unicode="&#xb7;" horiz-adv-x="432" d="M193 573q9 52 45 83.5t88 31.5q51 0 77 -32t17 -83q-7 -51 -43.5 -82.5t-87.5 -31.5q-52 0 -78 31t-18 83z" />
<glyph unicode="&#xb8;" horiz-adv-x="591" d="M31 -346l51 53q11 14 24 4q67 -47 132 -47q47 0 79 24t37 60q7 38 -25 55t-87 17h-88q-9 0 -12 5t1 13l97 162h114l-45 -76q85 -8 130 -50.5t32 -125.5q-13 -85 -83.5 -137.5t-166.5 -52.5q-112 0 -190 71q-14 11 0 25z" />
<glyph unicode="&#xb9;" horiz-adv-x="452" d="M268 1323l13 76q4 22 24 22h217q20 0 17 -20l-136 -862q-2 -9 -8.5 -15t-15.5 -6h-84q-19 0 -16 21l120 764h-114q-20 0 -17 20z" />
<glyph unicode="&#xba;" horiz-adv-x="798" d="M233 1100q23 154 132.5 248t263.5 94t232.5 -94t53.5 -248q-23 -154 -132 -249t-263 -95t-233 95t-54 249zM346 1100q-17 -106 35.5 -171t155.5 -65t176 65t90 171q17 102 -37 167.5t-154 65.5q-104 0 -177.5 -64.5t-88.5 -168.5z" />
<glyph unicode="&#xbb;" horiz-adv-x="1052" d="M205 262q-12 15 4 31l274 252l-194 254q-14 14 4 28l78 70q17 13 26 -2l228 -303q10 -13 6 -35l-2 -22q-3 -19 -21 -37l-321 -301q-6 -7 -14.5 -7.5t-12.5 5.5zM557 262q-9 16 6 31l273 252l-193 254q-14 14 4 28l78 70q6 6 14.5 5.5t12.5 -7.5l225 -303q12 -12 8 -35 l-4 -22q-4 -23 -18 -37l-322 -301q-15 -15 -29 -2z" />
<glyph unicode="&#xbc;" horiz-adv-x="1607" d="M294 7q-3 7 5 16l1042 1441q11 15 27 15h100q12 0 15.5 -7t-4.5 -16l-1041 -1442q-10 -14 -28 -14h-101q-12 0 -15 7zM326 1323l12 76q4 22 24 22h218q18 0 18 -20l-137 -862q-3 -21 -23 -21h-84q-20 0 -16 21l119 764h-113q-21 0 -18 20zM831.5 206.5q-3.5 9.5 8.5 24.5 l497 652q13 16 33 16h117q18 0 18 -20l-92 -578h107q19 0 16 -20l-10 -64q-3 -20 -23 -20h-106l-29 -177q-3 -20 -22 -20h-86q-20 0 -17 20l27 177h-416q-19 0 -22.5 9.5zM1018 301h270l70 447z" />
<glyph unicode="&#xbd;" horiz-adv-x="1648" d="M297 7.5q-3 7.5 6 19.5l1038 1437q11 15 27 15h96q13 0 17 -7.5t-4 -19.5l-1039 -1438q-10 -14 -28 -14h-97q-13 0 -16 7.5zM328 1323l12 76q4 22 25 22h217q19 0 16 -20l-135 -862q-1 -9 -8.5 -15t-16.5 -6h-84q-20 0 -16 21l121 764h-115q-19 0 -16 20zM966 10 q-3 10 11 23l440 473q10 10 24.5 26.5t42 59.5t32.5 78q9 59 -22 96t-91 37q-100 0 -182 -82q-14 -14 -25 0l-43 63q-8 15 6 29q109 109 252 109q119 0 183 -65t42 -198q-7 -50 -33 -102t-49 -79l-22 -27q-1 0 -51 -52.5t-135 -142.5t-134 -141h310q9 0 14 -6t4 -15l-12 -71 q-2 -9 -9 -16t-16 -7h-516q-18 0 -21 10z" />
<glyph unicode="&#xbe;" horiz-adv-x="1857" d="M236 743q4 21 24 21h82q16 0 16 -16q-4 -58 34 -94t106 -36q72 0 122.5 43.5t61.5 114.5q12 72 -18.5 119.5t-90.5 48.5h-75q-20 0 -17 21l8 57q3 20 25 20h59q56 2 96 43.5t50 110.5q9 55 -19 90t-82 37q-36 0 -83 -21t-86 -59q-14 -17 -25 -2l-45 64q-8 15 4 24 q107 111 254 111q109 0 166.5 -68t38.5 -176q-18 -125 -115 -197q48 -34 68 -92t10 -131q-21 -120 -111 -198t-217 -78q-121 0 -185.5 66t-55.5 177zM498.5 7.5q-3.5 7.5 5.5 19.5l1030 1425q20 27 51 27h82q13 0 16 -7.5t-6 -19.5l-1028 -1425q-20 -27 -51 -27h-82 q-14 0 -17.5 7.5zM1083.5 206.5q-3.5 9.5 8.5 24.5l497 652q13 16 33 16h117q18 0 18 -20l-92 -578h107q19 0 16 -20l-10 -64q-3 -20 -23 -20h-106l-29 -177q-3 -20 -23 -20h-86q-19 0 -16 20l27 177h-416q-19 0 -22.5 9.5zM1270 301h270l70 447z" />
<glyph unicode="&#xbf;" horiz-adv-x="980" d="M180 362q12 73 40 135t65 106.5t79 84t84.5 76t79.5 73t65.5 83.5t39.5 100q3 20 24 20h115q19 0 16 -20q-14 -68 -44.5 -125.5t-69 -98.5t-82.5 -78.5t-87 -73t-80 -74.5t-64 -91t-37 -114q-15 -114 40 -181t162 -67q167 0 303 143q6 8 14.5 8t12.5 -8l55 -74 q13 -13 -4 -30q-176 -176 -401 -176q-173 0 -263.5 105t-62.5 277zM651 1337q8 46 40 74.5t77 28.5q46 0 70 -28.5t18 -74.5q-8 -46 -41 -74t-80 -28q-46 0 -69 28t-15 74z" />
<glyph unicode="&#xc0;" horiz-adv-x="1318" d="M20 23l781 1378q9 18 30 18h107q22 0 25 -18l344 -1378q3 -10 -2.5 -16.5t-16.5 -6.5h-106q-16 0 -19 14l-108 443h-645l-250 -443q-6 -14 -25 -14h-102q-26 0 -13 23zM483 588h539l-164 663zM653 1694l80 102q13 16 27 6l307 -252q14 -10 0 -28l-45 -58q-5 -8 -13 -10 t-14 2l-338 211q-15 9 -4 27z" />
<glyph unicode="&#xc1;" horiz-adv-x="1318" d="M20 23l781 1378q9 18 30 18h107q22 0 25 -18l344 -1378q3 -10 -2.5 -16.5t-16.5 -6.5h-106q-16 0 -19 14l-108 443h-645l-250 -443q-6 -14 -25 -14h-102q-26 0 -13 23zM483 588h539l-164 663zM713 1522q-10 17 10 30l385 250q17 10 27 -6l45 -102q7 -17 -13 -27 l-401 -209q-20 -10 -29 6z" />
<glyph unicode="&#xc2;" horiz-adv-x="1318" d="M20 23l781 1378q9 18 30 18h107q22 0 25 -18l344 -1378q3 -10 -2.5 -16.5t-16.5 -6.5h-106q-16 0 -19 14l-108 443h-645l-250 -443q-6 -14 -25 -14h-102q-26 0 -13 23zM483 588h539l-164 663zM573 1544l281 197q11 8 27 8h112q14 0 25 -8l215 -197q22 -22 -10 -22h-140 q-14 0 -24 10l-137 127l-174 -127q-13 -10 -29 -10h-141q-30 0 -5 22z" />
<glyph unicode="&#xc3;" horiz-adv-x="1318" d="M20 23l781 1378q9 18 30 18h107q22 0 25 -18l344 -1378q3 -10 -2.5 -16.5t-16.5 -6.5h-106q-16 0 -19 14l-108 443h-645l-250 -443q-6 -14 -25 -14h-102q-26 0 -13 23zM483 588h539l-164 663zM647 1597q41 81 95.5 128t107.5 47q45 0 77 -23t47 -50t38 -49.5t53 -21.5 q57 2 117 105q10 23 26 10l41 -33q14 -10 6 -29q-41 -82 -95 -128t-109 -46q-36 0 -63 15t-44 36.5t-31.5 42.5t-33 36t-41.5 14q-65 -3 -117 -109q-14 -20 -29 -8l-41 33q-10 13 -4 30z" />
<glyph unicode="&#xc4;" horiz-adv-x="1318" d="M20 23l781 1378q9 18 30 18h107q22 0 25 -18l344 -1378q3 -10 -2.5 -16.5t-16.5 -6.5h-106q-16 0 -19 14l-108 443h-645l-250 -443q-6 -14 -25 -14h-102q-26 0 -13 23zM483 588h539l-164 663zM633 1624q9 53 45 85t88 32q51 0 77.5 -32t18.5 -85q-9 -51 -45.5 -82 t-87.5 -31t-77.5 31t-18.5 82zM975 1624q8 53 44.5 85t88.5 32q50 0 75.5 -32.5t18.5 -84.5q-7 -51 -43.5 -82t-87.5 -31q-52 0 -78 31t-18 82z" />
<glyph unicode="&#xc5;" horiz-adv-x="1318" d="M20 23l781 1378q9 18 30 18h107q22 0 25 -18l344 -1378q3 -10 -2.5 -16.5t-16.5 -6.5h-106q-16 0 -19 14l-108 443h-645l-250 -443q-6 -14 -25 -14h-102q-26 0 -13 23zM483 588h539l-164 663zM733 1638q13 83 72.5 134t142.5 51q84 0 127 -50.5t29 -134.5 q-12 -84 -71 -135t-144 -51q-84 0 -126.5 51t-29.5 135zM823 1636q-7 -43 15 -69.5t65 -26.5q44 0 74.5 26.5t38.5 69.5q6 43 -16.5 70t-65.5 27t-74 -27t-37 -70z" />
<glyph unicode="&#xc6;" horiz-adv-x="1654" d="M2.5 7.5q-3.5 7.5 5.5 19.5l983 1376q11 18 35 18h735q22 0 19 -20l-15 -90q-3 -21 -22 -21h-518l-80 -499h420q9 0 14 -6t4 -15l-14 -88q-3 -20 -25 -20h-420l-84 -531h537q21 0 18 -20l-14 -91q-3 -20 -22 -20h-662q-9 0 -14.5 7t-3.5 16l69 436h-477l-313 -445 q-10 -14 -27 -14h-111q-14 0 -17.5 7.5zM563 588h406l118 741z" />
<glyph unicode="&#xc7;" horiz-adv-x="1396" d="M201 709q22 142 81.5 262.5t142.5 205.5t185 145.5t211 89t219 28.5q142 2 267.5 -47.5t210.5 -143.5q12 -12 -5 -26l-79 -66q-16 -13 -29 0q-139 143 -387 143q-260 0 -446.5 -163t-227.5 -428q-41 -264 92.5 -426t394.5 -162q245 0 433 143q16 10 28 -2l62 -65 q14 -14 -4 -29q-227 -188 -541 -188q-214 0 -364.5 91.5t-214.5 257.5t-29 380zM555 -341q0 7 6 11l49 51q12 16 23 5q74 -45 125 -45q45 0 75 22.5t35 56.5q7 37 -23.5 52.5t-82.5 15.5h-84q-17 0 -10 18l92 154h108l-43 -72q81 -8 124 -48.5t30 -119.5 q-12 -81 -78.5 -130.5t-157.5 -49.5q-107 0 -182 68q-6 4 -6 11z" />
<glyph unicode="&#xc8;" horiz-adv-x="1052" d="M180 20l217 1381q3 20 25 20h739q20 0 17 -20l-15 -92q-4 -19 -22 -19h-617l-80 -499h519q9 0 14 -6t4 -15l-14 -90q-1 -9 -8.5 -15t-16.5 -6h-518l-84 -528h635q21 0 18 -20l-14 -93q-4 -18 -23 -18h-759q-20 0 -17 20zM569 1694l80 102q13 16 27 6l307 -252 q14 -10 0 -28l-45 -58q-5 -8 -13 -10t-14 2l-338 211q-15 9 -4 27z" />
<glyph unicode="&#xc9;" horiz-adv-x="1052" d="M180 20l217 1381q3 20 25 20h739q20 0 17 -20l-15 -92q-4 -19 -22 -19h-617l-80 -499h519q9 0 14 -6t4 -15l-14 -90q-1 -9 -8.5 -15t-16.5 -6h-518l-84 -528h635q21 0 18 -20l-14 -93q-4 -18 -23 -18h-759q-20 0 -17 20zM627 1522q-7 17 12 30l383 250q20 10 27 -6 l45 -102q9 -15 -11 -27l-403 -209q-7 -5 -15.5 -3t-11.5 9z" />
<glyph unicode="&#xca;" horiz-adv-x="1052" d="M180 20l217 1381q3 20 25 20h739q20 0 17 -20l-15 -92q-4 -19 -22 -19h-617l-80 -499h519q9 0 14 -6t4 -15l-14 -90q-1 -9 -8.5 -15t-16.5 -6h-518l-84 -528h635q21 0 18 -20l-14 -93q-4 -18 -23 -18h-759q-20 0 -17 20zM500 1530l280 196q12 9 27 9h113q12 0 24 -9 l215 -196q10 -10 7.5 -16.5t-17.5 -6.5h-139q-14 0 -25 11l-137 127l-174 -127q-15 -11 -29 -11h-141q-30 0 -4 23z" />
<glyph unicode="&#xcb;" horiz-adv-x="1052" d="M180 20l217 1381q3 20 25 20h739q20 0 17 -20l-15 -92q-4 -19 -22 -19h-617l-80 -499h519q9 0 14 -6t4 -15l-14 -90q-1 -9 -8.5 -15t-16.5 -6h-518l-84 -528h635q21 0 18 -20l-14 -93q-4 -18 -23 -18h-759q-20 0 -17 20zM553 1628q7 49 42 79t83 30t73.5 -30t18.5 -79 t-43 -78.5t-84 -29.5t-72.5 29.5t-17.5 78.5zM877 1628q9 50 43 79.5t84 29.5q48 0 72.5 -30t15.5 -79q-6 -49 -40.5 -78.5t-82.5 -29.5q-51 0 -75.5 29t-16.5 79z" />
<glyph unicode="&#xcc;" horiz-adv-x="493" d="M180 18l217 1383q3 20 23 20h104q20 0 17 -20l-217 -1383q-4 -18 -23 -18h-106q-8 0 -12 5.5t-3 12.5zM242 1694l80 102q13 16 26 6l307 -252q14 -10 0 -28l-45 -58q-5 -8 -12.5 -10t-13.5 2l-338 211q-15 9 -4 27z" />
<glyph unicode="&#xcd;" horiz-adv-x="493" d="M180 18l217 1383q3 20 23 20h104q20 0 17 -20l-217 -1383q-4 -18 -23 -18h-106q-8 0 -12 5.5t-3 12.5zM301 1522q-10 17 10 30l385 250q17 10 27 -6l45 -102q7 -18 -12 -27l-402 -209q-19 -9 -28 6z" />
<glyph unicode="&#xce;" horiz-adv-x="493" d="M131.5 1531.5q2.5 4.5 11.5 10.5l295 209q16 8 31 8h111l22 -30l-276 -199q-11 -8 -29 -8h-150q-10 0 -14 2.5t-1.5 7zM180 18l217 1383q3 20 23 20h104q20 0 17 -20l-217 -1383q-4 -18 -23 -18h-106q-8 0 -12 5.5t-3 12.5zM440 1729l33 30h111q14 0 26 -8l228 -207 q25 -22 -11 -22h-147q-19 0 -27 8z" />
<glyph unicode="&#xcf;" horiz-adv-x="493" d="M180 18l217 1383q3 20 23 20h104q20 0 17 -20l-217 -1383q-4 -18 -23 -18h-106q-8 0 -12 5.5t-3 12.5zM221 1624q9 53 45 85t88 32q51 0 77.5 -32.5t19.5 -84.5q-9 -51 -46 -82t-88 -31t-77.5 31t-18.5 82zM563 1624q8 53 44.5 85t88.5 32q50 0 76 -32.5t19 -84.5 q-7 -51 -44 -82t-88 -31q-52 0 -78 31t-18 82z" />
<glyph unicode="&#xd0;" horiz-adv-x="1363" d="M156 655l16 95q3 20 23 20h102l100 631q3 20 25 20h364q330 0 498.5 -192.5t116.5 -517.5q-35 -216 -150.5 -377.5t-293.5 -247.5t-396 -86h-364q-9 0 -14.5 5.5t-4.5 14.5l98 615h-104q-16 0 -16 20zM340 131h242q268 0 450 155.5t225 424.5q43 268 -90.5 424.5 t-400.5 156.5h-242l-84 -522h299q8 0 13 -5.5t4 -14.5l-17 -95q-3 -20 -22 -20h-297z" />
<glyph unicode="&#xd1;" horiz-adv-x="1454" d="M180 20l219 1381q3 20 23 20h131q13 0 20 -14l598 -1190l189 1184q3 20 22 20h105q8 0 12.5 -5.5t3.5 -14.5l-219 -1381q-1 -9 -7.5 -14.5t-14.5 -5.5h-129q-15 0 -23 12l-600 1190l-186 -1182q-1 -9 -8 -14.5t-15 -5.5h-104q-20 0 -17 20zM670 1591q42 87 99.5 136 t113.5 49q38 0 66.5 -16t45.5 -38.5t32 -45t34.5 -38t44.5 -14.5q66 2 123 111q14 24 31 10l43 -35q14 -10 6 -29q-42 -87 -100 -135.5t-117 -48.5q-37 0 -65.5 16t-45.5 39t-33 45.5t-35.5 37.5t-44.5 14q-64 0 -123 -115q-13 -20 -28 -8l-43 35q-14 14 -4 30z" />
<glyph unicode="&#xd2;" horiz-adv-x="1632" d="M201 711q51 327 283.5 528t559.5 201q328 0 497 -201t118 -528q-53 -329 -284.5 -529t-559.5 -200q-217 0 -368.5 90.5t-216 256t-29.5 382.5zM344 711q-41 -266 94.5 -428t399.5 -162q261 0 447.5 162.5t227.5 427.5q41 266 -93 427.5t-396 161.5q-263 0 -451 -162 t-229 -427zM811 1694l80 102q13 16 27 6l307 -252q14 -10 0 -28l-45 -58q-5 -8 -13 -10t-14 2l-338 211q-15 9 -4 27z" />
<glyph unicode="&#xd3;" horiz-adv-x="1632" d="M201 711q51 327 283.5 528t559.5 201q328 0 497 -201t118 -528q-53 -329 -284.5 -529t-559.5 -200q-217 0 -368.5 90.5t-216 256t-29.5 382.5zM344 711q-41 -266 94.5 -428t399.5 -162q261 0 447.5 162.5t227.5 427.5q41 266 -93 427.5t-396 161.5q-263 0 -451 -162 t-229 -427zM870 1522q-10 16 11 30l385 250q16 10 26 -6l45 -102q7 -18 -12 -27l-401 -209q-20 -10 -29 6z" />
<glyph unicode="&#xd4;" horiz-adv-x="1632" d="M201 711q-35 -217 29.5 -382.5t216 -256t368.5 -90.5q328 0 559.5 200t284.5 529q51 327 -118 528t-497 201q-327 0 -559.5 -201t-283.5 -528zM344 711q41 265 229 427t451 162q262 0 396 -161.5t93 -427.5q-41 -265 -227.5 -427.5t-447.5 -162.5q-264 0 -399.5 162 t-94.5 428zM731 1550l281 197q11 8 26 8h113q14 0 25 -8l215 -197q22 -22 -11 -22h-139q-14 0 -24 10l-138 127l-174 -127q-13 -10 -28 -10h-142q-29 0 -4 22z" />
<glyph unicode="&#xd5;" horiz-adv-x="1632" d="M201 711q51 327 283.5 528t559.5 201q328 0 497 -201t118 -528q-53 -329 -284.5 -529t-559.5 -200q-217 0 -368.5 90.5t-216 256t-29.5 382.5zM344 711q-41 -266 94.5 -428t399.5 -162q261 0 447.5 162.5t227.5 427.5q41 266 -93 427.5t-396 161.5q-263 0 -451 -162 t-229 -427zM758 1591q42 87 99.5 136t113.5 49q38 0 66.5 -16t45.5 -38.5t32 -45t34.5 -38t44.5 -14.5q66 2 123 111q14 24 31 10l43 -35q14 -10 6 -29q-42 -87 -100 -135.5t-117 -48.5q-37 0 -65.5 16t-45.5 39t-33 45.5t-35.5 37.5t-44.5 14q-63 0 -122 -115 q-14 -20 -29 -8l-43 35q-14 14 -4 30z" />
<glyph unicode="&#xd6;" horiz-adv-x="1632" d="M201 711q51 327 283.5 528t559.5 201q328 0 497 -201t118 -528q-53 -329 -284.5 -529t-559.5 -200q-217 0 -368.5 90.5t-216 256t-29.5 382.5zM344 711q-41 -266 94.5 -428t399.5 -162q261 0 447.5 162.5t227.5 427.5q41 266 -93 427.5t-396 161.5q-263 0 -451 -162 t-229 -427zM791 1624q9 53 45 85t88 32q51 0 77.5 -32t18.5 -85q-9 -51 -45.5 -82t-87.5 -31t-77.5 31t-18.5 82zM1133 1624q8 53 44.5 85t88.5 32q50 0 75.5 -32.5t18.5 -84.5q-7 -51 -43.5 -82t-87.5 -31q-52 0 -78 31t-18 82z" />
<glyph unicode="&#xd7;" horiz-adv-x="1021" d="M221 371q-14 14 4 28l295 254l-213 256q-13 13 4 27l76 68q18 14 29 0l215 -254l295 254q16 12 28 0l56 -68q13 -13 -4 -27l-295 -256l215 -254q10 -14 -4 -28l-78 -68q-16 -13 -29 0l-215 256l-295 -256q-16 -13 -29 0z" />
<glyph unicode="&#xd8;" horiz-adv-x="1550" d="M139 18q-13 12 4 29l1456 1380q6 7 14.5 8t14.5 -5l53 -56q14 -14 -4 -28l-1456 -1383q-14 -14 -28 0zM201 711q51 327 283.5 528t559.5 201q328 0 497 -201t118 -528q-53 -329 -284.5 -529t-559.5 -200q-217 0 -368.5 90.5t-216 256t-29.5 382.5zM344 711 q-41 -266 94.5 -428t399.5 -162q261 0 447.5 162.5t227.5 427.5q41 266 -93 427.5t-396 161.5q-263 0 -451 -162t-229 -427z" />
<glyph unicode="&#xd9;" horiz-adv-x="1306" d="M238 557l135 844q0 18 22 18h105q8 0 12.5 -5.5t3.5 -14.5l-135 -844q-33 -215 47 -324.5t248 -109.5t281 108.5t147 325.5l135 846q3 20 23 20h104q18 0 18 -20l-135 -846q-45 -279 -204 -426t-392 -147t-345.5 148t-69.5 427zM647 1694l80 102q13 16 27 6l307 -252 q14 -10 0 -28l-45 -58q-5 -8 -13 -10t-14 2l-338 211q-15 9 -4 27z" />
<glyph unicode="&#xda;" horiz-adv-x="1306" d="M238 557l135 844q0 18 22 18h105q8 0 12.5 -5.5t3.5 -14.5l-135 -844q-33 -215 47 -324.5t248 -109.5t281 108.5t147 325.5l135 846q3 20 23 20h104q18 0 18 -20l-135 -846q-45 -279 -204 -426t-392 -147t-345.5 148t-69.5 427zM707 1522q-7 17 10 30l385 250 q16 10 26 -6l46 -102q7 -17 -13 -27l-401 -209q-20 -10 -29 6z" />
<glyph unicode="&#xdb;" horiz-adv-x="1306" d="M236 557q-43 -279 69.5 -427t345.5 -148t392 147t204 426l135 846q0 18 -18 18h-104q-20 0 -23 -18l-135 -846q-34 -217 -147 -325.5t-281 -108.5t-248 109.5t-47 324.5l135 844q1 9 -3.5 14.5t-12.5 5.5h-105q-22 0 -22 -18zM567 1550l281 197q11 8 26 8h113q14 0 25 -8 l215 -197q22 -22 -10 -22h-140q-14 0 -24 10l-138 127l-174 -127q-13 -10 -28 -10h-142q-29 0 -4 22z" />
<glyph unicode="&#xdc;" horiz-adv-x="1306" d="M238 557l135 844q0 18 22 18h105q8 0 12.5 -5.5t3.5 -14.5l-135 -844q-33 -215 47 -324.5t248 -109.5t281 108.5t147 325.5l135 846q3 20 23 20h104q18 0 18 -20l-135 -846q-45 -279 -204 -426t-392 -147t-345.5 148t-69.5 427zM627 1624q9 53 45 85t88 32q51 0 77.5 -32 t18.5 -85q-9 -51 -45.5 -82t-87.5 -31t-77.5 31t-18.5 82zM969 1624q8 53 44.5 85t88.5 32q50 0 75.5 -32.5t18.5 -84.5q-7 -51 -43.5 -82t-87.5 -31q-52 0 -78 31t-18 82z" />
<glyph unicode="&#xdd;" horiz-adv-x="1146" d="M235 1412.5q5 6.5 19 6.5h121q20 0 26 -16l285 -705l508 705q10 16 31 16h121q12 0 15 -6.5t-5 -17.5l-619 -828l-88 -549q-4 -18 -22 -18h-105q-9 0 -13.5 5t-2.5 13l86 547l-356 830q-6 11 -1 17.5zM627 1522q-7 17 10 30l385 250q17 10 27 -6l45 -102q7 -17 -13 -27 l-401 -209q-20 -10 -29 6z" />
<glyph unicode="&#xde;" horiz-adv-x="1126" d="M160 20l217 1379q3 22 24 22h105q18 0 18 -20l-47 -287h279q215 0 318.5 -105t74.5 -298q-32 -192 -169.5 -298t-352.5 -106h-277l-45 -287q-3 -20 -24 -20h-105q-19 0 -16 20zM371 438h280q153 -1 242.5 70t110.5 201q22 129 -45.5 201.5t-219.5 72.5h-282z" />
<glyph unicode="&#xdf;" horiz-adv-x="1144" d="M152 20l149 955q16 97 53.5 180.5t96 149t143 102.5t184.5 37q151 0 238 -85.5t63 -232.5q-9 -54 -38 -100.5t-65 -78t-72 -58.5t-63 -54t-32 -53q-5 -31 28 -66.5t81 -74.5t95 -87.5t74 -122.5t13 -161q-21 -140 -138 -232.5t-262 -92.5q-107 0 -198 53q-8 3 -10 11.5 t4 17.5l55 98q9 17 27 8q70 -45 143 -45q89 0 155.5 50t79.5 128q7 49 -6.5 93.5t-40.5 79t-61.5 68t-69.5 65t-62.5 63.5t-42 71t-7.5 80q6 39 34.5 78t65 70t73 61t64.5 64t33 67q13 87 -38.5 129.5t-141.5 42.5q-50 0 -92 -12t-73 -36.5t-55 -52.5t-41.5 -69t-29.5 -76 t-21 -84.5t-14 -83.5t-11.5 -83t-10.5 -74l-113 -707q-3 -20 -25 -20h-102q-19 0 -16 20z" />
<glyph unicode="&#xe0;" d="M150 455q34 212 181 342.5t351 130.5q124 0 210 -49t128 -140l47 150q7 20 27 20h65q18 0 15 -20l-138 -869q-3 -20 -22 -20h-68q-8 0 -13 5t-5 13v152q-70 -91 -171.5 -140.5t-224.5 -49.5q-205 0 -310.5 131t-71.5 344zM279 455q-23 -154 56 -249t232 -95 q154 0 265.5 94.5t140.5 249.5q22 154 -60 249t-237 95q-153 0 -262.5 -95t-134.5 -249zM323 1385q-1 8 5 14l80 98q12 12 26 2l301 -278q12 -9 2 -23l-51 -55q-10 -13 -24 -2l-330 231q-8 5 -9 13z" />
<glyph unicode="&#xe1;" d="M150 455q34 212 181 342.5t351 130.5q124 0 210 -49t128 -140l47 150q7 20 27 20h65q18 0 15 -20l-138 -869q-3 -20 -22 -20h-68q-8 0 -13 5t-5 13v152q-70 -91 -171.5 -140.5t-224.5 -49.5q-205 0 -310.5 131t-71.5 344zM279 455q-23 -154 56 -249t232 -95 q154 0 265.5 94.5t140.5 249.5q22 154 -60 249t-237 95q-153 0 -262.5 -95t-134.5 -249zM612 1102q-9 16 6 28l345 275q15 15 26 -2l64 -96q10 -17 -9 -27l-368 -236q-19 -12 -29 5z" />
<glyph unicode="&#xe2;" d="M150 455q34 212 181 342.5t351 130.5q124 0 210 -49t128 -140l47 150q7 20 27 20h65q18 0 15 -20l-138 -869q-3 -20 -22 -20h-68q-8 0 -13 5t-5 13v152q-70 -91 -171.5 -140.5t-224.5 -49.5q-205 0 -310.5 131t-71.5 344zM279 455q-23 -154 56 -249t232 -95 q154 0 265.5 94.5t140.5 249.5q22 154 -60 249t-237 95q-153 0 -262.5 -95t-134.5 -249zM418 1098l266 272q13 10 33 10h114q18 0 25 -10l180 -270q6 -8 3 -13.5t-13 -5.5h-119q-13 0 -20 11l-129 198l-191 -196q-10 -13 -24 -13h-119q-23 0 -6 17z" />
<glyph unicode="&#xe3;" d="M150 455q34 212 181 342.5t351 130.5q124 0 210 -49t128 -140l47 150q7 20 27 20h65q18 0 15 -20l-138 -869q-3 -20 -22 -20h-68q-8 0 -13 5t-5 13v152q-70 -91 -171.5 -140.5t-224.5 -49.5q-205 0 -310.5 131t-71.5 344zM246 1247q32 93 85 146t113 53q40 0 72 -16.5 t54 -40.5t41.5 -47t43 -39t50.5 -15q67 2 112 121q3 9 10.5 10.5t14.5 -4.5l59 -43q12 -6 6 -18q-27 -93 -80.5 -146t-115.5 -53q-39 0 -71.5 16.5t-55 40.5t-42.5 47t-43 39t-48 15q-68 -2 -113 -121q-10 -20 -29 -8l-55 41q-12 8 -8 22zM279 455q-23 -154 56 -249t232 -95 q154 0 265.5 94.5t140.5 249.5q22 154 -60 249t-237 95q-153 0 -262.5 -95t-134.5 -249z" />
<glyph unicode="&#xe4;" d="M150 455q34 212 181 342.5t351 130.5q124 0 210 -49t128 -140l47 150q7 20 27 20h65q18 0 15 -20l-138 -869q-3 -20 -22 -20h-68q-8 0 -13 5t-5 13v152q-70 -91 -171.5 -140.5t-224.5 -49.5q-205 0 -310.5 131t-71.5 344zM279 455q-23 -154 56 -249t232 -95 q154 0 265.5 94.5t140.5 249.5q22 154 -60 249t-237 95q-153 0 -262.5 -95t-134.5 -249zM500 1231q9 52 45 83.5t88 31.5q51 0 77.5 -32t18.5 -83q-9 -51 -45.5 -83t-87.5 -32t-77.5 32t-18.5 83zM842 1231q8 51 44 83t87 32t77.5 -32t18.5 -83t-44 -83t-87 -32 q-52 0 -78 31.5t-18 83.5z" />
<glyph unicode="&#xe5;" d="M150 455q34 212 181 342.5t351 130.5q124 0 210 -49t128 -140l47 150q7 20 27 20h65q18 0 15 -20l-138 -869q-3 -20 -22 -20h-68q-8 0 -13 5t-5 13v152q-70 -91 -171.5 -140.5t-224.5 -49.5q-205 0 -310.5 131t-71.5 344zM279 455q-23 -154 56 -249t232 -95 q154 0 265.5 94.5t140.5 249.5q22 154 -60 249t-237 95q-153 0 -262.5 -95t-134.5 -249zM602 1245q13 83 72.5 134t142.5 51q84 0 127 -50.5t31 -134.5q-13 -85 -72.5 -135.5t-144.5 -50.5q-83 0 -125.5 50.5t-30.5 135.5zM692 1243q-6 -43 16 -69.5t64 -26.5 q44 0 74.5 26.5t38.5 69.5q6 43 -16.5 69.5t-65.5 26.5t-74 -26.5t-37 -69.5z" />
<glyph unicode="&#xe6;" horiz-adv-x="1927" d="M150 455q34 212 181 342.5t351 130.5q124 0 210 -49t128 -140l47 150q7 20 27 20h63q20 0 17 -20l-15 -96q151 135 367 135q218 0 323.5 -138t67.5 -374q-1 -9 -8.5 -15t-16.5 -6h-788q-2 -130 83 -207t232 -77q177 0 287 104q16 13 29 0l57 -61q14 -14 -4 -31 q-156 -143 -389 -143q-227 0 -346 141l-17 -101q-3 -20 -24 -20h-64q-20 0 -20 20v150q-70 -91 -171.5 -140.5t-224.5 -49.5q-205 0 -310.5 131t-71.5 344zM279 455q-23 -154 56 -249t232 -95q154 0 265.5 94.5t140.5 249.5q22 155 -60 249.5t-237 94.5q-153 0 -262.5 -95 t-134.5 -249zM1122 514h676q2 130 -77 207.5t-216 77.5t-241 -77.5t-142 -207.5z" />
<glyph unicode="&#xe7;" horiz-adv-x="1019" d="M150 455q18 115 73.5 208t132.5 150.5t166 87.5t180 29q117 0 213 -51t144 -146q7 -16 -8 -31l-78 -57q-23 -17 -33 6q-33 69 -101 107.5t-163 38.5q-154 0 -263 -94t-134 -248q-23 -154 56 -249t232 -95q95 0 175.5 38t136.5 107q16 19 32 6l60 -59q6 -5 6 -13t-6 -16 q-76 -92 -185.5 -143t-238.5 -51q-212 0 -321.5 131t-75.5 344zM254 -341q0 7 6 11l49 51q12 16 23 5q74 -45 125 -45q45 0 75 22.5t35 56.5q7 37 -23.5 52.5t-82.5 15.5h-84q-17 0 -10 18l92 154h108l-43 -72q81 -8 124 -48.5t30 -119.5q-12 -81 -78.5 -130.5t-157.5 -49.5 q-107 0 -182 68q-6 4 -6 11z" />
<glyph unicode="&#xe8;" horiz-adv-x="1097" d="M150 455q34 212 184 342.5t362 130.5q223 0 327 -136.5t64 -375.5q-1 -9 -7.5 -15t-14.5 -6h-791q-2 -130 83.5 -207t232.5 -77q173 0 284 102q16 16 33 2l56 -61q13 -14 -2 -29q-154 -145 -392 -145q-222 0 -337.5 131t-81.5 344zM293 514h676q2 130 -77 207.5 t-216 77.5t-241 -77.5t-142 -207.5zM294 1383q-1 8 5 14l80 98q13 13 27 2l301 -278q12 -9 2 -23l-52 -55q-10 -13 -24 -2l-330 231q-8 5 -9 13z" />
<glyph unicode="&#xe9;" horiz-adv-x="1097" d="M150 455q34 212 184 342.5t362 130.5q223 0 327 -136.5t64 -375.5q-1 -9 -7.5 -15t-14.5 -6h-791q-2 -130 83.5 -207t232.5 -77q173 0 284 102q16 16 33 2l56 -61q13 -14 -2 -29q-154 -145 -392 -145q-222 0 -337.5 131t-81.5 344zM293 514h676q2 130 -77 207.5 t-216 77.5t-241 -77.5t-142 -207.5zM580 1120q-11 15 6 29l325 260q15 11 25 -2l61 -94q10 -14 -8 -25l-350 -223q-8 -4 -16 -3t-11 7z" />
<glyph unicode="&#xea;" horiz-adv-x="1095" d="M150 455q34 212 184 342.5t362 130.5q223 0 327 -136.5t64 -375.5q-1 -9 -7.5 -15t-14.5 -6h-791q-2 -130 83.5 -207t232.5 -77q173 0 284 102q16 16 33 2l56 -61q13 -14 -2 -29q-154 -145 -392 -145q-222 0 -337.5 131t-81.5 344zM293 514h676q2 130 -77 207.5 t-216 77.5t-241 -77.5t-142 -207.5zM412 1098l266 272q13 10 33 10h114q18 0 25 -10l180 -270q6 -8 3 -13.5t-13 -5.5h-119q-13 0 -20 11l-129 198l-191 -196q-10 -13 -24 -13h-119q-23 0 -6 17z" />
<glyph unicode="&#xeb;" horiz-adv-x="1097" d="M150 455q34 212 184 342.5t362 130.5q223 0 327 -136.5t64 -375.5q-1 -9 -7.5 -15t-14.5 -6h-791q-2 -130 83.5 -207t232.5 -77q173 0 284 102q16 16 33 2l56 -61q13 -14 -2 -29q-154 -145 -392 -145q-222 0 -337.5 131t-81.5 344zM293 514h676q2 130 -77 207.5 t-216 77.5t-241 -77.5t-142 -207.5zM461 1249q9 52 45 83.5t88 31.5q51 0 77.5 -32t18.5 -83q-9 -51 -45.5 -82.5t-87.5 -31.5t-77.5 31.5t-18.5 82.5zM803 1249q8 51 44 83t87 32t77.5 -32t18.5 -83q-7 -51 -43.5 -82.5t-87.5 -31.5q-52 0 -78 31t-18 83z" />
<glyph unicode="&#xec;" horiz-adv-x="442" d="M-17 1360.5q-1 7.5 5 13.5l80 99q12 12 26 2l301 -279q12 -9 2 -22l-51 -56q-10 -13 -24 -2l-330 232q-8 5 -9 12.5zM160 18l137 871q0 7 6.5 12.5t15.5 5.5h93q9 0 13.5 -5t2.5 -13l-137 -871q-4 -18 -23 -18h-92q-9 0 -13.5 5t-2.5 13z" />
<glyph unicode="&#xed;" horiz-adv-x="442" d="M160 18l137 871q0 7 6.5 12.5t15.5 5.5h93q9 0 13.5 -5t2.5 -13l-137 -871q-4 -18 -23 -18h-92q-9 0 -13.5 5t-2.5 13zM248 1120q-8 16 8 29l324 260q15 12 26 -2l62 -92q10 -14 -9 -25l-350 -225q-18 -9 -28 4z" />
<glyph unicode="&#xee;" horiz-adv-x="442" d="M66 1075l280 287q12 12 33 12h121q20 0 26 -12l191 -285q6 -7 3 -12.5t-15 -5.5h-125q-14 0 -21 10l-135 209l-201 -207q-9 -12 -26 -12h-125q-22 0 -6 16zM160 18q-2 -8 2.5 -13t13.5 -5h92q19 0 23 18l137 871q2 8 -2.5 13t-13.5 5h-93q-9 0 -15.5 -5.5t-6.5 -12.5z " />
<glyph unicode="&#xef;" horiz-adv-x="442" d="M127 1229q9 51 45 82.5t88 31.5q51 0 77.5 -31.5t18.5 -82.5q-9 -51 -45.5 -83t-87.5 -32t-77.5 32t-18.5 83zM160 18l137 871q0 7 6.5 12.5t15.5 5.5h93q9 0 13.5 -5t2.5 -13l-137 -871q-4 -18 -23 -18h-92q-9 0 -13.5 5t-2.5 13zM469 1229q7 51 43.5 82.5t87.5 31.5 t77.5 -31.5t18.5 -82.5t-44 -83t-87 -32q-52 0 -78 31.5t-18 83.5z" />
<glyph unicode="&#xf0;" horiz-adv-x="1103" d="M182 414q31 196 168.5 313t333.5 117q141 0 223 -76q-45 190 -159 334l-250 -119q-14 -7 -21 4l-49 57q-10 16 8 25l240 113q-92 89 -203 143q-17 10 -4 27l55 86q14 20 31 10q151 -70 266 -197l215 103q18 7 25 -4l47 -58q13 -13 -8 -24l-213 -101q108 -154 154 -362.5 t10 -405.5q-35 -189 -173 -304t-331 -115q-195 0 -295.5 119.5t-69.5 314.5zM319 412q-22 -132 48 -216.5t202 -84.5q133 0 231 86t120 221q22 139 -45 219t-209 80q-135 0 -230 -83.5t-117 -221.5z" />
<glyph unicode="&#xf1;" horiz-adv-x="1114" d="M152 18l137 871q4 18 22 18h62q20 0 20 -18l-2 -162q61 94 153 147.5t208 53.5q170 0 251 -100.5t48 -305.5l-80 -504q0 -7 -6.5 -12.5t-14.5 -5.5h-94q-9 0 -13.5 5t-2.5 13l80 506q45 275 -203 275q-130 0 -233.5 -105t-135.5 -256l-65 -420q-4 -18 -23 -18h-92 q-9 0 -13.5 5t-2.5 13zM446 1200q42 84 98 131t109 47q31 0 55.5 -10.5t38.5 -26.5t28 -34.5t25 -34t27.5 -25.5t36.5 -10q67 3 119 109q12 17 27 8l47 -39q9 -9 2 -19q-38 -85 -93 -132.5t-112 -47.5q-36 0 -63 15t-44 36.5t-32 42.5t-34 36t-42 14q-61 -2 -117 -109 q-11 -20 -26 -8l-45 37q-9 6 -5 20z" />
<glyph unicode="&#xf2;" horiz-adv-x="1097" d="M150 455q34 212 184 342.5t362 130.5t322 -130.5t76 -342.5q-34 -213 -184.5 -344t-362.5 -131t-321.5 131t-75.5 344zM274 1383q-1 8 5 14l79 98q13 13 27 2l301 -278q12 -9 2 -23l-51 -55q-10 -13 -25 -2l-329 231q-8 5 -9 13zM279 455q-23 -154 56 -249t232 -95 q154 0 263.5 95t134.5 249q23 154 -56.5 249t-232.5 95t-262.5 -95t-134.5 -249z" />
<glyph unicode="&#xf3;" horiz-adv-x="1097" d="M150 455q34 212 184 342.5t362 130.5t322 -130.5t76 -342.5q-34 -213 -184.5 -344t-362.5 -131t-321.5 131t-75.5 344zM279 455q-23 -154 56 -249t232 -95q154 0 263.5 95t134.5 249q23 154 -56.5 249t-232.5 95t-262.5 -95t-134.5 -249zM557 1116q-8 16 8 29l324 260 q17 10 26 -2l62 -94q10 -14 -8 -25l-351 -223q-18 -9 -28 4z" />
<glyph unicode="&#xf4;" horiz-adv-x="1097" d="M150 455q-34 -213 75.5 -344t321.5 -131t362.5 131t184.5 344q34 212 -76 342.5t-322 130.5t-362 -130.5t-184 -342.5zM279 455q25 154 134.5 249t262.5 95t232.5 -95t56.5 -249q-25 -154 -134.5 -249t-263.5 -95q-153 0 -232 95t-56 249zM412 1094l266 272q13 10 33 10 h114q18 0 25 -10l180 -270q6 -8 3 -13.5t-13 -5.5h-119q-13 0 -20 10l-129 199l-191 -196q-10 -13 -24 -13h-119q-23 0 -6 17z" />
<glyph unicode="&#xf5;" horiz-adv-x="1097" d="M150 455q34 212 184 342.5t362 130.5t322 -130.5t76 -342.5q-34 -213 -184.5 -344t-362.5 -131t-321.5 131t-75.5 344zM221 1245q32 93 85.5 146t113.5 53q40 0 72 -16.5t53.5 -40.5t41 -47t43 -39t50.5 -15q68 2 113 121q7 20 24 6l60 -43q12 -6 6 -18q-27 -93 -81 -146 t-116 -53q-39 0 -71.5 16.5t-55 40.5t-42.5 47t-43 39t-48 15q-68 -2 -113 -121q-10 -20 -28 -8l-56 41q-12 8 -8 22zM279 455q-23 -154 56 -249t232 -95q154 0 263.5 95t134.5 249q23 154 -56.5 249t-232.5 95t-262.5 -95t-134.5 -249z" />
<glyph unicode="&#xf6;" horiz-adv-x="1097" d="M150 455q34 212 184 342.5t362 130.5t322 -130.5t76 -342.5q-34 -213 -184.5 -344t-362.5 -131t-321.5 131t-75.5 344zM279 455q-23 -154 56 -249t232 -95q154 0 263.5 95t134.5 249q23 154 -56.5 249t-232.5 95t-262.5 -95t-134.5 -249zM461 1249q9 52 45 83.5t88 31.5 q51 0 77.5 -32t18.5 -83q-9 -51 -45.5 -82.5t-87.5 -31.5t-77.5 31.5t-18.5 82.5zM803 1249q8 51 44 83t87 32t77.5 -32t18.5 -83q-7 -51 -43.5 -82.5t-87.5 -31.5q-52 0 -78 31t-18 83z" />
<glyph unicode="&#xf7;" horiz-adv-x="1101" d="M244 557l14 94q4 21 23 21h753q20 0 17 -21l-15 -94q-1 -9 -7.5 -14.5t-14.5 -5.5h-754q-19 0 -16 20zM479 311q7 54 46.5 86.5t95.5 32.5q55 0 83 -32.5t19 -86.5q-9 -56 -47.5 -89.5t-93.5 -33.5t-83.5 33.5t-19.5 89.5zM573 915q9 54 48.5 86.5t95.5 32.5 q55 0 83 -32.5t19 -86.5q-9 -56 -47.5 -89t-93.5 -33t-84 33t-21 89z" />
<glyph unicode="&#xf8;" horiz-adv-x="1097" d="M88 10q-11 14 4 29l111 104q-80 121 -53 312q34 212 184 342.5t362 130.5q154 0 258 -74l109 102q17 14 29 2l53 -55q13 -13 -2 -29l-107 -100q87 -130 58 -319q-34 -213 -184.5 -344t-362.5 -131q-161 0 -266 79l-109 -104q-17 -14 -31 0zM279 455q-19 -129 30 -211 l541 510q-73 45 -174 45q-153 0 -262.5 -95t-134.5 -249zM387 160q70 -49 180 -49q154 0 263.5 95t134.5 249q18 132 -35 219z" />
<glyph unicode="&#xf9;" horiz-adv-x="1110" d="M205 385l78 502q1 9 7.5 14.5t14.5 5.5h94q20 0 17 -20l-80 -504q-45 -274 203 -274q130 0 233 104.5t135 255.5l66 418q3 20 22 20h92q20 0 17 -20l-137 -869q-4 -18 -23 -18h-61q-9 0 -15 5t-6 13l2 162q-61 -94 -152.5 -147t-207.5 -53q-170 0 -251 100t-48 305z M296 1360.5q-1 7.5 5 13.5l80 99q13 13 27 2l301 -279q12 -9 2 -22l-52 -56q-10 -13 -24 -2l-330 232q-8 5 -9 12.5z" />
<glyph unicode="&#xfa;" horiz-adv-x="1110" d="M205 385l78 502q1 9 7.5 14.5t14.5 5.5h94q20 0 17 -20l-80 -504q-45 -274 203 -274q130 0 233 104.5t135 255.5l66 418q3 20 22 20h92q20 0 17 -20l-137 -869q-4 -18 -23 -18h-61q-9 0 -15 5t-6 13l2 162q-61 -94 -152.5 -147t-207.5 -53q-170 0 -251 100t-48 305z M561 1110q-7 17 8 29l324 260q16 13 27 -2l61 -92q10 -14 -8 -25l-350 -223q-19 -13 -29 4z" />
<glyph unicode="&#xfb;" horiz-adv-x="1110" d="M205 385l78 502q1 9 7.5 14.5t14.5 5.5h94q20 0 17 -20l-80 -504q-45 -274 203 -274q130 0 233 104.5t135 255.5l66 418q3 20 22 20h92q20 0 17 -20l-137 -869q-4 -18 -23 -18h-61q-9 0 -15 5t-6 13l2 162q-61 -94 -152.5 -147t-207.5 -53q-170 0 -251 100t-48 305z M418 1096l266 272q13 10 33 10h114q18 0 25 -10l180 -270q6 -8 3 -13.5t-13 -5.5h-119q-13 0 -20 11l-129 198l-191 -196q-10 -13 -24 -13h-119q-23 0 -6 17z" />
<glyph unicode="&#xfc;" horiz-adv-x="1110" d="M205 385l78 502q1 9 7.5 14.5t14.5 5.5h94q20 0 17 -20l-80 -504q-45 -274 203 -274q130 0 233 104.5t135 255.5l66 418q3 20 22 20h92q20 0 17 -20l-137 -869q-4 -18 -23 -18h-61q-9 0 -15 5t-6 13l2 162q-61 -94 -152.5 -147t-207.5 -53q-170 0 -251 100t-48 305z M465 1229q9 51 45 82.5t88 31.5q51 0 77.5 -31.5t18.5 -82.5q-9 -51 -45.5 -83t-87.5 -32t-77.5 32t-18.5 83zM807 1229q7 51 43.5 82.5t87.5 31.5t77.5 -31.5t18.5 -82.5t-44 -83t-87 -32q-52 0 -78 31.5t-18 83.5z" />
<glyph unicode="&#xfd;" horiz-adv-x="931" d="M143 -440l252 442l-233 879q-3 11 3.5 18.5t18.5 7.5h107q20 0 24 -18l172 -725l412 725q11 18 29 18h106q14 0 18 -7.5t-3 -18.5l-768 -1330q-11 -18 -29 -18h-94q-28 0 -15 27zM530 1075q-11 15 7 29l323 260q18 11 27 -2l61 -94q10 -14 -8 -25l-350 -223 q-18 -11 -29 4z" />
<glyph unicode="&#xfe;" horiz-adv-x="1181" d="M78 -446l303 1904q1 9 7.5 15t14.5 6h93q20 0 16 -21l-115 -721q72 91 174 141t224 50q206 0 311.5 -130.5t71.5 -342.5q-34 -213 -181 -344t-352 -131q-123 0 -209.5 50t-126.5 142l-98 -618q-1 -9 -8.5 -15t-16.5 -6h-90q-18 0 -18 21zM354 455q-23 -156 60 -250 t237 -94t263.5 95t134.5 249q23 154 -56.5 249t-232.5 95q-154 0 -267 -94t-139 -250z" />
<glyph unicode="&#xff;" horiz-adv-x="931" d="M143 -440l252 442l-233 879q-3 11 3.5 18.5t18.5 7.5h107q20 0 24 -18l172 -725l412 725q11 18 29 18h106q14 0 18 -7.5t-3 -18.5l-768 -1330q-11 -18 -29 -18h-94q-28 0 -15 27zM371 1208q9 52 45 83.5t88 31.5q51 0 77.5 -32t18.5 -83q-9 -51 -45.5 -82.5t-87.5 -31.5 t-77.5 31.5t-18.5 82.5zM713 1208q8 51 44 83t87 32t77.5 -32t18.5 -83q-7 -51 -43.5 -82.5t-87.5 -31.5q-52 0 -78 31t-18 83z" />
<glyph unicode="&#x152;" horiz-adv-x="1562" d="M201 711q51 320 275.5 511t547.5 197l645 2q10 0 15.5 -6.5t3.5 -15.5l-15 -88q-3 -21 -24 -21h-516l-80 -499h420q9 0 14 -6t4 -15l-14 -88q-2 -9 -9 -16t-16 -7h-420l-84 -528h537q21 0 18 -22l-14 -89q-1 -9 -8 -14.5t-15 -5.5h-667q-322 6 -486 198t-112 513z M344 711q-40 -255 86 -408t377 -162l180 1139q-253 -11 -428.5 -163t-214.5 -406z" />
<glyph unicode="&#x153;" horiz-adv-x="1910" d="M150 455q34 212 184 342.5t362 130.5q137 0 233.5 -56.5t139.5 -158.5q76 102 190.5 158.5t249.5 56.5q154 0 251.5 -66t131.5 -180t9 -266q-1 -9 -8.5 -15t-16.5 -6h-789q-2 -130 83.5 -207t232.5 -77q177 0 287 104q16 12 28 0l58 -61q13 -13 -2 -31 q-156 -143 -392 -143q-144 0 -246 58t-147 161q-76 -103 -191 -161t-251 -58q-212 0 -321.5 131t-75.5 344zM279 455q-23 -154 56 -249t232 -95q152 0 262 93.5t136 250.5q23 154 -56.5 249t-232.5 95t-262.5 -95t-134.5 -249zM1106 514h676q3 130 -76.5 207.5t-216.5 77.5 t-241 -77.5t-142 -207.5z" />
<glyph unicode="&#x178;" horiz-adv-x="1146" d="M235 1412.5q5 6.5 19 6.5h121q20 0 26 -16l285 -705l508 705q10 16 31 16h121q12 0 15 -6.5t-5 -17.5l-619 -828l-88 -549q-4 -18 -22 -18h-105q-9 0 -13.5 5t-2.5 13l86 547l-356 830q-6 11 -1 17.5zM547 1624q9 53 45 85t88 32q51 0 77.5 -32t18.5 -85 q-9 -51 -45.5 -82t-87.5 -31t-77.5 31t-18.5 82zM889 1624q8 53 44.5 85t88.5 32q50 0 75.5 -32.5t18.5 -84.5q-7 -51 -43.5 -82t-87.5 -31q-52 0 -78 31t-18 82z" />
<glyph unicode="&#x2c6;" horiz-adv-x="784" d="M238 1081l280 287q12 12 33 12h121q20 0 26 -12l191 -285q6 -7 3 -12.5t-15 -5.5h-125q-14 0 -21 10l-135 209l-201 -207q-9 -12 -26 -12h-125q-22 0 -6 16z" />
<glyph unicode="&#x2dc;" horiz-adv-x="792" d="M279 1241q44 88 102.5 138.5t114.5 50.5q38 0 67 -15.5t45.5 -38t31.5 -44.5t34.5 -37.5t44.5 -14.5q68 2 125 115q11 17 26 8l52 -41q9 -9 2 -19q-41 -89 -99.5 -139.5t-117.5 -50.5q-37 0 -66 16t-46.5 38.5t-33.5 45t-35.5 38t-44.5 14.5q-66 -2 -123 -115 q-12 -21 -28 -8l-47 39q-8 5 -4 20z" />
<glyph unicode="&#x2000;" horiz-adv-x="911" />
<glyph unicode="&#x2001;" horiz-adv-x="1823" />
<glyph unicode="&#x2002;" horiz-adv-x="911" />
<glyph unicode="&#x2003;" horiz-adv-x="1823" />
<glyph unicode="&#x2004;" horiz-adv-x="607" />
<glyph unicode="&#x2005;" horiz-adv-x="455" />
<glyph unicode="&#x2006;" horiz-adv-x="303" />
<glyph unicode="&#x2007;" horiz-adv-x="303" />
<glyph unicode="&#x2008;" horiz-adv-x="227" />
<glyph unicode="&#x2009;" horiz-adv-x="364" />
<glyph unicode="&#x200a;" horiz-adv-x="101" />
<glyph unicode="&#x2010;" horiz-adv-x="811" d="M203 553l14 94q3 21 23 21h544q20 0 17 -21l-17 -94q0 -9 -6.5 -15t-15.5 -6h-543q-19 0 -16 21z" />
<glyph unicode="&#x2011;" horiz-adv-x="811" d="M203 553l14 94q3 21 23 21h544q20 0 17 -21l-17 -94q0 -9 -6.5 -15t-15.5 -6h-543q-19 0 -16 21z" />
<glyph unicode="&#x2012;" horiz-adv-x="811" d="M203 553l14 94q3 21 23 21h544q20 0 17 -21l-17 -94q0 -9 -6.5 -15t-15.5 -6h-543q-19 0 -16 21z" />
<glyph unicode="&#x2013;" horiz-adv-x="1185" d="M244 551l14 94q0 9 7 15t16 6h835q20 0 17 -21l-15 -94q-4 -21 -24 -21h-834q-20 0 -16 21z" />
<glyph unicode="&#x2014;" horiz-adv-x="1730" d="M244 549l14 94q0 9 7 15t16 6h1380q19 0 16 -21l-14 -94q-1 -9 -8.5 -15t-16.5 -6h-1378q-20 0 -16 21z" />
<glyph unicode="&#x2018;" horiz-adv-x="428" d="M246 971q-12 57 6.5 130.5t57 141t94 125.5t112.5 86q8 4 16 2t13 -10l26 -39q9 -15 -8 -29q-149 -104 -188 -248h2q51 0 77 -31.5t17 -82.5q-8 -53 -43.5 -84t-87.5 -31q-38 0 -63 19t-31 51z" />
<glyph unicode="&#x2019;" horiz-adv-x="428" d="M229.5 968q2.5 8 10.5 13q149 104 188 250h-2q-51 0 -77 30.5t-17 81.5q8 53 43.5 85t87.5 32q38 0 63 -19t31 -52q16 -75 -19.5 -174.5t-104.5 -185.5t-146 -124q-20 -8 -29 8l-27 41q-4 6 -1.5 14z" />
<glyph unicode="&#x201a;" horiz-adv-x="468" d="M52 -280.5q2 8.5 9 12.5q151 103 191 250h-2q-52 0 -78 30.5t-18 81.5q7 52 43.5 84.5t87.5 32.5q38 0 64 -19.5t32 -52.5q15 -75 -21 -174.5t-104.5 -185t-144.5 -123.5q-22 -7 -31 8l-25 41q-5 6 -3 14.5z" />
<glyph unicode="&#x201c;" horiz-adv-x="739" d="M246 971q-12 57 6.5 130.5t57 141t94 125.5t112.5 86q8 4 16 2t13 -10l26 -39q9 -15 -8 -29q-149 -104 -188 -248h2q51 0 77 -31.5t17 -82.5q-8 -53 -43.5 -84t-87.5 -31q-38 0 -63 19t-31 51zM557 971q-12 57 6.5 130.5t57 141t94 125.5t112.5 86q8 4 16 2t13 -10 l27 -39q9 -15 -9 -29q-149 -104 -188 -248h2q51 0 77 -31.5t17 -82.5q-8 -53 -43.5 -84t-87.5 -31q-38 0 -63 19t-31 51z" />
<glyph unicode="&#x201d;" horiz-adv-x="819" d="M270.5 968q2.5 8 10.5 13q149 104 188 250h-2q-51 0 -77 30.5t-17 81.5q8 53 43.5 85t87.5 32q38 0 63 -19t31 -52q16 -75 -19.5 -174.5t-104.5 -185.5t-146 -124q-20 -8 -29 8l-27 41q-4 6 -1.5 14zM584 954q-11 15 8 27q149 104 188 250h-2q-51 0 -77 30.5t-17 81.5 q8 53 43.5 85t87.5 32q38 0 63 -19t31 -52q16 -75 -19.5 -174.5t-104.5 -185.5t-146 -124q-20 -8 -29 8z" />
<glyph unicode="&#x201e;" horiz-adv-x="780" d="M53 -297q-11 15 8 27q151 103 191 250h-2q-52 0 -78 30.5t-18 81.5q7 52 43.5 84.5t87.5 32.5q38 0 63 -19.5t33 -52.5q15 -75 -21 -174.5t-104.5 -185t-144.5 -123.5q-22 -7 -31 8zM365 -297q-11 15 8 27q150 102 190 250h-2q-52 0 -78 30.5t-18 81.5q7 52 43.5 84.5 t87.5 32.5q38 0 63 -19.5t33 -52.5q15 -75 -21 -174.5t-104.5 -185t-144.5 -123.5q-22 -7 -31 8z" />
<glyph unicode="&#x2022;" horiz-adv-x="765" d="M221 659q19 120 103 193.5t204 73.5q121 0 184 -73.5t44 -193.5t-105.5 -194t-206.5 -74t-181 74t-42 194z" />
<glyph unicode="&#x2026;" horiz-adv-x="1615" d="M170 94q9 53 45 84t88 31q51 0 77 -31.5t17 -83.5q-7 -51 -43.5 -81.5t-87.5 -30.5q-52 0 -78 30.5t-18 81.5zM711 94q7 52 43.5 83.5t89.5 31.5q50 0 76.5 -31.5t17.5 -83.5q-7 -51 -43.5 -82.5t-87.5 -31.5q-52 0 -78 31t-18 83zM1249 94q7 52 43.5 83.5t89.5 31.5 q50 0 77 -31.5t18 -83.5q-7 -51 -43.5 -82.5t-87.5 -31.5q-52 0 -78.5 31.5t-18.5 82.5z" />
<glyph unicode="&#x202f;" horiz-adv-x="364" />
<glyph unicode="&#x2039;" horiz-adv-x="698" d="M240 535l4 22q4 22 20 35l322 303q6 7 14 7.5t12 -5.5l56 -70q12 -15 -4 -28l-275 -254l195 -252q9 -16 -6 -31l-76 -67q-17 -13 -29 2l-225 301q-11 18 -8 37z" />
<glyph unicode="&#x203a;" horiz-adv-x="698" d="M207 262q-12 15 4 31l272 252l-192 254q-14 14 4 28l78 70q15 15 26 -2l226 -303q12 -12 8 -35l-4 -22q-4 -22 -19 -37l-321 -301q-15 -15 -29 -2z" />
<glyph unicode="&#x205f;" horiz-adv-x="455" />
<glyph unicode="&#x20ac;" horiz-adv-x="1271" d="M152 463l14 92q3 20 24 20h142q3 74 14 136v4h-135q-19 0 -16 20l14 92q2 9 8.5 15t15.5 6h142q71 270 227.5 431t353.5 161q143 0 239.5 -87.5t133.5 -244.5q6 -18 -14 -31l-94 -53q-22 -13 -29 10q-23 126 -90.5 196t-167.5 70q-136 0 -247.5 -122t-168.5 -330h268 q9 0 14.5 -6t4.5 -15l-14 -92q-3 -20 -25 -20h-277v-4q-11 -62 -14 -136h268q9 0 14.5 -5.5t4.5 -14.5l-14 -92q-4 -21 -25 -21h-244q15 -152 85.5 -236.5t183.5 -84.5q91 0 173 58t146 165q13 26 35 12l74 -53q18 -11 4 -31q-86 -138 -203.5 -214t-251.5 -76 q-172 0 -275.5 122.5t-117.5 337.5h-164q-20 0 -16 21z" />
<glyph unicode="&#x2122;" horiz-adv-x="1398" d="M330 1343l8 56q4 22 24 22h424q20 0 17 -20l-8 -55q-1 -9 -8.5 -15t-16.5 -6h-160l-82 -510q-3 -20 -22 -20h-62q-18 0 -18 20l82 510h-162q-19 0 -16 18zM799 811l92 575q1 13 11 22t24 9h55q21 0 27 -18l133 -369l250 369q12 18 34 18h62q21 0 18 -22l-92 -584 q-3 -20 -24 -20h-62q-19 0 -16 20l63 406l-213 -314q-11 -18 -33 -18h-22q-20 0 -27 18l-114 314l-64 -406q-3 -20 -24 -20h-62q-19 0 -16 20z" />
<glyph unicode="&#x25fc;" horiz-adv-x="911" d="M0 0v911h911v-911h-911z" />
</font>
</defs>
</svg>
