<?xml version="1.0" standalone="no"?>
<!DOCTYPE svg PUBLIC "-//W3C//DTD SVG 1.1//EN" "http://www.w3.org/Graphics/SVG/1.1/DTD/svg11.dtd" >
<svg xmlns="http://www.w3.org/2000/svg" xmlns:xlink="http://www.w3.org/1999/xlink" version="1.1">
<metadata></metadata>
<defs>
<font id="ageoextrabold" horiz-adv-x="1132" >
<font-face units-per-em="2048" ascent="1556" descent="-492" />
<missing-glyph horiz-adv-x="512" />
<glyph unicode="&#xfb01;" horiz-adv-x="1173" d="M18 752v206q0 6 6 13.5t15 7.5h121v129q0 106 34 185t93 123t130 64.5t154 20.5q295 0 451 -170q10 -14 2 -28l-86 -181q-11 -15 -27 -2l-11 8q-12 9 -20 14.5l-24 16.5t-30.5 19t-34 18t-38 17t-39.5 13.5t-42.5 9.5t-42.5 3q-198 0 -201 -154v-106h614q8 0 13.5 -5.5 t5.5 -12.5v-941q0 -20 -19 -20h-227q-20 0 -20 20v711h-365v-711q0 -20 -20 -20h-228q-20 0 -20 20l-2 711h-121q-9 0 -15 6t-6 15z" />
<glyph unicode="&#xfb02;" horiz-adv-x="1202" d="M18 752v206q0 6 6 13.5t15 7.5h123v129q0 106 34.5 185t94 123t130 64.5t152.5 20.5q50 0 101 -5t107.5 -16t92.5 -19t101.5 -24.5t87.5 -21.5q24 -10 24 -35l3 -1355q0 -25 -29 -25h-213q-12 0 -19.5 8t-7.5 17v1169q-104 45 -205 45q-38 0 -69 -7.5t-58 -24.5 t-42.5 -48t-16.5 -74v-106h256q9 0 15 -6.5t6 -14.5v-206q0 -8 -7 -14.5t-14 -6.5h-256l2 -711q0 -20 -20 -20h-228q-20 0 -20 20l-2 711h-123q-9 0 -15 6t-6 15z" />
<glyph unicode="&#xfb03;" horiz-adv-x="1818" d="M18 752v206q0 6 6 13.5t15 7.5h121v129q0 211 84.5 302t244.5 91q86 0 156.5 -29.5t97.5 -56.5q17 -10 7 -29l-82 -182q-6 -16 -27 -6q-69 41 -109 41q-50 0 -76.5 -34.5t-27.5 -119.5v-106h377v129q0 86 22.5 154t61 112t92 73t112 41.5t124.5 12.5q86 0 162.5 -16 t122.5 -36t85.5 -48t53 -42t24.5 -28q13 -13 4 -28l-86 -181q-11 -15 -27 -2q-1 1 -21 15t-36 24.5t-45.5 27t-55.5 27t-59.5 18t-64.5 7.5q-198 0 -201 -154v-106h613q20 0 20 -18v-941q0 -7 -1 -11t-5.5 -6.5t-13.5 -2.5h-226q-20 0 -20 20v711h-367l2 -711q0 -20 -20 -20 h-228q-20 0 -20 20l-2 711h-375v-711q0 -20 -20 -20h-228q-20 0 -20 20l-2 711h-121q-9 0 -15 6t-6 15z" />
<glyph unicode="&#xfb04;" horiz-adv-x="1843" d="M18 752v206q0 6 6 13.5t15 7.5h121v129q0 211 84.5 302t244.5 91q86 0 156.5 -29.5t97.5 -56.5q17 -10 7 -29l-82 -182q-6 -16 -27 -6q-69 41 -109 41q-50 0 -76.5 -34.5t-27.5 -119.5v-106h375v129q0 106 34.5 185t94 123t130 64.5t152.5 20.5q50 0 100.5 -5t109 -16.5 t91.5 -18.5t102.5 -24.5t86.5 -21.5q27 -7 27 -35v-1355q0 -25 -29 -25h-213q-12 0 -18.5 8t-6.5 17l-2 1169q-104 45 -202 45q-38 0 -70 -7.5t-59 -24.5t-42.5 -48t-15.5 -74v-106h254q9 0 15 -6.5t6 -14.5v-206q0 -9 -6.5 -15t-14.5 -6h-254v-711q0 -20 -20 -20h-228 q-20 0 -20 20v711h-375v-711q0 -20 -20 -20h-228q-20 0 -20 20l-2 711h-121q-9 0 -15 6t-6 15z" />
<glyph horiz-adv-x="0" />
<glyph horiz-adv-x="682" />
<glyph horiz-adv-x="0" />
<glyph horiz-adv-x="0" />
<glyph unicode="&#xd;" horiz-adv-x="0" />
<glyph unicode=" "  horiz-adv-x="512" />
<glyph unicode="&#x09;" horiz-adv-x="512" />
<glyph unicode="&#xa0;" horiz-adv-x="512" />
<glyph unicode="!" horiz-adv-x="516" d="M104 133q0 69 42 110.5t110 41.5q69 0 110.5 -41.5t41.5 -110.5q0 -68 -41.5 -110.5t-110.5 -42.5q-67 0 -109.5 42.5t-42.5 110.5zM115 1401q0 20 20 20h242q20 0 20 -20l-4 -963q0 -20 -20 -20h-234q-20 0 -20 20z" />
<glyph unicode="&#x22;" horiz-adv-x="753" d="M37 942q-14 11 2 27q122 93 154 219q-1 0 -3.5 1t-3.5 1q-51 11 -80.5 49.5t-29.5 95.5q0 68 41 110t110 42q63 0 104 -38t44 -101q15 -136 -55 -283t-168 -201q-15 -6 -29 8zM374 955q1 8 9 14q123 97 154 219q-2 0 -5 1t-4 1q-51 11 -80 49.5t-28 95.5q0 68 41 110 t108 42q63 0 104 -38t44 -101q15 -136 -55 -283t-168 -201q-15 -6 -29 8l-86 70q-6 5 -5 13z" />
<glyph unicode="#" horiz-adv-x="1333" d="M16 367l64 204q2 6 11 13.5t18 7.5h141l63 237h-155q-22 0 -15 21l64 205q7 18 26 18h146l86 328q3 20 24 20h222q9 0 13 -5.5t1 -14.5l-86 -328h258l86 328q7 20 27 20h219q9 0 13 -5.5t1 -14.5l-86 -328h146q9 0 12.5 -5.5t-0.5 -12.5l-62 -205q-7 -21 -28 -21h-131 l-64 -237h146q9 0 13 -6.5t1 -14.5l-64 -204q-8 -19 -26 -19h-135l-86 -328q-7 -20 -27 -20h-219q-20 0 -17 20l89 328h-259l-88 -328q-3 -20 -24 -20h-219q-20 0 -17 20l88 328h-155q-9 0 -13.5 5.5t-1.5 13.5zM512 592h256l63 237h-258z" />
<glyph unicode="$" horiz-adv-x="1204" d="M80 178l119 213q13 16 30 2q40 -34 125 -74t181 -55v314q-228 47 -338.5 146t-114.5 273q-5 180 118 301t335 138v61q0 21 20 21h96q19 0 23 -21v-61q135 -11 237 -53.5t142 -79.5q14 -10 6 -29l-96 -219q-9 -18 -29 -4q-127 85 -260 104v-311q230 -56 339 -154.5 t115 -275.5q5 -177 -118 -295t-336 -135v-193q0 -20 -23 -20h-96q-20 0 -20 20v191q-156 12 -280.5 68t-170.5 102q-14 11 -4 26zM362 1018q0 -52 38 -82.5t135 -58.5v278q-77 -10 -125 -48.5t-48 -88.5zM674 262q78 8 126 44t48 93q0 46 -38.5 83.5t-135.5 64.5v-285z" />
<glyph unicode="%" horiz-adv-x="1619" d="M33 1124q0 164 99.5 264.5t262.5 100.5q164 0 264.5 -100.5t100.5 -264.5q0 -163 -100.5 -262.5t-264.5 -99.5t-263 99.5t-99 262.5zM270 1124q0 -56 34 -90.5t91 -34.5t92 34t35 91t-35 92t-92 35t-91 -35t-34 -92zM293 29l809 1435q9 15 28 15h220q11 0 16.5 -7 t1.5 -16l-815 -1442q-7 -14 -27 -14h-217q-32 0 -16 29zM881 342q0 164 100 264.5t264 100.5t263.5 -100.5t99.5 -264.5t-99.5 -263t-263.5 -99t-264 99.5t-100 262.5zM1118 342q0 -57 35 -91t92 -34t91 34t34 91t-34 92t-91 35t-92 -35t-35 -92z" />
<glyph unicode="&#x26;" horiz-adv-x="1374" d="M45 428q0 119 62.5 209t171.5 145q-115 129 -115 289q0 166 106 267.5t279 101.5q103 0 178.5 -31t118 -77.5t74.5 -114.5q7 -18 -9 -31l-186 -119q-17 -10 -27 6q-1 2 -10.5 14t-12.5 15.5t-12.5 14t-15 14t-16 11t-19.5 10.5t-22 6t-27 3q-47 0 -76.5 -32t-29.5 -85 q0 -31 12 -61.5t40 -64t49.5 -56t66.5 -64t65 -61.5l244 -237q34 118 37 286q0 21 20 21h230q23 0 20 -21q-4 -336 -82 -510l254 -247q9 -11 6 -20t-16 -9h-301q-20 0 -37 14l-64 62q-140 -109 -372 -109q-262 0 -423 127.5t-161 333.5zM322 451q0 -108 84.5 -177t220.5 -69 q107 0 180 61q-32 30 -194.5 187.5t-188.5 183.5q-102 -66 -102 -186z" />
<glyph unicode="'" horiz-adv-x="409" d="M31 956.5q1 7.5 6 12.5q52 39 95.5 96.5t60.5 124.5h-9q-51 12 -79.5 50.5t-28.5 94.5q0 69 41 112.5t108 43.5q65 0 106 -38.5t46 -102.5q9 -91 -22 -192t-86.5 -179.5t-118.5 -112.5q-12 -9 -27 6l-88 72q-5 5 -4 12.5z" />
<glyph unicode="(" horiz-adv-x="647" d="M84 545q0 123 20.5 249t47.5 218t63.5 181t59 133t42.5 79q10 16 33 16h228q19 -3 10 -18q-21 -36 -43 -78.5t-59.5 -132.5t-64.5 -181t-48 -217t-21 -249q-1 -128 19.5 -257t46.5 -217.5t65 -178.5t59.5 -127t43.5 -76q6 -7 3.5 -12t-11.5 -5h-228q-22 0 -33 19 q-21 34 -43 74.5t-58.5 127.5t-63.5 177t-47.5 218t-20.5 257z" />
<glyph unicode=")" horiz-adv-x="647" d="M57.5 1415.5q3.5 4.5 12.5 3.5l229 2q21 0 31 -16q20 -35 42.5 -79t59 -133t63.5 -181t47.5 -218t20.5 -249q0 -129 -20.5 -257t-47.5 -218t-63.5 -177t-58.5 -127.5t-43 -74.5q-11 -19 -31 -19h-229q-19 0 -9 17q23 39 43.5 76t59.5 127t65 178.5t46.5 217.5t19.5 257 q1 151 -27.5 300.5t-74 266.5t-75.5 179t-59 112q-5 8 -1.5 12.5z" />
<glyph unicode="*" horiz-adv-x="864" d="M31 1092l119 190q13 17 32 6l140 -108l-21 211q0 26 18 26h236q9 0 14.5 -7.5t5.5 -18.5l-22 -211l139 108q21 15 33 -6l121 -190q3 -8 0 -17t-12 -12l-209 -102l131 -142q7 -7 8 -18.5t-6 -18.5l-158 -141q-6 -9 -19 -9t-18 9l-125 201l-125 -201q-6 -9 -18.5 -9 t-20.5 9l-155 141q-8 7 -7.5 18.5t7.5 18.5l131 142l-207 102q-20 10 -12 29z" />
<glyph unicode="+" horiz-adv-x="1189" d="M147 502v192q0 9 6 15t15 6h305v309q0 20 21 20h202q21 0 21 -20v-309h305q20 0 20 -21v-192q0 -21 -20 -21h-305v-311q0 -20 -21 -20h-202q-21 0 -21 20v311h-305q-9 0 -15 6t-6 15z" />
<glyph unicode="," horiz-adv-x="512" d="M57 -279q-14 14 4 29q134 105 168 240h-8q-56 14 -88 56.5t-31 103.5q0 75 44.5 120t119.5 45q69 0 114 -42t48 -111q17 -148 -60.5 -307.5t-183.5 -216.5q-15 -8 -32 6z" />
<glyph unicode="-" horiz-adv-x="878" d="M115 508v182q0 9 7 16.5t17 8.5h600q25 -4 25 -25v-182q0 -25 -25 -25h-600q-24 0 -24 25z" />
<glyph unicode="." horiz-adv-x="538" d="M119 131q0 70 41 112t110 44q67 0 109.5 -43.5t42.5 -112.5q0 -66 -43 -108.5t-109 -42.5q-68 0 -109.5 42t-41.5 109z" />
<glyph unicode="/" horiz-adv-x="888" d="M1 8q-4 8 1 17l623 1435q8 19 26 19h219q13 0 16.5 -8.5t-1.5 -18.5l-623 -1432q-10 -20 -31 -20h-217q-9 0 -13 8z" />
<glyph unicode="0" horiz-adv-x="1222" d="M84 711q0 328 145 528.5t383 200.5q156 0 275.5 -90.5t185.5 -256t66 -382.5t-65.5 -382.5t-185 -256t-276.5 -90.5q-238 0 -383 200.5t-145 528.5zM362 711q0 -204 68.5 -327.5t181.5 -123.5q110 0 178 124.5t68 326.5t-68 326t-178 124q-112 0 -181 -123.5t-69 -326.5z " />
<glyph unicode="1" horiz-adv-x="700" d="M106 1180v219q4 22 21 22h446q9 0 15 -6.5t6 -15.5v-1379q0 -20 -21 -20h-237q-21 0 -21 20v1139h-188q-8 0 -14.5 6t-6.5 15z" />
<glyph unicode="2" d="M82 12q-4 12 4 23q44 56 189 253.5t268 367.5l123 169q10 13 25 35t40 76.5t25 91.5q-2 61 -43 106t-119 44q-105 0 -221 -142q-9 -10 -17 -8t-20 16l-139 150q-14 14 6 41q166 205 422 205q110 0 199.5 -44t145.5 -136.5t56 -219.5q0 -64 -25 -136.5t-50 -113.5l-25 -40 q-203 -279 -355 -488h420q11 0 18 -7t7 -17v-218q0 -20 -23 -20h-606h-78h-209q-14 0 -18 12z" />
<glyph unicode="3" horiz-adv-x="1116" d="M68 410q0 20 20 20h234q22 0 22 -18q5 -74 62.5 -120t146.5 -46q90 0 144.5 53.5t54.5 138.5q0 82 -48 136.5t-126 60.5h-111q-21 0 -21 20v179q0 20 21 20h88q62 0 108 48.5t46 115.5q0 64 -45 103.5t-119 39.5q-61 0 -119.5 -42t-97.5 -89q-16 -16 -31 0l-152 178 q-14 17 0 31q165 201 418 201q114 0 210 -47t155 -135.5t59 -200.5q0 -91 -36 -172t-101 -140q86 -53 134 -134.5t48 -186.5q0 -198 -139.5 -327.5t-343.5 -129.5q-205 0 -338.5 122t-142.5 321z" />
<glyph unicode="4" horiz-adv-x="1253" d="M31 312.5q-4 7.5 2 19.5l647 1071q11 18 31 18h270q20 -3 20 -22v-856h132q20 0 20 -21v-196q0 -21 -20 -21h-132v-285q1 -9 -5 -14.5t-15 -5.5h-238q-20 0 -20 20v285h-426h-64h-186q-12 0 -16 7.5zM440 543h283v469z" />
<glyph unicode="5" horiz-adv-x="1116" d="M84 393q0 21 20 21h234q9 0 15.5 -6t6.5 -15q4 -70 58 -112.5t139 -42.5q89 0 144 59.5t55 155.5q0 94 -55.5 152.5t-149.5 58.5q-41 0 -80 -15.5t-59 -36.5h-256q-9 0 -15.5 6t-5.5 15l64 766q4 22 24 22h684q9 0 15 -6.5t6 -15.5v-219q0 -9 -6 -15t-15 -6h-450 l-23 -287q71 29 144 29q205 0 329.5 -121t124.5 -327q0 -217 -131 -351.5t-344 -134.5q-206 0 -336 117t-137 309z" />
<glyph unicode="6" horiz-adv-x="1110" d="M84 449q0 96 33 190q45 115 103.5 241.5t135 283t113.5 237.5q7 20 29 20h237q14 0 19.5 -8t-0.5 -20l-224 -484q28 4 41 4q206 -6 330.5 -132t124.5 -330q0 -215 -127.5 -344.5t-341.5 -129.5q-212 0 -342.5 130t-130.5 342zM362 449q0 -88 53.5 -141.5t139.5 -53.5 t139.5 53.5t53.5 141.5t-52.5 141t-140.5 53q-87 0 -140 -53.5t-53 -140.5z" />
<glyph unicode="7" horiz-adv-x="1003" d="M72 1180v219q0 9 6.5 15.5t15.5 6.5h873q15 0 20.5 -10t-0.5 -25l-516 -1366q-7 -20 -29 -20h-252q-19 0 -12 20l436 1139h-520q-9 0 -15.5 6t-6.5 15z" />
<glyph unicode="8" horiz-adv-x="1112" d="M84 424q0 106 48 190.5t136 137.5q-135 109 -135 280q0 184 116.5 296t307.5 112t306.5 -112t115.5 -296q0 -179 -135 -280q88 -53 136 -137.5t48 -190.5q0 -200 -129.5 -322t-341.5 -122q-213 0 -343 122t-130 322zM354 438q0 -79 58 -133.5t145 -54.5t145 54.5 t58 133.5q0 84 -57 138.5t-146 54.5q-86 0 -144.5 -55.5t-58.5 -137.5zM395 1036q0 -75 44 -118.5t118 -43.5q72 0 116 44.5t44 117.5q0 74 -43 116t-117 42q-73 0 -117.5 -42.5t-44.5 -115.5z" />
<glyph unicode="9" horiz-adv-x="1110" d="M84 969q0 216 127.5 344.5t341.5 128.5q212 0 342.5 -129.5t130.5 -341.5q0 -78 -17.5 -138t-56.5 -143l-311 -672q-7 -18 -29 -18h-237q-14 0 -19.5 8.5t0.5 20.5l224 483q-12 -4 -35 -4q-207 3 -334 129.5t-127 331.5zM362 971q0 -88 52.5 -141.5t140.5 -53.5 q86 0 139.5 54.5t53.5 140.5q0 87 -53 140.5t-140 53.5t-140 -53.5t-53 -140.5z" />
<glyph unicode=":" horiz-adv-x="487" d="M78 152q0 76 45.5 121.5t120.5 45.5q75 1 121.5 -45.5t46.5 -121.5q0 -74 -46.5 -120t-121.5 -46t-120.5 46t-45.5 120zM78 899q0 76 45.5 122t120.5 48q75 0 121.5 -47t46.5 -123q0 -74 -46.5 -120t-121.5 -46t-120.5 46t-45.5 120z" />
<glyph unicode=";" horiz-adv-x="522" d="M70 -279q-14 14 4 29q134 105 168 240h-9q-56 14 -87.5 56.5t-30.5 103.5q0 75 44.5 120t119.5 45q69 0 113.5 -42t47.5 -111q17 -148 -60 -307.5t-183 -216.5q-15 -9 -33 6zM96 899q0 76 46 122t122 48q74 0 120 -47t46 -123q0 -73 -46 -119.5t-120 -46.5q-76 0 -122 46 t-46 120z" />
<glyph unicode="&#x3c;" horiz-adv-x="1103" d="M78 481v254q0 29 18 35l905 332q10 3 17.5 -2.5t7.5 -16.5v-233q0 -26 -20 -35l-609 -207l609 -207q20 -9 20 -34v-234q0 -11 -7.5 -16t-17.5 -2l-905 331q-18 7 -18 35z" />
<glyph unicode="=" horiz-adv-x="1073" d="M123 326v170q0 26 27 26h774q26 0 26 -26v-170q0 -27 -26 -27h-774q-12 0 -19.5 8t-7.5 19zM123 698v170q0 12 7.5 19.5t19.5 7.5h774q26 0 26 -27v-170q0 -26 -26 -26h-774q-12 0 -19.5 7.5t-7.5 18.5z" />
<glyph unicode="&#x3e;" horiz-adv-x="1103" d="M78 133v234q0 25 20 34l609 207l-609 207q-20 9 -20 35v233q0 11 7 16.5t17 2.5l906 -332q18 -6 18 -35v-254q0 -28 -18 -35l-906 -331q-10 -3 -17 2t-7 16z" />
<glyph unicode="?" horiz-adv-x="968" d="M49 1217q-13 17 0 30q158 193 422 193q177 0 301 -107t123 -276q0 -73 -17 -133t-44 -101.5t-60 -77.5t-66.5 -68.5t-62 -66t-48 -79t-22.5 -99.5q0 -20 -20 -20h-246q-20 0 -20 20q4 93 39 170.5t82.5 128.5t94 95.5t79 92.5t32.5 99q0 76 -47 116t-118 40 q-64 0 -115.5 -31.5t-104.5 -95.5q-13 -16 -26 -3zM279 137q0 70 43 113t114 43q70 0 113 -42.5t43 -113.5t-43 -114t-113 -43t-113.5 43t-43.5 114z" />
<glyph unicode="@" horiz-adv-x="1855" d="M117 633q0 179 61.5 329.5t172 255.5t269.5 163.5t349 58.5q169 0 312 -55t244 -153t157.5 -240t56.5 -310q0 -177 -95 -288.5t-253 -117.5q-125 0 -222 97q-91 -137 -274 -137q-164 0 -269 110t-106 285q0 176 105 284.5t270 108.5q153 0 242 -98l32 47q9 12 23 12h131 q18 0 18 -20v-375q0 -115 91 -115q57 0 86.5 59.5t27.5 147.5q1 246 -159 397.5t-418 151.5q-292 0 -467.5 -165.5t-177.5 -430.5q1 -177 82 -312t227 -208.5t336 -73.5q200 0 370 135q19 19 37 4l115 -114q17 -24 0 -41q-198 -195 -522 -195q-253 0 -447 100t-299.5 282.5 t-105.5 420.5zM776 629q0 -64 40.5 -104t105.5 -38q65 0 104 40t39 102q0 66 -39 104.5t-104 38.5t-105.5 -39.5t-40.5 -103.5z" />
<glyph unicode="A" horiz-adv-x="1372" d="M4 23l531 1378q6 18 28 18h248q21 0 27 -18l528 -1378q4 -11 0.5 -17t-14.5 -6h-242q-16 0 -20 14l-129 336h-549l-129 -336q-6 -14 -23 -14h-240q-23 0 -16 23zM502 588h368l-184 481z" />
<glyph unicode="B" horiz-adv-x="1245" d="M141 20v1379q0 10 7 16t16 6h467q204 0 329.5 -104.5t126.5 -276.5q0 -161 -133 -266q103 -52 161 -141.5t61 -208.5v-6q0 -188 -132 -302q-134 -116 -360 -116h-520q-23 0 -23 20zM422 266h248q102 0 163.5 54.5t61.5 144.5q0 84 -55.5 132t-151.5 48h-266v-379z M422 852q22 0 101 1t100 1q92 0 138 43t46 119q0 64 -55 102q-54 37 -145 37h-5h-180v-303z" />
<glyph unicode="C" horiz-adv-x="1368" d="M70 709q0 142 40.5 262.5t110.5 205.5t162.5 145.5t197 89t214.5 28.5h11q136 0 264 -48q133 -50 233 -143q12 -12 0 -26l-136 -185q-5 -7 -13.5 -6.5t-14.5 6.5q-143 125 -344 125h-6q-197 1 -317 -123q-122 -126 -122 -331q0 -203 123 -328t322 -125q195 0 344 127 q6 6 14.5 6t13.5 -6l138 -186q14 -17 2 -29q-101 -95 -233 -141.5t-279 -46.5q-161 0 -296 53.5t-229.5 149t-147 231t-52.5 295.5z" />
<glyph unicode="D" horiz-adv-x="1394" d="M141 20l2 1381q0 9 5.5 14.5t13.5 5.5h436q330 0 528.5 -192t198.5 -518q0 -327 -198.5 -519t-528.5 -192h-436q-21 0 -21 20zM422 266h176q203 0 326 121.5t123 323.5t-123 324q-121 120 -319 120h-7l-176 2v-891z" />
<glyph unicode="E" horiz-adv-x="1089" d="M141 20v1381q0 20 21 20h809q20 0 20 -20v-227q0 -19 -18 -19h-551v-299h452q21 0 21 -20v-222q0 -20 -21 -20h-452v-328h569q21 0 21 -20v-228q0 -7 -5.5 -12.5t-13.5 -5.5h-831q-21 0 -21 20z" />
<glyph unicode="F" horiz-adv-x="1044" d="M141 20v1381q0 20 21 20h809q20 0 20 -20v-227q0 -19 -18 -19h-551v-299h452q21 0 21 -20v-222q0 -20 -21 -20h-452v-571q0 -23 -23 -23h-237q-21 0 -21 20z" />
<glyph unicode="G" horiz-adv-x="1503" d="M70 711q0 327 201 528t530 201q300 0 512 -195q10 -10 0 -26l-144 -185q-14 -14 -28 0q-49 45 -140 86t-200 41q-203 0 -327 -124t-124 -326q0 -203 116 -327t306 -124q307 0 375 287h-342q-9 0 -15 5t-6 13v189q0 20 21 20h600q27 0 27 -26q-5 -365 -168 -566 q-162 -200 -489 -200h-3q-316 0 -509 200t-193 529z" />
<glyph unicode="H" horiz-adv-x="1409" d="M141 20l2 1381q0 9 5.5 14.5t13.5 5.5h241q8 0 13.5 -5.5t5.5 -12.5v-572h567v570q0 20 21 20h239q9 0 15 -5t6 -13l-2 -1383q0 -20 -19 -20h-239q-21 0 -21 20v574h-567v-574q0 -20 -21 -20h-239q-21 0 -21 20z" />
<glyph unicode="I" horiz-adv-x="563" d="M141 18v1383q0 20 21 20h239q21 0 21 -20v-1383q0 -8 -6 -13t-15 -5h-239q-9 0 -15 5t-6 13z" />
<glyph unicode="J" horiz-adv-x="860" d="M16 127l111 199q5 9 14.5 11.5t20.5 -3.5q5 -3 31 -17t48 -25.5t51.5 -21.5t51.5 -10q56 0 73.5 42t20.5 161l-2 938q0 20 21 20h237q21 0 21 -20l4 -995q1 -204 -90.5 -314t-253.5 -112q-71 1 -134 14t-107.5 34t-69.5 36.5t-44 31.5q-15 12 -4 31z" />
<glyph unicode="K" horiz-adv-x="1198" d="M141 18v1383q0 20 21 20h239q8 0 14.5 -5.5t6.5 -14.5v-610l448 618q8 12 25 12h264q28 0 12 -26l-495 -678l571 -692q19 -25 -12 -25h-291q-16 0 -26 10l-496 627v-619q0 -8 -6 -13t-15 -5h-239q-9 0 -15 5t-6 13z" />
<glyph unicode="L" horiz-adv-x="944" d="M141 1401q0 20 21 20h239q21 0 21 -20v-1151h444q21 0 21 -21v-211q0 -7 -5.5 -12.5t-13.5 -5.5h-706q-19 0 -19 18z" />
<glyph unicode="M" horiz-adv-x="1763" d="M141 23v1368q0 13 8.5 21.5t22.5 8.5h236q18 0 24 -16l447 -907l436 909q6 14 22 14h265q20 0 20 -20v-1381q0 -20 -20 -20h-238q-21 0 -21 20v869l-331 -660q-10 -16 -25 -16h-215q-14 0 -24 14l-326 652v-859q0 -20 -23 -20h-235q-9 0 -16 6.5t-7 16.5z" />
<glyph unicode="N" horiz-adv-x="1474" d="M141 20l2 1381q0 20 21 20h274q18 0 25 -14l590 -942l2 936q0 20 18 20h240q20 0 20 -20v-1381q0 -20 -20 -20h-275q-14 0 -22 12l-594 946v-938q0 -20 -21 -20h-239q-21 0 -21 20z" />
<glyph unicode="O" horiz-adv-x="1597" d="M70 711q0 327 201.5 528t529.5 201q327 0 527 -201t200 -528q0 -328 -200 -528.5t-527 -200.5q-329 0 -530 200.5t-201 528.5zM350 711q0 -203 123.5 -327t327.5 -124q201 0 324.5 124.5t123.5 326.5t-123.5 326t-324.5 124q-203 0 -327 -124t-124 -326z" />
<glyph unicode="P" horiz-adv-x="1144" d="M141 20v1379q0 10 7 16t16 6h518q211 0 334 -124t123 -320q0 -198 -123 -322.5t-334 -124.5h-260v-510q0 -20 -23 -20h-235q-23 0 -23 20zM422 799l231 -2q91 0 149 42.5t58 135.5q0 94 -58 138q-56 42 -141 42h-8h-231v-356z" />
<glyph unicode="Q" horiz-adv-x="1601" d="M70 711q0 327 201.5 528t529.5 201q327 0 527 -201t200 -528q0 -202 -79.5 -360t-223.5 -251l293 -176q16 -12 6 -28l-113 -187q-12 -18 -29 -8l-450 289q-57 -8 -131 -8q-329 0 -530 200.5t-201 528.5zM350 711q0 -201 124.5 -326t326.5 -125q203 0 325.5 123.5 t122.5 327.5q0 202 -123.5 326t-324.5 124q-203 0 -327 -124t-124 -326z" />
<glyph unicode="R" horiz-adv-x="1220" d="M141 20l2 1381q0 20 19 20h538q210 0 332.5 -124t124.5 -320q-2 -155 -80.5 -267t-218.5 -153l324 -532q7 -12 3 -18.5t-16 -6.5h-264q-13 0 -20 10l-297 520h-166v-510q0 -20 -21 -20h-239q-21 0 -21 20zM422 799l283 -2q64 0 118 44t54 134t-54 135t-118 45l-283 2 v-358z" />
<glyph unicode="S" horiz-adv-x="1204" d="M80 178l119 211q13 20 32 4q50 -44 160 -89.5t227 -45.5q98 0 164 38t66 103q0 57 -58 99.5t-212 70.5q-250 45 -370 145.5t-126 282.5v15q0 184 138 304q143 124 384 124h4q110 -1 212 -29t155 -56t78 -52q14 -10 6 -29l-96 -217q-8 -18 -29 -6q-157 108 -332 108h-6h-5 q-99 0 -163 -40q-66 -41 -66 -101q0 -62 58.5 -95.5t216.5 -70.5q250 -56 367.5 -155t123.5 -283v-15q0 -183 -140 -299q-144 -121 -388 -120h-4q-94 1 -185.5 21.5t-156.5 50t-108 55.5t-62 45q-14 11 -4 26z" />
<glyph unicode="T" horiz-adv-x="1126" d="M37 1174v227q0 20 20 20h1014q19 0 19 -20v-227q0 -19 -19 -19h-369v-1137q0 -18 -18 -18h-242q-8 0 -13 5t-5 13v1137h-369q-18 0 -18 19z" />
<glyph unicode="U" horiz-adv-x="1392" d="M141 557v844q0 18 21 18h241q8 0 13.5 -5.5t5.5 -12.5v-846q0 -137 75 -216t201 -79q125 0 199.5 79.5t73.5 215.5v846q0 18 20 18h242q18 0 18 -18v-846q0 -111 -29 -205.5t-80.5 -161.5t-121.5 -114t-151.5 -69.5t-170.5 -22.5q-113 0 -212.5 37t-177 107t-122.5 181 t-45 250z" />
<glyph unicode="V" horiz-adv-x="1376" d="M4 1395q-9 24 16 24h252q16 0 23 -14l393 -1065l393 1065q3 14 23 14h252q22 0 16 -24l-514 -1377q-6 -18 -27 -18h-286q-20 0 -29 18z" />
<glyph unicode="W" horiz-adv-x="1929" d="M2 1401q-3 9 2 14.5t14 5.5h244q20 0 23 -18l266 -967l280 967q3 18 25 18h215q19 0 23 -18l284 -977l271 981q3 14 18 14h244q23 0 16 -20l-418 -1385q-6 -16 -24 -16h-207q-17 0 -23 16l-290 1053l-293 -1053q-4 -16 -21 -16h-211q-17 0 -20 16z" />
<glyph unicode="X" horiz-adv-x="1236" d="M6 20l455 682l-445 699q-13 20 13 20h286q19 0 25 -12l281 -457l290 455q9 12 27 12h283q23 0 10 -20l-461 -692l438 -687q7 -9 4 -14.5t-14 -5.5h-287q-18 0 -24 12l-277 447l-288 -447q-6 -12 -25 -12h-281q-23 0 -10 20z" />
<glyph unicode="Y" horiz-adv-x="1267" d="M6 1395q-14 24 14 24h254q17 0 27 -16l334 -592l334 592q6 16 26 16h252q30 0 15 -24l-490 -828v-549q2 -7 -3.5 -12.5t-14.5 -5.5h-240q-20 0 -20 18v547z" />
<glyph unicode="Z" horiz-adv-x="1232" d="M72 33l651 1126h-563q-9 0 -15 5.5t-6 13.5v223q0 20 21 20h975q17 0 22 -10t-4 -25l-649 -1124h626q8 0 13.5 -5.5t5.5 -14.5v-222q0 -20 -19 -20h-1040q-34 0 -18 33z" />
<glyph unicode="[" horiz-adv-x="681" d="M92 -307v1704q0 24 25 24h407q25 0 25 -24v-178q0 -25 -25 -25h-172l2 -1296h172q23 0 23 -25v-178q0 -27 -23 -27l-409 2q-11 0 -18 6.5t-7 16.5z" />
<glyph unicode="\" horiz-adv-x="884" d="M1 1470q4 9 17 9h220q16 0 24 -19l623 -1433q4 -11 0 -19t-13 -8h-217q-22 0 -28 18l-625 1434q-5 9 -1 18z" />
<glyph unicode="]" horiz-adv-x="681" d="M84 -127q0 25 22 25h175v1296h-172q-25 0 -25 25v178q0 24 25 24h407q25 0 25 -24v-1704q0 -23 -25 -23h-410q-22 0 -22 25v178z" />
<glyph unicode="^" horiz-adv-x="1193" d="M68 538.5q-6 8.5 0 18.5l370 844q9 18 29 18h260q23 0 29 -18l370 -844q6 -10 0 -18.5t-20 -8.5h-234q-23 0 -32 21l-244 588l-242 -588q-9 -21 -32 -21h-234q-14 0 -20 8.5z" />
<glyph unicode="_" horiz-adv-x="1222" d="M84 -84q0 12 7.5 19.5t19.5 7.5h1001q12 0 19.5 -8.5t7.5 -22.5v-156q0 -13 -7.5 -21.5t-19.5 -8.5h-1001q-27 0 -27 28v162z" />
<glyph unicode="`" horiz-adv-x="567" d="M49 1347.5q-1 8.5 6 14.5l117 145q15 18 35 2l303 -307q13 -13 2 -24l-66 -80q-15 -15 -28 -2l-359 237q-9 6 -10 14.5z" />
<glyph unicode="a" horiz-adv-x="1208" d="M57 487q0 228 135.5 368t356.5 140h8q177 0 279 -133l32 99q8 20 23 18h186q9 0 15 -6t6 -15v-938q-4 -20 -23 -20h-186q-16 0 -23 20l-30 95q-106 -138 -287 -138h-3q-218 1 -353 141q-136 142 -136 369zM322 487q0 -108 67.5 -175.5t173.5 -67.5q110 0 178.5 66.5 t69.5 176.5q-1 110 -70 177t-178 67t-175 -67t-66 -177z" />
<glyph unicode="b" horiz-adv-x="1189" d="M111 18v1442q0 21 22 21h223q9 0 16 -6t7 -15v-573q94 108 262 108h3q220 1 354 -139q136 -140 135.5 -368.5t-136 -369.5t-356.5 -141q-184 0 -289 140l-33 -97q-7 -20 -22 -20h-166q-20 0 -20 18zM379 487q0 -110 68.5 -177.5t179.5 -67.5q106 0 172.5 68t66.5 177 q0 110 -66 178t-173 68q-110 0 -179 -68t-69 -178z" />
<glyph unicode="c" horiz-adv-x="1046" d="M57 487q0 122 42 220.5t113 160t159 94.5t184 35h14q134 0 241 -54q112 -57 185 -167q14 -17 0 -28l-172 -140q-7 -8 -16.5 -6t-15.5 12q-83 119 -228 119q-109 0 -175 -68t-66 -178t66 -177.5t175 -67.5q133 0 221 108q20 20 37 4l154 -145q15 -11 4 -29 q-136 -203 -416 -203q-227 0 -366.5 141t-139.5 369z" />
<glyph unicode="d" horiz-adv-x="1189" d="M57 487q-1 229 135 369q135 140 354 139h3q167 0 264 -108v573q0 9 6 15t15 6h225q20 0 20 -21v-1440q0 -20 -22 -20h-162q-18 0 -25 20l-32 97q-100 -140 -289 -140q-221 0 -356.5 141t-135.5 369zM324 487q0 -109 67 -177t174 -68q109 0 177.5 67t68.5 181 q0 108 -67 175q-68 68 -179 68q-109 0 -175 -68t-66 -178z" />
<glyph unicode="e" horiz-adv-x="1126" d="M57 487q0 228 139.5 369t366.5 141q239 0 373 -146q134 -145 133 -441q0 -13 -5.5 -19.5t-14.5 -5.5h-707q24 -73 86.5 -115.5t159.5 -42.5q128 0 203 64q21 18 34 2l140 -146q14 -14 2 -30q-126 -137 -396 -140q-231 0 -372.5 140.5t-141.5 369.5zM336 575h452 q-20 80 -77 126.5t-148 46.5q-92 0 -149.5 -46.5t-77.5 -126.5z" />
<glyph unicode="f" horiz-adv-x="724" d="M18 752v206q0 8 6 14.5t15 6.5h121v129q0 211 84.5 302t244.5 91q86 0 156.5 -29.5t97.5 -56.5q17 -10 7 -29l-80 -178q-3 -9 -11.5 -12t-17.5 2q-69 41 -109 41q-50 0 -76.5 -34.5t-27.5 -119.5v-106h213q9 0 15 -6.5t6 -14.5v-206q0 -9 -6 -15t-15 -6h-211v-711 q0 -20 -20 -20h-228q-20 0 -20 20l-2 711h-121q-9 0 -15 6t-6 15z" />
<glyph unicode="g" horiz-adv-x="1198" d="M57 487q0 229 136 371.5t358 142.5q192 0 295 -147l39 104q5 21 24 21h158q20 0 20 -21l3 -919q0 -237 -144.5 -381.5t-378.5 -144.5q-234 2 -399 104q-20 10 -10 33l96 196q12 19 29 9q46 -26 118.5 -49t149.5 -27q131 1 200.5 73t69.5 197v41q-98 -113 -262 -113h-8 q-223 2 -358.5 141.5t-135.5 368.5zM324 489q0 -109 66 -176t175 -67q114 0 184 67t70 176q0 112 -69 179t-185 67q-109 0 -175 -68t-66 -178z" />
<glyph unicode="h" horiz-adv-x="1130" d="M111 1458q0 21 22 21h223q23 0 23 -21v-573q98 119 276 119q165 0 267 -119.5t102 -319.5v-545q0 -20 -20 -20h-226q-9 0 -15 5.5t-5 14.5v490q0 107 -51 166t-132 59q-80 -2 -135 -66.5t-61 -191.5v-457q0 -20 -21 -20h-225q-20 0 -20 20z" />
<glyph unicode="i" horiz-adv-x="491" d="M78 1298q0 75 46.5 120.5t121.5 45.5t120.5 -45.5t45.5 -120.5t-45.5 -121.5t-120.5 -46.5t-121.5 46.5t-46.5 121.5zM113 20v938q0 21 22 21h225q8 0 13.5 -5.5t5.5 -12.5v-941q0 -20 -21 -20h-225q-20 0 -20 20z" />
<glyph unicode="j" horiz-adv-x="561" d="M-106 -377l83 189q4 12 15 14t20 -6q44 -35 86 -35h5q38 0 57 27q21 28 22 92v1054q0 9 6 15t15 6h225q9 0 15 -6t6 -15l2 -1087q0 -165 -83 -261.5t-231 -96.5q-86 0 -147 27.5t-90 56.5q-11 7 -6 26zM145 1298q0 75 46.5 120.5t121.5 45.5t120.5 -45.5t45.5 -120.5 t-45.5 -121.5t-120.5 -46.5t-121.5 46.5t-46.5 121.5z" />
<glyph unicode="k" horiz-adv-x="1005" d="M111 1460q0 8 5.5 13.5t14.5 5.5h229q8 0 13.5 -5.5t5.5 -13.5v-862l268 369q7 10 21 10h301q31 0 10 -27l-340 -438l405 -485q12 -15 9.5 -21t-19.5 -6h-295q-19 0 -26 10l-334 412v-404q0 -7 -5.5 -12.5t-13.5 -5.5h-229q-7 0 -12.5 5t-5.5 13z" />
<glyph unicode="l" horiz-adv-x="493" d="M113 20v1438q0 21 20 21h225q23 0 23 -21v-1438q0 -20 -21 -20h-227q-8 0 -14 5.5t-6 14.5z" />
<glyph unicode="m" horiz-adv-x="1658" d="M111 958q0 9 6.5 15t15.5 6h182q21 3 25 -21l20 -86q92 132 269 132q95 0 170 -48t119 -137q92 185 305 185q154 0 249 -119t95 -320v-542q0 -23 -21 -23h-225q-23 0 -23 23v487q0 110 -39.5 167.5t-115.5 57.5q-77 -2 -124 -70t-48 -212l2 -430q0 -23 -21 -23h-227 q-9 0 -14.5 7t-5.5 16v487q0 110 -40 167.5t-116 57.5q-73 -2 -119.5 -65t-50.5 -189v-461q0 -20 -21 -20h-227q-18 0 -18 20z" />
<glyph unicode="n" horiz-adv-x="1130" d="M111 958q0 9 6.5 15t15.5 6h180q20 0 27 -21l22 -94q97 140 293 140q165 0 267 -119.5t102 -319.5v-545q0 -20 -20 -20h-226q-9 0 -15.5 6t-4.5 14v490q0 107 -51 166t-132 59q-80 -2 -135 -67t-61 -191v-457q0 -7 -6.5 -12.5t-14.5 -5.5h-225q-20 0 -20 18z" />
<glyph unicode="o" d="M57 492q0 229 140.5 370.5t367.5 141.5q229 0 369.5 -141.5t140.5 -370.5t-140.5 -370.5t-369.5 -141.5q-227 0 -367.5 141.5t-140.5 370.5zM324 492q0 -110 66 -178t175 -68q110 0 177 68t67 178t-67 177.5t-177 67.5q-109 0 -175 -67.5t-66 -177.5z" />
<glyph unicode="p" horiz-adv-x="1193" d="M111 -444v1402q3 23 22 23h160q18 0 26 -20l33 -101q103 141 291 141q222 0 358 -141.5t136 -370.5t-136 -370.5t-358 -141.5q-164 0 -264 111v-534q0 -9 -6 -15t-15 -6h-225q-22 0 -22 23zM383 489q0 -110 67.5 -177.5t176.5 -67.5t176 67.5t67 177.5q0 111 -66.5 178.5 t-176.5 67.5q-109 0 -176.5 -68t-67.5 -178z" />
<glyph unicode="q" horiz-adv-x="1193" d="M57 489q0 229 136 370.5t358 141.5q188 0 291 -141l32 101q8 20 23 20h164q20 -3 20 -23v-1402q0 -23 -20 -23h-221q-25 0 -25 23v532q-100 -111 -264 -111q-222 0 -358 141.5t-136 370.5zM324 489q0 -110 66 -177.5t175 -67.5q110 0 178 67.5t68 177.5t-68 178t-178 68 q-109 0 -175 -68t-66 -178z" />
<glyph unicode="r" horiz-adv-x="755" d="M111 958q0 21 22 21h156q23 0 28 -21l23 -59q107 100 246 100q54 0 147 -24q22 -7 15 -27l-56 -235q-8 -23 -30 -13q-65 29 -127 29q-46 0 -88 -27.5t-66 -76.5v-605q0 -20 -23 -20h-225q-20 0 -20 20z" />
<glyph unicode="s" horiz-adv-x="917" d="M70 117l90 180q7 17 28 6q122 -68 228 -76q18 -2 35 -2q48 0 84 13q49 17 49 47q0 37 -76 66q-27 10 -143 44q-145 41 -218.5 111.5t-76.5 181.5v13q0 91 51 159q55 72 147 107q89 34 201 35q3 0 6 -1q111 -1 203.5 -38t132.5 -70q16 -12 6 -29l-90 -170q-9 -18 -33 -8 l-26 13t-40.5 19.5t-51.5 18.5t-68 15q-25 4 -47 4q-41 0 -75 -12q-50 -18 -50 -50t40.5 -52t131.5 -42q174 -39 256.5 -105.5t85.5 -193.5v-11q0 -142 -103 -224q-105 -85 -276 -84h-8q-128 0 -236.5 36.5t-150.5 69.5q-17 10 -6 29z" />
<glyph unicode="t" horiz-adv-x="692" d="M37 750v208q0 21 20 21h121l2 293q0 20 19 20h223q20 0 20 -20v-293h185q20 0 20 -21v-208q0 -8 -5.5 -13.5t-14.5 -5.5h-185v-264q0 -128 13 -170.5t59 -42.5q27 0 78 29q17 10 29 -9l63 -194q10 -23 -6 -33q-29 -23 -89 -45q-57 -21 -122 -20h-6q-133 0 -209 88 q-74 86 -74 235v8v418h-121q-9 0 -14.5 5.5t-5.5 13.5z" />
<glyph unicode="u" horiz-adv-x="1144" d="M104 956q0 10 6.5 16.5t14.5 6.5h227q9 0 15 -7t6 -16v-487q0 -242 190 -242q82 0 140 67t65 206v456q0 23 20 23h226q20 0 20 -21v-938q0 -20 -20 -20h-183q-19 0 -26 20l-21 93q-122 -138 -319 -138q-162 0 -260.5 119t-98.5 320z" />
<glyph unicode="v" horiz-adv-x="1036" d="M4 952q-3 11 1.5 19t17.5 8h241q17 0 23 -16l231 -646l230 646q6 16 24 16h242q28 0 18 -27l-358 -934q-6 -18 -29 -18h-254q-23 0 -29 18z" />
<glyph unicode="w" horiz-adv-x="1386" d="M4 958q-3 8 1 14.5t11 6.5h258q18 0 21 -18l123 -582l157 582q6 18 23 18h190q22 0 25 -18l158 -617l119 617q4 18 20 18h258q9 0 13 -6t1 -15l-258 -942q-6 -16 -24 -16h-240q-18 0 -24 16l-144 578l-145 -578q-6 -16 -25 -16h-233q-20 0 -23 16z" />
<glyph unicode="x" horiz-adv-x="1040" d="M10.5 970q3.5 9 14.5 9h278q20 0 33 -16l180 -254l180 254q13 16 33 16h272q12 0 16 -8t-3 -17l-338 -458l338 -471q8 -9 4 -17t-17 -8h-280q-19 0 -31 16l-178 258l-180 -258q-10 -16 -31 -16h-274q-11 0 -14.5 8t3.5 17l336 464l-338 463q-7 9 -3.5 18z" />
<glyph unicode="y" horiz-adv-x="1034" d="M6 952q-4 12 0.5 19.5t13.5 7.5h242q19 0 25 -18l217 -625l246 625q6 18 26 18h234q12 0 17 -7.5t-1 -19.5l-547 -1401q-7 -18 -28 -18h-232q-12 0 -16.5 8.5t0.5 18.5l174 448z" />
<glyph unicode="z" horiz-adv-x="940" d="M69 9q-4 9 1 18l385 704h-344q-9 0 -15 5.5t-6 13.5v208q0 9 6 15t15 6h743q11 0 14.5 -9t-4.5 -26l-379 -696h365q8 0 13 -6t5 -15v-207q0 -20 -18 -20h-766q-11 0 -15 9z" />
<glyph unicode="{" horiz-adv-x="739" d="M123 457v174q0 10 14 16q22 8 42 19t45 30t40 48.5t15 64.5v319q0 46 3.5 82t16 77.5t34 69t60 45.5t90.5 17h146q26 0 26 -26v-183q0 -28 -26 -28h-58q-36 0 -36 -54v-311q0 -184 -158 -274q158 -90 158 -275v-311q0 -53 36 -53h58q26 0 26 -29v-182q0 -11 -7 -19 t-19 -8h-146q-52 -1 -90.5 17t-60 45.5t-34 69t-16 77.5t-3.5 82v319q0 36 -15 65.5t-40 48.5t-45 29.5t-42 18.5q-14 6 -14 19z" />
<glyph unicode="|" horiz-adv-x="442" d="M96 -438v1888q-2 12 7 20.5t22 8.5h194q12 0 20.5 -8t8.5 -21v-1888q0 -12 -7.5 -20.5t-18.5 -8.5h-197q-12 0 -20.5 8.5t-8.5 20.5z" />
<glyph unicode="}" horiz-adv-x="739" d="M82 -123q0 27 27 27h57q37 3 37 53v311q0 186 157 275q-157 89 -157 274v311q0 54 -37 54h-57q-27 0 -27 28v183q0 26 27 26h145q52 1 91 -17t60 -45.5t34 -68.5t16.5 -77.5t3.5 -82.5v-319q0 -35 15 -64.5t40 -48.5t45 -30t41 -19q14 -6 14 -16v-174q0 -13 -14 -19 q-141 -52 -141 -162v-319q0 -46 -3.5 -82.5t-16.5 -77.5t-34 -68.5t-60 -45.5t-91 -17h-145q-12 0 -19.5 8t-7.5 19v184z" />
<glyph unicode="~" horiz-adv-x="1165" d="M50 454q-2 14 1 19q42 118 128.5 193t197.5 75q65 0 120.5 -22t93 -53.5t70.5 -63t67 -52.5t67 -20q30 0 56 27.5t37.5 52.5t33.5 83q5 13 8 20q6 13 18 15t21 -7l137 -141q16 -16 8 -37q-42 -119 -127.5 -201t-198.5 -82q-64 0 -120.5 22t-95.5 53t-73 62.5t-67.5 53 t-62.5 20.5q-14 0 -27 -4.5t-24 -16t-20 -22.5t-19.5 -30.5t-16.5 -32.5t-16.5 -36.5t-16.5 -35.5q-4 -11 -14.5 -12.5t-17.5 6.5l-138 145q-7 8 -9 22z" />
<glyph unicode="&#xa1;" horiz-adv-x="514" d="M102 1286q0 69 42.5 111.5t111.5 42.5t110.5 -42.5t41.5 -111.5q0 -68 -41.5 -108.5t-110.5 -40.5t-111.5 41t-42.5 108zM113 20l4 961q0 20 20 20h234q20 0 20 -20l4 -961q0 -20 -20 -20h-242q-20 0 -20 20z" />
<glyph unicode="&#xa2;" horiz-adv-x="1046" d="M57 487q0 121 42 219t112.5 159.5t158 95.5t183.5 36h20l21 113q3 20 24 20h78q20 0 17 -20l-25 -125q196 -40 307 -209q11 -17 0 -28l-176 -144q-13 -13 -28 10q-63 86 -152 109l-88 -481h12q133 0 221 108q11 11 16.5 13t16.5 -5l160 -151q12 -10 2 -27 q-65 -99 -171 -151t-245 -52q-34 0 -61 3l-35 -181q-3 -20 -25 -20h-75q-9 0 -14.5 5.5t-4.5 14.5l39 205q-153 48 -241.5 176t-88.5 307zM322 487q0 -74 30.5 -130t85.5 -85l84 457h-4q-90 -14 -143 -79t-53 -163z" />
<glyph unicode="&#xa3;" horiz-adv-x="1005" d="M82 649v76q0 12 7.5 20.5t19.5 8.5h98q-25 51 -37.5 82t-25.5 88.5t-13 119.5q1 172 119 284t291 112q225 0 372 -176q14 -17 -2 -33l-151 -162q-17 -17 -35 4q-87 105 -186 105q-62 -2 -100 -39t-38 -95q0 -44 14.5 -88t42 -104t40.5 -98h207q12 0 19 -8.5t7 -20.5v-76 q0 -28 -26 -28h-175q24 -160 -41 -371h363q11 0 18 -6.5t7 -16.5v-200q0 -12 -7.5 -19.5t-19.5 -7.5h-694q-13 0 -18.5 9.5t-0.5 19.5q52 115 83.5 208.5t43 163.5t10 121.5t-13.5 98.5h-151q-12 0 -19.5 8t-7.5 20z" />
<glyph unicode="&#xa4;" horiz-adv-x="1196" d="M80 854q0 8 6 14l156 156q13 13 26 0l115 -121q94 51 217 51q119 0 205 -47l115 125q13 13 26 0l156 -155q14 -13 0 -27l-127 -121q39 -79 39 -188q0 -120 -47 -209l133 -123q6 -5 6 -13t-6 -14l-156 -155q-6 -6 -14.5 -6t-14.5 6l-129 137q-83 -39 -186 -39 q-101 0 -182 35l-129 -144q-13 -14 -27 0l-158 158q-6 6 -6 14t6 13l129 123q-51 94 -51 217q0 99 35 180l-131 121q-6 4 -6 12zM375 541q0 -101 62 -162.5t161 -61.5q100 0 162 61.5t63 162.5q0 99 -61.5 160.5t-163.5 62.5q-103 2 -163.5 -59t-59.5 -164z" />
<glyph unicode="&#xa5;" horiz-adv-x="1267" d="M6 1395q-14 24 14 24h252q19 0 29 -16l334 -592l334 592q6 16 28 16h250q30 0 15 -24l-465 -791h12h180q21 0 21 -20v-64q0 -20 -21 -20h-217v-144h217q21 0 21 -20v-64q0 -20 -21 -20h-217v-232q3 -20 -18 -20h-240q-20 0 -20 20v232h-226q-20 0 -20 20v64q0 20 20 20 h226v144h-226q-20 0 -20 20v64q0 20 20 20h195h8z" />
<glyph unicode="&#xa6;" horiz-adv-x="440" d="M104 233q0 9 6 15t15 6h190q17 0 21 -21v-679q0 -9 -6 -15t-15 -6h-190q-9 0 -15 6t-6 15v679zM104 778v680q0 9 6 15t15 6h190q9 0 15 -6t6 -15v-680q0 -20 -21 -20h-188q-9 0 -16 5.5t-7 14.5z" />
<glyph unicode="&#xa7;" horiz-adv-x="1187" d="M80 -152l119 193q10 20 30 4q50 -42 156.5 -84.5t220.5 -42.5q60 0 105 9.5t77.5 35.5t32.5 68q0 33 -19 54t-74 39t-163 38q-244 44 -361.5 142t-121.5 276q-6 136 78 247q-75 75 -78 213q-6 188 132.5 295t379.5 105q153 -1 272 -46.5t162 -86.5q14 -10 6 -29l-94 -199 q-11 -17 -31 -6q-30 19 -52 31.5t-66 32.5t-97.5 30.5t-111.5 10.5q-99 0 -159.5 -31t-60.5 -84q0 -18 4 -31.5t16 -24t23.5 -17t37.5 -14t46 -11.5t62 -13t72 -16q123 -28 206 -61t146 -84t93.5 -122.5t33.5 -170.5q3 -129 -80 -236q77 -77 80 -225q1 -181 -140.5 -282 t-377.5 -99q-119 1 -234 35t-177 69t-89 62q-14 10 -4 26zM362 600q0 -64 60 -103.5t201 -70.5q42 -11 127 -33q71 36 71 101q0 134 -256 180q-113 23 -123 26q-34 -15 -57 -41t-23 -59z" />
<glyph unicode="&#xa8;" horiz-adv-x="727" d="M66 1325q0 60 36.5 96.5t96.5 36.5t96.5 -36.5t36.5 -96.5t-36.5 -96.5t-96.5 -36.5t-96.5 36.5t-36.5 96.5zM389 1325q0 60 36.5 96.5t96.5 36.5t96.5 -36.5t36.5 -96.5t-36.5 -96.5t-96.5 -36.5t-96.5 36.5t-36.5 96.5z" />
<glyph unicode="&#xa9;" horiz-adv-x="1619" d="M80 709q0 218 90.5 384t256 256.5t382.5 90.5t383 -90.5t257 -256.5t91 -384q0 -327 -201.5 -528t-529.5 -201t-528.5 201t-200.5 528zM242 709q0 -255 156 -410.5t411 -155.5q257 0 414 156t157 410q0 257 -156.5 413t-414.5 156q-255 0 -411 -156.5t-156 -412.5z M424 709q0 104 41 186.5t106 129t146.5 67.5t160.5 11t151 -51.5t116 -109.5q11 -14 -4 -29l-129 -114q-20 -14 -35 4q-73 76 -160 76q-75 2 -121.5 -45t-46.5 -125t45.5 -124t122.5 -46q54 0 96 21t66 50q16 22 37 4l121 -112q16 -16 4 -35q-52 -73 -136 -114.5t-188 -41.5 q-176 0 -284.5 110t-108.5 288z" />
<glyph unicode="&#xaa;" horiz-adv-x="886" d="M43 1098q0 161 95.5 259.5t250.5 98.5q123 0 193 -92l20 57q7 21 25 21h153q9 0 15 -6t6 -15v-645q0 -22 -23 -22h-153q-16 0 -23 20l-20 57q-70 -92 -193 -92q-156 0 -251 98.5t-95 260.5zM270 1098q0 -61 39.5 -98t102.5 -37t102 37t39 100q0 61 -39.5 97t-101.5 36 q-63 0 -102.5 -37t-39.5 -98z" />
<glyph unicode="&#xab;" horiz-adv-x="1052" d="M74 526v37q0 25 16 41l303 318q7 9 20 9t23 -9l113 -113q21 -21 2 -39l-219 -225l219 -226q18 -18 -2 -38l-113 -113q-11 -9 -23.5 -9t-19.5 9l-303 317q-16 16 -16 41zM522 526v37q0 24 17 41l301 318q9 9 21.5 9t21.5 -9l114 -113q19 -19 2 -39l-221 -225l221 -226 q16 -20 -2 -38l-114 -113q-9 -9 -21.5 -9t-21.5 9l-301 317q-17 17 -17 41z" />
<glyph unicode="&#xac;" horiz-adv-x="1290" d="M137 637v170q0 12 7.5 21t19.5 10h960q26 0 29 -27l-2 -436q0 -11 -7.5 -18t-17.5 -7h-174q-11 0 -17.5 7.5t-6.5 19.5v233h-764q-12 0 -19.5 7.5t-7.5 19.5z" />
<glyph unicode="&#xad;" horiz-adv-x="681" />
<glyph unicode="&#xae;" horiz-adv-x="1613" d="M78 709q0 218 90.5 384t256 256.5t382.5 90.5q327 0 528 -201t201 -530q0 -327 -201 -528t-528 -201q-328 0 -528.5 201t-200.5 528zM240 709q0 -253 156.5 -409.5t410.5 -156.5q258 0 414.5 155.5t156.5 410.5q0 258 -156.5 413.5t-414.5 155.5q-255 0 -411 -156.5 t-156 -412.5zM502 356v721q0 10 7.5 17.5t18.5 7.5h330q115 0 182.5 -66.5t67.5 -173.5q0 -80 -40 -140.5t-110 -88.5l154 -281q4 -9 0 -17.5t-18 -8.5h-172q-23 0 -31 16l-123 272h-41l-2 -262q1 -12 -7 -19t-22 -7h-164q-14 0 -22 8t-8 22zM727 793h113q61 0 61 59 q0 55 -61 55h-113v-114z" />
<glyph unicode="&#xaf;" horiz-adv-x="665" d="M49 1270v135q0 8 6 13t15 5h526q20 3 20 -18v-135q0 -21 -20 -21h-526q-21 0 -21 21z" />
<glyph unicode="&#xb0;" horiz-adv-x="870" d="M47 1083q0 175 107 281t282 106q172 0 279.5 -106.5t107.5 -280.5q0 -173 -107.5 -279t-279.5 -106q-175 0 -282 106t-107 279zM287 1081q0 -63 41.5 -104t107.5 -41q64 0 106 40.5t42 104.5q0 70 -41.5 111t-106.5 41q-70 0 -109.5 -41t-39.5 -111z" />
<glyph unicode="&#xb1;" horiz-adv-x="1206" d="M156 674v192q0 21 20 21h305v270q0 17 21 21h203q9 0 14.5 -6.5t5.5 -14.5v-270h305q9 0 15 -6t6 -15v-192q0 -9 -6 -15t-15 -6h-305v-270q0 -21 -20 -21h-203q-9 0 -15 6t-6 15v270h-305q-20 0 -20 21zM164 74v157q0 11 7 18t17 7h834q10 0 17.5 -7t7.5 -18v-157 q0 -25 -25 -25h-834q-24 0 -24 25z" />
<glyph unicode="&#xb2;" horiz-adv-x="667" d="M50.5 531q-7.5 11 2.5 34l316 467q53 80 53 129q-2 28 -21 46t-51 18q-65 0 -119 -62q-5 -6 -12 -5t-12 7l-111 129q-10 10 0 21q45 57 118 92t165 35q122 0 192 -72t70 -192q-1 -36 -7 -70t-17.5 -65t-19 -48t-21.5 -44t-15 -29q0 -1 -129 -189h180q8 0 13.5 -5.5 t5.5 -14.5v-170q0 -10 -5.5 -16.5t-13.5 -6.5h-534q-20 0 -27.5 11z" />
<glyph unicode="&#xb3;" horiz-adv-x="720" d="M37 784q-1 9 4 15t14 6h178q17 0 17 -17q3 -32 30 -51.5t68 -19.5t66.5 25.5t25.5 68.5q0 94 -94 100h-67q-9 0 -15 6t-6 15v123q0 20 21 20h51q36 0 59 22.5t23 67.5q0 33 -21.5 54.5t-54.5 21.5q-66 0 -121 -55q-14 -14 -25 0l-96 114q-11 14 0 25q100 115 268 115 q124 0 201.5 -69t77.5 -175q0 -121 -84 -205q111 -66 111 -215q0 -123 -87.5 -199.5t-228.5 -76.5q-136 0 -221.5 78t-93.5 206z" />
<glyph unicode="&#xb4;" horiz-adv-x="567" d="M53 1176q-10 14 4 28l303 305q8 7 17.5 7t15.5 -7l119 -147q6 -6 5.5 -15.5t-9.5 -15.5l-358 -235q-16 -13 -31 2z" />
<glyph unicode="&#xb5;" horiz-adv-x="1153" d="M111 -432v1388q0 10 6.5 16.5t15.5 6.5h225q9 0 15 -7.5t6 -15.5v-487q0 -242 190 -242q82 0 140.5 67t64.5 206v454q0 25 23 25h223q20 0 20 -21v-938q0 -20 -20 -20h-186q-18 0 -21 20l-22 93q-122 -138 -318 -138q-53 0 -96 19v-426q0 -15 -9 -24t-24 -9h-201 q-14 0 -23 9t-9 24z" />
<glyph unicode="&#xb6;" horiz-adv-x="1187" d="M55 1044q0 168 103.5 271.5t271.5 103.5h78q3 3 6 0h594q22 0 22 -22v-201q0 -25 -22 -25h-76v-1245q0 -24 -22 -24h-168q-27 0 -27 26v1243h-168v-1245q0 -24 -22 -24h-170q-25 0 -25 24v744q-168 0 -271.5 103t-103.5 271z" />
<glyph unicode="&#xb7;" horiz-adv-x="432" d="M35 571q0 84 49.5 134.5t132.5 50.5q82 0 132 -51t50 -134q0 -82 -50 -133t-132 -51q-83 0 -132.5 51t-49.5 133z" />
<glyph unicode="&#xb8;" horiz-adv-x="608" d="M53 -342l45 76q8 10 27 4q85 -35 156 -35q38 0 62 16.5t24 42.5q0 58 -105 58h-110q-20 0 -13 18l70 162h207l-33 -76q83 -10 130 -51t46 -121q-1 -95 -73 -146.5t-179 -51.5q-67 0 -137 22.5t-113 54.5q-15 12 -4 27z" />
<glyph unicode="&#xb9;" horiz-adv-x="442" d="M25 1229v168q0 10 6.5 17t15.5 7h299q11 0 18 -7t7 -17v-852q0 -12 -7 -19.5t-18 -7.5h-184q-12 0 -19.5 7.5t-7.5 19.5v659h-84q-22 0 -26 25z" />
<glyph unicode="&#xba;" horiz-adv-x="800" d="M43 1100q0 160 98 259t258 99q161 0 260 -98.5t99 -259.5q0 -163 -99 -262t-260 -99q-160 0 -258 100t-98 261zM266 1100q0 -62 36.5 -99.5t96.5 -37.5t96.5 37.5t36.5 99.5q0 60 -36.5 96.5t-96.5 36.5t-96.5 -36.5t-36.5 -96.5z" />
<glyph unicode="&#xbb;" horiz-adv-x="1056" d="M70 319l221 226l-221 225q-18 18 2 39l114 113q9 9 21.5 9t19.5 -9l303 -318q17 -17 17 -41v-37q0 -24 -17 -41l-303 -317q-7 -9 -19.5 -9t-21.5 9l-114 113q-22 22 -2 38zM518 319l219 226l-219 225q-18 18 2 39l113 113q23 20 43 0l303 -318q16 -16 16 -41v-37 q0 -25 -16 -41l-303 -317q-20 -20 -43 0l-113 113q-22 22 -2 38z" />
<glyph unicode="&#xbc;" horiz-adv-x="1687" d="M72 1397q0 11 7 17.5t17 6.5h299q9 0 16 -7t7 -17l2 -852q0 -12 -7.5 -19.5t-19.5 -7.5h-184q-12 0 -19.5 7.5t-7.5 19.5v659h-84q-10 0 -17 7t-7 18zM272.5 8q-5.5 8 1.5 21l811 1435q6 15 29 15h215q12 0 18.5 -7t2.5 -16l-813 -1442q-11 -14 -29 -14h-215 q-15 0 -20.5 8zM847 169q-7 9 1 28l358 686q8 19 31 16h256q20 0 23 -20v-545h77q21 0 21 -19v-135q1 -9 -4.5 -14.5t-14.5 -5.5h-79v-133q0 -27 -23 -27h-190q-10 0 -16.5 7t-6.5 18v135h-408q-18 0 -25 9zM1112 334h168v321z" />
<glyph unicode="&#xbd;" horiz-adv-x="1693" d="M74 1229v168q0 24 22 24h299q9 0 16 -7t7 -17l2 -852q0 -12 -7.5 -19.5t-19.5 -7.5h-182q-29 0 -29 27v659h-84q-10 0 -17 7t-7 18zM273 8q-6 8 1 21l811 1435q6 15 29 15h215q12 0 18.5 -7.5t2.5 -17.5l-813 -1440q-11 -14 -29 -14h-213q-16 0 -22 8zM1034 45 q33 55 111.5 171.5t140.5 205.5l62 90q1 2 14.5 25t19.5 35t13 33.5t6 37.5q0 26 -19 44t-51 18q-67 0 -119 -60q-12 -14 -26 0l-111 129q-8 13 0 23q105 125 283 125q123 0 193.5 -71.5t70.5 -191.5q-1 -29 -4 -56t-10 -50.5t-12 -40.5t-15 -37t-14.5 -28.5t-15 -26 t-11.5 -19.5q-92 -137 -129 -188h180q19 0 19 -18v-172q2 -9 -4 -16t-15 -7h-534q-46 4 -23 45z" />
<glyph unicode="&#xbe;" horiz-adv-x="1900" d="M82 784q-1 9 4 15t14 6h179q6 0 11 -5t5 -12q3 -32 30 -51.5t68 -19.5t65.5 25.5t24.5 68.5q0 94 -92 100h-67q-9 0 -15.5 6t-5.5 15v123q0 20 21 20h51q82 4 82 90q0 33 -21.5 54.5t-54.5 21.5q-64 0 -123 -55q-4 -6 -11 -6t-11 6l-97 114q-11 14 0 25q96 115 269 115 q123 0 199.5 -68.5t76.5 -175.5q0 -123 -82 -205q111 -66 111 -215q0 -123 -87.5 -199.5t-228.5 -76.5q-136 0 -222.5 78t-92.5 206zM466 8q-5 8 3 23l807 1431q14 17 35 17h211q12 0 18 -7t2 -16l-811 -1440q-12 -16 -33 -16h-211q-16 0 -21 8zM1060 169q-7 9 1 28l358 686 q8 19 31 16h256q20 0 23 -20v-545h77q21 0 21 -19v-135q0 -20 -21 -20h-77v-133q0 -27 -25 -27h-188q-11 0 -17.5 7.5t-5.5 17.5v135h-408q-18 0 -25 9zM1325 334h168v321z" />
<glyph unicode="&#xbf;" horiz-adv-x="968" d="M74 362q0 73 16.5 133t44 101.5t60 78t66 69t62 66t48 79t22.5 98.5q3 21 23 21h243q9 0 15 -6t6 -15q-3 -68 -22.5 -128t-48.5 -103t-63.5 -81.5t-68.5 -70.5t-62 -63t-45.5 -66t-17.5 -72q1 -77 48 -116t118 -41q66 0 117.5 32t101.5 97q13 16 29 0l154 -172 q15 -12 0 -31q-161 -192 -422 -192q-115 0 -211 46.5t-154.5 135t-58.5 200.5zM377 1282q0 71 42.5 114.5t112.5 43.5t114 -44t44 -114t-43.5 -113t-114.5 -43q-70 0 -112.5 42.5t-42.5 113.5z" />
<glyph unicode="&#xc0;" horiz-adv-x="1372" d="M4 23l531 1378q6 18 28 18h246q23 0 29 -18l528 -1378q4 -11 0.5 -17t-14.5 -6h-242q-16 0 -20 14l-129 336h-549l-129 -336q-6 -14 -23 -14h-240q-23 0 -16 23zM430 1650q-2 9 4 15l96 162q4 9 15 10.5t18 -4.5l348 -266q16 -13 7 -29l-54 -86q-10 -16 -30 -6l-394 190 q-8 5 -10 14zM502 588h368l-184 481z" />
<glyph unicode="&#xc1;" horiz-adv-x="1372" d="M4 23l531 1378q6 18 28 18h246q23 0 29 -18l528 -1378q4 -11 0.5 -17t-14.5 -6h-242q-16 0 -20 14l-129 336h-549l-129 -336q-6 -14 -23 -14h-240q-23 0 -16 23zM469 1544q-10 14 6 27l350 266q7 6 17 4.5t16 -10.5l96 -160q5 -7 3 -17t-11 -14l-393 -190q-21 -11 -31 6z M502 588h368l-184 481z" />
<glyph unicode="&#xc2;" horiz-adv-x="1372" d="M4 23l531 1378q6 18 28 18h246q23 0 29 -18l528 -1378q4 -11 0.5 -17t-14.5 -6h-242q-16 0 -20 14l-129 336h-549l-129 -336q-6 -14 -23 -14h-240q-23 0 -16 23zM337 1529q-2 5 5 13l229 213q20 12 29 12h170q13 0 29 -12l229 -213q9 -8 6.5 -13t-14.5 -5h-207 q-14 0 -27 10l-100 92l-102 -92q-13 -10 -25 -10h-209q-11 0 -13 5zM502 588h368l-184 481z" />
<glyph unicode="&#xc3;" horiz-adv-x="1372" d="M4 23l531 1378q6 18 28 18h246q23 0 29 -18l528 -1378q4 -11 0.5 -17t-14.5 -6h-242q-16 0 -20 14l-129 336h-549l-129 -336q-6 -14 -23 -14h-240q-23 0 -16 23zM369 1608q28 86 85 137t115 51q37 0 68 -15.5t51 -37.5t38.5 -44t41 -37.5t47.5 -14.5q71 0 105 96 q11 25 24 8l72 -74q9 -9 6 -20q-27 -86 -84 -136.5t-117 -50.5q-37 0 -68 15.5t-52 38t-39.5 44.5t-40.5 37.5t-46 14.5q-70 -3 -104 -96q-5 -11 -13 -13t-16 5l-65 71q-15 11 -8 21zM502 588h368l-184 481z" />
<glyph unicode="&#xc4;" horiz-adv-x="1372" d="M4 23l531 1378q6 18 28 18h246q23 0 29 -18l528 -1378q4 -11 0.5 -17t-14.5 -6h-242q-16 0 -20 14l-129 336h-549l-129 -336q-6 -14 -23 -14h-240q-23 0 -16 23zM389 1616q0 61 36.5 98t96.5 37q59 0 96 -37.5t37 -97.5q0 -58 -37.5 -95.5t-95.5 -37.5q-61 0 -98 37 t-35 96zM502 588h368l-184 481zM713 1616q0 61 36.5 98t96.5 37t95.5 -37.5t35.5 -97.5q0 -59 -36 -96t-95 -37q-60 0 -96.5 37t-36.5 96z" />
<glyph unicode="&#xc5;" horiz-adv-x="1372" d="M4 23l531 1378q6 18 28 18h246q23 0 29 -18l528 -1378q4 -11 0.5 -17t-14.5 -6h-242q-16 0 -20 14l-129 336h-549l-129 -336q-6 -14 -23 -14h-240q-23 0 -16 23zM479 1649q0 88 53.5 141t141.5 53q89 0 142.5 -53t53.5 -141q0 -89 -53.5 -143t-142.5 -54q-88 0 -141.5 54 t-53.5 143zM502 588h368l-184 481zM594 1649q0 -37 22.5 -59.5t57.5 -22.5q37 0 59.5 22.5t22.5 59.5q0 35 -22.5 57.5t-59.5 22.5q-35 0 -57.5 -22.5t-22.5 -57.5z" />
<glyph unicode="&#xc6;" horiz-adv-x="1687" d="M4 33l729 1370q11 18 31 18h803q24 0 24 -26v-197q0 -27 -24 -27h-377v-325h283q20 0 20 -23v-202q0 -20 -20 -23h-283l-2 -346h401q21 -4 21 -23v-206q0 -23 -19 -23h-661q-21 4 -21 23v333h-432l-176 -340q-6 -16 -29 -16h-245q-39 0 -23 33zM600 596h309v596z" />
<glyph unicode="&#xc7;" horiz-adv-x="1368" d="M70 709q0 142 40.5 262.5t110.5 205.5t162.5 145.5t197 89t214.5 28.5q142 2 275 -47.5t233 -143.5q12 -12 0 -26l-136 -185q-5 -7 -13.5 -6.5t-14.5 6.5q-143 125 -344 125q-200 2 -322.5 -123.5t-122.5 -330.5q0 -203 123 -328t322 -125q195 0 344 127q6 6 14.5 6 t13.5 -6l138 -186q14 -17 2 -29q-101 -95 -233 -141.5t-279 -46.5q-161 0 -296 53.5t-229.5 149t-147 231t-52.5 295.5zM567 -326l43 74q9 9 25 2q96 -33 147 -33q36 0 59 16.5t23 41.5q0 53 -98 53h-104q-20 0 -13 18l66 154h196l-30 -72q78 -10 123.5 -49.5t44.5 -114.5 q-1 -91 -69.5 -139.5t-170.5 -48.5q-63 0 -129.5 21.5t-108.5 52.5q-16 12 -4 24z" />
<glyph unicode="&#xc8;" horiz-adv-x="1089" d="M141 20v1381q0 20 21 20h809q20 0 20 -20v-227q0 -19 -18 -19h-551v-299h452q21 0 21 -20v-222q0 -20 -21 -20h-452v-328h569q21 0 21 -20v-228q0 -7 -5.5 -12.5t-13.5 -5.5h-831q-21 0 -21 20zM256.5 1649.5q-2.5 9.5 3.5 15.5l96 162q4 9 15 10.5t20 -4.5l348 -266 q13 -13 4 -29l-51 -86q-13 -16 -30 -6l-394 190q-9 4 -11.5 13.5z" />
<glyph unicode="&#xc9;" horiz-adv-x="1089" d="M141 20v1381q0 20 21 20h809q20 0 20 -20v-227q0 -19 -18 -19h-551v-299h452q21 0 21 -20v-222q0 -20 -21 -20h-452v-328h569q21 0 21 -20v-228q0 -7 -5.5 -12.5t-13.5 -5.5h-831q-21 0 -21 20zM389 1544q-10 14 6 27l350 266q7 6 17 4.5t16 -10.5l96 -160q5 -7 3 -17 t-11 -14l-393 -190q-21 -11 -31 6z" />
<glyph unicode="&#xca;" horiz-adv-x="1089" d="M141 20v1381q0 20 21 20h809q20 0 20 -20v-227q0 -19 -18 -19h-551v-299h452q21 0 21 -20v-222q0 -20 -21 -20h-452v-328h569q21 0 21 -20v-228q0 -7 -5.5 -12.5t-13.5 -5.5h-831q-21 0 -21 20zM226.5 1518.5q-2.5 5.5 4.5 13.5l230 211q17 14 28 14h170q19 0 29 -14 l230 -211q9 -8 6.5 -13.5t-13.5 -5.5h-209q-13 0 -24 11l-103 90l-102 -90q-15 -11 -24 -11h-209q-11 0 -13.5 5.5z" />
<glyph unicode="&#xcb;" horiz-adv-x="1089" d="M141 20v1381q0 20 21 20h809q20 0 20 -20v-227q0 -19 -18 -19h-551v-299h452q21 0 21 -20v-222q0 -20 -21 -20h-452v-328h569q21 0 21 -20v-228q0 -7 -5.5 -12.5t-13.5 -5.5h-831q-21 0 -21 20zM281 1630q0 57 35 91t92 34q55 1 89.5 -33.5t34.5 -91.5t-34 -92t-90 -35 q-57 0 -92 35t-35 92zM588 1630q0 57 35 91t92 34q57 1 92 -33.5t35 -91.5t-35.5 -92t-91.5 -35q-57 0 -92 35t-35 92z" />
<glyph unicode="&#xcc;" horiz-adv-x="563" d="M12.5 1650q-2.5 9 3.5 15l97 162q4 9 14.5 10.5t17.5 -4.5l349 -266q16 -13 6 -29l-51 -86q-13 -16 -33 -6l-393 190q-8 5 -10.5 14zM141 18v1383q0 20 21 20h239q21 0 21 -20v-1383q0 -8 -6 -13t-15 -5h-239q-9 0 -15 5t-6 13z" />
<glyph unicode="&#xcd;" horiz-adv-x="563" d="M63 1544q-10 13 7 27l350 266q7 6 17 4.5t16 -10.5l96 -160q5 -7 3 -17t-11 -14l-394 -190q-20 -10 -30 6zM141 18v1383q0 20 21 20h239q21 0 21 -20v-1383q0 -8 -6 -13t-15 -5h-239q-9 0 -15 5t-6 13z" />
<glyph unicode="&#xce;" horiz-adv-x="563" d="M-89 1526q-3 6 5 12l242 225q22 13 28 13h174l37 -43l-225 -201q-20 -12 -27 -12h-221q-10 0 -13 6zM141 18v1383q0 20 21 20h239q21 0 21 -20v-1383q0 -8 -6 -13t-15 -5h-239q-9 0 -15 5t-6 13zM160 1733l37 43h174q9 0 26 -13l242 -225q9 -6 6.5 -12t-14.5 -6h-219 q-11 0 -27 12z" />
<glyph unicode="&#xcf;" horiz-adv-x="563" d="M-14 1632q0 61 36.5 98t96.5 37q58 0 94.5 -37.5t36.5 -97.5q0 -59 -36.5 -96t-94.5 -37q-61 0 -98 37t-35 96zM141 18v1383q0 20 21 20h239q21 0 21 -20v-1383q0 -8 -6 -13t-15 -5h-239q-9 0 -15 5t-6 13zM309 1632q0 62 35.5 98.5t95.5 36.5t96.5 -37.5t36.5 -97.5 q0 -59 -36.5 -96t-96.5 -37q-59 0 -95 37t-36 96z" />
<glyph unicode="&#xd0;" horiz-adv-x="1392" d="M27 655v95q0 20 20 20h94v631q0 20 21 20h434q330 0 529.5 -192.5t199.5 -517.5q0 -216 -90.5 -377.5t-255.5 -247.5t-383 -86h-434q-21 0 -21 20v615h-94q-20 0 -20 20zM422 266h176q203 0 326 121.5t123 323.5t-123.5 324t-327.5 120l-174 2v-387h250q20 0 20 -20v-95 q0 -20 -20 -20h-250v-369z" />
<glyph unicode="&#xd1;" horiz-adv-x="1474" d="M141 20l2 1381q0 20 21 20h274q18 0 25 -14l590 -942l2 936q0 20 18 20h240q20 0 20 -20v-1381q0 -20 -20 -20h-275q-14 0 -22 12l-594 946v-938q0 -20 -21 -20h-239q-21 0 -21 20zM408 1610q28 86 86 136t116 50q38 0 69 -15.5t51.5 -37.5t39 -44t41 -37.5t47.5 -14.5 q68 3 107 96q3 11 9.5 13t14.5 -5l72 -74q12 -8 6 -20q-27 -86 -85.5 -137.5t-119.5 -51.5q-37 0 -67.5 16t-51.5 38.5t-40 45t-41 38t-46 14.5q-68 -3 -108 -98q-2 -11 -9.5 -13.5t-15.5 4.5l-67 72q-13 13 -8 25z" />
<glyph unicode="&#xd2;" horiz-adv-x="1597" d="M70 711q0 327 201.5 528t529.5 201q327 0 527 -201t200 -528q0 -328 -200 -528.5t-527 -200.5q-329 0 -530 200.5t-201 528.5zM350 711q0 -203 123.5 -327t327.5 -124q201 0 324.5 124.5t123.5 326.5t-123.5 326t-324.5 124q-203 0 -327 -124t-124 -326zM494.5 1666.5 q-2.5 8.5 3.5 14.5l96 162q4 9 15 10.5t18 -4.5l348 -266q16 -13 6 -29l-51 -86q-13 -16 -33 -6l-391 191q-9 5 -11.5 13.5z" />
<glyph unicode="&#xd3;" horiz-adv-x="1597" d="M70 711q0 327 201.5 528t529.5 201q327 0 527 -201t200 -528q0 -328 -200 -528.5t-527 -200.5q-329 0 -530 200.5t-201 528.5zM350 711q0 -203 123.5 -327t327.5 -124q201 0 324.5 124.5t123.5 326.5t-123.5 326t-324.5 124q-203 0 -327 -124t-124 -326zM600 1544 q-10 14 6 27l350 266q7 6 17 4.5t16 -10.5l96 -160q5 -7 3 -17t-11 -14l-393 -190q-21 -11 -31 6z" />
<glyph unicode="&#xd4;" horiz-adv-x="1597" d="M72 711q0 327 200.5 528t528.5 201q217 0 382 -91t255 -256.5t90 -381.5t-90 -381.5t-255 -256.5t-382 -91q-328 0 -528.5 201t-200.5 528zM348 711q0 -203 124.5 -327t328.5 -124q202 0 326 124t124 327t-124 327.5t-326 124.5q-204 0 -328.5 -124t-124.5 -328z M439.5 1526q-2.5 4 4.5 12l230 213q12 12 28 12h170q17 0 29 -12l229 -213q19 -16 -8 -16h-209q-8 0 -24 8l-101 92l-104 -92q-12 -8 -22 -8h-211q-9 0 -11.5 4z" />
<glyph unicode="&#xd5;" horiz-adv-x="1597" d="M70 711q0 327 201.5 528t529.5 201q327 0 527 -201t200 -528q0 -328 -200 -528.5t-527 -200.5q-329 0 -530 200.5t-201 528.5zM350 711q0 -203 123.5 -327t327.5 -124q201 0 324.5 124.5t123.5 326.5t-123.5 326t-324.5 124q-203 0 -327 -124t-124 -326zM473 1610 q28 86 86 136t117 50q38 0 69 -15.5t51.5 -37.5t39 -44t40 -37.5t46.5 -14.5q39 1 64 26t44 70q3 11 10 13t15 -5l71 -74q13 -9 7 -20q-27 -86 -85.5 -137.5t-119.5 -51.5q-37 0 -67.5 16t-51.5 38.5t-40 45t-41 38t-46 14.5q-69 -3 -109 -98q-2 -11 -9 -13.5t-15 4.5 l-68 72q-13 13 -8 25z" />
<glyph unicode="&#xd6;" horiz-adv-x="1597" d="M70 711q0 327 201.5 528t529.5 201q327 0 527 -201t200 -528q0 -328 -200 -528.5t-527 -200.5q-329 0 -530 200.5t-201 528.5zM350 711q0 -203 123.5 -327t327.5 -124q201 0 324.5 124.5t123.5 326.5t-123.5 326t-324.5 124q-203 0 -327 -124t-124 -326zM504 1632 q0 61 36.5 98t96.5 37q58 0 94.5 -37.5t36.5 -97.5q0 -59 -36.5 -96t-94.5 -37q-61 0 -98 37t-35 96zM827 1632q0 62 35.5 98.5t95.5 36.5t97 -37.5t37 -97.5q0 -59 -37 -96t-97 -37q-59 0 -95 37t-36 96z" />
<glyph unicode="&#xd7;" horiz-adv-x="964" d="M94 410q-14 14 0 28l221 219l-217 217q-14 14 0 29l135 135q6 8 14.5 8t14.5 -8l217 -217l219 221q17 12 29 0l141 -141q16 -13 0 -29l-219 -221l217 -217q14 -11 0 -28l-135 -136q-15 -14 -29 0l-217 217l-221 -219q-16 -16 -28 0z" />
<glyph unicode="&#xd8;" horiz-adv-x="1581" d="M70 711q0 327 201.5 528t529.5 201q327 0 527 -201t200 -528q0 -328 -200 -528.5t-527 -200.5q-329 0 -530 200.5t-201 528.5zM135 47l1237 1380q14 17 31 3l61 -56q14 -14 0 -28l-1237 -1383q-14 -14 -28 0l-62 55q-15 12 -2 29zM350 711q0 -203 123.5 -327t327.5 -124 q201 0 324.5 124.5t123.5 326.5t-123.5 326t-324.5 124q-203 0 -327 -124t-124 -326z" />
<glyph unicode="&#xd9;" horiz-adv-x="1382" d="M135 557v844q0 18 21 18h241q8 0 13.5 -5.5t5.5 -12.5v-846q0 -137 75 -216t201 -79q125 0 199.5 79.5t73.5 215.5v846q0 18 20 18h242q18 0 18 -18v-846q0 -111 -29 -205.5t-80.5 -161.5t-121.5 -114t-151.5 -69.5t-170.5 -22.5q-113 0 -212.5 37t-177 107t-122.5 181 t-45 250zM356.5 1650q-2.5 9 3.5 15l97 162q4 9 14.5 10.5t17.5 -4.5l349 -266q16 -13 6 -29l-53 -86q-10 -17 -31 -6l-393 190q-8 5 -10.5 14z" />
<glyph unicode="&#xda;" horiz-adv-x="1382" d="M135 557v844q0 18 21 18h241q8 0 13.5 -5.5t5.5 -12.5v-846q0 -137 75 -216t201 -79q125 0 199.5 79.5t73.5 215.5v846q0 18 20 18h242q18 0 18 -18v-846q0 -111 -29 -205.5t-80.5 -161.5t-121.5 -114t-151.5 -69.5t-170.5 -22.5q-113 0 -212.5 37t-177 107t-122.5 181 t-45 250zM473 1544q-10 14 6 27l350 266q7 6 17 4.5t16 -10.5l96 -160q5 -7 3 -17t-11 -14l-393 -190q-21 -11 -31 6z" />
<glyph unicode="&#xdb;" horiz-adv-x="1382" d="M135 557v844q0 20 21 20h239q9 0 14 -6t5 -14v-846q0 -137 75 -216t201 -79q127 0 201.5 79t73.5 216v846q0 20 20 20h240q20 0 20 -20v-846q0 -139 -44.5 -249.5t-121.5 -180.5t-176.5 -106.5t-212.5 -36.5q-112 0 -211.5 37t-176.5 107t-122 181t-45 250zM346 1538 l232 213q12 12 28 12h168q19 0 31 -12l229 -213q19 -16 -8 -16h-209q-8 0 -24 8l-101 92l-104 -92q-16 -8 -23 -8h-211q-21 0 -8 16z" />
<glyph unicode="&#xdc;" horiz-adv-x="1382" d="M135 557v844q0 18 21 18h241q8 0 13.5 -5.5t5.5 -12.5v-846q0 -137 75 -216t201 -79q125 0 199.5 79.5t73.5 215.5v846q0 18 20 18h242q18 0 18 -18v-846q0 -111 -29 -205.5t-80.5 -161.5t-121.5 -114t-151.5 -69.5t-170.5 -22.5q-113 0 -212.5 37t-177 107t-122.5 181 t-45 250zM397 1632q0 61 36.5 98t96.5 37q59 0 95.5 -37.5t36.5 -97.5q0 -59 -37 -96t-95 -37q-61 0 -98 37t-35 96zM721 1632q0 62 35.5 98.5t95.5 36.5t96.5 -37.5t36.5 -97.5q0 -59 -36.5 -96t-96.5 -37q-59 0 -95 37t-36 96z" />
<glyph unicode="&#xdd;" horiz-adv-x="1267" d="M6 1395q-14 24 14 24h254q17 0 27 -16l334 -592l334 592q6 16 26 16h252q30 0 15 -24l-490 -828v-549q2 -7 -3.5 -12.5t-14.5 -5.5h-240q-20 0 -20 18v547zM418 1544q-10 14 6 27l350 266q7 6 17 4.5t16 -10.5l96 -160q5 -7 3 -17t-11 -14l-393 -190q-21 -11 -31 6z" />
<glyph unicode="&#xde;" horiz-adv-x="1128" d="M123 23v1374q0 24 24 24h234q22 0 22 -22v-244h201q210 0 332.5 -124t124.5 -320q-2 -197 -124.5 -321.5t-332.5 -125.5h-201v-241q0 -23 -24 -23h-234q-22 0 -22 23zM403 532h172q89 0 147 42.5t58 134.5q0 93 -58.5 137.5t-146.5 42.5h-172v-357z" />
<glyph unicode="&#xdf;" horiz-adv-x="1198" d="M137 25v950q0 221 123.5 344t329.5 125q173 -2 286 -99t113 -260q0 -45 -17 -83t-42.5 -65t-51 -51t-45.5 -52t-24 -58q0 -23 17.5 -45.5t45.5 -43.5t62.5 -44.5t68.5 -54t62 -66.5t45.5 -88.5t17.5 -114.5q1 -167 -109.5 -270.5t-287.5 -103.5q-100 0 -207 55 q-20 7 -10 33l86 219q10 19 29 8q52 -35 106 -35q58 3 85.5 30.5t27.5 59.5q0 38 -30.5 79.5t-74 81.5t-86.5 84t-73.5 102t-30.5 120q0 36 16.5 72t39.5 65t46 56.5t39.5 56t16.5 53.5q0 55 -30.5 82t-82.5 27q-101 0 -139.5 -98t-40.5 -297v-776q0 -10 -7 -16.5t-18 -6.5 h-231q-10 0 -17.5 7t-7.5 18z" />
<glyph unicode="&#xe0;" horiz-adv-x="1208" d="M57 487q0 228 135.5 368t356.5 140q183 3 287 -133l32 99q8 20 23 18h186q9 0 15 -6t6 -15v-938q-4 -20 -23 -20h-186q-16 0 -23 20l-30 95q-106 -138 -287 -138q-220 -1 -356 140.5t-136 369.5zM279 1300.5q-1 8.5 6 14.5l116 145q15 18 35 2l303 -307q13 -13 2 -25 l-65 -79q-14 -14 -29 -2l-358 237q-9 6 -10 14.5zM322 487q0 -108 67.5 -175.5t173.5 -67.5q110 0 178.5 66.5t69.5 176.5q-1 110 -70 177t-178 67t-175 -67t-66 -177z" />
<glyph unicode="&#xe1;" horiz-adv-x="1208" d="M57 487q0 228 135.5 368t356.5 140q183 3 287 -133l32 99q8 20 23 18h186q9 0 15 -6t6 -15v-938q-4 -20 -23 -20h-186q-16 0 -23 20l-30 95q-106 -138 -287 -138q-220 -1 -356 140.5t-136 369.5zM322 487q0 -108 67.5 -175.5t173.5 -67.5q110 0 178.5 66.5t69.5 176.5 q-1 110 -70 177t-178 67t-175 -67t-66 -177zM432 1130q-11 11 2 27l309 307q6 9 15.5 9t17.5 -9l117 -147q7 -6 6.5 -15t-8.5 -14l-363 -241q-8 -4 -16.5 -3.5t-13.5 5.5z" />
<glyph unicode="&#xe2;" horiz-adv-x="1208" d="M57 487q0 228 135.5 368t356.5 140q183 3 287 -133l32 99q8 20 23 18h186q9 0 15 -6t6 -15v-938q-4 -20 -23 -20h-186q-16 0 -23 20l-30 95q-106 -138 -287 -138q-220 -1 -356 140.5t-136 369.5zM268.5 1106q-2.5 4 3.5 12l195 273q5 8 27 12h180q16 0 28 -12l193 -271 q12 -18 -8 -18h-189q-16 0 -24 10l-90 141l-90 -139q-9 -12 -23 -12h-192q-8 0 -10.5 4zM322 487q0 -108 67.5 -175.5t173.5 -67.5q110 0 178.5 66.5t69.5 176.5q-1 110 -70 177t-178 67t-175 -67t-66 -177z" />
<glyph unicode="&#xe3;" horiz-adv-x="1208" d="M57 487q0 228 135.5 368t356.5 140q183 3 287 -133l32 99q8 20 23 18h186q9 0 15 -6t6 -15v-938q-4 -20 -23 -20h-186q-16 0 -23 20l-30 95q-106 -138 -287 -138q-220 -1 -356 140.5t-136 369.5zM270 1202q27 84 82.5 134t112.5 50q36 0 66 -15.5t49.5 -37t37 -43.5 t39 -37t45.5 -14q69 3 103 96q7 20 22 8l70 -71q9 -9 6 -19q-25 -83 -81 -132.5t-115 -49.5q-35 0 -64.5 15t-50 37t-38.5 43.5t-40 36.5t-45 14q-66 -3 -100 -97q-12 -21 -27 -6l-68 70q-6 11 -4 18zM322 487q0 -108 67.5 -175.5t173.5 -67.5q110 0 178.5 66.5t69.5 176.5 q-1 110 -70 177t-178 67t-175 -67t-66 -177z" />
<glyph unicode="&#xe4;" horiz-adv-x="1208" d="M57 487q0 228 135.5 368t356.5 140q183 3 287 -133l32 99q8 20 23 18h186q9 0 15 -6t6 -15v-938q-4 -20 -23 -20h-186q-16 0 -23 20l-30 95q-106 -138 -287 -138q-220 -1 -356 140.5t-136 369.5zM297 1247q0 60 36.5 96.5t96.5 36.5q59 0 95 -36.5t36 -96.5t-36.5 -97.5 t-94.5 -37.5q-60 0 -96.5 37.5t-36.5 97.5zM322 487q0 -108 67.5 -175.5t173.5 -67.5q110 0 178.5 66.5t69.5 176.5q-1 110 -70 177t-178 67t-175 -67t-66 -177zM621 1247q0 60 35.5 96.5t95.5 36.5t97.5 -36.5t37.5 -96.5t-37.5 -97.5t-97.5 -37.5t-95.5 37.5t-35.5 97.5z " />
<glyph unicode="&#xe5;" horiz-adv-x="1208" d="M57 487q0 228 135.5 368t356.5 140q183 3 287 -133l32 99q8 20 23 18h186q9 0 15 -6t6 -15v-938q-4 -20 -23 -20h-186q-16 0 -23 20l-30 95q-106 -138 -287 -138q-220 -1 -356 140.5t-136 369.5zM322 487q0 -108 67.5 -175.5t173.5 -67.5q110 0 178.5 66.5t69.5 176.5 q-1 110 -70 177t-178 67t-175 -67t-66 -177zM393 1270q0 88 54.5 142t142.5 54q89 0 142.5 -54t53.5 -142q0 -89 -53.5 -143t-142.5 -54q-88 0 -142.5 54t-54.5 143zM524 1270q0 -31 18.5 -49.5t47.5 -18.5q31 0 49 18.5t18 49.5q0 30 -18.5 48.5t-48.5 18.5 q-29 0 -47.5 -19t-18.5 -48z" />
<glyph unicode="&#xe6;" horiz-adv-x="1900" d="M57 487q0 228 135.5 368t356.5 140q183 3 287 -133l32 99q8 20 23 18h186q21 0 21 -18v-23q100 59 239 59q132 0 231 -45t158 -126.5t88 -186.5t29 -233q0 -21 -22 -21h-705q24 -73 86.5 -115.5t157.5 -42.5q128 0 205 66q21 15 34 2l140 -148q13 -13 0 -30 q-123 -137 -393 -140q-136 0 -250 60v-21q-4 -16 -21 -16h-186q-16 0 -23 20l-30 95q-106 -138 -287 -138q-220 -1 -356 140.5t-136 369.5zM322 487q0 -108 67.5 -175.5t173.5 -67.5q110 0 178.5 66.5t69.5 176.5q-1 110 -70 177t-178 67t-175 -67t-66 -177zM1110 578h453 q-19 78 -77 124t-149 46q-92 0 -149.5 -46t-77.5 -124z" />
<glyph unicode="&#xe7;" horiz-adv-x="1046" d="M57 487q0 122 42 220.5t113 160t159 94.5t184 35q143 3 255 -54t185 -167q14 -17 0 -28l-172 -140q-7 -8 -16.5 -6t-15.5 12q-83 119 -228 119q-109 0 -175 -68t-66 -178t66 -177.5t175 -67.5q133 0 221 108q20 20 37 4l154 -145q15 -11 4 -29q-136 -203 -416 -203 q-227 0 -366.5 141t-139.5 369zM291 -326l43 74q8 8 26 2q89 -33 148 -33q36 0 59 16.5t23 41.5q0 53 -101 53h-104q-19 0 -12 18l67 154h197l-33 -72q79 -10 124 -49.5t44 -114.5q-1 -91 -69 -139.5t-171 -48.5q-62 0 -128.5 21.5t-108.5 52.5q-12 12 -4 24z" />
<glyph unicode="&#xe8;" horiz-adv-x="1126" d="M57 487q0 228 139.5 369t366.5 141q238 0 372.5 -146t133.5 -445q0 -9 -5.5 -15.5t-14.5 -5.5h-707q24 -73 86.5 -115.5t159.5 -42.5q128 0 203 64q21 18 34 2l140 -146q14 -14 2 -30q-126 -137 -396 -140q-231 0 -372.5 140.5t-141.5 369.5zM256 1298.5q-1 8.5 6 14.5 l117 145q17 20 35 2l303 -307q15 -12 2 -25l-66 -79q-14 -14 -28 -2l-359 237q-9 6 -10 14.5zM336 575h452q-20 80 -77 126.5t-148 46.5q-92 0 -149.5 -46.5t-77.5 -126.5z" />
<glyph unicode="&#xe9;" horiz-adv-x="1126" d="M57 487q0 228 139.5 369t366.5 141q238 0 372.5 -146t133.5 -445q0 -9 -5.5 -15.5t-14.5 -5.5h-707q24 -73 86.5 -115.5t159.5 -42.5q128 0 203 64q21 18 34 2l140 -146q14 -14 2 -30q-126 -137 -396 -140q-231 0 -372.5 140.5t-141.5 369.5zM336 575h452 q-20 80 -77 126.5t-148 46.5q-92 0 -149.5 -46.5t-77.5 -126.5zM358 1133q-8 10 2 26l308 303q6 9 15 9t17 -9l117 -145q6 -6 5.5 -14.5t-9.5 -14.5l-358 -237q-16 -13 -31 2z" />
<glyph unicode="&#xea;" horiz-adv-x="1124" d="M57 487q0 228 139.5 369t366.5 141q238 0 372.5 -146t133.5 -445q0 -9 -5.5 -15.5t-14.5 -5.5h-707q24 -73 86.5 -115.5t159.5 -42.5q128 0 203 64q21 18 34 2l140 -146q14 -14 2 -30q-126 -137 -396 -140q-231 0 -372.5 140.5t-141.5 369.5zM234.5 1089.5 q-2.5 4.5 3.5 12.5l194 272q7 11 27 15h182q12 0 27 -15l192 -270q16 -19 -8 -19h-188q-15 0 -23 11l-92 141l-90 -139q-10 -13 -23 -13h-190q-9 0 -11.5 4.5zM336 575h452q-20 80 -77 126.5t-148 46.5q-92 0 -149.5 -46.5t-77.5 -126.5z" />
<glyph unicode="&#xeb;" horiz-adv-x="1126" d="M57 487q0 228 139.5 369t366.5 141q238 0 372.5 -146t133.5 -445q0 -9 -5.5 -15.5t-14.5 -5.5h-707q24 -73 86.5 -115.5t159.5 -42.5q128 0 203 64q21 18 34 2l140 -146q14 -14 2 -30q-126 -137 -396 -140q-231 0 -372.5 140.5t-141.5 369.5zM270 1243q0 59 35.5 95 t93.5 36q57 0 91 -36t34 -95q0 -55 -35 -90t-90 -35q-58 0 -93.5 34.5t-35.5 90.5zM336 575h452q-20 80 -77 126.5t-148 46.5q-92 0 -149.5 -46.5t-77.5 -126.5zM582 1243q0 59 35.5 95t93.5 36q57 0 91 -36t34 -95q0 -55 -35 -90t-90 -35q-58 0 -93.5 34.5t-35.5 90.5z" />
<glyph unicode="&#xec;" horiz-adv-x="493" d="M-8.5 1309.5q-1.5 9.5 6.5 15.5l117 145q6 9 16 10t19 -7l303 -308q15 -15 2 -24l-66 -80q-15 -15 -31 -2l-356 237q-9 4 -10.5 13.5zM113 20v941q0 20 18 20h229q21 0 21 -20v-941q0 -20 -21 -20h-227q-20 0 -20 20z" />
<glyph unicode="&#xed;" horiz-adv-x="491" d="M18 1133q-12 9 2 26l306 305q8 8 17 8t15 -8l121 -147q6 -6 4.5 -15.5t-10.5 -15.5l-358 -237q-16 -13 -31 2zM113 20v941q0 20 18 20h229q21 0 21 -20v-941q0 -20 -21 -20h-227q-20 0 -20 20z" />
<glyph unicode="&#xee;" horiz-adv-x="493" d="M-76 1106l205 287q6 10 29 14h190q15 0 29 -14l203 -285q15 -18 -9 -18h-198q-17 0 -25 10l-96 149l-94 -147q-9 -12 -25 -12h-201q-21 0 -8 16zM113 20v941q0 20 18 20h229q21 0 21 -20v-941q0 -20 -21 -20h-227q-20 0 -20 20z" />
<glyph unicode="&#xef;" horiz-adv-x="493" d="M-53 1227q0 60 35.5 97.5t95.5 37.5q59 0 96 -37.5t37 -97.5t-37 -96.5t-96 -36.5q-60 0 -95.5 36.5t-35.5 96.5zM113 20v941q0 20 18 20h229q21 0 21 -20v-941q0 -20 -21 -20h-227q-20 0 -20 20zM268 1227q0 60 36.5 97.5t96.5 37.5t97 -37.5t37 -97.5t-37 -96.5 t-97 -36.5t-96.5 36.5t-36.5 96.5z" />
<glyph unicode="&#xf0;" horiz-adv-x="1103" d="M84 424q0 197 117 316.5t309 119.5q67 0 141 -31q-68 121 -182 220l-193 -99q-11 -7 -22 4l-57 58q-13 14 4 24l170 88q-82 56 -170 101q-17 7 -8 26l104 187q10 16 29 10q170 -59 317 -184l178 90q17 9 27 -4l55 -58q15 -15 -4 -24l-170 -86q137 -147 216 -336t75 -389 q0 -225 -133 -351t-336 -126q-197 0 -332 125.5t-135 318.5zM352 428q0 -83 55 -134.5t144 -51.5q85 0 145 55.5t60 134.5q0 88 -54 137t-151 49q-90 0 -144.5 -52t-54.5 -138z" />
<glyph unicode="&#xf1;" horiz-adv-x="1122" d="M100 958q0 9 7 15t16 6h180q20 0 27 -21l22 -94q97 140 293 140q165 0 267 -119.5t102 -319.5v-545q0 -20 -21 -20h-225q-9 0 -15.5 6t-4.5 14v490q0 107 -51 166t-132 59q-80 -2 -135 -67t-61 -191v-457q0 -7 -6.5 -12.5t-14.5 -5.5h-225q-21 0 -21 18zM244 1241 q27 82 82 130t112 48q36 0 65 -14.5t48.5 -35.5t37 -42t38.5 -35.5t45 -13.5q68 3 102 92q3 9 10 11.5t13 -3.5l69 -71q9 -9 6 -19q-25 -83 -80.5 -131.5t-113.5 -48.5q-35 0 -64.5 15t-49.5 36t-38.5 42.5t-39.5 36t-44 13.5q-66 -3 -100 -92q-5 -10 -12 -12.5t-13 4.5 l-65 70q-11 7 -8 20z" />
<glyph unicode="&#xf2;" d="M57 492q0 229 140.5 370.5t367.5 141.5q229 0 369.5 -141.5t140.5 -370.5t-140.5 -370.5t-369.5 -141.5q-227 0 -367.5 141.5t-140.5 370.5zM252 1298.5q-1 8.5 6 14.5l117 145q17 20 35 2l303 -307q15 -12 2 -25l-66 -79q-14 -14 -28 -2l-359 237q-9 6 -10 14.5z M324 492q0 -110 66 -178t175 -68q110 0 177 68t67 178t-67 177.5t-177 67.5q-109 0 -175 -67.5t-66 -177.5z" />
<glyph unicode="&#xf3;" d="M55 492q0 230 140.5 372t369.5 142q230 0 371 -142t141 -372q0 -229 -141 -372t-371 -143q-228 0 -369 143t-141 372zM326 492q0 -110 65.5 -177.5t173.5 -66.5q109 0 176.5 67.5t67.5 176.5q0 110 -67.5 177.5t-176.5 67.5t-174.5 -67.5t-64.5 -177.5zM356 1130 q-12 12 2 29l306 303q8 9 17 9t15 -9l117 -145q7 -6 6 -15.5t-10 -15.5l-356 -237q-17 -10 -33 2z" />
<glyph unicode="&#xf4;" d="M57 492q0 229 140.5 370.5t367.5 141.5q229 0 369.5 -141.5t140.5 -370.5t-140.5 -370.5t-369.5 -141.5q-227 0 -367.5 141.5t-140.5 370.5zM250.5 1116q-2.5 4 3.5 10l195 273q6 10 26 14h182q13 0 27 -14l193 -271q7 -8 4.5 -12t-13.5 -4h-188q-18 0 -23 8l-92 144 l-90 -142q-10 -10 -22 -10h-191q-9 0 -11.5 4zM324 492q0 -110 66 -178t175 -68q110 0 177 68t67 178t-67 177.5t-177 67.5q-109 0 -175 -67.5t-66 -177.5z" />
<glyph unicode="&#xf5;" d="M57 492q0 229 140.5 370.5t367.5 141.5q229 0 369.5 -141.5t140.5 -370.5t-140.5 -370.5t-369.5 -141.5q-227 0 -367.5 141.5t-140.5 370.5zM248 1212q27 83 82.5 133t111.5 50q37 0 67 -15t49.5 -37t37.5 -43.5t39 -36.5t45 -14q70 3 104 97q2 8 9.5 10t13.5 -4l70 -72 q9 -8 6 -16q-25 -84 -81.5 -134.5t-115.5 -50.5q-36 0 -65.5 15.5t-49.5 37.5t-38 43.5t-39.5 37t-44.5 14.5q-70 -3 -101 -97q-5 -9 -13 -11.5t-16 3.5l-65 70q-9 9 -6 20zM324 492q0 -110 66 -178t175 -68q110 0 177 68t67 178t-67 177.5t-177 67.5q-109 0 -175 -67.5 t-66 -177.5z" />
<glyph unicode="&#xf6;" d="M57 492q0 229 140.5 370.5t367.5 141.5q229 0 369.5 -141.5t140.5 -370.5t-140.5 -370.5t-369.5 -141.5q-227 0 -367.5 141.5t-140.5 370.5zM268 1249q0 60 36.5 96.5t96.5 36.5q59 0 96.5 -36.5t37.5 -96.5t-37.5 -97.5t-96.5 -37.5q-60 0 -96.5 37.5t-36.5 97.5z M324 492q0 -110 66 -178t175 -68q110 0 177 68t67 178t-67 177.5t-177 67.5q-109 0 -175 -67.5t-66 -177.5zM592 1249q0 60 36.5 96.5t96.5 36.5t96.5 -36.5t36.5 -96.5t-36.5 -97.5t-96.5 -37.5t-96.5 37.5t-36.5 97.5z" />
<glyph unicode="&#xf7;" horiz-adv-x="1103" d="M90 506v176q0 20 21 20h882q21 0 21 -20v-176q0 -9 -6 -15t-15 -6h-882q-9 0 -15 6t-6 15zM399 272q0 70 42.5 113t111.5 43q67 0 109.5 -43.5t42.5 -112.5q0 -68 -42.5 -110.5t-109.5 -42.5q-70 0 -112 42.5t-42 110.5zM399 924q0 69 42.5 111t111.5 42q68 0 110 -42 t42 -111t-42 -111.5t-110 -42.5q-70 0 -112 42.5t-42 111.5z" />
<glyph unicode="&#xf8;" d="M57 492q0 229 140.5 370.5t367.5 141.5q176 0 307 -91l62 70q15 15 31 2l61 -55q16 -16 2 -29l-63 -72q110 -135 110 -337q0 -229 -140.5 -370.5t-369.5 -141.5q-169 0 -293 79l-94 -104q-14 -14 -28 0l-62 55q-15 12 -2 29l92 102q-121 137 -121 351zM324 492 q0 -85 38 -144l326 361q-54 28 -123 28q-109 0 -175 -67.5t-66 -177.5zM459 268q49 -22 106 -22q110 0 177 68t67 178q0 78 -33 131z" />
<glyph unicode="&#xf9;" horiz-adv-x="1144" d="M104 956q0 10 6.5 16.5t14.5 6.5h227q9 0 15 -7t6 -16v-487q0 -242 190 -242q82 0 140 67t65 206v456q0 23 20 23h226q20 0 20 -21v-938q0 -20 -20 -20h-183q-19 0 -26 20l-21 93q-122 -138 -319 -138q-162 0 -260.5 119t-98.5 320zM247.5 1293.5q-1.5 9.5 4.5 15.5 l117 145q16 19 37 2l303 -307q13 -13 2 -25l-68 -80q-12 -16 -29 -2l-358 238q-7 4 -8.5 13.5z" />
<glyph unicode="&#xfa;" horiz-adv-x="1144" d="M104 956q0 10 6.5 16.5t14.5 6.5h227q9 0 15 -7t6 -16v-487q0 -242 190 -242q82 0 140 67t65 206v456q0 23 20 23h226q20 0 20 -21v-938q0 -20 -20 -20h-183q-19 0 -26 20l-21 93q-122 -138 -319 -138q-162 0 -260.5 119t-98.5 320zM414 1135q-10 10 2 26l305 303 q7 9 17 9t16 -9l116 -145q17 -14 -2 -29l-358 -237q-8 -6 -17 -5t-14 7z" />
<glyph unicode="&#xfb;" horiz-adv-x="1144" d="M104 956q0 10 6.5 16.5t14.5 6.5h227q9 0 15 -7t6 -16v-487q0 -242 190 -242q82 0 140 67t65 206v456q0 23 20 23h226q20 0 20 -21v-938q0 -20 -20 -20h-183q-19 0 -26 20l-21 93q-122 -138 -319 -138q-162 0 -260.5 119t-98.5 320zM248 1110l203 285q6 10 28 14h189 q14 0 28 -14l201 -283q15 -18 -8 -18h-197q-16 0 -24 10l-97 147l-92 -145q-9 -12 -24 -12h-199q-21 0 -8 16z" />
<glyph unicode="&#xfc;" horiz-adv-x="1144" d="M104 956q0 10 6.5 16.5t14.5 6.5h227q9 0 15 -7t6 -16v-487q0 -242 190 -242q82 0 140 67t65 206v456q0 23 20 23h226q20 0 20 -21v-938q0 -20 -20 -20h-183q-19 0 -26 20l-21 93q-122 -138 -319 -138q-162 0 -260.5 119t-98.5 320zM279 1227q0 60 36.5 97.5t96.5 37.5 q58 0 94.5 -37.5t36.5 -97.5t-36 -96.5t-95 -36.5q-60 0 -96.5 36.5t-36.5 96.5zM602 1227q0 60 36.5 97.5t96.5 37.5t96.5 -37.5t36.5 -97.5t-36.5 -96.5t-96.5 -36.5t-96.5 36.5t-36.5 96.5z" />
<glyph unicode="&#xfd;" horiz-adv-x="1034" d="M6 952q-4 12 0.5 19.5t13.5 7.5h242q19 0 25 -18l217 -625l246 625q6 18 26 18h234q12 0 17 -7.5t-1 -19.5l-547 -1401q-7 -18 -28 -18h-232q-12 0 -16.5 8.5t0.5 18.5l174 448zM354 1106q-12 12 2 29l306 303q16 19 32 0l117 -146q7 -6 6 -15t-10 -15l-358 -236 q-13 -13 -31 0z" />
<glyph unicode="&#xfe;" horiz-adv-x="1183" d="M109 -446v1904q0 21 20 21h215q9 0 15 -6t6 -15v-565q97 108 262 108q222 0 357.5 -141.5t135.5 -370.5t-135.5 -370.5t-357.5 -141.5q-164 0 -262 109v-532q0 -9 -6 -15t-15 -6h-215q-20 0 -20 21zM365 492q0 -112 68 -180t179 -68q109 0 175.5 67.5t66.5 177.5 q0 108 -68 177t-174 69q-111 0 -179 -65.5t-68 -177.5z" />
<glyph unicode="&#xff;" horiz-adv-x="1034" d="M6 952q-4 12 0.5 19.5t13.5 7.5h242q19 0 25 -18l217 -625l246 625q6 18 26 18h234q12 0 17 -7.5t-1 -19.5l-547 -1401q-7 -18 -28 -18h-232q-12 0 -16.5 8.5t0.5 18.5l174 448zM154 1208q0 60 35.5 96.5t95.5 36.5q59 0 96 -36.5t37 -96.5t-37 -97.5t-96 -37.5 q-60 0 -95.5 37.5t-35.5 97.5zM475 1208q0 60 36.5 96.5t96.5 36.5t97.5 -36.5t37.5 -96.5t-37.5 -97.5t-97.5 -37.5t-96.5 37.5t-36.5 97.5z" />
<glyph unicode="&#x152;" horiz-adv-x="1523" d="M70 711q0 319 189.5 513t500.5 197h643q22 0 22 -26v-197q0 -27 -22 -27h-379v-325h285q20 0 20 -23v-202q0 -10 -6 -16.5t-14 -6.5h-285v-346h401q21 -4 21 -25v-204q0 -23 -21 -23h-661q-312 2 -503 197t-191 514zM350 711q0 -191 105.5 -306.5t287.5 -130.5v871 q-180 -18 -286 -132t-107 -302z" />
<glyph unicode="&#x153;" horiz-adv-x="1880" d="M57 492q0 229 140.5 370.5t367.5 141.5q118 0 216 -40.5t165 -115.5q136 149 371 149q138 0 238.5 -45t158 -127t84 -185.5t25.5 -233.5q0 -21 -21 -21h-704q22 -73 84.5 -115.5t158.5 -42.5q126 0 203 66q22 15 35 2l141 -150q12 -12 0 -28q-126 -137 -395 -140 q-243 0 -383 156q-137 -153 -377 -153q-227 0 -367.5 141.5t-140.5 370.5zM324 492q0 -110 66 -178t175 -68t176.5 68t67.5 178t-67 177.5t-177 67.5q-109 0 -175 -67.5t-66 -177.5zM1090 578h454q-20 78 -77.5 124t-149.5 46t-149.5 -46t-77.5 -124z" />
<glyph unicode="&#x178;" horiz-adv-x="1267" d="M6 1395q-14 24 14 24h254q17 0 27 -16l334 -592l334 592q6 16 26 16h252q30 0 15 -24l-490 -828v-549q2 -7 -3.5 -12.5t-14.5 -5.5h-240q-20 0 -20 18v547zM338 1632q0 61 36.5 98t96.5 37q59 0 96 -37.5t37 -97.5q0 -58 -37 -95.5t-96 -37.5q-61 0 -97 37t-36 96z M662 1632q0 61 36.5 98t96.5 37t95.5 -37.5t35.5 -97.5q0 -59 -36 -96t-95 -37q-60 0 -96.5 37t-36.5 96z" />
<glyph unicode="&#x2c6;" horiz-adv-x="755" d="M49 1114l205 287q6 10 29 14h190q15 0 29 -14l203 -285q15 -18 -9 -18h-198q-18 0 -25 10l-96 149l-94 -147q-9 -12 -25 -12h-201q-21 0 -8 16z" />
<glyph unicode="&#x2dc;" horiz-adv-x="761" d="M49 1266q28 86 86.5 137t118.5 51q38 0 69 -15.5t51 -37.5t38.5 -44t40.5 -37.5t47 -14.5q39 1 64 26t44 72q3 9 10 11.5t13 -3.5l74 -76q9 -9 6 -18q-27 -87 -85.5 -139t-119.5 -52q-37 0 -67.5 16t-51.5 38.5t-40.5 45t-41.5 38t-47 14.5q-71 -3 -104 -98 q-5 -10 -13 -13t-14 4l-70 74q-11 8 -8 21z" />
<glyph unicode="&#x2000;" horiz-adv-x="926" />
<glyph unicode="&#x2001;" horiz-adv-x="1853" />
<glyph unicode="&#x2002;" horiz-adv-x="926" />
<glyph unicode="&#x2003;" horiz-adv-x="1853" />
<glyph unicode="&#x2004;" horiz-adv-x="617" />
<glyph unicode="&#x2005;" horiz-adv-x="463" />
<glyph unicode="&#x2006;" horiz-adv-x="308" />
<glyph unicode="&#x2007;" horiz-adv-x="308" />
<glyph unicode="&#x2008;" horiz-adv-x="231" />
<glyph unicode="&#x2009;" horiz-adv-x="370" />
<glyph unicode="&#x200a;" horiz-adv-x="102" />
<glyph unicode="&#x2010;" horiz-adv-x="878" d="M115 508v182q0 9 7 16.5t17 8.5h600q25 -4 25 -25v-182q0 -25 -25 -25h-600q-24 0 -24 25z" />
<glyph unicode="&#x2011;" horiz-adv-x="878" d="M115 508v182q0 9 7 16.5t17 8.5h600q25 -4 25 -25v-182q0 -25 -25 -25h-600q-24 0 -24 25z" />
<glyph unicode="&#x2012;" horiz-adv-x="878" d="M115 508v182q0 9 7 16.5t17 8.5h600q25 -4 25 -25v-182q0 -25 -25 -25h-600q-24 0 -24 25z" />
<glyph unicode="&#x2013;" horiz-adv-x="1185" d="M156 508v180q0 11 7 18t17 7h821q25 0 25 -25v-180q0 -25 -25 -25h-821q-24 0 -24 25z" />
<glyph unicode="&#x2014;" horiz-adv-x="1730" d="M156 506v182q0 11 7 18t17 7h1370q10 0 17.5 -7.5t7.5 -17.5v-182q0 -10 -7 -16.5t-18 -6.5h-1370q-24 0 -24 23z" />
<glyph unicode="&#x2018;" horiz-adv-x="409" d="M35 999q-10 90 20.5 191t86 179t118.5 112q11 8 29 -6l84 -70q7 -5 6 -12.5t-8 -14.5q-123 -97 -154 -219q1 0 3.5 -1t4.5 -1q51 -10 80 -49t29 -96q0 -68 -41.5 -110t-108.5 -42q-64 0 -104 38t-45 101z" />
<glyph unicode="&#x2019;" horiz-adv-x="409" d="M27 956.5q1 7.5 8 12.5q122 96 153 221h-8q-51 12 -79.5 51t-28.5 96q0 69 41 110.5t110 41.5q64 0 104.5 -38t45.5 -103q13 -136 -58 -282.5t-168 -199.5q-12 -7 -28 6l-86 72q-7 5 -6 12.5z" />
<glyph unicode="&#x201a;" horiz-adv-x="450" d="M57 -291q-14 11 2 27q122 93 154 219q-1 0 -3 1t-3 1q-51 11 -81 49.5t-30 95.5q0 68 41.5 110t110.5 42q63 0 103.5 -38t43.5 -101q10 -90 -20 -191t-85 -179t-118 -112q-14 -8 -29 7z" />
<glyph unicode="&#x201c;" horiz-adv-x="753" d="M35 999q-10 90 20 191t85 179t118 112q14 9 29 -6l86 -70q14 -11 -2 -27q-122 -93 -154 -219q1 0 3 -1t3 -1q51 -11 81 -49.5t30 -95.5q0 -68 -41.5 -110t-110.5 -42q-63 0 -103.5 38t-43.5 101zM377 999q-10 90 20.5 191t86 179t118.5 112q11 8 29 -6l84 -70 q7 -5 6 -12.5t-8 -14.5q-123 -97 -154 -219q1 0 3 -1t3 -1q51 -11 81 -49.5t30 -95.5q0 -68 -41.5 -110t-108.5 -42q-63 0 -104 38t-45 101z" />
<glyph unicode="&#x201d;" horiz-adv-x="768" d="M45 942q-14 11 2 27q122 93 154 219q-1 0 -3 1t-3 1q-51 11 -81 49.5t-30 95.5q0 68 41.5 110t110.5 42q63 0 103.5 -38t43.5 -101q15 -136 -55 -283t-168 -201q-15 -6 -29 8zM382 955q1 8 9 14q123 97 154 219q-2 0 -4.5 1t-3.5 1q-51 11 -80.5 49.5t-28.5 95.5 q0 68 41.5 110t108.5 42q63 0 103.5 -38t43.5 -101q15 -136 -55 -283t-168 -201q-15 -6 -29 8l-86 70q-6 5 -5 13z" />
<glyph unicode="&#x201e;" horiz-adv-x="794" d="M57 -297q-14 11 2 27q122 93 154 219q-1 0 -3 1t-3 1q-51 11 -81 49.5t-30 95.5q0 68 41.5 110t110.5 42q63 0 103.5 -38t43.5 -101q15 -136 -55 -283t-168 -201q-15 -6 -29 8zM394 -284q1 8 9 14q123 97 154 219q-2 0 -4.5 1t-3.5 1q-51 11 -80.5 49.5t-28.5 95.5 q0 68 41.5 110t108.5 42q63 0 103.5 -38t43.5 -101q15 -136 -55 -283t-168 -201q-15 -6 -29 8l-86 70q-6 5 -5 13z" />
<glyph unicode="&#x2022;" horiz-adv-x="768" d="M63 664q0 145 88 232t234 87q145 0 234.5 -87.5t89.5 -231.5q0 -146 -89.5 -236t-234.5 -90q-146 0 -234 89.5t-88 236.5z" />
<glyph unicode="&#x2026;" horiz-adv-x="1617" d="M119 131q0 69 41 111.5t110 42.5q68 0 110 -42.5t42 -111.5q0 -67 -43 -109t-109 -42q-69 0 -110.5 42t-40.5 109zM659 131q0 69 42 111.5t110 42.5t110 -42.5t42 -111.5q0 -67 -42 -109t-110 -42q-69 0 -110.5 41.5t-41.5 109.5zM1196 131q0 69 42 111.5t110 42.5 t109.5 -42.5t41.5 -111.5q0 -67 -41.5 -109t-109.5 -42t-110 42t-42 109z" />
<glyph unicode="&#x202f;" horiz-adv-x="370" />
<glyph unicode="&#x2039;" horiz-adv-x="698" d="M106 526v37q0 24 17 41l303 318q8 9 20 9t23 -9l113 -113q20 -21 2 -39l-219 -225l219 -226q20 -16 -2 -38l-113 -113q-11 -9 -23 -9t-20 9l-303 317q-17 17 -17 41z" />
<glyph unicode="&#x203a;" horiz-adv-x="698" d="M119 281q-19 22 0 38l219 226l-219 225q-19 16 0 39l114 113q9 9 21.5 9t21.5 -9l304 -318q16 -19 16 -41v-37q0 -22 -16 -41l-304 -317q-9 -9 -21.5 -9t-21.5 9z" />
<glyph unicode="&#x205f;" horiz-adv-x="463" />
<glyph unicode="&#x20ac;" horiz-adv-x="1273" d="M82 469v76q0 28 24 28h134q-7 79 -7 138v4h-127q-24 0 -24 28v76q0 29 24 29h134q28 270 159.5 431t329.5 161q143 0 253.5 -87.5t172.5 -244.5q7 -22 -8 -31l-199 -121q-20 -14 -30 9q-38 111 -81.5 161t-109.5 50q-78 0 -133 -89t-72 -239h193q12 0 19 -8.5t7 -20.5 v-76q0 -28 -26 -28h-201v-4q0 -81 8 -138h193q26 0 26 -28v-76q0 -29 -26 -29h-168q26 -93 73 -144.5t107 -51.5q109 0 180 172q10 23 33 6l193 -121q13 -11 4 -29q-64 -138 -169 -214t-239 -76q-172 0 -295.5 122.5t-171.5 335.5h-156q-24 0 -24 29z" />
<glyph unicode="&#x2122;" horiz-adv-x="1400" d="M68 1294v105q0 9 5.5 15.5t14.5 6.5h490q20 0 20 -20v-105q0 -20 -20 -20h-154v-461q0 -20 -21 -20h-143q-20 0 -20 20v461h-152q-20 0 -20 18zM637 811v575q0 14 9 23t22 8h123q21 0 30 -18l152 -289l151 291q8 16 29 16l143 2q9 0 15 -6.5t6 -15.5v-586q0 -20 -21 -20 h-139q-9 0 -15.5 5.5t-6.5 14.5l2 287l-103 -195q-7 -18 -28 -18h-56q-19 0 -30 18l-99 187v-279q0 -20 -20 -20h-144q-20 0 -20 20z" />
<glyph unicode="&#x25fc;" horiz-adv-x="983" d="M0 0v983h983v-983h-983z" />
</font>
</defs>
</svg>
