<?xml version="1.0" standalone="no"?>
<!DOCTYPE svg PUBLIC "-//W3C//DTD SVG 1.1//EN" "http://www.w3.org/Graphics/SVG/1.1/DTD/svg11.dtd" >
<svg xmlns="http://www.w3.org/2000/svg" xmlns:xlink="http://www.w3.org/1999/xlink" version="1.1">
<metadata></metadata>
<defs>
<font id="ageobold_italic" horiz-adv-x="1357" >
<font-face units-per-em="2048" ascent="1556" descent="-492" />
<missing-glyph horiz-adv-x="512" />
<glyph unicode="&#xfb01;" horiz-adv-x="1144" d="M137 766l29 174q0 7 6 14t16 7h129l27 163q16 99 59 173t105.5 118t135 65t155.5 21q292 0 401 -184q8 -15 -4 -27l-106 -149q-10 -12 -27 -2q-120 133 -256 133q-201 0 -232 -168l-22 -143h600q19 0 16 -19l-145 -922q-3 -20 -23 -20h-194q-17 0 -14 20l114 725h-387 l-114 -725q-3 -20 -25 -20h-193q-19 0 -16 20l115 725h-131q-9 0 -14.5 6t-4.5 15z" />
<glyph unicode="&#xfb02;" horiz-adv-x="1165" d="M137 766l29 174q0 7 6 14t16 7h131l27 163q13 79 44.5 143t75 107t99 72t114.5 42t122 13q49 -1 97.5 -5.5t101.5 -16t82 -18t89 -23t72 -19.5q20 -7 17 -33l-216 -1361q-4 -25 -28 -25h-185q-22 0 -18 25l188 1200q-104 47 -202 47q-87 0 -147 -40t-74 -128l-23 -143 h250q9 0 14 -6t4 -15l-28 -174q-1 -8 -8.5 -14.5t-14.5 -6.5h-250l-114 -725q-3 -20 -25 -20h-193q-19 0 -16 20l113 725h-131q-9 0 -14.5 6t-4.5 15z" />
<glyph unicode="&#xfb03;" horiz-adv-x="1779" d="M137 766l29 174q0 7 6 14t16 7h129l27 163q60 377 373 377q80 0 141 -26.5t90 -53.5q10 -11 0 -28l-98 -158q-9 -14 -29 -4q-64 41 -108 41q-53 0 -87 -39t-51 -129l-22 -143h401l27 163q16 99 58.5 173t105 118t135.5 65t156 21q292 0 401 -184q7 -14 -4 -27l-109 -149 q-10 -13 -24 -2q-1 1 -9 9.5t-15 15.5t-19.5 18.5t-25 20.5t-29 20t-34 19t-37.5 15.5t-42 11t-45 3.5q-93 0 -155.5 -40t-76.5 -128l-22 -143h598q21 0 18 -19l-145 -922q-3 -20 -25 -20h-192q-20 0 -17 20l115 725h-385l-115 -725q-3 -20 -24 -20h-193q-19 0 -16 20 l113 725h-402l-114 -725q-3 -20 -25 -20h-193q-19 0 -16 20l115 725h-131q-9 0 -14.5 6t-4.5 15z" />
<glyph unicode="&#xfb04;" horiz-adv-x="1798" d="M137 766l29 174q0 7 6 14t16 7h129l27 163q60 377 373 377q80 0 141 -26.5t90 -53.5q10 -11 0 -28l-98 -158q-9 -14 -29 -4q-64 41 -108 41q-53 0 -87 -39t-51 -129l-22 -143h401l25 163q16 98 60 172.5t107.5 118t136.5 65t153 21.5q59 -1 127.5 -11t107 -18.5t115 -29 t90.5 -23.5q21 -7 18 -33l-215 -1361q-4 -25 -30 -25h-183q-11 0 -16.5 7.5t-3.5 17.5l190 1200q-104 47 -204 47q-87 0 -146.5 -40t-75.5 -128l-22 -143h250q9 0 14 -6t4 -15l-29 -174q-1 -9 -7.5 -15t-14.5 -6h-250l-113 -725q-3 -20 -24 -20h-195q-19 0 -16 20l115 725 h-402l-114 -725q-3 -20 -25 -20h-193q-19 0 -16 20l115 725h-131q-9 0 -14.5 6t-4.5 15z" />
<glyph horiz-adv-x="0" />
<glyph horiz-adv-x="682" />
<glyph horiz-adv-x="0" />
<glyph horiz-adv-x="0" />
<glyph unicode="&#xd;" horiz-adv-x="0" />
<glyph unicode=" "  horiz-adv-x="512" />
<glyph unicode="&#x09;" horiz-adv-x="512" />
<glyph unicode="&#xa0;" horiz-adv-x="512" />
<glyph unicode="!" horiz-adv-x="516" d="M135 121q10 63 55.5 101t108.5 38t94.5 -38t20.5 -101q-9 -63 -53 -102t-107 -39t-95.5 39t-23.5 102zM203 430l149 971q3 20 25 20h209q19 0 16 -20l-158 -971q-3 -20 -22 -20h-201q-21 0 -18 20z" />
<glyph unicode="&#x22;" horiz-adv-x="749" d="M197 944q-11 15 8 27q141 97 188 227l-4 2q-51 7 -75.5 44t-16.5 93q11 63 57 103.5t109 40.5q57 0 89.5 -33.5t29.5 -89.5q0 -131 -92.5 -280t-200.5 -204q-15 -5 -29 9zM532 944q-10 14 7 27q139 93 190 227q-1 0 -3 1t-3 1q-49 7 -73.5 44t-16.5 93q11 65 55.5 104 t110.5 40q57 0 88 -33.5t28 -89.5q1 -86 -42.5 -187t-111.5 -181t-138 -116q-15 -5 -29 9z" />
<glyph unicode="#" horiz-adv-x="1333" d="M94 387l80 172q13 19 33 19h153l109 260h-172q-9 0 -12.5 5t0.5 13l82 172q7 21 30 21h162l148 352q10 20 30 20h187q19 0 12 -20l-150 -352h275l147 352q10 20 31 20h186q20 0 13 -20l-150 -352h164q19 0 12 -21l-82 -172q-11 -18 -30 -18h-152l-110 -260h172q9 0 12 -6 t-2 -13l-80 -172q-10 -20 -33 -20h-160l-145 -347q-10 -20 -31 -20h-186q-20 0 -10 20l145 347h-274l-146 -347q-10 -20 -30 -20h-187q-19 0 -12 20l145 347h-164q-20 0 -10 20zM588 578h274l111 260h-275z" />
<glyph unicode="$" horiz-adv-x="1189" d="M113 150q-12 12 0 30l131 180q16 19 30 5q38 -38 115.5 -79.5t179.5 -56.5l58 361q-218 51 -309.5 151.5t-69.5 268.5q23 173 163 291t349 135l10 61q4 21 21 21h90q9 0 14 -6t4 -15l-10 -61q133 -9 225 -51.5t129 -81.5q11 -11 0 -29l-113 -189q-11 -17 -30 -6 q-106 94 -250 111l-57 -365q220 -57 312 -152t71 -263q-24 -177 -162.5 -294t-354.5 -134l-30 -191q-3 -20 -25 -20h-88q-19 0 -16 20l30 191q-156 12 -265 66.5t-152 101.5zM498 1028q-11 -62 27 -100t143 -70l53 332q-90 -10 -152 -55.5t-71 -106.5zM698 227 q92 8 155 52.5t73 113.5q8 56 -31.5 96.5t-144.5 71.5z" />
<glyph unicode="%" horiz-adv-x="1595" d="M221 1124q25 159 137 256t271 97q158 0 239 -96.5t56 -256.5q-25 -158 -136.5 -254t-269.5 -96t-240 96t-57 254zM305.5 7.5q-3.5 7.5 5.5 19.5l1039 1437q12 15 28 15h191q12 0 16.5 -7t-2.5 -16l-1042 -1442q-11 -14 -29 -14h-188q-15 0 -18.5 7.5zM434 1124 q-9 -62 22.5 -99.5t94.5 -37.5q62 0 106.5 38t53.5 99q9 63 -22.5 101.5t-92.5 38.5q-63 0 -108 -38.5t-54 -101.5zM940 330q26 159 138.5 255.5t271.5 96.5q158 0 238 -96t54 -256q-25 -158 -136 -254t-269 -96t-240 96t-57 254zM1155 332q-10 -63 22 -101t95 -38 q62 0 106 38t54 101q9 61 -23 99t-94 38q-63 0 -107 -37.5t-53 -99.5z" />
<glyph unicode="&#x26;" horiz-adv-x="1372" d="M117 428q20 124 98 215.5t199 144.5q-99 135 -76 289q26 163 145.5 263t288.5 100q255 0 318 -207q3 -8 -0.5 -16.5t-12.5 -12.5l-178 -104q-18 -10 -27 4q-19 41 -48 66.5t-83 25.5q-57 0 -98.5 -38t-50.5 -101q-4 -28 2 -57.5t15.5 -51.5t34 -54.5t38.5 -49.5t48.5 -55 t47.5 -52l242 -274q72 145 100 315q4 21 25 21h198q9 0 14 -6t3 -15q-59 -329 -174 -510l213 -241q8 -11 3 -19t-18 -8h-258q-20 0 -34 14l-72 80q-168 -127 -402 -127q-258 0 -395.5 128.5t-105.5 332.5zM362 444q-17 -115 63 -189.5t226 -74.5q124 0 223 80 q-20 24 -175 199t-175 198q-65 -33 -108.5 -89t-53.5 -124z" />
<glyph unicode="'" horiz-adv-x="415" d="M195 946q-11 14 8 29q137 91 188 227h-6q-49 7 -72.5 44.5t-15.5 92.5q10 66 55.5 106t110.5 40q58 0 90 -33.5t29 -89.5q0 -134 -92.5 -282.5t-202.5 -202.5q-15 -6 -27 6z" />
<glyph unicode="(" horiz-adv-x="632" d="M152 288q0 128 20 257q20 123 60.5 248.5t82.5 218.5t92 181t80.5 133.5t55.5 78.5q10 16 35 16h194q18 -3 6 -18q-36 -49 -75.5 -112t-102.5 -179t-115.5 -266t-76.5 -301q-21 -129 -21.5 -257.5t12 -217.5t37 -178t39 -127t31.5 -76q10 -17 -10 -17h-195q-23 0 -31 19 q-16 34 -31.5 74.5t-38.5 127.5t-35.5 177t-12.5 218z" />
<glyph unicode=")" horiz-adv-x="632" d="M29 -311q30 39 56 76t78.5 127t92.5 178.5t81 217.5t60 257q20 123 20 249t-13 217t-36.5 181t-39 132.5t-31.5 78.5q-3 8 1 13t13 5h197q19 0 29 -16q15 -37 30 -79t37.5 -132.5t35 -181.5t13 -217.5t-19.5 -249.5q-20 -129 -61 -257t-82 -218t-92 -177t-79 -127 t-55 -75q-15 -19 -33 -19h-196q-20 0 -6 17z" />
<glyph unicode="*" horiz-adv-x="862" d="M215 1108l129 164q14 17 33 6l141 -119l17 234q2 9 8.5 16.5t15.5 7.5h201q9 0 13.5 -7.5t2.5 -16.5l-57 -234l180 119q9 6 17.5 4t11.5 -10l78 -164q3 -8 -2 -17t-15 -12l-235 -112l116 -158q6 -7 5.5 -18.5t-9.5 -18.5l-157 -123q-7 -8 -19 -7.5t-16 9.5l-103 211 l-170 -211q-7 -9 -18.5 -9.5t-17.5 7.5l-115 123q-6 8 -4 18.5t10 18.5l168 158l-205 112q-15 11 -4 29z" />
<glyph unicode="+" horiz-adv-x="1173" d="M221 514l27 168q3 20 22 20h318l51 322q3 20 25 20h178q19 0 16 -20l-51 -322h317q9 0 14.5 -5.5t4.5 -14.5l-27 -168q-3 -20 -24 -20h-318l-51 -324q-3 -20 -23 -20h-178q-21 0 -18 20l51 324h-317q-20 0 -17 20z" />
<glyph unicode="," horiz-adv-x="501" d="M23 -279q-11 15 10 29q146 100 200 242q-6 0 -6 2q-53 9 -78 48t-16 97q10 70 58.5 112t117.5 44q62 0 96.5 -36.5t30.5 -96.5q0 -93 -47 -200.5t-119.5 -192t-146.5 -121.5q-17 -8 -31 6z" />
<glyph unicode="-" horiz-adv-x="862" d="M197 518l24 160q7 24 29 24h584q11 0 17 -7t3 -17l-25 -160q-3 -22 -28 -22h-586q-21 0 -18 22z" />
<glyph unicode="." horiz-adv-x="538" d="M147 123q9 64 55 103.5t111 39.5q63 0 95.5 -39t23.5 -104q-11 -63 -57 -103t-109 -40q-64 0 -97 40t-22 103z" />
<glyph unicode="/" horiz-adv-x="858" d="M2.5 8q-2.5 8 3.5 17l850 1435q13 19 31 19h188q10 0 12 -8t-4 -17l-847 -1434q-13 -20 -33 -20h-189q-9 0 -11.5 8z" />
<glyph unicode="0" horiz-adv-x="1222" d="M205 711q52 328 227 528.5t408 200.5t344 -200.5t59 -528.5q-53 -329 -226.5 -529t-406.5 -200q-154 0 -258 90.5t-143 256t-4 382.5zM451 711q-35 -220 18.5 -353t177.5 -133q123 0 219 133.5t131 352.5q34 218 -20 351.5t-176 133.5q-124 0 -220 -133t-130 -352z" />
<glyph unicode="1" horiz-adv-x="686" d="M309 1212l29 187q4 22 24 22h412q9 0 14 -6.5t3 -15.5l-218 -1379q-3 -20 -24 -20h-205q-19 0 -16 20l184 1172h-186q-20 0 -17 20z" />
<glyph unicode="2" horiz-adv-x="1130" d="M92.5 11q-2.5 11 9.5 22l725 803q11 13 28.5 34t49 74t37.5 92q11 72 -28.5 123t-125.5 51q-68 0 -137 -43t-121 -100q-17 -17 -32 6l-103 131q-11 14 11 39q197 197 440 197q171 0 268.5 -105.5t67.5 -290.5q-11 -68 -47.5 -140.5t-67.5 -111.5l-31 -38q-2 0 -475 -525 h467q9 0 14.5 -6.5t4.5 -15.5l-29 -187q-3 -20 -27 -20h-629h-67h-186q-14 0 -16.5 11z" />
<glyph unicode="3" horiz-adv-x="1116" d="M143 397q3 21 23 21h201q9 0 15 -5t5 -14q-9 -85 46 -136.5t153 -51.5q100 0 172.5 61t87.5 156q15 92 -29.5 152.5t-130.5 66.5h-117q-19 0 -16 21l22 151q1 9 8.5 15t16.5 6h92q73 0 133 55t74 133q11 77 -32 123.5t-126 46.5q-66 0 -134.5 -42t-119.5 -93 q-18 -17 -28 0l-107 151q-11 18 2 31q195 195 439 195q176 0 278.5 -106.5t75.5 -276.5q-15 -93 -65.5 -174t-125.5 -138q80 -51 116 -134t18 -193q-31 -196 -186.5 -323.5t-358.5 -127.5q-201 0 -312.5 118.5t-89.5 311.5z" />
<glyph unicode="4" horiz-adv-x="1253" d="M99.5 312.5q-3.5 7.5 6.5 19.5l816 1071q14 18 34 18l236 -2q19 0 16 -20l-139 -883h141q20 0 17 -20l-27 -170q-4 -21 -22 -21h-142l-45 -285q-3 -20 -24 -20h-205q-20 0 -17 20l46 285h-457h-51h-166q-14 0 -17.5 7.5zM494 516h329l86 547z" />
<glyph unicode="5" horiz-adv-x="1116" d="M154 385q4 21 22 21h201q9 0 15 -6t5 -15q-9 -81 44 -130.5t149 -49.5q99 0 172 67t88 172q17 104 -35 170t-158 66q-49 0 -96 -16.5t-76 -42.5h-219q-23 0 -16 20l180 758q4 22 27 22h669q9 0 14 -6.5t3 -15.5l-29 -187q-3 -20 -24 -20h-469l-78 -336q83 37 168 37 q205 0 310 -123t73 -326q-32 -211 -182.5 -344t-360.5 -133q-202 0 -311 115t-86 303z" />
<glyph unicode="6" horiz-adv-x="1107" d="M162 440q15 106 65 189q65 114 145 244.5t178.5 286t151.5 241.5q13 20 35 20h205q14 0 18 -8t-4 -20l-315 -506q31 8 68 8q202 -3 305 -127.5t71 -327.5q-34 -211 -179.5 -337t-354.5 -126q-207 0 -314 128t-75 335zM406 440q-15 -100 35.5 -160.5t148.5 -60.5 q97 0 168 61.5t86 159.5q15 100 -36 161t-149 61t-168 -61.5t-85 -160.5z" />
<glyph unicode="7" horiz-adv-x="1001" d="M199 20l635 1172h-555q-20 0 -17 20l29 187q4 22 24 22h861q15 0 19.5 -10t-3.5 -25l-733 -1366q-10 -20 -33 -20h-217q-20 0 -10 20z" />
<glyph unicode="8" horiz-adv-x="1122" d="M158 420q19 109 83.5 196t164.5 140q-122 98 -95 282q29 181 160 291.5t317 110.5t282 -110.5t67 -291.5q-26 -181 -185 -282q85 -54 123.5 -141t20.5 -195q-31 -198 -179.5 -319t-359.5 -121q-212 0 -321 121t-78 319zM397 432q-14 -93 42.5 -154t158.5 -61 q99 0 172.5 61t87.5 154q15 95 -38.5 156t-153.5 61t-177 -62.5t-92 -154.5zM545 1042q-13 -84 29 -133t126 -49q80 0 137 49.5t70 132.5q12 84 -28 132.5t-121 48.5q-84 0 -142.5 -49t-70.5 -132z" />
<glyph unicode="9" horiz-adv-x="1107" d="M248 979q32 210 178 336.5t356 126.5q207 0 314 -127t75 -336q-12 -74 -37.5 -131.5t-72.5 -134.5l-432 -695q-11 -18 -33 -18h-205q-12 0 -15.5 8.5t3.5 20.5l313 503q-27 -8 -61 -8q-206 3 -310.5 127t-72.5 328zM489 981q-15 -100 36 -161.5t149 -61.5q99 0 170 62 t86 161q15 98 -36 158.5t-151 60.5q-97 0 -168 -60.5t-86 -158.5z" />
<glyph unicode=":" horiz-adv-x="487" d="M109 141q12 70 61.5 113t120.5 45q70 0 106.5 -43.5t24.5 -114.5q-10 -70 -60.5 -113.5t-119.5 -43.5q-70 0 -107 43t-26 114zM229 899q10 70 61 114t122 44q70 0 106 -43.5t25 -114.5q-10 -69 -61 -112.5t-120 -43.5q-70 0 -107 43.5t-26 112.5z" />
<glyph unicode=";" horiz-adv-x="522" d="M35 -279q-11 14 8 29q151 103 201 242q-4 0 -6 2q-53 9 -79 48t-16 97q12 70 59.5 112t116.5 44q61 0 95.5 -36.5t31.5 -96.5q0 -142 -98 -299.5t-215 -214.5q-17 -10 -29 6zM248 899q12 71 62 114.5t120 43.5t107 -43.5t26 -114.5q-11 -69 -61.5 -112.5t-120.5 -43.5 t-107 43.5t-26 112.5z" />
<glyph unicode="&#x3c;" horiz-adv-x="1103" d="M156 498l37 223q3 25 22 33l961 348q12 3 18 -1.5t4 -15.5l-33 -202q-3 -27 -24 -33l-695 -242l619 -239q17 -9 14 -33l-32 -203q-4 -25 -27 -18l-850 350q-17 7 -14 33z" />
<glyph unicode="=" horiz-adv-x="1073" d="M186 352l25 150q3 22 29 26h761q24 -3 21 -26l-25 -150q-3 -26 -28 -26h-762q-24 0 -21 26zM244 709l22 149q1 10 9.5 17.5t19.5 9.5h762q23 -3 20 -27l-22 -149q-3 -27 -29 -27h-762q-23 0 -20 27z" />
<glyph unicode="&#x3e;" horiz-adv-x="1103" d="M98 133l33 203q3 24 25 33l694 239l-619 242q-17 6 -14 33l33 202q1 10 9 15t17 2l850 -348q18 -7 15 -33l-37 -223q-3 -25 -23 -33l-960 -350q-11 -3 -17.5 2.5t-5.5 15.5z" />
<glyph unicode="?" horiz-adv-x="972" d="M254 1221q-10 17 6 30q185 189 438 189q176 0 280 -106.5t77 -276.5q-12 -73 -38.5 -133.5t-61.5 -102.5t-74.5 -79t-79.5 -70.5t-74.5 -68t-61.5 -80t-38 -99.5q-1 -9 -8.5 -15t-16.5 -6h-213q-19 0 -16 21q19 93 67.5 169.5t105 127t111.5 96t96.5 98t49.5 111.5 q14 86 -31 133t-125 47q-128 0 -256 -131q-16 -16 -26 -2zM313 125q9 64 56 102.5t112 38.5q64 0 96 -38t23 -103q-11 -65 -56.5 -105t-109.5 -40t-98 40t-23 105z" />
<glyph unicode="@" horiz-adv-x="1855" d="M217 633q38 239 172.5 422.5t344 284t462.5 100.5q226 0 386 -94t230.5 -266.5t34.5 -397.5q-28 -178 -139.5 -290t-267.5 -116q-129 0 -207 105q-110 -145 -301 -145q-164 0 -249.5 110t-59.5 285q28 176 148.5 284.5t285.5 108.5q156 0 233 -104l39 53q12 12 23 12h114 q8 0 13 -5.5t4 -12.5l-62 -385q-10 -51 8.5 -89t73.5 -38q63 0 108.5 65t59.5 162q41 253 -100 410t-404 157q-299 0 -507.5 -170.5t-253.5 -443.5q-41 -276 114.5 -444t452.5 -168q211 0 407 143q21 17 33 2l88 -105q16 -19 -6 -38q-230 -195 -553 -195q-253 0 -431 100 t-255 282.5t-39 420.5zM848 629q-12 -78 26.5 -125t114.5 -47q77 1 131 48.5t66 123.5q12 79 -27 125.5t-115 46.5q-77 0 -130.5 -47t-65.5 -125z" />
<glyph unicode="A" d="M12 23l754 1378q12 18 33 18h213q19 0 22 -18l322 -1378q3 -23 -21 -23h-207q-18 0 -18 14l-84 363h-573l-201 -363q-6 -14 -23 -14h-206q-24 0 -11 23zM565 588h412l-121 526z" />
<glyph unicode="B" horiz-adv-x="1234" d="M154 20l219 1379q3 22 24 22h445q207 1 315 -101q87 -82 87 -209q0 -31 -5 -64q-21 -162 -186 -269q102 -50 148 -141q33 -65 33 -147q0 -32 -5 -66q-28 -191 -178 -307.5t-371 -116.5h-508q-21 0 -18 20zM432 231h270q115 1 192.5 62.5t92.5 161.5q3 21 3 40 q0 68 -42 113q-53 56 -156 56h-4h-288zM528 846h222q107 0 167 48.5t74 133.5q2 13 2 25q1 59 -45 94q-54 43 -164 43h-200z" />
<glyph unicode="C" horiz-adv-x="1376" d="M186 709q22 142 81.5 262.5t142.5 205.5t185.5 145.5t211.5 89t219 28.5h11q137 0 257 -48q124 -50 211 -143q9 -13 -4 -26l-143 -156q-6 -6 -15 -6t-14 6q-131 131 -340 131q-216 0 -369 -134t-188 -355q-8 -52 -8 -100q0 -150 84 -252q111 -134 326 -134q205 0 380 129 q8 6 17 6.5t12 -6.5l98 -155q8 -20 -4 -29q-227 -188 -542 -188q-214 0 -365 91.5t-215 257.5q-41 107 -41 235q0 69 12 145z" />
<glyph unicode="D" horiz-adv-x="1390" d="M154 20l219 1381q3 20 22 20h418q329 -1 497 -193q129 -147 129 -371q0 -69 -12 -146q-51 -326 -280.5 -518.5t-558.5 -192.5h-418q-19 0 -16 20zM432 231h193q222 2 372.5 131.5t184.5 348.5q8 53 8 100q0 150 -84 249q-110 130 -330 130h-190z" />
<glyph unicode="E" horiz-adv-x="1079" d="M154 20l219 1381q1 9 7.5 14.5t14.5 5.5h793q19 0 16 -20l-30 -193q-3 -20 -23 -20h-567l-56 -348h469q9 0 14 -6t3 -15l-29 -188q-1 -9 -7.5 -15t-14.5 -6h-471l-60 -379h588q7 1 11.5 -4t2.5 -14l-30 -195q0 -8 -6 -13t-15 -5h-813q-19 0 -16 20z" />
<glyph unicode="F" horiz-adv-x="1036" d="M154 20l219 1381q3 20 24 20h791q19 0 16 -20l-30 -193q-3 -20 -23 -20h-567l-56 -348h469q9 0 14 -6t3 -15l-29 -188q-1 -9 -7.5 -15t-14.5 -6h-471l-93 -587q-3 -23 -24 -23h-205q-19 0 -16 20z" />
<glyph unicode="G" horiz-adv-x="1511" d="M186 711q53 327 285.5 528t560.5 201q299 0 479 -193q11 -11 -4 -26l-151 -156q-12 -15 -27 0q-47 50 -136 90.5t-200 40.5q-218 0 -372.5 -133.5t-188.5 -351.5q-9 -55 -9 -104q0 -147 79 -248q105 -134 309 -134q171 0 288.5 84.5t176.5 249.5h-375q-19 3 -16 21 l24 163q1 9 8.5 15t16.5 6h598q13 0 18 -7.5t2 -17.5q-62 -361 -258 -559q-195 -198 -517 -198h-3q-209 0 -354.5 90.5t-207.5 255.5q-39 106 -39 232q0 72 13 151z" />
<glyph unicode="H" horiz-adv-x="1400" d="M154 20l219 1381q3 20 22 20h207q8 0 12.5 -5.5t3.5 -12.5l-92 -582h609l92 580q3 20 22 20h207q8 0 13 -5.5t4 -12.5l-220 -1383q-3 -20 -22 -20h-207q-8 0 -12.5 5.5t-3.5 14.5l94 590h-608l-95 -590q-3 -20 -22 -20h-205q-21 0 -18 20z" />
<glyph unicode="I" horiz-adv-x="546" d="M154 18l217 1383q3 20 24 20h207q17 0 14 -20l-219 -1383q0 -18 -20 -18h-207q-16 0 -16 18z" />
<glyph unicode="J" horiz-adv-x="845" d="M39 96q-11 11 2 31l123 168q6 9 16 11.5t19 -3.5q3 -2 22 -14.5t33.5 -21t36 -19.5t42 -17t38.5 -6q65 0 95.5 44.5t51.5 158.5l152 973q3 20 24 20h205q8 0 12.5 -5.5t3.5 -14.5l-157 -1018q-30 -194 -136 -297.5t-268 -105.5q-63 1 -119 14t-95 33t-62 36.5t-39 32.5z " />
<glyph unicode="K" horiz-adv-x="1185" d="M154 18l217 1383q3 20 24 20h207q17 0 14 -20l-98 -627l582 635q8 12 24 12h234q13 0 15 -6.5t-9 -17.5l-625 -680l482 -692q9 -12 4.5 -18.5t-19.5 -6.5h-256q-17 0 -24 10l-428 641l-101 -633q0 -18 -20 -18h-207q-16 0 -16 18z" />
<glyph unicode="L" horiz-adv-x="935" d="M154 18l219 1383q3 20 20 20h207q21 0 18 -20l-188 -1182h461q21 0 18 -18l-28 -183q-4 -18 -23 -18h-688q-9 0 -13.5 5t-2.5 13z" />
<glyph unicode="M" horiz-adv-x="1759" d="M154 25l219 1366q1 13 11 21.5t24 8.5h200q17 0 23 -16l319 -944l611 946q8 14 26 14h225q20 0 17 -20l-217 -1381q-3 -20 -25 -20h-205q-19 0 -16 20l145 930l-479 -721q-10 -16 -28 -16h-189q-15 0 -18 14l-252 715l-146 -922q-3 -20 -24 -20h-201q-23 0 -20 25z" />
<glyph unicode="N" horiz-adv-x="1470" d="M154 20l219 1381q3 20 22 20h238q17 0 24 -14l482 -1004l157 998q3 20 23 20h205q21 0 18 -20l-219 -1381q-3 -20 -25 -20h-237q-13 0 -21 12l-483 1008l-158 -1000q-3 -20 -24 -20h-205q-19 0 -16 20z" />
<glyph unicode="O" horiz-adv-x="1607" d="M186 711q53 327 285.5 528t560.5 201q217 0 368.5 -91t215.5 -257q41 -107 41 -235q0 -70 -12 -146q-53 -329 -283.5 -529t-558.5 -200q-329 0 -499 200q-130 154 -130 382q0 70 12 147zM432 711q-8 -52 -8 -99q0 -151 86 -253q112 -134 330 -134q217 0 370.5 134 t188.5 352q8 52 8 99q0 150 -85 252q-112 134 -329 134q-218 0 -372.5 -133.5t-188.5 -351.5z" />
<glyph unicode="P" horiz-adv-x="1136" d="M154 20l219 1379q3 22 24 22h500q211 1 314 -119q80 -93 80 -231q0 -40 -7 -84q-33 -197 -173 -316.5t-351 -119.5h-275l-84 -531q-1 -9 -9 -14.5t-17 -5.5h-203q-21 0 -18 20zM522 784h254q104 0 174.5 50t87.5 151q4 24 4 45q0 68 -42 108q-55 52 -160 52h-254z" />
<glyph unicode="Q" horiz-adv-x="1609" d="M186 711q53 327 285.5 528t560.5 201q217 0 368.5 -91t215.5 -257q41 -106 41 -235q0 -70 -12 -146q-33 -210 -145 -372.5t-281 -252.5l280 -184q8 -5 9 -13t-5 -14l-123 -164q-13 -16 -30 -6l-412 287q-54 -10 -135 -10q-329 0 -499 200q-130 154 -130 382q0 70 12 147z M432 711q-8 -52 -8 -99q0 -151 86 -253q112 -134 330 -134t371 133t188 353q8 51 8 97q0 152 -85 254q-112 134 -329 134q-218 0 -372.5 -133.5t-188.5 -351.5z" />
<glyph unicode="R" horiz-adv-x="1198" d="M154 20l219 1381q3 20 20 20h506q211 1 315 -119q81 -93 81 -231q0 -40 -7 -84q-26 -159 -128 -269t-257 -147l252 -546q9 -25 -16 -25h-232q-13 0 -20 10l-230 541h-174l-84 -531q-3 -20 -22 -20h-205q-21 0 -18 20zM520 784h283q85 0 154 51t85 150q4 23 4 44 q0 68 -40 108q-52 53 -138 53h-282z" />
<glyph unicode="S" horiz-adv-x="1189" d="M113 152q-14 11 0 28l131 178q15 19 30 4q29 -27 74.5 -55.5t129 -56t169.5 -27.5q110 0 188.5 46t90.5 124q2 10 2 20q0 52 -48 91q-58 46 -216 80q-238 48 -338 149q-82 82 -82 214q0 30 4 63q22 188 184 310q160 121 391 120h4q110 -1 206.5 -29t142 -56t67.5 -52 q10 -10 2 -29l-115 -189q-12 -18 -28 -4q-145 113 -324 113q-111 0 -190 -48t-90 -118q-2 -13 -2 -25q0 -56 46 -89q56 -41 220 -83q237 -56 336 -151q82 -78 82 -211q0 -28 -4 -59q-27 -192 -186 -312q-158 -119 -398 -118h-4q-94 1 -181.5 21t-146 50t-95 55.5t-52.5 45.5 z" />
<glyph unicode="T" horiz-adv-x="1118" d="M223 1208l31 193q3 20 25 20h1013q18 0 15 -20l-31 -193q-3 -20 -21 -20h-385l-186 -1170q0 -7 -6 -12.5t-14 -5.5h-207q-19 0 -19 18l187 1170h-385q-8 0 -13 5.5t-4 14.5z" />
<glyph unicode="U" horiz-adv-x="1386" d="M240 557l133 844q3 18 22 18h205q9 0 14.5 -5.5t3.5 -12.5l-135 -846q-6 -41 -6 -77q-1 -102 49 -166q68 -87 205 -87q135 0 228 86.5t116 243.5l135 846q3 18 23 18h207q21 0 18 -18l-135 -846q-22 -139 -82 -249.5t-145.5 -180.5t-189 -106.5t-216.5 -36.5t-204.5 37 t-154.5 107t-88 181q-13 59 -13 126q0 59 10 124z" />
<glyph unicode="V" d="M227 1395q-6 24 21 24h219q13 0 20 -14l240 -1106l592 1106q3 14 24 14h218q23 0 14 -24l-746 -1377q-9 -18 -28 -18h-242q-24 0 -27 18z" />
<glyph unicode="W" horiz-adv-x="1886" d="M225 1401q-1 9 4.5 14.5t16.5 5.5h209q16 0 20 -18l123 -1014l444 1014q11 18 29 18h191q18 0 18 -18l129 -1024l451 1028q4 14 22 14h211q20 0 10 -20l-637 -1385q-10 -16 -26 -16h-176q-20 0 -23 16l-123 1096l-473 -1096q-4 -16 -22 -16h-181q-17 0 -20 16z" />
<glyph unicode="X" horiz-adv-x="1220" d="M12 20l568 685l-340 696q-10 20 16 20h250q18 0 24 -12l226 -487l397 485q9 12 29 12h243q26 0 9 -20l-578 -692l340 -687q10 -20 -16 -20h-250q-17 0 -23 12l-227 477l-391 -477q-9 -12 -27 -12h-244q-23 0 -6 20z" />
<glyph unicode="Y" horiz-adv-x="1239" d="M229 1395q-5 11 0.5 17.5t18.5 6.5h221q17 0 23 -16l253 -621l445 621q13 16 31 16h221q25 0 10 -24l-621 -828l-88 -549q0 -7 -6.5 -12.5t-15.5 -5.5h-205q-18 0 -18 18l88 547z" />
<glyph unicode="Z" horiz-adv-x="1208" d="M74 33l862 1159h-604q-9 0 -14 5t-3 13l29 191q3 20 25 20h966q17 0 21 -10t-8 -25l-863 -1157h664q19 0 16 -20l-28 -189q-1 -9 -8 -14.5t-15 -5.5h-1028q-35 0 -12 33z" />
<glyph unicode="[" horiz-adv-x="681" d="M59 -307l271 1704q3 24 26 24h398q23 0 20 -24l-24 -154q-3 -22 -29 -22h-191l-213 -1350h193q21 0 18 -25l-24 -153q-4 -25 -27 -25l-397 2q-24 0 -21 23z" />
<glyph unicode="\" horiz-adv-x="849" d="M233 1452q-3 11 2 19t17 8h188q17 0 23 -17l395 -1435q3 -11 -2.5 -19t-15.5 -8h-187q-21 0 -24 18z" />
<glyph unicode="]" horiz-adv-x="681" d="M43 -307l25 155q3 22 26 25h193l213 1348h-191q-23 0 -20 22l24 154q3 24 29 24h397q22 0 19 -24l-271 -1704q-3 -23 -24 -23h-400q-23 0 -20 23z" />
<glyph unicode="^" horiz-adv-x="1191" d="M166.5 537.5q-4.5 7.5 1.5 19.5l506 844q12 18 33 18h229q19 0 25 -18l239 -844q3 -12 -3.5 -19.5t-20.5 -7.5h-203q-24 0 -27 19l-164 629l-364 -629q-10 -19 -31 -19h-203q-13 0 -17.5 7.5z" />
<glyph unicode="_" horiz-adv-x="1214" d="M53 -248l23 139q1 12 9 19.5t19 7.5h981q11 0 16.5 -8.5t2.5 -20.5l-21 -135q-3 -28 -28 -28h-981q-24 0 -21 26z" />
<glyph unicode="`" horiz-adv-x="565" d="M272.5 1349q0.5 9 6.5 15l129 133q17 17 30 0l254 -295q12 -12 -2 -22l-72 -74q-16 -13 -30 -2l-309 231q-7 5 -6.5 14z" />
<glyph unicode="a" horiz-adv-x="1202" d="M137 479q35 224 190.5 362t372.5 138q203 0 283 -148l49 111q10 21 25 21h155q9 0 14.5 -6t4.5 -15l-146 -922q-2 -8 -8.5 -14t-15.5 -6h-158q-15 0 -18 20l-13 109q-130 -152 -331 -152h-3q-214 1 -324 139q-85 106 -85 261q0 48 8 102zM369 479q-4 -28 -4 -54 q0 -84 47 -141q62 -75 180 -75q122 0 209.5 74.5t107.5 195.5q4 28 4 53q0 85 -49 142q-64 74 -186 74q-120 0 -204.5 -73.5t-104.5 -195.5z" />
<glyph unicode="b" horiz-adv-x="1187" d="M123 18l229 1442q4 21 25 21h192q8 0 13 -6t4 -15l-97 -610q123 129 310 129q216 1 326 -137q83 -104 84 -259q0 -49 -9 -104q-35 -224 -190 -363t-371 -139q-200 0 -285 154l-47 -111q-10 -20 -28 -20h-138q-18 0 -18 18zM430 479q-4 -28 -4 -53q0 -84 49 -142 q64 -74 184 -75q119 0 206 75t106 195q5 29 5 56q0 83 -48 140q-63 75 -183 75t-207.5 -75t-107.5 -196z" />
<glyph unicode="c" horiz-adv-x="1040" d="M137 479q19 120 76.5 217t137.5 157.5t172.5 93t187.5 34.5h14q127 0 223 -53q102 -56 156 -162q8 -19 -6 -29l-164 -121q-9 -6 -19 -4t-14 11q-68 127 -223 127q-120 0 -204.5 -74.5t-104.5 -196.5q-5 -29 -4 -55q0 -84 46 -141q61 -74 181 -74q154 0 258 117 q22 22 37 6l112 -123q12 -17 -2 -31q-79 -96 -192.5 -148.5t-249.5 -52.5q-221 -1 -337 139q-89 107 -89 264q0 47 8 99z" />
<glyph unicode="d" horiz-adv-x="1187" d="M139 479q35 224 190 362t373 138q186 0 269 -129l96 610q1 9 8 15t15 6h192q20 0 16 -21l-227 -1440q-6 -20 -24 -20h-138q-15 0 -22 18l-13 113q-132 -154 -331 -154q-217 0 -328 139q-84 106 -84 260q0 49 8 103zM371 479q-4 -28 -4 -54q0 -84 47 -141q62 -75 180 -75 q121 0 208 74t107 196q5 29 5 55q0 84 -48 141q-64 75 -186 75q-120 0 -204.5 -74.5t-104.5 -196.5z" />
<glyph unicode="e" horiz-adv-x="1118" d="M137 479q35 224 195 362t383 138q233 0 343 -143q78 -101 78 -272q0 -72 -14 -156q-4 -21 -24 -21h-727q9 -87 72 -138.5t171 -51.5q147 3 232 75q25 16 35 2l102 -124q12 -15 -4 -31q-151 -139 -412 -139h-3q-226 0 -344 136q-91 106 -91 265q0 47 8 98zM393 561h508 q-3 91 -60.5 145t-160.5 54t-177.5 -53.5t-109.5 -145.5z" />
<glyph unicode="f" horiz-adv-x="696" d="M137 766l29 174q4 21 22 21h129l27 163q60 377 373 377q80 0 141 -26.5t90 -53.5q10 -11 0 -28l-96 -154q-11 -18 -31 -8q-64 41 -108 41q-53 0 -87 -39t-51 -129l-22 -143h217q9 0 14 -6t4 -15l-28 -174q-4 -21 -23 -21h-217l-114 -725q-3 -20 -25 -20h-193 q-19 0 -16 20l115 725h-131q-9 0 -14.5 6t-4.5 15z" />
<glyph unicode="g" horiz-adv-x="1193" d="M111 -354l110 170q4 7 12.5 9t14.5 -3q111 -71 262 -76q140 0 228 76t110 211l12 78q-128 -134 -317 -134q-218 1 -329 139q-85 106 -85 261q0 48 8 102q35 225 191 364.5t374 139.5q208 0 289 -158l53 115q10 21 27 21h133q9 0 14.5 -6t4.5 -15l-144 -913 q-35 -232 -200 -373t-394 -141q-215 2 -372 102q-16 10 -2 31zM371 481q-5 -29 -5 -55q0 -85 47 -141q61 -74 181 -74q125 0 213.5 74.5t107.5 195.5q5 28 5 54q0 85 -50 142q-65 75 -190 75q-120 0 -204.5 -74.5t-104.5 -196.5z" />
<glyph unicode="h" horiz-adv-x="1126" d="M125 20l227 1438q4 21 23 21h192q9 0 14.5 -6t4.5 -15l-99 -612q120 139 312 139q167 -1 249 -115q59 -82 59 -209q0 -49 -9 -106l-84 -535q-3 -20 -25 -20h-192q-20 0 -17 20l78 492q5 35 5 64q0 72 -31 116q-43 59 -128 58h-6q-93 0 -168 -74.5t-102 -206.5l-70 -449 q-3 -20 -24 -20h-193q-19 0 -16 20z" />
<glyph unicode="i" horiz-adv-x="479" d="M127 20l145 920q4 24 25 21h190q22 0 19 -19l-146 -922q-3 -20 -24 -20h-193q-19 0 -16 20zM293 1288q10 67 58 108.5t116 41.5q69 0 103 -41q26 -31 26 -78q0 -15 -2 -31q-11 -68 -58 -109.5t-116 -41.5q-66 -1 -102 41q-27 32 -28 79q0 15 3 31z" />
<glyph unicode="j" horiz-adv-x="544" d="M-174 -381l100 160q13 23 35 8q44 -39 92 -39q93 0 119 143l164 1049q4 21 22 21h193q9 0 14 -6t4 -15l-168 -1075q-26 -162 -121 -257t-235 -95q-135 0 -219 77q-11 11 0 29zM354 1288q11 68 59 109t117 41q68 0 102 -42q27 -32 27 -79q0 -14 -2 -29q-11 -68 -59 -109.5 t-115 -41.5q-69 0 -105 41q-27 32 -27 79q0 15 3 31z" />
<glyph unicode="k" horiz-adv-x="987" d="M123 18l229 1442q4 19 21 19h194q9 0 15 -5.5t4 -13.5l-142 -887l359 375q10 13 24 13h260q34 0 7 -27l-424 -426l346 -481q21 -27 -17 -27h-254q-19 0 -24 10l-299 422l-66 -414q0 -7 -6 -12.5t-14 -5.5h-197q-16 0 -16 18z" />
<glyph unicode="l" horiz-adv-x="481" d="M129 20l225 1438q4 21 23 21h192q9 0 14.5 -6t4.5 -15l-228 -1438q-1 -9 -7.5 -14.5t-14.5 -5.5h-195q-17 0 -14 20z" />
<glyph unicode="m" horiz-adv-x="1667" d="M125 20l145 920q3 20 23 23h151q10 0 16.5 -7t6.5 -16l6 -102q115 147 299 147q99 0 166.5 -48t95.5 -140q129 188 340 188q155 -1 231 -115q53 -81 54 -203q0 -52 -10 -112l-84 -535q-3 -20 -23 -20h-192q-22 0 -19 20l78 492q7 43 7 78q0 64 -23 102q-34 58 -114 58h-5 q-90 0 -155.5 -76t-90.5 -225l-67 -429q-3 -20 -23 -20h-195q-9 0 -13.5 6t-2.5 14l78 492q7 43 7 78q0 64 -23 102q-34 58 -114 58h-5q-84 0 -150 -73.5t-92 -205.5l-70 -451q-3 -20 -24 -20h-193q-19 0 -16 20z" />
<glyph unicode="n" horiz-adv-x="1126" d="M125 20l145 920q4 21 23 21h151q23 0 23 -21l4 -111q127 156 328 156q167 -1 249 -115q59 -82 59 -209q0 -49 -9 -106l-84 -535q-3 -20 -25 -20h-192q-20 0 -17 20l78 492q5 35 5 64q0 72 -31 116q-43 59 -128 58h-6q-93 0 -168 -75t-102 -208l-70 -447q-1 -9 -8.5 -14.5 t-15.5 -5.5h-193q-19 0 -16 20z" />
<glyph unicode="o" horiz-adv-x="1124" d="M137 483q37 225 196.5 363.5t383.5 138.5q223 0 341 -139q89 -106 90 -261q0 -49 -9 -102q-35 -224 -196.5 -363.5t-385.5 -139.5q-223 0 -339 139q-89 107 -89 264q0 48 8 100zM371 481q-4 -29 -4 -55q1 -84 47 -140q62 -74 180 -75q121 0 206.5 75t104.5 195q5 30 5 57 q0 84 -46 140q-62 74 -184 74q-120 0 -204.5 -74t-104.5 -197z" />
<glyph unicode="p" horiz-adv-x="1189" d="M49 -446l221 1386q3 23 23 23h135q21 0 25 -21l12 -113q132 154 334 154q218 0 329 -139q84 -107 84 -262q0 -49 -8 -103q-35 -225 -191 -363.5t-374 -138.5q-185 0 -268 132l-88 -555q0 -9 -7 -15t-16 -6h-192q-19 0 -19 21zM432 481q-4 -28 -4 -53q0 -85 48 -142 q64 -75 186 -75q121 0 206.5 73.5t104.5 194.5q5 29 5 56q0 83 -48 141q-62 76 -182 76q-121 0 -208.5 -75.5t-107.5 -195.5z" />
<glyph unicode="q" horiz-adv-x="1189" d="M137 479q35 225 191 364.5t374 139.5q205 0 285 -154l51 113q8 21 25 21h139q20 0 17 -23l-222 -1386q0 -9 -6.5 -15t-15.5 -6h-189q-20 0 -20 21l88 555q-129 -132 -311 -132q-218 0 -329 139q-85 105 -85 260q0 49 8 103zM371 479q-5 -29 -5 -55q0 -84 47 -140 q61 -73 181 -73q122 0 209 74.5t106 195.5q5 29 5 55q0 83 -48 140q-64 76 -186 76q-119 0 -204 -75.5t-105 -197.5z" />
<glyph unicode="r" horiz-adv-x="741" d="M125 20l145 920q4 21 23 21h133q21 0 25 -21l10 -63q123 104 260 104q52 0 143 -25q20 -7 10 -26l-81 -201q-6 -19 -31 -12q-58 28 -123 28q-51 0 -101 -31t-83 -85l-97 -609q-3 -20 -24 -20h-193q-19 0 -16 20z" />
<glyph unicode="s" horiz-adv-x="890" d="M88 115l102 153q12 15 31 6q107 -68 223 -77h19q63 0 111 18q54 21 61 57v7q0 40 -63 68q-31 14 -140 48q-141 40 -202 109q-50 57 -50 141q0 18 2 37q17 140 141 222q121 80 285 79h8q106 -1 186.5 -34.5t117.5 -65.5q12 -16 0 -31l-101 -147q-11 -19 -31 -9 q-92 59 -182 68q-18 2 -35 2q-54 0 -95 -17q-54 -22 -60 -59v-7q0 -34 34 -55q38 -23 134 -46q162 -40 231 -106q57 -54 57 -147q0 -19 -2 -40q-20 -141 -138 -225q-115 -82 -280 -82h-8q-124 0 -220 35.5t-134 68.5q-13 10 -2 29z" />
<glyph unicode="t" horiz-adv-x="677" d="M154 766l28 176q4 19 23 19h129l49 299q3 20 23 20h190q19 0 16 -20l-47 -299h197q9 0 14.5 -5.5t3.5 -13.5l-28 -176q-4 -21 -23 -21h-197l-51 -313q-13 -83 -13 -130q0 -24 4 -40q10 -46 56 -45q21 0 47 12t39 23q11 4 19 2t10 -10l37 -164q7 -23 -10 -33 q-34 -24 -94 -45q-57 -20 -119 -20h-6q-129 0 -187 88q-40 61 -41 153q0 42 8 90l70 432h-129q-9 0 -14 6t-4 15z" />
<glyph unicode="u" horiz-adv-x="1136" d="M178 406l86 534q4 21 23 21h192q9 0 14.5 -6t4.5 -15l-78 -491q-7 -43 -7 -78q0 -174 171 -174q93 2 171 78t107 217l70 448q4 21 24 21h191q9 0 14 -6t4 -15l-145 -920q-3 -20 -25 -20h-151q-18 0 -21 20l-6 109q-141 -154 -346 -154q-165 2 -245 116q-58 82 -57 208 q0 50 9 107z" />
<glyph unicode="v" horiz-adv-x="1007" d="M156 934q-3 12 2.5 19.5t17.5 7.5h209q8 0 14.5 -4.5t6.5 -10.5l141 -670l352 668q10 17 25 17h209q27 0 14 -27l-506 -916q-9 -18 -29 -18h-217q-21 0 -24 18z" />
<glyph unicode="w" horiz-adv-x="1361" d="M156 942q0 19 16 19h221q19 0 19 -19l43 -618l270 618q6 19 23 19h170q19 0 22 -19l68 -645l241 647q7 17 23 17h221q9 0 12 -5.5t0 -13.5l-407 -926q-6 -16 -25 -16h-209q-19 0 -22 16l-62 617l-260 -617q-6 -16 -26 -16h-201q-20 0 -23 16z" />
<glyph unicode="x" horiz-adv-x="1013" d="M23 7q-2 7 6 18l405 452l-264 457q-6 10 -2 18.5t16 8.5h242q22 0 29 -17l155 -274l242 274q17 17 35 17h235q12 0 13.5 -7.5t-7.5 -17.5l-407 -451l262 -460q5 -9 0.5 -17t-16.5 -8h-242q-23 0 -29 16l-153 275l-236 -275q-16 -16 -33 -16h-237q-12 0 -14 7z" />
<glyph unicode="y" horiz-adv-x="1007" d="M133 -458.5q-4 8.5 2 18.5l246 446l-223 928q-3 12 3 19.5t17 7.5h207q22 0 25 -19l131 -649l360 649q9 19 29 19h200q28 0 15 -27l-770 -1383q-7 -18 -29 -18h-196q-13 0 -17 8.5z" />
<glyph unicode="z" horiz-adv-x="933" d="M77 9q-2 9 7 20l524 716h-372q-20 0 -17 21l27 174q4 21 24 21h721q13 0 15 -9t-9 -26l-522 -711h397q18 0 15 -20l-27 -175q-3 -20 -22 -20h-746q-13 0 -15 9z" />
<glyph unicode="{" horiz-adv-x="739" d="M205 467l24 154q3 10 17 16q53 14 105.5 58t64.5 114l51 324q8 55 22 99t41 90t74.5 72t112.5 25h131q23 0 20 -24l-24 -160q-3 -12 -11.5 -19.5t-17.5 -5.5h-63q-50 -3 -60 -77l-51 -316q-31 -186 -199 -274q64 -40 96.5 -108.5t16.5 -164.5l-51 -317q-11 -75 35 -78h63 q11 0 17.5 -7t3.5 -18l-25 -157q-1 -12 -9.5 -19.5t-19.5 -7.5h-131q-52 0 -87.5 18.5t-52.5 45.5t-23 68.5t-4 76t8 78.5l51 323q12 72 -26 115t-87 58q-14 6 -12 18z" />
<glyph unicode="|" horiz-adv-x="442" d="M41 -440l299 1892q7 27 31 27h170q11 0 17 -7.5t3 -19.5l-299 -1892q-1 -12 -9.5 -19.5t-19.5 -7.5h-170q-22 0 -22 27z" />
<glyph unicode="}" horiz-adv-x="739" d="M43 -307l25 157q7 27 28 27h64q46 0 57 76l51 317q31 183 199 273q-143 92 -113 274l52 316q10 74 -33 77h-64q-13 -1 -19 6t-1 19l24 160q0 10 8.5 17t20.5 7h129q52 1 88 -17.5t52.5 -45.5t23 -68.5t4.5 -76t-8 -78.5l-51 -324q-12 -70 26.5 -113.5t85.5 -58.5 q16 -6 13 -19l-25 -151q-3 -13 -16 -18q-22 -6 -45.5 -18t-50.5 -32t-47.5 -52.5t-26.5 -70.5l-52 -323q-41 -287 -249 -287h-130q-12 0 -17.5 7.5t-2.5 19.5z" />
<glyph unicode="~" horiz-adv-x="1161" d="M128 446q0 12 5 19q61 117 156 189.5t200 72.5q65 0 117 -22t84 -53.5t60 -63t59.5 -52.5t67.5 -20q26 0 50 14t48 46.5t37 54t39 67.5q9 14 19.5 16.5t16.5 -5.5l99 -125q15 -12 4 -35q-60 -117 -156 -195t-205 -78q-63 0 -115 22t-85.5 53t-62 62.5t-58.5 53t-62 20.5 q-22 0 -44 -12.5t-37.5 -26t-37 -44.5t-30.5 -46.5t-31 -52.5q-7 -10 -17 -11t-16 7l-100 125q-5 8 -5 20z" />
<glyph unicode="&#xa1;" horiz-adv-x="512" d="M133 20l156 969q2 9 8.5 15t15.5 6h201q20 0 16 -21l-147 -969q-3 -20 -25 -20h-208q-20 0 -17 20zM319 1298q11 63 56 102.5t108 39.5t94.5 -39.5t20.5 -102.5q-9 -63 -52 -100t-106 -37t-96.5 37t-24.5 100z" />
<glyph unicode="&#xa2;" horiz-adv-x="1040" d="M137 479q19 119 76.5 216t137 158t171 93.5t185.5 34.5h18l45 129q7 20 27 20h77q9 0 13.5 -5.5t1.5 -14.5l-49 -141q182 -41 264 -205q7 -17 -6 -27l-168 -123q-16 -13 -29 9q-46 90 -141 114l-182 -528h14q154 0 258 117q20 23 33 10l118 -129q11 -14 -2 -27 q-80 -98 -193.5 -150.5t-250.5 -52.5q-15 0 -55 5l-66 -183q-1 -9 -9 -14.5t-17 -5.5h-76q-20 0 -17 20l72 205q-143 48 -210.5 173.5t-39.5 301.5zM369 479q-13 -83 13.5 -145.5t86.5 -95.5l176 507h-4q-106 -11 -180.5 -83.5t-91.5 -182.5z" />
<glyph unicode="&#xa3;" horiz-adv-x="1021" d="M144.5 9q-4.5 9 2.5 18q138 222 185 359t37 235h-156q-23 0 -20 26l12 80q1 12 9 19.5t19 7.5h105q-31 105 -35 162q-4 60 8 128q29 173 161 284.5t304 111.5q224 0 346 -176q11 -18 -8 -33l-151 -139q-7 -6 -17 -5.5t-16 9.5q-74 112 -193 112q-73 0 -124 -45.5 t-62 -118.5q-4 -36 -4.5 -59.5t6 -56.5t12.5 -56l15 -57.5t14 -60.5h223q24 0 21 -27l-13 -80q-3 -26 -28 -26h-191q-4 -179 -114 -400h403q23 0 20 -24l-26 -172q-1 -10 -9.5 -17.5t-19.5 -7.5h-698q-13 0 -17.5 9z" />
<glyph unicode="&#xa4;" horiz-adv-x="1196" d="M143 164q-13 13 4 26l144 123q-44 93 -23 228q15 105 74 192l-111 117q-14 14 5 29l155 135q18 14 29 0l94 -119q106 59 238 59q125 0 211 -53l129 121q18 14 28 0l115 -135q11 -15 -6 -29l-142 -117q32 -92 15 -200q-20 -123 -90 -222l108 -120q13 -13 -4 -27l-155 -135 q-17 -13 -27 0l-109 131q-87 -43 -204 -43q-110 0 -187 41l-149 -139q-7 -6 -16 -6t-13 6zM449 541q-15 -106 40 -171t160 -65t179.5 64.5t93.5 171.5q19 104 -36 168.5t-163 66.5q-109 0 -184 -64t-90 -171z" />
<glyph unicode="&#xa5;" horiz-adv-x="1239" d="M229 1395q-5 11 0.5 17.5t18.5 6.5h219q19 0 25 -16l253 -621l445 621q13 16 33 16h217q27 0 12 -24l-592 -791h12h199q19 0 16 -20l-10 -64q-3 -20 -22 -20h-234l-22 -144h233q20 0 17 -20l-11 -64q-3 -20 -24 -20h-234l-35 -232q-3 -20 -24 -20h-205q-19 0 -16 20 l35 232h-240q-19 0 -16 20l10 64q3 20 24 20h240l22 144h-239q-9 0 -14.5 5.5t-4.5 14.5l11 64q3 20 24 20h209h8z" />
<glyph unicode="&#xa6;" horiz-adv-x="440" d="M47 -446l107 679q4 21 24 21h166q20 0 16 -21l-108 -679q0 -9 -7 -15t-16 -6h-166q-16 0 -16 21zM242 778l108 680q4 21 23 21h164q9 0 14 -6t4 -15l-109 -680q-3 -20 -22 -20h-164q-10 0 -15.5 5.5t-2.5 14.5z" />
<glyph unicode="&#xa7;" horiz-adv-x="1155" d="M61 -137l127 164q16 19 31 4q47 -42 142 -83.5t210 -41.5q45 0 84.5 7.5t74.5 22.5t58 42t29 63q6 39 -11 63.5t-70 45.5t-158 43q-227 45 -322.5 140t-73.5 263q14 131 119 244q-63 78 -45 217q22 176 172 280.5t375 102.5q78 -1 149 -15.5t119 -36.5t78 -41.5t45 -35.5 q13 -10 2 -29l-109 -170q-11 -17 -30 -4q-136 98 -303 98q-103 2 -172 -35t-78 -98q-9 -63 35.5 -88.5t189.5 -61.5q4 -1 6.5 -1.5t7 -1.5t7.5 -2q113 -27 187.5 -59.5t125.5 -80.5t68.5 -114t5.5 -156q-15 -134 -119 -238q72 -87 45 -229q-30 -177 -180 -273t-369 -94 q-89 1 -171.5 19.5t-138 46t-90.5 51.5t-51 43q-11 14 -2 29zM432 614q-12 -70 42.5 -113.5t197.5 -78.5q93 -25 127 -37q81 43 92 117q10 63 -40.5 110.5t-195.5 75.5q-128 34 -129 35q-86 -44 -94 -109z" />
<glyph unicode="&#xa8;" horiz-adv-x="727" d="M279 1325q9 58 49.5 93.5t99.5 35.5q57 0 86.5 -36t20.5 -93q-7 -57 -49 -93t-99 -36q-58 0 -87 35.5t-21 93.5zM606 1325q11 59 51.5 94t98.5 35q57 0 87 -36t21 -93q-7 -57 -49.5 -93t-99.5 -36q-58 0 -87.5 35.5t-21.5 93.5z" />
<glyph unicode="&#xa9;" horiz-adv-x="1638" d="M203 709q35 218 151.5 384t296 256.5t396.5 90.5q216 0 367.5 -90.5t216.5 -256.5t30 -384q-53 -327 -286 -528t-560 -201q-217 0 -368 91t-215 256.5t-29 381.5zM354 709q-41 -259 92.5 -417.5t393.5 -158.5q261 0 445.5 158.5t225.5 417.5q41 261 -92.5 420t-394.5 159 q-260 0 -444.5 -159t-225.5 -420zM545 709q16 103 70 185t125.5 129t156 68t162 11t143 -51t98.5 -109q10 -16 -6 -29l-129 -98q-19 -13 -30 6q-61 81 -166 84q-87 0 -149 -53.5t-75 -142.5q-14 -89 30 -142t132 -53q59 0 109.5 22.5t83.5 55.5q20 23 35 6l92 -96 q13 -16 -4 -33q-62 -74 -153 -115t-196 -41q-176 0 -266.5 109t-62.5 287z" />
<glyph unicode="&#xaa;" horiz-adv-x="886" d="M221 1098q25 159 134 256.5t263 97.5q131 0 197 -98l31 63q10 21 24 21h131q8 0 13 -6t4 -15l-103 -637q-3 -22 -22 -22h-131q-18 0 -21 20l-8 66q-98 -101 -227 -101q-154 0 -232 98t-53 257zM420 1098q-12 -72 27.5 -116t113.5 -44t126.5 44.5t64.5 117.5 q10 71 -29.5 114t-112.5 43q-74 0 -127 -43t-63 -116z" />
<glyph unicode="&#xab;" horiz-adv-x="1052" d="M178 528l4 33q6 24 25 41l344 313q9 7 20 7t19 -7l86 -102q14 -17 -6 -37l-260 -231l186 -232q14 -21 -6 -37l-117 -100q-11 -9 -22 -9t-17 9l-246 311q-13 18 -10 41zM602 528l4 33q6 24 25 41l344 313q23 19 39 0l86 -102q15 -19 -6 -37l-260 -231l186 -232 q16 -19 -6 -37l-117 -100q-11 -9 -22 -9t-17 9l-246 311q-13 18 -10 41z" />
<glyph unicode="&#xac;" horiz-adv-x="1286" d="M244 649l24 150q3 24 29 28h952q11 0 17.5 -7t5.5 -19l-68 -426q-2 -11 -10 -18t-18 -7h-154q-10 0 -16.5 7t-4.5 18l39 248h-776q-23 0 -20 26z" />
<glyph unicode="&#xad;" horiz-adv-x="681" />
<glyph unicode="&#xae;" horiz-adv-x="1626" d="M197 709q53 330 284 530.5t559 200.5t497.5 -201t117.5 -530q-53 -327 -286 -528t-560 -201q-217 0 -368 91t-215 256.5t-29 381.5zM348 709q-41 -258 93 -417t393 -159q261 0 445.5 158.5t225.5 417.5q41 261 -92 420t-395 159q-260 0 -444.5 -159t-225.5 -420zM578 354 l114 723q1 10 9.5 17.5t19.5 7.5h309q116 0 173 -64.5t40 -169.5q-13 -85 -64.5 -144.5t-131.5 -82.5l118 -291q3 -8 -2 -16t-18 -8h-154q-22 0 -28 16l-95 285h-51l-43 -275q-3 -26 -33 -26h-141q-12 0 -18 8t-4 20zM844 788h123q81 0 90 70q11 70 -68 70h-123z" />
<glyph unicode="&#xaf;" horiz-adv-x="665" d="M260 1278l19 125q3 20 24 20h510q19 0 16 -20l-18 -125q-1 -9 -8.5 -15t-16.5 -6h-510q-20 0 -16 21z" />
<glyph unicode="&#xb0;" horiz-adv-x="868" d="M240 1094q26 166 143 267t283 101q165 0 251 -101.5t60 -266.5q-26 -164 -145 -265.5t-283 -101.5q-165 0 -250 101t-59 266zM449 1094q-12 -69 25.5 -114.5t109.5 -45.5q68 0 120 45t64 115q10 74 -26.5 117.5t-106.5 43.5q-75 0 -125 -43.5t-61 -117.5z" />
<glyph unicode="&#xb1;" horiz-adv-x="1206" d="M176 84l25 143q4 23 24 23h836q10 0 17 -7t5 -16l-24 -143q-3 -23 -27 -23h-835q-24 0 -21 23zM264 686l27 168q3 20 24 20h318l43 283q4 21 24 21h179q19 0 16 -21l-43 -283h317q20 0 17 -20l-27 -168q-3 -20 -24 -20h-318l-43 -283q-4 -21 -24 -21h-179q-19 0 -16 21 l43 283h-317q-20 0 -17 20z" />
<glyph unicode="&#xb2;" horiz-adv-x="671" d="M135.5 530.5q-4.5 10.5 9.5 30.5l402 469q72 84 80 139q6 35 -13.5 57.5t-58.5 22.5q-80 0 -141 -65q-8 -7 -16 -6.5t-11 6.5l-80 112q-5 16 4 23q118 121 289 121q123 0 183.5 -69.5t39.5 -192.5q-3 -18 -7.5 -36t-9.5 -33.5t-12.5 -32t-13 -28.5t-14.5 -27t-14 -23 t-14 -21t-12 -17.5t-11 -15.5l-8 -10q0 -1 -35 -40.5t-87 -97.5t-77 -87h213q17 0 14 -21l-22 -147q0 -9 -7 -15t-16 -6h-530q-20 0 -24.5 10.5z" />
<glyph unicode="&#xb3;" horiz-adv-x="710" d="M166 774q0 21 20 21h154q16 0 16 -17q-3 -38 25.5 -62t75.5 -24q49 0 83 29.5t42 79.5q16 113 -86 119h-70q-19 0 -16 20l16 107q3 20 25 20h55q40 0 68.5 27.5t37.5 79.5q6 38 -14 63t-57 25q-72 0 -142 -62q-14 -12 -24 -2l-70 105q-7 13 4 24q113 113 279 113 q119 0 182.5 -68.5t46.5 -175.5q-17 -122 -115 -203q101 -68 78 -217q-19 -122 -116 -199t-236 -77q-132 0 -204 75.5t-58 198.5z" />
<glyph unicode="&#xb4;" horiz-adv-x="565" d="M248 1178q-8 16 8 26l346 293q8 7 17 7t14 -7l86 -133q12 -16 -8 -29l-385 -233q-20 -12 -29 4z" />
<glyph unicode="&#xb5;" horiz-adv-x="1142" d="M51 -434l219 1374q4 21 23 21h192q19 0 19 -23q-34 -189 -78 -489q-42 -252 164 -252q93 2 171 78t107 217l70 446q0 23 25 23h190q9 0 14 -6t4 -15l-145 -920q-3 -20 -25 -20h-153q-19 0 -19 20l-6 109q-141 -154 -346 -154q-76 0 -123 33l-71 -442q-2 -14 -11 -22.5 t-22 -8.5h-174q-12 0 -19 9t-6 22z" />
<glyph unicode="&#xb6;" horiz-adv-x="1177" d="M238 1044q26 169 145.5 272t286.5 103h73q0 1 1.5 1t3.5 -1h561q21 0 18 -20l-27 -174q-3 -23 -26 -23h-74l-203 -1278q-6 -22 -26 -22h-150q-23 0 -20 24l203 1276h-173l-202 -1278q-6 -22 -27 -22h-149q-24 0 -21 24l119 744q-168 0 -254.5 103t-58.5 271z" />
<glyph unicode="&#xb7;" horiz-adv-x="432" d="M141 571q12 75 65 121.5t128 46.5q74 0 112.5 -46.5t26.5 -121.5q-10 -73 -64 -119t-128 -46t-112.5 45.5t-27.5 119.5z" />
<glyph unicode="&#xb8;" horiz-adv-x="604" d="M6 -369q-12 9 2 27l55 70q9 12 25 4q77 -37 145 -37q41 0 70 17.5t33 47.5q6 32 -22.5 46t-77.5 14h-107q-8 0 -10 5t2 13l96 162h184l-45 -76q82 -10 124 -51t28 -121q-17 -93 -94 -144.5t-181 -51.5q-64 -1 -126 20.5t-101 54.5z" />
<glyph unicode="&#xb9;" horiz-adv-x="444" d="M231 1251l23 148q1 9 9.5 15.5t17.5 6.5h278q10 0 15.5 -6.5t3.5 -15.5l-134 -856q-2 -11 -10 -18t-18 -7h-160q-24 0 -20 25l108 686h-92q-21 0 -21 22z" />
<glyph unicode="&#xba;" horiz-adv-x="800" d="M221 1100q25 158 137.5 256t270.5 98q159 0 241.5 -97.5t57.5 -256.5q-25 -160 -138.5 -258.5t-273.5 -98.5q-158 0 -239 98.5t-56 258.5zM416 1100q-11 -72 26 -117t107 -45q71 0 120.5 44.5t61.5 117.5q11 71 -26 114t-107 43q-71 0 -121.5 -43.5t-60.5 -113.5z" />
<glyph unicode="&#xbb;" horiz-adv-x="1056" d="M137 276q-14 22 4 37l262 232l-188 231q-13 19 8 37l119 102q11 9 22 8.5t17 -8.5l246 -313q13 -22 8 -41l-4 -33q-3 -21 -23 -41l-344 -311q-9 -9 -20.5 -9t-18.5 9zM561 276q-15 22 6 37l260 232l-186 231q-16 19 6 37l119 102q11 9 22 8.5t17 -8.5l246 -313 q13 -22 8 -41l-4 -33q-3 -21 -23 -41l-344 -311q-9 -9 -20.5 -9t-18.5 9z" />
<glyph unicode="&#xbc;" horiz-adv-x="1667" d="M279.5 7.5q-3.5 7.5 5.5 19.5l1038 1437q9 15 29 15h188q12 0 16.5 -7t-2.5 -16l-1042 -1442q-10 -14 -29 -14h-186q-14 0 -17.5 7.5zM283 1251l22 148q4 22 27 22h278q9 0 14.5 -6.5t4.5 -15.5l-135 -856q-4 -25 -29 -25h-158q-12 0 -17.5 7t-2.5 18l108 686h-92 q-10 0 -16 6.5t-4 15.5zM862.5 179q-5.5 9 5.5 26l475 678q12 19 35 16h221q20 0 17 -20l-88 -553h86q21 0 18 -19l-18 -117q0 -20 -23 -20h-88l-22 -145q0 -11 -7.5 -18t-17.5 -7h-164q-10 0 -15 6.5t-3 16.5l22 147h-409q-19 0 -24.5 9zM1128 326h193l55 352z" />
<glyph unicode="&#xbd;" horiz-adv-x="1683" d="M283 1251l22 148q1 9 9.5 15.5t17.5 6.5h278q9 0 14.5 -6.5t4.5 -15.5l-135 -856q-4 -25 -29 -25h-158q-24 0 -20 25l108 686h-92q-10 0 -16 6.5t-4 15.5zM285 29l1038 1435q9 15 29 15h186q13 0 17.5 -7.5t-3.5 -17.5l-1040 -1440q-10 -14 -29 -14h-184q-33 0 -14 29z M1024 43q36 46 136.5 163t182.5 210l82 94q2 4 17.5 23.5t26.5 35t22.5 39t13.5 41.5q6 34 -14 57t-59 23q-77 0 -142 -65q-12 -12 -26 2l-76 112q-10 10 4 23q117 121 289 121q121 0 182 -70t41 -193q-6 -28 -13.5 -54t-18 -49t-18.5 -39.5t-21 -36l-18 -27t-17 -23.5 l-13 -16q-133 -154 -196 -226h210q9 0 14 -5t3 -13l-23 -147q-2 -9 -8.5 -16t-15.5 -7h-529q-43 3 -16 43z" />
<glyph unicode="&#xbe;" horiz-adv-x="1890" d="M213 774q3 21 23 21h153q17 0 14 -17q-3 -38 25.5 -62t77.5 -24t83 29.5t42 79.5q16 113 -86 119h-70q-19 0 -16 20l16 107q3 20 25 20h53q41 2 70.5 29t38.5 78q6 38 -14.5 63t-57.5 25q-75 0 -141 -62q-17 -14 -25 -2l-70 105q-8 13 4 24q109 113 277 113 q119 0 182.5 -68.5t46.5 -175.5q-18 -125 -112 -203q98 -66 75 -217q-19 -122 -116 -199t-234 -77q-132 0 -204 75.5t-60 198.5zM475.5 8q-4.5 8 5.5 21l1035 1431q15 19 38 19h179q14 0 18.5 -7.5t-4.5 -17.5l-1034 -1434q-13 -20 -41 -20h-176q-16 0 -20.5 8zM1092 205 l473 678q15 19 37 16h221q19 0 16 -20l-88 -553h86q21 0 18 -19l-18 -117q-3 -20 -25 -20h-86l-22 -145q-4 -25 -27 -25h-161q-10 0 -16 7t-3 16l23 147h-410q-42 0 -18 35zM1352 326h192l55 352z" />
<glyph unicode="&#xbf;" horiz-adv-x="972" d="M143 362q12 73 38.5 133.5t61.5 103t74.5 79.5t79.5 70.5t74.5 67.5t61.5 80t38 99q1 9 8.5 15t16.5 6h213q19 0 16 -21q-19 -93 -67.5 -169.5t-105 -127t-112 -96t-97 -98t-50.5 -111.5q-13 -85 32 -131.5t124 -48.5q128 0 258 133q6 8 14.5 8t12.5 -8l106 -147 q16 -13 -2 -31q-192 -188 -442 -188q-174 0 -277 106t-76 276zM598 1296q11 65 55.5 104.5t108.5 39.5q65 0 99 -40t24 -104q-9 -64 -56 -103.5t-112 -39.5q-64 0 -96 39t-23 104z" />
<glyph unicode="&#xc0;" d="M12 23l754 1378q12 18 33 18h211q21 0 24 -18l322 -1378q3 -23 -21 -23h-207q-18 0 -18 14l-84 363h-573l-201 -363q-6 -14 -23 -14h-206q-24 0 -11 23zM565 588h412l-121 526zM686 1673l113 146q13 19 32 6l306 -262q15 -15 2 -27l-62 -80q-14 -17 -30 -8l-357 197 q-19 9 -4 28z" />
<glyph unicode="&#xc1;" d="M12 23l754 1378q12 18 33 18h211q21 0 24 -18l322 -1378q3 -23 -21 -23h-207q-18 0 -18 14l-84 363h-573l-201 -363q-6 -14 -23 -14h-206q-24 0 -11 23zM565 588h412l-121 526zM713 1538q-7 17 12 29l389 262q9 6 17.5 4.5t11.5 -10.5l65 -146q8 -20 -12 -30l-418 -195 q-19 -8 -30 6z" />
<glyph unicode="&#xc2;" d="M12 23l754 1378q12 18 33 18h211q21 0 24 -18l322 -1378q3 -23 -21 -23h-207q-18 0 -18 14l-84 363h-573l-201 -363q-6 -14 -23 -14h-206q-24 0 -11 23zM565 588h412l-121 526zM575.5 1529q-1.5 5 8.5 13l268 209q16 12 29 12h153q13 0 29 -12l201 -207q8 -9 4 -14.5 t-17 -5.5h-190q-13 0 -23 10l-100 98l-131 -98q-13 -10 -27 -10h-192q-11 0 -12.5 5z" />
<glyph unicode="&#xc3;" d="M12 23l754 1378q12 18 33 18h211q21 0 24 -18l322 -1378q3 -23 -21 -23h-207q-18 0 -18 14l-84 363h-573l-201 -363q-6 -14 -23 -14h-206q-24 0 -11 23zM565 588h412l-121 526zM631 1606q40 84 103 134t120 50q37 0 64.5 -15.5t44 -38t31 -44.5t33.5 -37.5t44 -14.5 q67 3 121 101q5 9 13 11.5t14 -3.5l55 -63q7 -7 4 -23q-40 -84 -103 -133t-122 -49q-37 0 -65 15.5t-45 37.5t-32 44t-34 36.5t-43 13.5q-68 -3 -121 -100q-5 -9 -13 -11.5t-14 3.5l-51 63q-14 10 -4 23z" />
<glyph unicode="&#xc4;" d="M12 23l754 1378q12 18 33 18h211q21 0 24 -18l322 -1378q3 -23 -21 -23h-207q-18 0 -18 14l-84 363h-573l-201 -363q-6 -14 -23 -14h-206q-24 0 -11 23zM565 588h412l-121 526zM641 1618q9 59 50.5 95t99.5 36q57 0 87 -36.5t21 -94.5q-9 -57 -50.5 -93t-98.5 -36 q-58 0 -88 36t-21 93zM971 1618q9 59 50 95t99 36q57 0 85.5 -36t19.5 -95q-9 -57 -49 -93t-97 -36q-58 0 -87.5 36t-20.5 93z" />
<glyph unicode="&#xc5;" d="M12 23l754 1378q12 18 33 18h211q21 0 24 -18l322 -1378q3 -23 -21 -23h-207q-18 0 -18 14l-84 363h-573l-201 -363q-6 -14 -23 -14h-206q-24 0 -11 23zM565 588h412l-121 526zM739 1647q12 86 73.5 139t148.5 53q89 0 133 -52.5t32 -139.5q-15 -89 -76 -142t-149 -53 t-132.5 53t-29.5 142zM848 1645q-6 -38 13.5 -61t56.5 -23q39 0 65.5 22.5t32.5 61.5t-13.5 62.5t-58.5 23.5q-37 0 -64.5 -24t-31.5 -62z" />
<glyph unicode="&#xc6;" horiz-adv-x="1679" d="M3.5 9q-4.5 9 4.5 22l955 1372q14 18 36 18h787q21 0 18 -26l-26 -168q-6 -27 -27 -27h-414l-59 -369h317q9 2 14.5 -4t4.5 -16l-29 -176q-3 -21 -22 -21h-318l-63 -393h434q19 0 16 -22l-26 -176q-3 -23 -23 -23h-661q-20 3 -17 23l58 360h-443l-254 -367 q-10 -16 -28 -16h-213q-17 0 -21.5 9zM662 594h333l101 633z" />
<glyph unicode="&#xc7;" horiz-adv-x="1376" d="M186 709q22 142 81.5 262.5t142.5 205.5t185.5 145.5t211.5 89t219 28.5q143 2 267.5 -47.5t211.5 -143.5q9 -13 -4 -26l-143 -156q-6 -6 -15 -6t-14 6q-131 131 -340 131q-216 0 -369 -134t-188 -355q-35 -218 76 -352t326 -134q205 0 380 129q8 6 17 6.5t12 -6.5 l98 -155q8 -20 -4 -29q-227 -188 -542 -188q-214 0 -365 91.5t-215 257.5t-29 380zM528 -326l54 68q6 8 22 4q77 -37 139 -37q39 0 67 17.5t32 46.5q4 30 -23 42.5t-74 12.5h-102q-7 0 -9 5t3 13l90 154h176l-43 -72q77 -10 117 -49.5t27 -114.5q-17 -89 -90 -137.5 t-173 -48.5q-60 -1 -118.5 20t-94.5 52q-15 9 0 24z" />
<glyph unicode="&#xc8;" horiz-adv-x="1079" d="M154 20l219 1381q1 9 7.5 14.5t14.5 5.5h793q19 0 16 -20l-30 -193q-3 -20 -23 -20h-567l-56 -348h469q9 0 14 -6t3 -15l-29 -188q-1 -9 -7.5 -15t-14.5 -6h-471l-60 -379h588q7 1 11.5 -4t2.5 -14l-30 -195q0 -8 -6 -13t-15 -5h-813q-19 0 -16 20zM535 1673l112 146 q6 9 16 10.5t17 -4.5l305 -262q16 -13 2 -27l-61 -80q-13 -19 -31 -8l-356 197q-16 8 -4 28z" />
<glyph unicode="&#xc9;" horiz-adv-x="1079" d="M154 20l219 1381q1 9 7.5 14.5t14.5 5.5h793q19 0 16 -20l-30 -193q-3 -20 -23 -20h-567l-56 -348h469q9 0 14 -6t3 -15l-29 -188q-1 -9 -7.5 -15t-14.5 -6h-471l-60 -379h588q7 1 11.5 -4t2.5 -14l-30 -195q0 -8 -6 -13t-15 -5h-813q-19 0 -16 20zM633 1538q-7 17 12 29 l389 262q7 6 16.5 4.5t12.5 -10.5l65 -146q8 -20 -12 -30l-418 -195q-21 -9 -30 6z" />
<glyph unicode="&#xca;" horiz-adv-x="1079" d="M154 20l219 1381q1 9 7.5 14.5t14.5 5.5h793q19 0 16 -20l-30 -193q-3 -20 -23 -20h-567l-56 -348h469q9 0 14 -6t3 -15l-29 -188q-1 -9 -7.5 -15t-14.5 -6h-471l-60 -379h588q7 1 11.5 -4t2.5 -14l-30 -195q0 -8 -6 -13t-15 -5h-813q-19 0 -16 20zM472.5 1516.5 q-1.5 5.5 8.5 13.5l269 211q20 10 28 10h154q9 0 29 -10l200 -209q8 -9 4.5 -15t-16.5 -6h-191q-11 0 -22 11l-100 100l-131 -100q-15 -11 -27 -11h-193q-11 0 -12.5 5.5z" />
<glyph unicode="&#xcb;" horiz-adv-x="1079" d="M154 20l219 1381q1 9 7.5 14.5t14.5 5.5h793q19 0 16 -20l-30 -193q-3 -20 -23 -20h-567l-56 -348h469q9 0 14 -6t3 -15l-29 -188q-1 -9 -7.5 -15t-14.5 -6h-471l-60 -379h588q7 1 11.5 -4t2.5 -14l-30 -195q0 -8 -6 -13t-15 -5h-813q-19 0 -16 20zM543 1630q9 55 47 88 t94 33q54 0 82.5 -33t19.5 -88q-7 -55 -46.5 -89t-94.5 -34t-82.5 33.5t-19.5 89.5zM854 1630q9 55 48 88t93 33q56 0 84 -33t19 -88q-7 -55 -47 -89t-95 -34q-54 0 -82 33.5t-20 89.5z" />
<glyph unicode="&#xcc;" horiz-adv-x="546" d="M154 18l217 1383q3 20 24 20h207q17 0 14 -20l-219 -1383q0 -18 -20 -18h-207q-16 0 -16 18zM270 1673l113 146q13 20 31 6l307 -262q13 -13 2 -27l-61 -80q-16 -19 -31 -8l-359 197q-16 10 -2 28z" />
<glyph unicode="&#xcd;" horiz-adv-x="546" d="M154 18l217 1383q3 20 24 20h207q17 0 14 -20l-219 -1383q0 -18 -20 -18h-207q-16 0 -16 18zM307 1538q-6 16 10 29l392 262q7 6 16 4.5t12 -10.5l66 -146q8 -20 -12 -30l-418 -195q-22 -9 -31 6z" />
<glyph unicode="&#xce;" horiz-adv-x="546" d="M148 1526q-2 6 8 12l282 221q13 13 29 13h160l26 -39l-260 -201q-20 -12 -31 -12h-200q-12 0 -14 6zM154 18l217 1383q3 20 24 20h207q17 0 14 -20l-219 -1383q0 -18 -20 -18h-207q-16 0 -16 18zM436 1733l41 39h158q14 0 24 -13l213 -219q9 -8 5.5 -14t-15.5 -6h-203 q-12 0 -24 12z" />
<glyph unicode="&#xcf;" horiz-adv-x="546" d="M154 18l217 1383q3 20 24 20h207q17 0 14 -20l-219 -1383q0 -18 -20 -18h-207q-16 0 -16 18zM238 1630q9 59 50 95t99 36q57 0 86.5 -36t20.5 -95q-7 -57 -49 -93t-99 -36q-58 0 -87.5 36t-20.5 93zM567 1630q9 59 49.5 95t98.5 36q57 0 86 -36t20 -95q-9 -57 -49.5 -93 t-97.5 -36q-58 0 -87 35.5t-20 93.5z" />
<glyph unicode="&#xd0;" horiz-adv-x="1384" d="M137 655l15 95q3 20 24 20h96l101 631q3 20 22 20h418q330 0 499.5 -192.5t117.5 -517.5q-35 -216 -151 -377.5t-294.5 -247.5t-396.5 -86h-418q-19 0 -16 20l96 615h-96q-20 0 -17 20zM432 231h193q220 2 372 131.5t187 348.5t-76.5 349t-331.5 130h-192l-66 -420h264 q18 0 15 -20l-15 -95q-1 -9 -7.5 -14.5t-14.5 -5.5h-264z" />
<glyph unicode="&#xd1;" horiz-adv-x="1470" d="M154 20l219 1381q3 20 22 20h238q17 0 24 -14l482 -1004l157 998q3 20 23 20h205q21 0 18 -20l-219 -1381q-3 -20 -25 -20h-237q-13 0 -21 12l-483 1008l-158 -1000q-3 -20 -24 -20h-205q-19 0 -16 20zM664 1606q42 85 106 135.5t123 50.5q37 0 65.5 -16t45 -38.5 t31.5 -45t35 -38t46 -14.5q69 3 121 101q6 10 14.5 13t14.5 -3l55 -65q12 -8 4 -23q-41 -87 -104.5 -136.5t-124.5 -49.5q-37 0 -65.5 15.5t-46 38t-33 44.5t-35 37t-44.5 14q-66 0 -122 -100q-5 -11 -13 -13t-16 5l-53 61q-11 11 -4 27z" />
<glyph unicode="&#xd2;" horiz-adv-x="1605" d="M186 711q53 327 285.5 528t560.5 201q217 0 368.5 -91t215.5 -256.5t29 -381.5q-53 -329 -283.5 -529t-558.5 -200q-329 0 -499 200.5t-118 528.5zM432 711q-35 -218 77.5 -352t330.5 -134q217 0 370.5 134t188.5 352t-77 351.5t-329 133.5q-218 0 -372.5 -133.5 t-188.5 -351.5zM776 1686l113 145q4 9 14 10.5t17 -4.5l307 -262q13 -13 2 -27l-62 -80q-16 -19 -30 -8l-359 197q-17 10 -2 29z" />
<glyph unicode="&#xd3;" horiz-adv-x="1605" d="M186 711q53 327 285.5 528t560.5 201q217 0 368.5 -91t215.5 -256.5t29 -381.5q-53 -329 -283.5 -529t-558.5 -200q-329 0 -499 200.5t-118 528.5zM432 711q-35 -218 77.5 -352t330.5 -134q217 0 370.5 134t188.5 352t-77 351.5t-329 133.5q-218 0 -372.5 -133.5 t-188.5 -351.5zM852 1538q-7 18 10 29l389 262q9 6 18.5 4.5t12.5 -10.5l66 -146q8 -20 -15 -30l-418 -195q-19 -9 -28 6z" />
<glyph unicode="&#xd4;" horiz-adv-x="1605" d="M186 713q35 216 152.5 381t297.5 255.5t396 90.5q329 0 497.5 -199.5t117.5 -527.5q-35 -218 -151.5 -384t-296 -256.5t-396.5 -90.5q-329 0 -499 201t-118 530zM432 711q-35 -220 76.5 -354t331.5 -134q218 0 373 134t190 354q35 219 -77 353t-331 134t-374 -134 t-189 -353zM698 1540l269 211q17 10 30 10h154q17 0 27 -10l200 -209q18 -18 -10 -18h-192q-11 0 -23 8l-100 100l-129 -100q-20 -8 -27 -8h-192q-26 0 -7 16z" />
<glyph unicode="&#xd5;" horiz-adv-x="1605" d="M186 711q53 327 285.5 528t560.5 201q217 0 368.5 -91t215.5 -256.5t29 -381.5q-53 -329 -283.5 -529t-558.5 -200q-329 0 -499 200.5t-118 528.5zM432 711q-35 -218 77.5 -352t330.5 -134q217 0 370.5 134t188.5 352t-77 351.5t-329 133.5q-218 0 -372.5 -133.5 t-188.5 -351.5zM735 1606q42 86 106 136t124 50q45 0 78 -24t48.5 -52.5t40 -52.5t54.5 -23q71 3 123 101q10 24 28 10l56 -65q10 -10 4 -23q-41 -86 -105 -136t-125 -50q-37 0 -65.5 15.5t-46 38t-32.5 44.5t-34.5 37t-44.5 14q-70 0 -123 -100q-5 -11 -12.5 -13t-15.5 5 l-54 61q-11 11 -4 27z" />
<glyph unicode="&#xd6;" horiz-adv-x="1605" d="M186 711q53 327 285.5 528t560.5 201q217 0 368.5 -91t215.5 -256.5t29 -381.5q-53 -329 -283.5 -529t-558.5 -200q-329 0 -499 200.5t-118 528.5zM432 711q-35 -218 77.5 -352t330.5 -134q217 0 370.5 134t188.5 352t-77 351.5t-329 133.5q-218 0 -372.5 -133.5 t-188.5 -351.5zM768 1630q9 59 50.5 95t99.5 36q57 0 87 -36.5t21 -94.5q-9 -57 -50.5 -93t-98.5 -36q-58 0 -88 36t-21 93zM1098 1630q9 59 49 95t98 36t87 -36t20 -95q-9 -58 -49.5 -93.5t-98.5 -35.5t-86.5 35.5t-19.5 93.5z" />
<glyph unicode="&#xd7;" horiz-adv-x="978" d="M170.5 413.5q0.5 8.5 9.5 14.5l264 229l-190 226q-14 14 4 28l137 119q16 13 29 0l190 -227l267 229q12 12 28 0l101 -123q17 -14 -4 -28l-263 -228l189 -227q11 -14 -4 -29l-135 -118q-19 -13 -29 0l-193 227l-266 -230q-13 -13 -29 0l-100 123q-6 6 -5.5 14.5z" />
<glyph unicode="&#xd8;" horiz-adv-x="1574" d="M139 18q-13 12 4 29l1454 1380q16 16 33 3l51 -56q14 -14 -4 -28l-1456 -1383q-14 -14 -28 0zM186 711q53 327 285.5 528t560.5 201q217 0 368.5 -91t215.5 -256.5t29 -381.5q-53 -329 -283.5 -529t-558.5 -200q-329 0 -499 200.5t-118 528.5zM432 711 q-35 -218 77.5 -352t330.5 -134q217 0 370.5 134t188.5 352t-77 351.5t-329 133.5q-218 0 -372.5 -133.5t-188.5 -351.5z" />
<glyph unicode="&#xd9;" horiz-adv-x="1363" d="M227 557l133 844q3 18 25 18h205q9 0 13.5 -5t2.5 -13l-133 -846q-24 -156 42.5 -243t203.5 -87q135 0 228.5 86.5t117.5 243.5l133 846q3 18 25 18h207q19 0 16 -18l-133 -846q-22 -139 -82.5 -249.5t-146 -180.5t-188.5 -106.5t-216 -36.5q-234 0 -364.5 150.5 t-88.5 424.5zM629 1673l112 146q6 9 16 10.5t17 -4.5l307 -262q13 -13 0 -27l-61 -80q-13 -20 -29 -8l-358 197q-15 9 -4 28z" />
<glyph unicode="&#xda;" horiz-adv-x="1363" d="M227 557l133 844q3 18 25 18h205q9 0 13.5 -5t2.5 -13l-133 -846q-24 -156 42.5 -243t203.5 -87q135 0 228.5 86.5t117.5 243.5l133 846q3 18 25 18h207q19 0 16 -18l-133 -846q-22 -139 -82.5 -249.5t-146 -180.5t-188.5 -106.5t-216 -36.5q-234 0 -364.5 150.5 t-88.5 424.5zM717 1538q-7 18 10 29l389 262q9 6 18.5 4.5t12.5 -10.5l65 -146q8 -20 -14 -30l-418 -195q-19 -9 -28 6z" />
<glyph unicode="&#xdb;" horiz-adv-x="1363" d="M227 555l133 846q3 20 23 20h205q19 0 16 -20l-133 -846q-24 -156 43 -244t203 -88q137 0 231 87.5t117 244.5l133 846q3 20 25 20h207q17 0 14 -20l-133 -846q-22 -139 -82 -249.5t-145 -180.5t-188 -106.5t-216 -36.5t-205.5 37t-156 107t-88.5 180.5t-3 248.5z M586 1540l268 211q13 10 29 10h153q16 0 29 -10l201 -209q15 -18 -13 -18h-190q-11 0 -23 8l-100 100l-129 -100q-20 -8 -29 -8h-192q-23 0 -4 16z" />
<glyph unicode="&#xdc;" horiz-adv-x="1363" d="M227 557l133 844q3 18 25 18h205q9 0 13.5 -5t2.5 -13l-133 -846q-24 -156 42.5 -243t203.5 -87q135 0 228.5 86.5t117.5 243.5l133 846q3 18 25 18h207q19 0 16 -18l-133 -846q-22 -139 -82.5 -249.5t-146 -180.5t-188.5 -106.5t-216 -36.5q-234 0 -364.5 150.5 t-88.5 424.5zM647 1630q9 59 50.5 95t99.5 36q57 0 87 -36.5t21 -94.5q-9 -57 -50.5 -93t-98.5 -36q-58 0 -88 36t-21 93zM977 1630q9 59 50 95t99 36q57 0 85.5 -36t19.5 -95q-9 -57 -49 -93t-97 -36q-58 0 -87.5 36t-20.5 93z" />
<glyph unicode="&#xdd;" horiz-adv-x="1239" d="M229 1395q-5 11 0.5 17.5t18.5 6.5h221q17 0 23 -16l253 -621l445 621q13 16 31 16h221q25 0 10 -24l-621 -828l-88 -549q0 -7 -6.5 -12.5t-15.5 -5.5h-205q-18 0 -18 18l88 547zM653 1538q-6 16 13 29l389 262q7 6 16 4.5t12 -10.5l66 -146q8 -20 -12 -30l-418 -195 q-22 -9 -31 6z" />
<glyph unicode="&#xde;" horiz-adv-x="1128" d="M135 23l217 1376q4 22 27 22h203q19 0 16 -20l-39 -256h221q211 0 314 -119t73 -315q-33 -195 -174.5 -315t-351.5 -120h-221l-39 -253q-3 -23 -27 -23h-200q-22 0 -19 23zM457 508h200q104 0 176.5 50t88.5 151q17 101 -39 152.5t-160 51.5h-201z" />
<glyph unicode="&#xdf;" horiz-adv-x="1185" d="M143 23l152 952q34 216 172 341.5t340 127.5q169 -2 263.5 -95.5t68.5 -252.5q-7 -47 -32 -87.5t-55.5 -68.5t-61.5 -52.5t-56 -52.5t-33 -57q-4 -23 11 -46.5t41 -44.5t57.5 -47.5t62 -56t54 -70.5t33 -90t-0.5 -116q-26 -161 -149.5 -261.5t-292.5 -100.5 q-92 0 -201 53q-19 13 -2 35l102 188q10 19 29 6q58 -37 113 -37q66 3 106 36.5t47 76.5q6 38 -11 77.5t-47 71.5t-64.5 70.5t-63.5 75t-44 85t-7 99.5q7 45 41 91.5t71 79t70.5 72t38.5 71.5q10 62 -22.5 93.5t-94.5 31.5q-39 0 -71 -12.5t-55.5 -32.5t-44 -54.5t-33.5 -68 t-26 -83.5t-20.5 -90.5t-17.5 -99.5l-121 -757q-1 -10 -9.5 -16.5t-19.5 -6.5h-196q-11 0 -17 6.5t-4 16.5z" />
<glyph unicode="&#xe0;" horiz-adv-x="1202" d="M137 479q35 224 190.5 362t372.5 138q203 0 283 -148l49 111q10 21 25 21h155q9 0 14.5 -6t4.5 -15l-146 -922q-2 -8 -8.5 -14t-15.5 -6h-158q-15 0 -18 20l-13 109q-130 -152 -331 -152q-216 -1 -327.5 138.5t-76.5 363.5zM369 479q-19 -120 43 -195t180 -75 q122 0 209.5 74.5t107.5 195.5q19 121 -45 195t-186 74q-120 0 -204.5 -73.5t-104.5 -195.5zM506 1288q-16 13 0 29l129 135q17 14 31 0l252 -297q12 -10 0 -22l-74 -74q-14 -14 -29 -2z" />
<glyph unicode="&#xe1;" horiz-adv-x="1202" d="M137 479q35 224 190.5 362t372.5 138q203 0 283 -148l49 111q10 21 25 21h155q9 0 14.5 -6t4.5 -15l-146 -922q-2 -8 -8.5 -14t-15.5 -6h-158q-15 0 -18 20l-13 109q-130 -152 -331 -152q-216 -1 -327.5 138.5t-76.5 363.5zM369 479q-19 -120 43 -195t180 -75 q122 0 209.5 74.5t107.5 195.5q19 121 -45 195t-186 74q-120 0 -204.5 -73.5t-104.5 -195.5zM610 1122q-8 16 8 29l353 299q7 8 16 8t14 -8l91 -137q4 -6 1.5 -14t-10.5 -13l-393 -239q-24 -12 -31 2z" />
<glyph unicode="&#xe2;" horiz-adv-x="1202" d="M137 479q35 224 190.5 362t372.5 138q203 0 283 -148l49 111q10 21 25 21h155q9 0 14.5 -6t4.5 -15l-146 -922q-2 -8 -8.5 -14t-15.5 -6h-158q-15 0 -18 20l-13 109q-130 -152 -331 -152q-216 -1 -327.5 138.5t-76.5 363.5zM369 479q-19 -120 43 -195t180 -75 q122 0 209.5 74.5t107.5 195.5q19 121 -45 195t-186 74q-120 0 -204.5 -73.5t-104.5 -195.5zM436 1105q1 3 6 7l244 272q13 13 31 13h164q16 0 26 -13l158 -270q10 -16 -10 -16h-174q-11 0 -21 10l-84 156l-131 -156q-10 -10 -24 -10h-175q-6 0 -8.5 2t-1.5 5z" />
<glyph unicode="&#xe3;" horiz-adv-x="1202" d="M137 479q35 224 190.5 362t372.5 138q203 0 283 -148l49 111q10 21 25 21h155q9 0 14.5 -6t4.5 -15l-146 -922q-2 -8 -8.5 -14t-15.5 -6h-158q-15 0 -18 20l-13 109q-130 -152 -331 -152q-216 -1 -327.5 138.5t-76.5 363.5zM369 479q-19 -120 43 -195t180 -75 q122 0 209.5 74.5t107.5 195.5q19 121 -45 195t-186 74q-120 0 -204.5 -73.5t-104.5 -195.5zM455 1198q42 84 104 133t119 49q37 0 64.5 -15t44 -36.5t31 -43t33.5 -36.5t44 -14q68 3 121 100q5 8 11 10t11 -4l58 -63q8 -5 4 -18q-40 -85 -103.5 -135t-122.5 -50 q-36 0 -63 15.5t-44 37.5t-32 43.5t-34 36t-42 13.5q-68 0 -118 -99q-15 -22 -29 -8l-53 64q-9 9 -4 20z" />
<glyph unicode="&#xe4;" horiz-adv-x="1202" d="M137 479q35 224 190.5 362t372.5 138q203 0 283 -148l49 111q10 21 25 21h155q9 0 14.5 -6t4.5 -15l-146 -922q-2 -8 -8.5 -14t-15.5 -6h-158q-15 0 -18 20l-13 109q-130 -152 -331 -152q-216 -1 -327.5 138.5t-76.5 363.5zM369 479q-19 -120 43 -195t180 -75 q122 0 209.5 74.5t107.5 195.5q19 121 -45 195t-186 74q-120 0 -204.5 -73.5t-104.5 -195.5zM496 1243q9 59 49 94t98 35q57 0 87.5 -36t21.5 -93t-50 -93t-98 -36q-58 0 -87.5 36t-20.5 93zM823 1243q9 58 50 93.5t100 35.5q57 0 86 -36t20 -93t-49.5 -93t-97.5 -36 q-58 0 -88 36t-21 93z" />
<glyph unicode="&#xe5;" horiz-adv-x="1202" d="M137 479q35 224 190.5 362t372.5 138q203 0 283 -148l49 111q10 21 25 21h155q9 0 14.5 -6t4.5 -15l-146 -922q-2 -8 -8.5 -14t-15.5 -6h-158q-15 0 -18 20l-13 109q-130 -152 -331 -152q-216 -1 -327.5 138.5t-76.5 363.5zM369 479q-19 -120 43 -195t180 -75 q122 0 209.5 74.5t107.5 195.5q19 121 -45 195t-186 74q-120 0 -204.5 -73.5t-104.5 -195.5zM598 1264q14 88 74.5 141t148.5 53t133 -53t31 -141q-13 -88 -75 -141.5t-150 -53.5q-87 0 -131.5 53.5t-30.5 141.5zM717 1264q-6 -34 10.5 -55t50.5 -21q33 0 56.5 21t29.5 55 q5 32 -12 52.5t-49 20.5q-34 0 -57.5 -20.5t-28.5 -52.5z" />
<glyph unicode="&#xe6;" horiz-adv-x="1906" d="M137 479q35 224 190.5 362t372.5 138q203 0 283 -148l49 111q10 21 25 21h155q9 0 14.5 -6t4.5 -15l-6 -39q124 76 278 76q126 0 216 -43t136 -119.5t62 -181t-6 -227.5q-3 -21 -27 -21h-725q8 -87 71 -138t171 -50q146 0 233 73q22 16 33 2l102 -124q12 -15 -4 -31 q-148 -139 -409 -139q-158 -3 -264 79q-1 -4 -4.5 -21.5t-4.5 -21.5q-4 -16 -24 -16h-156q-15 0 -18 20l-13 109q-130 -152 -331 -152q-216 -1 -327.5 138.5t-76.5 363.5zM369 479q-19 -120 43 -195t180 -75q123 0 210 74t107 196q19 121 -45 195t-186 74 q-120 0 -204.5 -73.5t-104.5 -195.5zM1180 561h510q-3 91 -61.5 145t-160.5 54q-103 0 -178 -53.5t-110 -145.5z" />
<glyph unicode="&#xe7;" horiz-adv-x="1040" d="M137 479q19 120 76.5 217t137.5 157.5t172.5 93t187.5 34.5q136 3 237.5 -53t155.5 -162q8 -19 -6 -29l-164 -121q-9 -6 -19 -4t-14 11q-68 127 -223 127q-120 0 -204.5 -74.5t-104.5 -196.5q-19 -122 42 -196t181 -74q154 0 258 117q22 22 37 6l112 -123q12 -17 -2 -31 q-79 -96 -192.5 -148.5t-249.5 -52.5q-222 0 -337.5 139.5t-80.5 362.5zM246 -326l53 68q7 8 25 4q71 -37 137 -37q39 0 66.5 17.5t31.5 46.5q4 30 -22 42.5t-74 12.5h-101q-8 0 -10 5t2 13l90 154h177l-43 -72q167 -21 143 -164q-14 -89 -87.5 -137.5t-172.5 -48.5 q-60 -1 -118.5 20t-96.5 52q-12 9 0 24z" />
<glyph unicode="&#xe8;" horiz-adv-x="1118" d="M137 479q35 224 195 362t383 138q233 0 343 -143t64 -428q-4 -21 -24 -21h-727q9 -87 72 -138.5t171 -51.5q147 3 232 75q25 16 35 2l102 -124q12 -15 -4 -31q-151 -139 -412 -139q-228 -1 -346.5 136.5t-83.5 362.5zM393 561h508q-3 91 -60.5 145t-160.5 54 t-177.5 -53.5t-109.5 -145.5zM481 1286q-16 13 0 29l129 135q17 14 31 0l252 -297q14 -9 0 -23l-74 -73q-13 -13 -28 -2z" />
<glyph unicode="&#xe9;" horiz-adv-x="1118" d="M137 479q35 224 195 362t383 138q233 0 343 -143t64 -428q-4 -21 -24 -21h-727q9 -87 72 -138.5t171 -51.5q147 3 232 75q25 16 35 2l102 -124q12 -15 -4 -31q-151 -139 -412 -139q-228 -1 -346.5 136.5t-83.5 362.5zM393 561h508q-3 91 -60.5 145t-160.5 54 t-177.5 -53.5t-109.5 -145.5zM549 1128q-11 14 8 27l344 295q7 8 17 8t14 -8l88 -135q5 -4 2 -13.5t-10 -13.5l-385 -233q-21 -14 -31 2z" />
<glyph unicode="&#xea;" horiz-adv-x="1118" d="M137 479q35 224 195 362t383 138q234 0 343.5 -143t61.5 -428q-4 -21 -22 -21h-727q9 -87 72 -138.5t171 -51.5q147 3 232 75q25 16 35 2l100 -124q15 -14 -2 -31q-151 -139 -412 -139q-228 -1 -346.5 136.5t-83.5 362.5zM393 561h508q-5 92 -61.5 145.5t-159.5 53.5 q-104 0 -179 -54t-108 -145zM407.5 1089.5q-1.5 4.5 4.5 10.5l245 272q12 12 29 12h166q15 0 27 -12l155 -270q10 -17 -10 -17h-172q-14 0 -21 11l-83 155l-132 -153q-13 -13 -26 -13h-172q-9 0 -10.5 4.5z" />
<glyph unicode="&#xeb;" horiz-adv-x="1118" d="M137 479q35 224 195 362t383 138q233 0 343 -143t64 -428q-4 -21 -24 -21h-727q9 -87 72 -138.5t171 -51.5q147 3 232 75q25 16 35 2l102 -124q12 -15 -4 -31q-151 -139 -412 -139q-228 -1 -346.5 136.5t-83.5 362.5zM393 561h508q-3 91 -60.5 145t-160.5 54 t-177.5 -53.5t-109.5 -145.5zM467 1245q7 57 47 92t96 35t85 -35t20 -92q-9 -56 -49 -90.5t-95 -34.5q-57 0 -85 34.5t-19 90.5zM784 1245q9 57 49 92t97 35q55 0 83 -35t19 -92q-9 -56 -48 -90.5t-93 -34.5q-57 0 -86 34.5t-21 90.5z" />
<glyph unicode="&#xec;" horiz-adv-x="479" d="M127 20l145 924q0 19 23 19h197q19 0 16 -19l-146 -924q-3 -20 -24 -20h-197q-17 0 -14 20zM198.5 1303.5q0.5 9.5 6.5 15.5l129 133q19 16 31 0l253 -295q11 -11 -2 -24l-71 -74q-14 -9 -31 -2l-309 231q-7 6 -6.5 15.5z" />
<glyph unicode="&#xed;" horiz-adv-x="479" d="M127 20l143 924q3 19 25 19h197q19 0 16 -19l-148 -924q0 -20 -22 -20h-197q-17 0 -14 20zM211 1128q-10 13 6 29l346 293q7 8 17 8t16 -8l86 -135q5 -4 3 -13.5t-11 -13.5l-385 -235q-19 -12 -33 2z" />
<glyph unicode="&#xee;" horiz-adv-x="479" d="M85 1085.5q-2 4.5 5 12.5l258 286q13 13 31 13h174q17 0 27 -13l165 -284q9 -19 -10 -19h-182q-14 0 -21 11l-90 163l-137 -161q-13 -13 -26 -13h-183q-9 0 -11 4.5zM127 20l145 924q0 19 23 19h197q19 0 16 -19l-146 -924q-3 -20 -24 -20h-197q-17 0 -14 20z" />
<glyph unicode="&#xef;" horiz-adv-x="479" d="M127 20l145 924q0 19 23 19h197q19 0 16 -19l-146 -924q-3 -20 -24 -20h-197q-17 0 -14 20zM137 1227q9 59 49.5 94t98.5 35q57 0 87 -36t21 -93t-50.5 -92t-98.5 -35q-58 0 -87 35t-20 92zM465 1227q9 58 49.5 93.5t99.5 35.5q56 0 85.5 -35.5t21.5 -93.5 q-9 -57 -50 -92t-98 -35q-58 0 -87.5 35t-20.5 92z" />
<glyph unicode="&#xf0;" horiz-adv-x="1103" d="M160 422q31 195 167 314.5t328 119.5q93 0 158 -43q-46 136 -149 248l-220 -103q-10 -7 -22 5l-47 57q-11 15 8 24l199 95q-70 56 -166 110q-20 10 -6 27l114 162q15 18 31 10q165 -64 283 -188l198 94q18 9 25 -4l47 -58q12 -16 -8 -24l-191 -90q111 -148 159.5 -342.5 t12.5 -393.5q-36 -216 -185 -339t-349 -123q-129 0 -224.5 56t-139 157t-23.5 229zM395 424q-15 -95 37 -155t152 -60q97 0 174 63.5t90 155.5q15 101 -36 158t-159 57q-100 0 -171.5 -60t-86.5 -159z" />
<glyph unicode="&#xf1;" horiz-adv-x="1120" d="M117 20l145 920q4 21 25 21h151q21 0 21 -21l4 -111q127 156 328 156q166 0 248.5 -114.5t50.5 -315.5l-84 -535q-3 -20 -25 -20h-193q-19 0 -16 20l78 492q20 119 -25 179.5t-135 58.5q-92 0 -167 -74.5t-103 -208.5l-70 -447q-1 -9 -8.5 -14.5t-15.5 -5.5h-193 q-19 0 -16 20zM442 1231q40 82 102 130t118 48q36 0 62.5 -14.5t42.5 -35.5t30 -42t32.5 -35.5t42.5 -13.5q64 2 119 96q3 9 10 11.5t13 -3.5l55 -63q8 -6 4 -19q-39 -83 -100.5 -131.5t-120.5 -48.5q-35 0 -61.5 15t-42.5 36t-31 42.5t-34 36t-42 13.5q-67 -3 -115 -96 q-15 -22 -26 -8l-54 61q-10 10 -4 21z" />
<glyph unicode="&#xf2;" horiz-adv-x="1124" d="M137 483q37 225 196.5 363.5t383.5 138.5t341.5 -139t80.5 -363q-35 -224 -196.5 -363.5t-385.5 -139.5t-339.5 139t-80.5 364zM371 481q-19 -121 42.5 -195.5t180.5 -74.5q121 0 206.5 75t104.5 195q20 123 -41.5 197t-183.5 74q-120 0 -204.5 -74t-104.5 -197z M473 1286q-16 13 0 29l129 135q17 14 31 0l252 -297q14 -9 0 -23l-74 -73q-14 -14 -29 -2z" />
<glyph unicode="&#xf3;" horiz-adv-x="1124" d="M137 483q35 224 196.5 363t385.5 139t340.5 -139t81.5 -363q-37 -226 -197.5 -366t-384.5 -140t-340.5 140t-81.5 366zM373 483q-19 -122 42 -195t181 -73t205 73.5t104 194.5q20 120 -41.5 195t-181.5 74q-121 0 -205 -74t-104 -195zM541 1126q-8 16 8 29l344 293 q7 8 17 8t14 -8l88 -133q5 -6 2 -15.5t-10 -13.5l-386 -233q-7 -6 -16 -5.5t-12 7.5z" />
<glyph unicode="&#xf4;" horiz-adv-x="1124" d="M137 483q37 225 196.5 363.5t383.5 138.5t341.5 -139t80.5 -363q-35 -224 -196.5 -363.5t-385.5 -139.5t-339.5 139t-80.5 364zM371 481q-19 -121 42.5 -195.5t180.5 -74.5q121 0 206.5 75t104.5 195q20 123 -41.5 197t-183.5 74q-120 0 -204.5 -74t-104.5 -197z M422.5 1108q-1.5 4 5.5 10l246 273q9 12 28 12h166q16 0 25 -12l158 -271q10 -16 -11 -16h-174q-8 0 -20 8l-84 156l-131 -154q-10 -10 -25 -10h-174q-8 0 -9.5 4z" />
<glyph unicode="&#xf5;" horiz-adv-x="1124" d="M137 483q37 225 196.5 363.5t383.5 138.5t341.5 -139t80.5 -363q-35 -224 -196.5 -363.5t-385.5 -139.5t-339.5 139t-80.5 364zM371 481q-19 -121 42.5 -195.5t180.5 -74.5q121 0 206.5 75t104.5 195q20 123 -41.5 197t-183.5 74q-120 0 -204.5 -74t-104.5 -197z M434 1204q42 84 104 134.5t119 50.5q37 0 64.5 -15.5t44 -37.5t31 -43.5t33.5 -37t44 -14.5q68 3 121 100q4 9 11.5 11.5t11.5 -2.5l57 -66q8 -5 4 -16q-40 -85 -103 -135t-122 -50q-36 0 -63 15.5t-44 37.5t-32 43.5t-34 36t-42 13.5q-68 0 -119 -101q-15 -19 -28 -6 l-54 62q-7 11 -4 20z" />
<glyph unicode="&#xf6;" horiz-adv-x="1124" d="M137 483q37 225 196.5 363.5t383.5 138.5t341.5 -139t80.5 -363q-35 -224 -196.5 -363.5t-385.5 -139.5t-339.5 139t-80.5 364zM371 481q-19 -121 42.5 -195.5t180.5 -74.5q121 0 206.5 75t104.5 195q20 123 -41.5 197t-183.5 74q-120 0 -204.5 -74t-104.5 -197z M465 1249q9 58 49.5 93.5t99.5 35.5q57 0 86.5 -36t20.5 -93q-7 -57 -49 -93t-99 -36q-58 0 -87.5 36t-20.5 93zM795 1249q9 59 49 94t98 35q57 0 86.5 -36t20.5 -93t-50 -93t-98 -36q-58 0 -86.5 35.5t-19.5 93.5z" />
<glyph unicode="&#xf7;" horiz-adv-x="1103" d="M188 518l25 158q4 18 25 18h849q9 0 14 -5t3 -13l-25 -158q-3 -20 -24 -20h-850q-20 0 -17 20zM451 283q10 66 57 105.5t113 39.5q65 0 98.5 -40.5t23.5 -104.5q-11 -65 -57.5 -105.5t-110.5 -40.5q-66 0 -100.5 40.5t-23.5 105.5zM551 922q10 66 58 105.5t114 39.5 q64 0 98 -40t23 -105q-10 -66 -56.5 -106t-111.5 -40q-66 0 -100.5 40t-24.5 106z" />
<glyph unicode="&#xf8;" horiz-adv-x="1124" d="M90 10q-15 12 2 29l109 102q-94 137 -64 342q37 225 196.5 363.5t383.5 138.5q171 0 287 -86l79 78q15 12 31 0l51 -53q15 -14 -2 -31l-84 -78q94 -134 60 -332q-35 -224 -196.5 -363.5t-385.5 -139.5q-166 0 -274 79l-111 -104q-8 -6 -16 -6t-13 6zM371 481 q-15 -93 20 -159l422 399q-57 31 -133 31q-120 0 -204.5 -74t-104.5 -197zM473 240q53 -29 121 -29q121 0 206.5 75t104.5 195q15 90 -16 154z" />
<glyph unicode="&#xf9;" horiz-adv-x="1136" d="M178 406l86 534q4 21 23 21h192q9 0 14.5 -6t4.5 -15l-78 -491q-42 -252 164 -252q93 2 171 78t107 217l70 448q4 21 24 21h191q9 0 14 -6t4 -15l-145 -920q-3 -20 -25 -20h-151q-18 0 -21 20l-6 109q-141 -154 -346 -154q-164 2 -244.5 116t-48.5 315zM466.5 1291.5 q0.5 9.5 8.5 15.5l127 133q19 16 31 0l254 -295q11 -11 -2 -25l-72 -73q-15 -9 -31 -3l-309 232q-7 6 -6.5 15.5z" />
<glyph unicode="&#xfa;" horiz-adv-x="1136" d="M178 406l86 534q4 21 23 21h192q9 0 14.5 -6t4.5 -15l-78 -491q-42 -252 164 -252q93 2 171 78t107 217l70 448q4 21 24 21h191q9 0 14 -6t4 -15l-145 -920q-3 -20 -25 -20h-151q-18 0 -21 20l-6 109q-141 -154 -346 -154q-164 2 -244.5 116t-48.5 315zM586 1128 q-9 13 8 27l344 295q8 6 17 6t14 -6l88 -135q11 -15 -8 -27l-385 -233q-22 -15 -29 2z" />
<glyph unicode="&#xfb;" horiz-adv-x="1136" d="M178 406l86 534q4 21 23 21h192q9 0 14.5 -6t4.5 -15l-78 -491q-42 -252 164 -252q93 2 171 78t107 217l70 448q4 21 24 21h191q9 0 14 -6t4 -15l-145 -920q-3 -20 -25 -20h-151q-18 0 -21 20l-6 109q-141 -154 -346 -154q-164 2 -244.5 116t-48.5 315zM422 1106l254 280 q13 13 31 13h170q13 0 26 -13l162 -278q9 -18 -10 -18h-178q-14 0 -21 10l-88 162l-135 -160q-12 -12 -27 -12h-178q-19 0 -6 16z" />
<glyph unicode="&#xfc;" horiz-adv-x="1136" d="M178 406l86 534q4 21 23 21h192q9 0 14.5 -6t4.5 -15l-78 -491q-42 -252 164 -252q93 2 171 78t107 217l70 448q4 21 24 21h191q9 0 14 -6t4 -15l-145 -920q-3 -20 -25 -20h-151q-18 0 -21 20l-6 109q-141 -154 -346 -154q-164 2 -244.5 116t-48.5 315zM471 1227 q9 59 49 94t98 35q57 0 87.5 -36t21.5 -93t-49.5 -92t-97.5 -35q-58 0 -88 35t-21 92zM799 1227q9 58 49.5 93.5t99.5 35.5q57 0 86.5 -36t20.5 -93t-50 -92t-98 -35q-58 0 -87.5 35t-20.5 92z" />
<glyph unicode="&#xfd;" horiz-adv-x="1007" d="M133 -458.5q-4 8.5 2 18.5l246 446l-223 928q-3 12 3 19.5t17 7.5h207q22 0 25 -19l131 -649l360 649q9 19 29 19h200q28 0 15 -27l-770 -1383q-7 -18 -29 -18h-196q-13 0 -17 8.5zM528 1098q-6 13 9 28l344 293q20 17 30 0l88 -133q5 -6 2 -15.5t-10 -13.5l-385 -233 q-21 -12 -28 2z" />
<glyph unicode="&#xfe;" horiz-adv-x="1183" d="M47 -446l303 1904q4 21 23 21h184q9 0 14 -6t4 -15l-96 -604q123 129 309 129q218 0 328.5 -138.5t75.5 -363.5t-190 -364.5t-373 -139.5q-184 0 -269 132l-88 -555q0 -9 -6.5 -15t-15.5 -6h-184q-19 0 -19 21zM420 483q-19 -124 44.5 -198t184.5 -74q122 0 207.5 74.5 t104.5 195.5q20 120 -43 195.5t-183 75.5q-121 0 -208 -73.5t-107 -195.5z" />
<glyph unicode="&#xff;" horiz-adv-x="1007" d="M133 -458.5q-4 8.5 2 18.5l246 446l-223 928q-3 12 3 19.5t17 7.5h207q22 0 25 -19l131 -649l360 649q9 19 29 19h200q28 0 15 -27l-770 -1383q-7 -18 -29 -18h-196q-13 0 -17 8.5zM350 1208q9 58 50 93.5t100 35.5q57 0 86 -36t20 -93q-7 -57 -48.5 -93t-98.5 -36 q-58 0 -88 36t-21 93zM680 1208q9 59 49 94t98 35q57 0 86.5 -36t20.5 -93t-50 -93t-98 -36q-58 0 -86.5 35.5t-19.5 93.5z" />
<glyph unicode="&#x152;" horiz-adv-x="1533" d="M186 711q51 319 272 512t537 198h643q22 0 19 -26l-27 -168q-6 -27 -26 -27h-414l-60 -369h318q23 0 20 -20l-28 -176q-3 -21 -25 -21h-317l-64 -393h434q22 0 19 -22l-27 -179q-6 -20 -24 -20h-664q-207 2 -351.5 90t-206.5 249t-28 372zM434 711q-33 -207 64 -331 t295 -138l147 936q-199 -14 -336.5 -138.5t-169.5 -328.5z" />
<glyph unicode="&#x153;" horiz-adv-x="1888" d="M137 483q37 225 196.5 363.5t383.5 138.5q123 0 215 -44.5t145 -127.5q163 166 408 166q106 0 185.5 -28.5t128 -79.5t76 -122t29 -157t-11.5 -184q-4 -21 -26 -21h-725q8 -87 70.5 -138t170.5 -50q147 0 234 73q22 16 33 2l102 -127q14 -14 -4 -28q-148 -139 -410 -139 q-126 -1 -220 43t-146 127q-167 -170 -414 -170q-224 0 -339.5 139t-80.5 364zM371 481q-19 -121 42.5 -195.5t180.5 -74.5q121 0 206.5 74t104.5 198q20 121 -41.5 195t-183.5 74q-120 0 -204.5 -74t-104.5 -197zM1161 561h510q-3 91 -61 145t-160 54q-103 0 -178.5 -53.5 t-110.5 -145.5z" />
<glyph unicode="&#x178;" horiz-adv-x="1239" d="M229 1395q-5 11 0.5 17.5t18.5 6.5h221q17 0 23 -16l253 -621l445 621q13 16 31 16h221q25 0 10 -24l-621 -828l-88 -549q0 -7 -6.5 -12.5t-15.5 -5.5h-205q-18 0 -18 18l88 547zM584 1630q9 59 50 95t99 36q57 0 87 -36.5t20 -94.5q-7 -57 -49 -93t-99 -36 q-58 0 -87.5 36t-20.5 93zM913 1630q9 59 49.5 95t98.5 36q57 0 86 -36t20 -95q-9 -57 -49.5 -93t-97.5 -36q-58 0 -87 35.5t-20 93.5z" />
<glyph unicode="&#x2c6;" horiz-adv-x="761" d="M229 1106l258 287q9 12 31 12h174q15 0 27 -12l166 -285q9 -18 -13 -18h-182q-10 0 -20 10l-88 164l-140 -162q-9 -12 -26 -12h-183q-20 0 -4 16z" />
<glyph unicode="&#x2dc;" horiz-adv-x="770" d="M256 1260q43 87 107.5 137.5t123.5 50.5q38 0 66.5 -15.5t45 -38t31.5 -44.5t34.5 -37.5t44.5 -14.5q70 2 125 103q4 9 12 11.5t12 -3.5l60 -68q8 -8 2 -18q-40 -87 -104.5 -138.5t-125.5 -51.5q-31 0 -56.5 11.5t-41 28.5t-31 36.5t-27.5 36.5t-30 27.5t-39 10.5 q-67 -3 -121 -102q-15 -23 -27 -8l-55 65q-10 6 -6 21z" />
<glyph unicode="&#x2000;" horiz-adv-x="920" />
<glyph unicode="&#x2001;" horiz-adv-x="1841" />
<glyph unicode="&#x2002;" horiz-adv-x="920" />
<glyph unicode="&#x2003;" horiz-adv-x="1841" />
<glyph unicode="&#x2004;" horiz-adv-x="613" />
<glyph unicode="&#x2005;" horiz-adv-x="460" />
<glyph unicode="&#x2006;" horiz-adv-x="306" />
<glyph unicode="&#x2007;" horiz-adv-x="306" />
<glyph unicode="&#x2008;" horiz-adv-x="230" />
<glyph unicode="&#x2009;" horiz-adv-x="368" />
<glyph unicode="&#x200a;" horiz-adv-x="102" />
<glyph unicode="&#x2010;" horiz-adv-x="862" d="M197 518l24 160q7 24 29 24h584q11 0 17 -7t3 -17l-25 -160q-3 -22 -28 -22h-586q-21 0 -18 22z" />
<glyph unicode="&#x2011;" horiz-adv-x="862" d="M197 518l24 160q7 24 29 24h584q11 0 17 -7t3 -17l-25 -160q-3 -22 -28 -22h-586q-21 0 -18 22z" />
<glyph unicode="&#x2012;" horiz-adv-x="862" d="M197 518l24 160q7 24 29 24h584q11 0 17 -7t3 -17l-25 -160q-3 -22 -28 -22h-586q-21 0 -18 22z" />
<glyph unicode="&#x2013;" horiz-adv-x="1185" d="M238 518l24 160q6 21 29 24h823q27 -4 21 -24l-25 -160q-3 -22 -29 -22h-823q-23 0 -20 22z" />
<glyph unicode="&#x2014;" horiz-adv-x="1730" d="M238 518l24 160q2 9 10.5 15.5t18.5 6.5h1370q10 0 16 -6.5t4 -15.5l-24 -160q-3 -24 -29 -24h-1370q-23 0 -20 24z" />
<glyph unicode="&#x2018;" horiz-adv-x="415" d="M207 991q0 132 92.5 281t200.5 203q14 7 28 -7l62 -63q9 -12 -6 -27q-140 -94 -191 -227h6q49 -9 73 -46t15 -91q-9 -65 -54 -104.5t-109 -39.5q-57 0 -88.5 33.5t-28.5 87.5z" />
<glyph unicode="&#x2019;" horiz-adv-x="415" d="M188 960q3 8 11 13q141 97 188 227q-4 0 -6 2q-51 9 -74.5 45t-15.5 92q10 64 56.5 104t109.5 40q59 1 91.5 -32t29.5 -91q0 -132 -93 -280.5t-202 -202.5q-14 -9 -29 6l-64 63q-5 6 -2 14z" />
<glyph unicode="&#x201a;" horiz-adv-x="456" d="M18.5 -279q2.5 8 10.5 13q141 97 188 227q-1 0 -3 1t-3 1q-49 7 -73 44t-15 93q9 64 55 104t109 40q58 0 90 -33.5t29 -89.5q1 -131 -91 -279t-202 -202q-16 -9 -27 6l-66 61q-4 6 -1.5 14z" />
<glyph unicode="&#x201c;" horiz-adv-x="749" d="M205 991q0 132 92.5 281t200.5 203q15 8 30 -7l62 -63q11 -14 -8 -27q-140 -97 -189 -227h6q49 -9 73.5 -46t16.5 -91q-11 -65 -55 -104.5t-108 -39.5q-57 0 -90 33.5t-31 87.5zM541 991q0 132 92.5 281t200.5 203q17 8 28 -7l62 -63q10 -14 -6 -27q-138 -93 -191 -227h6 q49 -9 73.5 -46t16.5 -91q-11 -65 -55.5 -104.5t-108.5 -39.5q-56 0 -88 33t-30 88z" />
<glyph unicode="&#x201d;" horiz-adv-x="782" d="M213 944q-11 15 8 27q142 98 189 227l-4 2q-51 7 -76 44t-17 93q11 63 57 103.5t109 40.5q57 0 89.5 -33.5t29.5 -89.5q0 -131 -92.5 -280t-200.5 -204q-15 -5 -29 9zM547 958q2 8 8 13q139 93 190 227q-1 0 -3 1t-3 1q-49 7 -73.5 44t-16.5 93q11 65 55.5 104t110.5 40 q57 0 88.5 -33.5t28.5 -89.5q1 -130 -91.5 -279t-201.5 -205q-15 -5 -29 9l-61 61q-4 6 -2 14z" />
<glyph unicode="&#x201e;" horiz-adv-x="790" d="M20 -297q-10 14 9 27q141 97 188 227h-4q-51 9 -75.5 46t-16.5 91q11 65 56 104.5t108 39.5q57 0 90.5 -33.5t30.5 -87.5q0 -132 -92.5 -281t-200.5 -203q-17 -9 -29 7zM356 -297q-10 14 6 27q140 94 191 227h-6q-49 9 -73.5 46t-16.5 91q11 65 55.5 104.5t108.5 39.5 q57 0 89 -33.5t29 -87.5q1 -132 -91.5 -281t-201.5 -203q-17 -8 -28 7z" />
<glyph unicode="&#x2022;" horiz-adv-x="768" d="M180 662q23 139 121 223t236 84q140 0 212.5 -84t49.5 -223q-22 -138 -122 -224t-239 -86q-138 0 -209 86t-49 224z" />
<glyph unicode="&#x2026;" horiz-adv-x="1617" d="M147 123q9 64 55 103.5t111 39.5q63 0 95.5 -39t23.5 -104q-11 -63 -57 -103t-109 -40q-64 0 -97 40t-22 103zM690 123q9 64 54 103.5t110 39.5q63 0 95.5 -39t23.5 -104q-11 -63 -57 -103t-109 -40q-64 0 -96 39.5t-21 103.5zM1227 123q9 64 55 103.5t109 39.5 q64 0 96.5 -39t23.5 -104q-10 -63 -57.5 -103t-110.5 -40q-64 0 -95.5 39.5t-20.5 103.5z" />
<glyph unicode="&#x202f;" horiz-adv-x="368" />
<glyph unicode="&#x2039;" horiz-adv-x="698" d="M203 528l4 33q6 26 24 41l344 313q23 19 39 0l86 -102q15 -19 -6 -37l-260 -231l187 -232q15 -15 -7 -37l-116 -100q-10 -9 -21.5 -9t-17.5 9l-246 311q-13 18 -10 41z" />
<glyph unicode="&#x203a;" horiz-adv-x="698" d="M174 276q-13 20 4 37l260 232l-186 231q-13 19 8 37l117 102q22 19 41 0l246 -313q13 -22 8 -41l-4 -33q-3 -21 -23 -41l-344 -311q-22 -19 -43 -2z" />
<glyph unicode="&#x205f;" horiz-adv-x="460" />
<glyph unicode="&#x20ac;" horiz-adv-x="1273" d="M154 467l12 82q3 11 11.5 18t17.5 6h135q8 92 16 138v4h-129q-23 0 -20 26l14 80q1 12 9.5 19.5t19.5 7.5h135q69 270 226 431t355 161q143 0 240.5 -87.5t134.5 -244.5q4 -21 -14 -31l-187 -104q-25 -12 -28 10q-24 114 -66.5 168.5t-117.5 54.5q-92 0 -171 -97 t-124 -261h211q12 0 17.5 -7.5t2.5 -19.5l-14 -80q-3 -26 -29 -26h-219v-4q-10 -61 -14 -138h210q13 1 18.5 -6t2.5 -18l-12 -82q-3 -27 -29 -27h-186q14 -107 59.5 -167t118.5 -60q127 0 237 184q14 25 33 9l148 -105q16 -8 2 -29q-86 -138 -203 -214t-250 -76 q-172 0 -276.5 122.5t-118.5 335.5h-158q-23 0 -20 27z" />
<glyph unicode="&#x2122;" horiz-adv-x="1400" d="M287 1307l14 92q4 22 25 22h473q19 0 16 -20l-14 -92q-3 -21 -23 -21h-155l-76 -473q-3 -20 -25 -20h-123q-19 0 -16 20l76 473h-154q-21 0 -18 19zM774 811l90 575q7 31 37 31h107q21 0 24 -18l113 -307l211 309q13 16 33 16h124q20 0 17 -20l-92 -586q-3 -20 -25 -20 h-121q-19 0 -16 20l49 315l-151 -223q-11 -18 -33 -18h-47q-20 0 -27 18l-80 219l-49 -311q-3 -20 -25 -20h-122q-20 0 -17 20z" />
<glyph unicode="&#x25fc;" horiz-adv-x="962" d="M0 0v963h963v-963h-963z" />
</font>
</defs>
</svg>
