<?xml version="1.0" standalone="no"?>
<!DOCTYPE svg PUBLIC "-//W3C//DTD SVG 1.1//EN" "http://www.w3.org/Graphics/SVG/1.1/DTD/svg11.dtd" >
<svg xmlns="http://www.w3.org/2000/svg" xmlns:xlink="http://www.w3.org/1999/xlink" version="1.1">
<metadata></metadata>
<defs>
<font id="ageolight_italic" horiz-adv-x="1116" >
<font-face units-per-em="2048" ascent="1556" descent="-492" />
<missing-glyph horiz-adv-x="512" />
<glyph unicode="&#xfb01;" horiz-adv-x="1054" d="M147 848l7 41q3 18 20 18h180l41 260q55 334 379 334q67 0 121.5 -20t85.5 -47t53.5 -61t30 -55t10.5 -36q3 -13 -6 -20l-53 -39q-13 -10 -17 6q-58 188 -237 188q-118 0 -189.5 -60.5t-95.5 -199.5l-37 -250h559q10 0 14 -3.5t3 -12.5l-139 -873q-3 -18 -19 -18h-51 q-17 0 -14 18l129 811h-494l-129 -811q-3 -18 -20 -18h-50q-17 0 -14 18l127 811h-180q-18 0 -15 19z" />
<glyph unicode="&#xfb02;" horiz-adv-x="1054" d="M145 846l9 43q3 18 18 18h180l41 260q25 154 127 243.5t252 88.5q29 0 57.5 -2.5t51.5 -5.5t48.5 -8.5t42 -10t38 -11.5t30.5 -10t26 -9.5t19 -7.5q13 -2 13 -27l-221 -1389q-3 -20 -19 -20h-49q-19 0 -16 20l211 1342q-124 55 -242 55q-241 0 -285 -260l-39 -248h260 q18 0 15 -16l-8 -45q-3 -17 -19 -17h-260l-129 -813q-3 -16 -18 -16h-50q-19 0 -16 16l127 813h-180q-15 0 -15 17z" />
<glyph unicode="&#xfb03;" horiz-adv-x="1665" d="M147 848l7 41q3 18 20 18h180l41 260q27 161 101.5 247.5t191.5 86.5q96 0 191 -74q11 -11 0 -24l-35 -45q-12 -12 -25 -2q-68 61 -141 61q-77 0 -127 -60.5t-74 -199.5l-37 -250h525l41 260q52 334 378 334q67 0 122 -20t86 -47t53.5 -61t30 -55t10.5 -36q3 -13 -7 -20 l-53 -39q-12 -9 -16 6q-6 19 -12.5 35t-25.5 47t-42.5 52t-65.5 37.5t-92 16.5q-118 0 -189.5 -60.5t-95.5 -199.5l-36 -250h559q19 0 16 -18l-139 -871q-3 -18 -19 -18h-51q-17 0 -14 18l129 811h-494l-129 -811q-3 -18 -20 -18h-49q-18 0 -15 18l127 811h-524l-129 -811 q-3 -18 -20 -18h-50q-17 0 -14 18l127 811h-180q-18 0 -15 19z" />
<glyph unicode="&#xfb04;" horiz-adv-x="1665" d="M147 848l7 41q3 18 20 18h180l41 260q27 161 101.5 247.5t191.5 86.5q96 0 191 -74q11 -11 0 -24l-35 -45q-12 -12 -25 -2q-68 61 -141 61q-77 0 -127 -60.5t-74 -199.5l-37 -250h523l41 260q25 154 127 243.5t251 88.5q55 0 111.5 -9t86 -17.5t72.5 -23.5t44 -15 q16 -3 12 -27l-221 -1389q-3 -20 -19 -20h-49q-19 0 -16 20l211 1342q-124 55 -242 55q-241 0 -285 -260l-38 -248h258q19 0 16 -16l-8 -45q-3 -18 -21 -15h-258l-127 -815q-3 -16 -20 -16h-49q-9 0 -13.5 4.5t-3.5 11.5l127 815l-522 -2l-129 -811q-3 -18 -20 -18h-50 q-17 0 -14 18l127 811h-180q-18 0 -15 19z" />
<glyph horiz-adv-x="0" />
<glyph horiz-adv-x="682" />
<glyph horiz-adv-x="0" />
<glyph horiz-adv-x="0" />
<glyph unicode="&#xd;" horiz-adv-x="0" />
<glyph unicode=" "  horiz-adv-x="512" />
<glyph unicode="&#x09;" horiz-adv-x="512" />
<glyph unicode="&#xa0;" horiz-adv-x="512" />
<glyph unicode="!" horiz-adv-x="516" d="M184 66q6 36 33 58.5t64 22.5q38 0 57.5 -22t13.5 -59q-6 -38 -33 -62t-65 -24q-37 0 -56.5 24t-13.5 62zM276 403l154 1000q3 18 23 18h63q15 -2 12 -18l-161 -1000q-3 -18 -19 -18h-55q-20 0 -17 18z" />
<glyph unicode="&#x22;" horiz-adv-x="780" d="M258 944q-6 14 8 25q71 48 135 129.5t80 169.5q-8 -4 -16 -4q-39 0 -59.5 25t-14.5 65t34.5 65t68.5 25q64 0 73 -55q16 -75 -22 -173t-105.5 -179.5t-140.5 -123.5q-18 -9 -25 5zM571 942q-9 15 9 27q70 48 134 130t81 169q-12 -4 -17 -4q-40 0 -61 25t-15 65t35.5 65 t69.5 25q65 0 74 -55q16 -75 -22.5 -173t-107 -179.5t-141.5 -123.5q-13 -8 -22 5z" />
<glyph unicode="#" horiz-adv-x="1335" d="M156 459l24 45q6 13 29 16h209l153 363h-241q-10 0 -13 2.5t2 13.5l21 45q8 17 29 17h235l187 442q6 18 26 18h49q18 -3 11 -18l-187 -442h367l186 442q9 18 29 18h47q18 0 12 -18l-186 -442h244q21 0 12 -21l-21 -39q-12 -18 -28 -18h-242l-152 -363h269q24 0 12 -18 l-22 -45q-9 -17 -29 -17h-264l-176 -420q-7 -20 -27 -20h-51q-19 0 -8 20l176 420h-367l-178 -420q-7 -20 -25 -20h-53q-17 0 -8 20l178 420h-215q-22 0 -14 19zM504 520h366l154 363h-367z" />
<glyph unicode="$" horiz-adv-x="1146" d="M125 150q-14 14 0 28l39 51q12 14 26 0q18 -20 43.5 -40.5t69.5 -46.5t109.5 -44.5t140.5 -23.5l92 583q-221 60 -307 149.5t-66 242.5q20 158 160.5 268.5t335.5 120.5l10 61q3 19 19 19h37q18 0 18 -19l-10 -61q77 -3 141.5 -18.5t106 -39t64.5 -41t40 -36.5 q9 -9 2 -27l-37 -57q-10 -14 -22 -2q-119 119 -310 131l-96 -605q227 -62 314.5 -143.5t68.5 -220.5q-23 -172 -154 -282t-350 -117l-28 -191q-3 -18 -25 -18h-35q-17 0 -14 18l31 193q-90 4 -166.5 24.5t-126 49.5t-76.5 51t-45 43zM367 1055q-9 -59 2.5 -101.5t49.5 -76.5 t95 -59.5t148 -53.5l92 584q-150 -9 -259 -91t-128 -202zM627 72q158 4 264.5 82t128.5 202q17 108 -51.5 169.5t-253.5 113.5z" />
<glyph unicode="%" horiz-adv-x="1589" d="M256 1124q23 143 123 229.5t242 86.5q141 0 214 -87t50 -229q-23 -141 -122.5 -227t-240.5 -86q-143 0 -216 86t-50 227zM346 1124q-15 -100 37 -161.5t152 -61.5q101 0 172 61t88 162q15 101 -37.5 163.5t-153.5 62.5q-100 0 -171.5 -62.5t-86.5 -163.5zM381 23 l1040 1441q11 15 23 15h61q24 0 8 -23l-1042 -1442q-14 -14 -25 -14h-63q-21 0 -2 23zM961 295q22 141 122 228t242 87q141 0 213.5 -87t50.5 -228q-23 -141 -123 -228t-241 -87q-142 0 -214.5 87t-49.5 228zM1051 295q-15 -100 36.5 -161.5t151.5 -61.5q101 0 172 61 t88 162q15 101 -37 163t-153 62q-100 0 -171.5 -62t-86.5 -163z" />
<glyph unicode="&#x26;" horiz-adv-x="1390" d="M160 428q23 140 113.5 237.5t230.5 139.5q-61 74 -91 145t-16 160q25 153 131 241.5t263 88.5q99 0 167.5 -40t94.5 -116q6 -19 -9 -27l-55 -34q-16 -9 -22 6q-11 24 -23 42t-34.5 38.5t-59 31.5t-84.5 11q-108 0 -184.5 -66t-96.5 -182q-6 -37 2.5 -76.5t23 -69.5 t43.5 -68.5t50 -62t56 -60.5q8 -8 11.5 -12t9.5 -10.5t11 -11.5l393 -432q139 185 185 455q3 18 22 18h58q17 0 14 -18q-56 -318 -217 -523l192 -213q20 -20 -12 -20h-67q-21 0 -35 14l-138 152q-196 -199 -450 -199q-247 0 -378.5 129t-98.5 332zM252 428 q-26 -164 83.5 -267.5t313.5 -103.5q212 0 379 172q-145 161 -471 514q-119 -30 -203 -115t-102 -200z" />
<glyph unicode="'" horiz-adv-x="468" d="M250 942q-11 14 8 27q71 49 135 130.5t80 168.5q-8 -4 -18 -4q-40 0 -61 25t-15 65q8 40 36.5 65t67.5 25q31 0 51.5 -14.5t24.5 -40.5q12 -57 -7.5 -129t-59.5 -137t-94.5 -122t-110.5 -88q-12 -9 -21 5z" />
<glyph unicode="(" horiz-adv-x="618" d="M211 288.5q0 127.5 20 256.5q20 123 60.5 249t82 217t92 180.5t79.5 132.5t55 79q14 18 35 18h53q20 0 6 -18q-28 -38 -56 -79t-80 -132t-93.5 -181.5t-82.5 -216.5t-60 -249q-21 -128 -21 -257t12.5 -217.5t37 -178t39.5 -127t32 -76.5q7 -17 -10 -17h-58q-20 0 -24 19 q-16 32 -32 74.5t-39 128t-35.5 176.5t-12.5 218.5z" />
<glyph unicode=")" horiz-adv-x="618" d="M94.5 -323q-2.5 5 3.5 12q29 37 57 76t80.5 127.5t93.5 178t82 217.5t60 257q20 123 19.5 249t-13.5 217t-37 181t-39.5 132t-31.5 79q-3 8 1 13t13 5h51q22 0 29 -18q15 -35 31 -78.5t38.5 -132.5t35 -181t13 -217.5t-19.5 -248.5q-25 -158 -77 -309.5t-114.5 -264.5 t-101.5 -173.5t-75 -106.5q-15 -19 -29 -19h-58q-9 0 -11.5 5z" />
<glyph unicode="*" horiz-adv-x="946" d="M311 1171l35 50q16 16 29 6l227 -162l43 334q3 18 25 18h59q19 0 16 -18l-63 -334l281 162q15 11 22 -6l25 -50q7 -17 -11 -24l-303 -158l162 -229q8 -13 -6 -27l-47 -37q-20 -16 -27 0l-153 252l-234 -252q-15 -15 -26 0l-35 37q-12 12 0 27l231 229l-248 158 q-19 7 -2 24z" />
<glyph unicode="+" horiz-adv-x="1124" d="M205 569l8 52q3 20 23 20h382l60 385q3 18 22 18h56q17 0 14 -18l-59 -385h383q17 0 14 -18l-8 -50q-3 -18 -21 -18h-383l-61 -387q-3 -18 -21 -18h-55q-19 0 -16 18l61 387h-383q-10 0 -13.5 3t-2.5 11z" />
<glyph unicode="," horiz-adv-x="497" d="M63 -291q-10 12 9 27q71 48 135 129.5t80 169.5q-8 -4 -19 -4q-39 0 -59 25t-14 65q8 41 35 65.5t67 24.5q31 0 51.5 -14.5t24.5 -40.5q16 -75 -22 -172t-106.5 -179t-142.5 -124q-15 -9 -22 6z" />
<glyph unicode="-" horiz-adv-x="813" d="M207 575l6 52q3 18 20 18h549q18 0 15 -18l-6 -52q-3 -18 -23 -18h-549q-15 0 -12 18z" />
<glyph unicode="." horiz-adv-x="538" d="M193 80q6 41 34 66.5t68 25.5t61 -25.5t15 -66.5q-6 -39 -35.5 -63.5t-69.5 -24.5t-59.5 24t-13.5 64z" />
<glyph unicode="/" horiz-adv-x="759" d="M25 18l852 1442q13 19 28 19h53q20 0 11 -19l-852 -1442q-9 -18 -27 -18h-57q-17 0 -8 18z" />
<glyph unicode="0" horiz-adv-x="1222" d="M229 711q53 327 221 528t390 201q147 0 245 -91t133.5 -256.5t0.5 -381.5q-53 -329 -219.5 -529t-389.5 -200t-328 200.5t-53 528.5zM319.5 375q25.5 -142 105.5 -222.5t200 -80.5q180 0 317.5 176t183.5 463t-37.5 463t-263.5 176q-181 0 -319 -175.5t-184 -463.5 q-28 -194 -2.5 -336z" />
<glyph unicode="1" horiz-adv-x="638" d="M379 1354l6 49q3 18 23 18h272q19 -3 16 -22l-217 -1381q-3 -18 -20 -18h-58q-17 0 -14 18l207 1317h-201q-17 0 -14 19z" />
<glyph unicode="2" horiz-adv-x="1124" d="M143 7q-2 7 7 18q44 46 242.5 249t375.5 382l176 180q11 12 28.5 32.5t50 78.5t40.5 110q22 133 -45.5 214t-198.5 81q-93 0 -182 -42t-158 -116q-12 -15 -24 0l-29 41q-13 16 4 29q172 176 401 176q171 0 261 -105.5t61 -277.5q-8 -48 -27 -96t-40 -81.5t-41 -60 t-33 -39.5l-13 -14q-354 -354 -673 -680h678q17 0 14 -16l-8 -54q-3 -16 -21 -16h-745h-21h-65q-13 0 -15 7z" />
<glyph unicode="3" d="M174 362q3 19 21 19h57q17 0 14 -19q-12 -137 70 -221t229 -84q156 0 269.5 96t136.5 246q20 130 -51.5 213.5t-208.5 87.5l-136 -2q-19 0 -16 19l8 43q3 16 21 16h106q133 -1 225.5 76.5t112.5 204.5q20 132 -47 213.5t-197 81.5q-180 0 -339 -156q-13 -17 -25 -2 l-31 41q-10 13 6 29q172 176 402 176q171 0 260 -105t61 -278q-18 -115 -81 -196t-160 -120q106 -39 154 -127.5t28 -214.5q-31 -190 -172.5 -311t-339.5 -121q-192 0 -294.5 108t-82.5 287z" />
<glyph unicode="4" horiz-adv-x="1253" d="M172 327.5q-3 8.5 6 18.5l854 1057q14 18 35 18l80 -2q9 1 13.5 -5t2.5 -15l-157 -993h176q19 0 16 -17l-8 -53q-3 -17 -21 -17h-176l-49 -301q-3 -18 -20 -18h-58q-17 0 -14 18l49 301h-643h-10h-60q-13 0 -16 8.5zM324 406h589l144 899z" />
<glyph unicode="5" d="M174 362q3 19 19 19h59q16 0 16 -19q-13 -140 68 -222.5t229 -82.5q157 0 270 101.5t138 261.5q26 158 -59 258t-248 100q-89 0 -159 -37t-136 -96h-66q-18 0 -18 21l168 733q7 22 28 22h627q18 0 14 -18l-6 -47q-3 -21 -22 -21h-568l-131 -573q141 106 285 106 q203 0 309 -124.5t74 -323.5q-31 -199 -173.5 -326t-340.5 -127q-192 0 -294.5 108t-82.5 287z" />
<glyph unicode="6" horiz-adv-x="1103" d="M182 412q13 97 62 182q61 99 250 406t251 405q10 16 27 16h62q22 0 6 -28l-377 -609q105 58 223 58q197 0 297.5 -117t69.5 -313q-31 -195 -169.5 -315t-334.5 -120q-195 0 -296.5 120t-70.5 315zM270 412q-25 -157 55.5 -251.5t237.5 -94.5q154 0 265.5 96t136.5 250 q25 157 -55.5 252.5t-235.5 95.5q-153 0 -266 -97t-138 -251z" />
<glyph unicode="7" horiz-adv-x="989" d="M274 1354l7 49q3 18 22 18h830q27 0 14 -30l-737 -1373q-9 -18 -27 -18h-68q-17 0 -8 18l709 1317h-727q-18 0 -15 19z" />
<glyph unicode="8" horiz-adv-x="1148" d="M180 397q20 129 107 224.5t221 138.5q-85 40 -124 121t-22 186q26 167 147.5 270t291.5 103q172 0 261.5 -103t63.5 -270q-17 -105 -81.5 -186t-161.5 -121q118 -43 175 -139t38 -224q-31 -189 -175.5 -303t-351.5 -114q-206 0 -313 115t-76 302zM272 399 q-23 -148 63.5 -238.5t250.5 -90.5t279.5 90.5t138.5 238.5q22 140 -65 230t-249 90t-279 -90t-139 -230zM453 1067q-20 -118 49 -196t198 -78t222 77.5t114 196.5q20 129 -47 207t-198 78q-132 0 -225 -78t-113 -207z" />
<glyph unicode="9" horiz-adv-x="1103" d="M276 1006q31 195 169 314.5t333 119.5t297.5 -119.5t71.5 -314.5q-17 -107 -90 -226l-475 -764q-11 -16 -29 -16h-59q-26 0 -9 27l379 604q-103 -56 -221 -56q-195 0 -296.5 118t-70.5 313zM367 1008q-25 -157 54 -253t234 -96t267 97t137 252t-55.5 250.5t-237.5 95.5 q-153 0 -263.5 -96t-135.5 -250z" />
<glyph unicode=":" horiz-adv-x="487" d="M160 76q6 42 36.5 68t73.5 26t65.5 -25.5t16.5 -68.5q-6 -41 -36.5 -67.5t-73.5 -26.5t-65.5 26.5t-16.5 67.5zM291 903q6 41 36.5 66.5t73.5 25.5t65.5 -25.5t16.5 -66.5q-6 -43 -36.5 -69.5t-73.5 -26.5t-65.5 26.5t-16.5 69.5z" />
<glyph unicode=";" horiz-adv-x="522" d="M70 -291q-7 12 8 27q71 48 135 129.5t80 169.5q-8 -4 -17 -4q-39 0 -59 25t-14 65q6 41 34 65.5t68 24.5q63 0 76 -55q16 -74 -22.5 -171.5t-106.5 -179.5t-141 -124q-15 -7 -25 6zM311 903q7 41 38.5 66.5t74.5 25.5t64.5 -25.5t13.5 -66.5q-6 -43 -36 -69.5t-73 -26.5 t-65.5 26.5t-16.5 69.5z" />
<glyph unicode="&#x3c;" horiz-adv-x="1103" d="M170 578l12 75q0 15 23 27l975 424q10 4 16 1.5t4 -11.5l-10 -64q-2 -15 -25 -26l-917 -390l792 -397q20 -12 17 -27l-10 -63q-3 -20 -23 -10l-840 434q-17 7 -14 27z" />
<glyph unicode="=" horiz-adv-x="1073" d="M225 440l8 54q3 16 21 16h725q19 0 16 -16l-8 -54q-3 -18 -20 -18h-725q-20 0 -17 18zM276 762l9 53q3 19 20 19h725q20 0 17 -19l-9 -53q-3 -17 -20 -17h-725q-20 0 -17 17z" />
<glyph unicode="&#x3e;" horiz-adv-x="1103" d="M98 127l11 63q3 17 22 27l920 397l-795 390q-17 10 -14 26l10 64q1 9 6.5 12t11.5 -2l844 -424q16 -10 16 -27l-12 -75q-3 -20 -24 -27l-979 -434q-8 -5 -13 -2t-4 12z" />
<glyph unicode="?" horiz-adv-x="1030" d="M324 1233q-11 14 4 29q175 178 403 178q173 0 264.5 -105.5t63.5 -277.5q-12 -75 -42.5 -137.5t-69.5 -106.5t-83.5 -83t-90 -74.5t-84 -71.5t-69 -84t-42.5 -103q-3 -18 -21 -18h-63q-19 0 -13 18q13 65 44 120.5t71 94.5t86 75.5t91.5 73t84.5 76.5t68 96.5t39 123.5 q20 132 -47.5 213.5t-196.5 81.5q-189 0 -342 -156q-12 -15 -23 -2zM397 66q6 38 34 61t67 23q38 0 56.5 -23t12.5 -61t-33 -62t-65 -24t-58 24t-14 62z" />
<glyph unicode="@" horiz-adv-x="1855" d="M217 633q38 239 172.5 422.5t344 284t462.5 100.5q226 0 386 -94t230.5 -266.5t34.5 -397.5q-28 -177 -133 -289t-248 -117q-165 0 -196 148q-55 -89 -142 -138.5t-196 -49.5q-163 0 -246 109.5t-57 285.5q28 177 146 285t282 108q98 0 166.5 -41.5t99.5 -116.5l29 107 q8 12 16 12h43q6 0 9 -3.5t1 -8.5l-65 -418q-17 -93 17.5 -145t115.5 -52q100 0 175.5 89.5t98.5 234.5q30 196 -33 349t-205.5 237t-340.5 84q-226 0 -414.5 -89.5t-309.5 -252.5t-155 -375q-25 -159 9 -293t119 -227t219.5 -145t303.5 -52q139 0 266 48t222 130 q20 13 31 2l30 -43q12 -12 -6 -26q-238 -199 -557 -199q-253 0 -431 100t-255 282.5t-39 420.5zM717 629q-25 -137 41.5 -221t197.5 -84q130 0 215.5 87.5t106.5 221.5q21 133 -39 218t-186 85q-130 0 -222 -84.5t-114 -222.5z" />
<glyph unicode="A" horiz-adv-x="1320" d="M29 23l792 1378q12 18 29 18h70q17 0 20 -18l358 -1378q4 -11 0.5 -17.5t-14.5 -5.5h-63q-14 0 -17 12l-121 467h-696l-266 -465q-11 -14 -21 -14h-63q-21 0 -8 23zM436 563h627l-195 752z" />
<glyph unicode="B" horiz-adv-x="1230" d="M195 20l217 1379q3 22 26 22h379q209 -1 318 -91q90 -75 90 -193q0 -25 -4 -52q-15 -103 -87.5 -181t-189.5 -118q142 -37 210 -133q53 -74 52 -176q0 -30 -4 -63q-26 -186 -171 -300t-357 -114h-463q-19 0 -16 20zM295 84l385 2q171 0 289 90t141 238q4 28 4 54 q0 104 -67 178q-84 92 -246 93l-402 -2zM412 809q253 0 333 2q159 0 261.5 77t121.5 195q3 21 3 40q0 88 -71 144q-87 68 -257 68h-309z" />
<glyph unicode="C" horiz-adv-x="1419" d="M207 709q27 169 106.5 308.5t192.5 231t252.5 141.5t288.5 50q143 0 269 -49t212 -142q8 -11 -4 -26l-45 -35q-15 -12 -27 0q-157 162 -420 162q-283 0 -484 -176t-247 -465q-11 -69 -11 -131q0 -198 110 -331q146 -175 429 -177q262 2 474 161q15 12 24 0l37 -36 q10 -14 -6 -27q-227 -188 -543 -188q-160 0 -286.5 53.5t-206 148.5t-110.5 231q-17 74 -17 155q0 68 12 141z" />
<glyph unicode="D" horiz-adv-x="1398" d="M193 20l219 1381q3 20 24 20h365q329 0 497 -194q129 -149 129 -373q0 -68 -12 -143q-51 -323 -281 -517t-559 -194h-364q-18 0 -18 20zM297 86h293q289 0 489 170t246 455q10 65 10 124q1 201 -113 331q-146 169 -436 169l-292 2z" />
<glyph unicode="E" horiz-adv-x="1067" d="M195 20l217 1381q3 20 24 20h740q19 0 14 -18l-6 -51q-3 -17 -21 -17h-669l-91 -567h572q19 0 16 -16l-8 -54q-3 -16 -20 -16h-572l-94 -596h688q17 0 14 -16l-8 -54q-3 -16 -20 -16h-760q-19 0 -16 20z" />
<glyph unicode="F" horiz-adv-x="1028" d="M195 20l217 1379q3 22 26 22h740q17 0 14 -18l-6 -49q-3 -19 -25 -19h-667l-91 -567h572q19 0 16 -18l-8 -50q-3 -18 -20 -18h-572l-104 -662q-6 -20 -23 -20h-55q-17 0 -14 20z" />
<glyph unicode="G" horiz-adv-x="1552" d="M207 711q53 327 285.5 528t560.5 201q299 0 475 -189q10 -14 -2 -24l-47 -39q-15 -12 -27 0q-152 162 -414 162q-287 0 -490 -176t-247 -463q-11 -71 -11 -135q0 -196 105 -328q140 -176 414 -176q260 0 428.5 146.5t230.5 418.5h-524q-17 0 -14 18l6 50q3 18 22 18h594 q9 0 13.5 -5.5t1.5 -12.5q-59 -347 -259 -535t-510 -188h-3q-209 0 -354.5 90.5t-206.5 255.5q-40 106 -40 232q0 72 13 151z" />
<glyph unicode="H" horiz-adv-x="1380" d="M193 18l219 1385q3 18 22 18h58q15 0 12 -18l-101 -635h816l100 635q3 18 22 18h58q15 0 12 -18l-219 -1385q-3 -18 -21 -18h-57q-17 0 -14 18l106 664h-815l-106 -664q-3 -18 -21 -18h-55q-19 0 -16 18z" />
<glyph unicode="I" horiz-adv-x="473" d="M193 16l221 1387q0 18 20 18h55q17 0 17 -18l-221 -1387q-3 -16 -21 -16h-55q-19 0 -16 16z" />
<glyph unicode="J" horiz-adv-x="798" d="M53 96q-8 6 0 25l37 47q14 17 27 4q115 -100 211 -102q195 3 241 249l168 1084q3 18 23 18h55q17 0 14 -18l-167 -1086q-23 -155 -117.5 -245.5t-235.5 -91.5q-59 1 -116.5 25t-86.5 45.5t-53 45.5z" />
<glyph unicode="K" horiz-adv-x="1122" d="M193 16l219 1387q3 18 22 18h55q18 0 15 -18l-107 -676l750 682q16 12 27 12h77q10 0 13 -3t0.5 -8t-9.5 -11l-759 -688l604 -688q19 -23 -13 -23h-83q-18 0 -25 10l-586 684l-108 -678q-3 -16 -21 -16h-55q-19 0 -16 16z" />
<glyph unicode="L" horiz-adv-x="923" d="M193 18l219 1385q3 18 22 18h55q18 0 15 -18l-209 -1317h563q19 0 16 -18l-8 -52q-3 -16 -20 -16h-637q-19 0 -16 18z" />
<glyph unicode="M" horiz-adv-x="1769" d="M195 25l217 1372q3 24 26 24h60q15 0 20 -16l410 -1102l770 1104q11 14 24 14h64q17 0 14 -20l-219 -1383q-3 -18 -20 -18h-56q-20 0 -14 20l192 1217l-712 -1008q-10 -13 -25 -16h-63q-12 0 -19 14l-385 1008l-192 -1215q-3 -20 -23 -20h-51q-22 0 -18 25z" />
<glyph unicode="N" horiz-adv-x="1484" d="M193 18l219 1383q3 20 24 20h74q12 0 22 -14l691 -1274l200 1270q3 18 23 18h57q16 0 13 -18l-220 -1383q0 -9 -6.5 -14.5t-15.5 -5.5h-76q-16 0 -22 12l-691 1270l-200 -1264q-3 -18 -21 -18h-55q-19 0 -16 18z" />
<glyph unicode="O" horiz-adv-x="1648" d="M207 711q53 327 285.5 528t560.5 201q217 0 368 -91t215 -257q41 -107 41 -235q0 -70 -12 -146q-53 -329 -283.5 -529t-558.5 -200q-329 0 -499 200q-130 153 -129 382q0 70 12 147zM301 711q-11 -68 -11 -130q0 -199 114 -333q148 -176 434 -176q285 0 487 175.5 t248 463.5q11 68 11 130q0 199 -112 333q-148 176 -434 176q-287 0 -490 -176t-247 -463z" />
<glyph unicode="P" horiz-adv-x="1153" d="M193 18l219 1381q3 22 24 22h424q210 0 316 -108q83 -85 83 -220q0 -36 -6 -75q-32 -188 -172.5 -297t-349.5 -109h-350l-96 -594q-3 -18 -21 -18h-55q-19 0 -16 18zM395 698h355q168 0 277 85.5t132 232.5q5 32 5 61q0 105 -64 173q-82 86 -246 85h-4h-354z" />
<glyph unicode="Q" horiz-adv-x="1648" d="M207 711q53 327 285.5 528t560.5 201q217 0 368 -91t215 -257q41 -106 41 -235q0 -70 -12 -146q-38 -244 -181 -422.5t-356 -255.5l355 -219q13 -10 2 -25l-41 -51q-14 -14 -27 -2l-407 264q-88 -18 -187 -18q-329 0 -499 200q-129 154 -129 382q0 70 12 147zM301 711 q-11 -68 -11 -130q0 -199 114 -333q148 -176 434 -176q285 0 487 175.5t248 463.5q11 68 11 130q0 199 -112 333q-148 176 -434 176q-287 0 -489 -175.5t-248 -463.5z" />
<glyph unicode="R" horiz-adv-x="1148" d="M193 18l219 1383q3 20 24 20h402q211 0 317 -108q84 -85 84 -220q0 -36 -6 -75q-31 -177 -157.5 -284.5t-315.5 -119.5l289 -591q9 -23 -15 -23h-78q-13 0 -16 10l-283 602h-276l-94 -594q-3 -18 -21 -18h-57q-19 0 -16 18zM395 698h332q169 0 278 85.5t132 232.5 q5 32 5 62q0 105 -64 172q-81 85 -247 85h-4h-331z" />
<glyph unicode="S" horiz-adv-x="1157" d="M129 178l39 49q13 19 29 0q20 -22 49 -44t78.5 -49.5t124 -45t159.5 -18.5q169 0 281.5 78.5t134.5 207.5q3 21 3 41q1 87 -65 139q-80 62 -305 119q-227 59 -313 149q-69 71 -69 184q0 29 4 61q22 168 175 280q152 111 357 111h4q84 -1 154.5 -16.5t116 -40t70.5 -43 t42 -37.5q11 -11 4 -27l-37 -55q-10 -15 -26 -2q-129 129 -348 129q-160 0 -279 -83.5t-139 -209.5q-8 -28 -5 -53.5t6 -46.5t16.5 -40t28.5 -35t40 -31.5t51.5 -28t64 -26t76 -25.5t88.5 -26q223 -61 310 -143q72 -68 72 -175q0 -22 -3 -46q-21 -179 -161 -289 q-139 -110 -371 -110h-4q-99 1 -183.5 21t-138 51t-82.5 54.5t-47 45.5q-14 11 -2 26z" />
<glyph unicode="T" horiz-adv-x="1091" d="M233 1354l7 49q3 18 22 18h1018q17 0 14 -18l-6 -49q-3 -19 -22 -19h-463l-209 -1319q-3 -16 -19 -16h-57q-19 0 -16 16l209 1319h-463q-18 0 -15 19z" />
<glyph unicode="U" horiz-adv-x="1392" d="M279 557l133 844q3 18 22 18h55q18 0 15 -18l-133 -846q-10 -64 -10 -120q0 -143 66 -235q92 -128 282 -128q188 0 319.5 127.5t167.5 355.5l133 848q3 16 23 16h57q17 0 14 -16l-133 -848q-42 -268 -204.5 -420.5t-391.5 -152.5h-6q-227 0 -338 151q-82 112 -82 286 q0 65 11 138z" />
<glyph unicode="V" horiz-adv-x="1284" d="M248 1395q-6 24 16 24h70q11 0 18 -14l310 -1294l716 1294q7 14 23 14h69q19 0 7 -24l-777 -1377q-9 -18 -26 -18h-66q-16 0 -22 18z" />
<glyph unicode="W" horiz-adv-x="1746" d="M248 1399q-3 22 16 22h62q14 0 18 -14l158 -1257l540 1255q2 6 9 11t14 5h65q15 0 19 -16l143 -1260l557 1262q5 14 21 14h63q18 0 9 -22l-621 -1383q-10 -16 -27 -16h-53q-19 0 -22 16l-142 1274l-547 -1274q-6 -16 -22 -16h-55q-20 0 -23 16z" />
<glyph unicode="X" horiz-adv-x="1153" d="M33 20l596 687l-363 694q-11 20 15 20h77q17 0 23 -12l315 -623l541 621q6 12 27 12h71q26 0 11 -18l-609 -694l361 -689q9 -18 -15 -18h-77q-15 0 -21 12l-315 617l-529 -617q-12 -12 -28 -12h-72q-25 0 -8 20z" />
<glyph unicode="Y" d="M250 1399q-9 20 18 20h68q17 0 22 -16l301 -741l543 741q13 16 31 16h70q20 0 4 -22l-617 -824l-88 -557q-3 -16 -20 -16h-56q-19 0 -16 16l88 555z" />
<glyph unicode="Z" horiz-adv-x="1146" d="M59.5 9q-3.5 9 8.5 24l1056 1300h-817q-17 0 -14 19l6 51q3 16 23 16h944q17 0 20.5 -9t-8.5 -24l-1057 -1300h864q16 0 13 -18l-8 -50q-3 -18 -19 -18h-991q-17 0 -20.5 9z" />
<glyph unicode="[" horiz-adv-x="679" d="M106 -311l271 1712q3 20 24 20h369q19 0 16 -16l-8 -47q-3 -19 -20 -19h-301l-252 -1589h301q17 0 14 -18l-6 -45q-3 -19 -22 -19l-367 2q-22 0 -19 19z" />
<glyph unicode="\" horiz-adv-x="751" d="M256 1456q-7 23 14 23h58q13 0 16 -15l395 -1439q7 -25 -14 -25h-57q-17 0 -17 14z" />
<glyph unicode="]" horiz-adv-x="679" d="M68 -313l6 47q3 18 22 18h301l252 1587h-301q-19 0 -16 19l8 47q3 16 20 16h369q19 0 16 -20l-270 -1712q-3 -19 -22 -19h-369q-19 0 -16 17z" />
<glyph unicode="^" horiz-adv-x="1169" d="M213 553l524 848q14 18 33 18h78q20 0 24 -18l261 -848q7 -23 -17 -23h-63q-16 0 -19 15l-237 798l-492 -798q-9 -15 -22 -15h-62q-24 0 -8 23z" />
<glyph unicode="_" horiz-adv-x="1189" d="M76 -256l6 41q3 18 22 18h920q16 0 16 -16l-8 -45q-3 -16 -20 -16h-920q-19 0 -16 18z" />
<glyph unicode="`" horiz-adv-x="538" d="M307 1366q-15 11 0 23l55 61q15 12 27 0l252 -258q7 -7 -2 -21l-35 -28q-8 -11 -22 -2z" />
<glyph unicode="a" horiz-adv-x="1181" d="M150 455q34 212 182.5 342.5t357.5 130.5q140 0 234.5 -62.5t130.5 -173.5l43 199q6 18 20 18h37q17 0 14 -18l-139 -875q-3 -16 -20 -16h-35q-9 0 -13.5 4.5t-3.5 11.5l21 199q-72 -110 -186.5 -172.5t-253.5 -62.5q-209 0 -316 131q-81 99 -81 246q0 47 8 98zM233 455 q-7 -41 -6 -79q1 -122 69 -204q90 -108 263 -109q175 0 300.5 107.5t156.5 284.5q6 39 6 74q0 125 -72 208q-92 107 -268 107q-173 0 -297 -107t-152 -282z" />
<glyph unicode="b" horiz-adv-x="1191" d="M166 16l229 1444q3 19 19 19h51q17 0 14 -19l-121 -768q70 111 185 173.5t256 62.5q207 0 314 -130q81 -99 82 -245q0 -46 -9 -98q-34 -212 -183 -343.5t-356 -131.5q-141 0 -235.5 62.5t-128.5 174.5l-45 -201q-6 -16 -23 -16h-33q-19 0 -16 16zM319 457q-6 -41 -6 -78 q-1 -124 71 -207q94 -109 269 -109q173 0 298 108.5t153 283.5q7 41 7 79q1 121 -69 203q-90 107 -265.5 107t-302.5 -107t-155 -280z" />
<glyph unicode="c" horiz-adv-x="1019" d="M150 455q18 115 73.5 207.5t131.5 149.5t164.5 87.5t178.5 30.5q118 0 214.5 -50.5t146.5 -146.5q6 -16 -6 -26l-43 -33q-17 -11 -25 6q-39 74 -114.5 120t-188.5 46q-173 0 -297 -108t-152 -283q-7 -41 -7 -79q0 -122 70 -204q90 -108 263 -109q111 0 203 46t151 120 q16 19 25 7l37 -35q8 -10 -6 -27q-74 -92 -184.5 -143t-239.5 -51q-211 0 -320 132q-83 100 -83 247q0 46 8 96z" />
<glyph unicode="d" horiz-adv-x="1191" d="M150 455q34 212 182.5 342.5t357.5 130.5q139 0 234 -62t131 -172l121 766q3 19 18 19h51q18 0 15 -19l-230 -1444q-3 -16 -18 -16h-35q-16 0 -16 16l18 199q-72 -110 -186.5 -172.5t-253.5 -62.5q-209 0 -316 131q-81 99 -81 246q0 47 8 98zM233 455q-7 -41 -6 -79 q1 -122 69 -204q90 -108 263 -109q175 0 302 109t155 285q6 40 6 76q0 121 -72 204q-94 107 -268 107q-173 0 -297 -107t-152 -282z" />
<glyph unicode="e" horiz-adv-x="1099" d="M150 455q34 212 184.5 342.5t361.5 130.5q218 0 324 -133q80 -100 80 -253q0 -50 -8 -106q-3 -20 -25 -20h-838q-1 -18 -2 -35q0 -135 86 -221q96 -97 269 -97q195 0 321 119q20 16 29 4l35 -36q8 -11 -6 -25q-74 -69 -176 -107t-218 -38q-221 0 -336 131 q-89 101 -89 251q0 44 8 93zM242 494h772q1 19 1 37q-1 133 -79 217q-90 96 -254 96t-283.5 -95.5t-156.5 -254.5z" />
<glyph unicode="f" horiz-adv-x="610" d="M147 848l7 41q3 18 20 18h180l41 260q25 161 100 247.5t193 86.5q96 0 191 -74q11 -11 0 -24l-35 -45q-10 -14 -25 -2q-68 61 -141 61q-77 0 -127 -60.5t-74 -199.5l-37 -250h256q20 0 17 -18l-6 -41q-3 -19 -23 -19h-256l-129 -811q-3 -18 -20 -18h-50q-17 0 -14 18 l127 811h-180q-18 0 -15 19z" />
<glyph unicode="g" horiz-adv-x="1181" d="M131 -358l35 47q12 12 22 4q69 -43 139 -66.5t181 -27.5q167 0 287 103t149 275l39 246q-70 -115 -185.5 -179t-258.5 -64q-209 0 -316 131q-81 99 -81 246q0 47 8 98q34 211 182.5 342t357.5 131q143 0 237.5 -64t127.5 -178l47 205q6 16 20 16h35q17 0 14 -16 l-141 -903q-32 -211 -183 -342t-353 -131q-194 2 -361 102q-11 11 -2 25zM233 455q-7 -42 -7 -80q0 -123 69 -205q90 -107 264 -107h6q173 0 298 107q127 108 155 285q6 40 6 76q0 122 -72 205q-95 108 -270 108q-173 0 -297 -108t-152 -281z" />
<glyph unicode="h" horiz-adv-x="1114" d="M166 16l229 1444q3 19 19 19h51q17 0 14 -19l-123 -772q60 111 157.5 175.5t225.5 64.5q169 0 249 -100q57 -71 58 -196q0 -51 -10 -110l-80 -504q-3 -18 -16 -18h-53q-18 0 -15 18l82 506q7 45 7 84q0 100 -45 156q-62 80 -199 80q-140 0 -249.5 -107.5t-145.5 -271.5 l-70 -449q-3 -16 -19 -16h-53q-17 0 -14 16z" />
<glyph unicode="i" horiz-adv-x="423" d="M172 16l139 875q3 16 19 16h51q17 0 14 -16l-139 -875q-3 -16 -18 -16h-52q-17 0 -14 16zM326 1255q6 38 33.5 61t66.5 23q38 0 57 -23q14 -17 15 -44q0 -8 -2 -17q-6 -38 -33.5 -62t-65.5 -24q-37 0 -57 24q-15 18 -15 45q0 8 1 17z" />
<glyph unicode="j" horiz-adv-x="483" d="M-203 -397l35 43q7 11 29 2q64 -51 147 -51t131.5 65t69.5 193l164 1034q3 18 18 18h51q18 0 15 -18l-164 -1043q-25 -158 -100 -245.5t-195 -87.5q-111 2 -199 63q-15 11 -2 27zM381 1255q6 38 33.5 61t66.5 23q38 0 58 -23q15 -18 15 -44q0 -8 -1 -17q-6 -38 -34 -62 t-66 -24t-58 24q-15 18 -15 45q0 8 1 17z" />
<glyph unicode="k" horiz-adv-x="882" d="M166 16l229 1446q3 17 21 17h47q19 0 16 -17l-151 -956l489 391q17 10 29 10h80q15 0 17 -5.5t-13 -16.5l-510 -398l440 -467q9 -9 5 -14.5t-19 -5.5h-80q-18 0 -25 10l-419 451l-72 -445q-3 -16 -19 -16h-51q-17 0 -14 16z" />
<glyph unicode="l" horiz-adv-x="423" d="M172 16l229 1446q3 17 19 17h51q17 0 14 -17l-229 -1446q-3 -16 -18 -16h-52q-17 0 -14 16z" />
<glyph unicode="m" horiz-adv-x="1693" d="M166 18l139 871q3 18 21 18h32q19 0 19 -16l-19 -199q55 109 144 172.5t203 63.5q122 0 193.5 -63t78.5 -191q59 117 154 185.5t215 68.5q155 0 227 -100q49 -69 49 -187q0 -54 -10 -119l-80 -504q-3 -18 -16 -18h-52q-19 0 -16 18l82 506q7 50 7 91q0 93 -37 149 q-54 80 -177 80q-132 0 -233 -112.5t-132 -289.5l-67 -424q-3 -18 -19 -18h-51q-17 0 -14 18l82 506q7 50 7 91q0 93 -37 149q-54 80 -177 80q-127 0 -227 -109t-133 -272l-70 -445q-3 -18 -21 -18h-49q-19 0 -16 18z" />
<glyph unicode="n" horiz-adv-x="1114" d="M166 16l139 875q3 16 19 16h36q17 0 17 -16l-21 -207q58 112 156 178t227 66q169 0 249 -100q57 -71 58 -196q0 -51 -10 -110l-80 -504q-3 -18 -18 -18h-51q-18 0 -15 18l82 506q7 45 7 84q0 100 -45 156q-62 80 -199 80q-142 0 -251 -108.5t-144 -272.5l-70 -447 q-3 -16 -19 -16h-51q-19 0 -16 16z" />
<glyph unicode="o" horiz-adv-x="1099" d="M150 455q34 212 184.5 342.5t361.5 130.5q212 0 322 -130q84 -100 84 -247q0 -46 -8 -96q-34 -212 -185.5 -343.5t-363.5 -131.5q-211 0 -320 132q-83 100 -83 247q0 46 8 96zM233 455q-7 -42 -7 -79q0 -120 69 -204q90 -108 264 -108.5t298.5 108t152.5 283.5q7 41 7 79 q1 121 -69 203q-90 107 -266 107q-173 0 -297 -107t-152 -282z" />
<glyph unicode="p" horiz-adv-x="1191" d="M92 -449l213 1338q3 18 21 18h32q19 0 19 -18l-21 -201q71 114 186.5 177t256.5 63q209 0 316 -131q81 -99 81 -245q0 -46 -8 -97q-34 -213 -183 -344t-358 -131q-140 0 -234 63.5t-130 175.5l-107 -668q-3 -18 -18 -18h-49q-20 0 -17 18zM319 455q-6 -40 -6 -77 q0 -123 71 -206q94 -109 271 -109q174 0 298.5 108t150.5 284q7 41 7 78q0 121 -69 203q-91 108 -264 108q-177 0 -304 -107.5t-155 -281.5z" />
<glyph unicode="q" horiz-adv-x="1193" d="M150 455q34 211 182.5 342t357.5 131q141 0 236 -63t129 -177l45 201q6 18 22 18h33q19 0 16 -18l-213 -1338q-3 -18 -20 -18h-49q-18 0 -15 18l107 668q-70 -112 -185.5 -175.5t-256.5 -63.5q-209 0 -316 131q-81 99 -81 246q0 47 8 98zM231 455q-7 -42 -7 -80 q0 -122 70 -205q90 -107 265 -107q178 0 304.5 108t154.5 284q6 40 6 76q0 123 -72 205q-94 108 -270 108q-174 0 -298.5 -107.5t-152.5 -281.5z" />
<glyph unicode="r" horiz-adv-x="714" d="M166 16l139 875q3 16 19 16h36q17 0 17 -16l-15 -129q56 72 132.5 117.5t164.5 46.5q62 0 146 -25q18 -4 8 -20l-27 -56q-6 -14 -20 -8q-62 25 -135 25q-79 0 -155.5 -57t-127.5 -154l-98 -615q-3 -16 -17 -16h-53q-17 0 -14 16z" />
<glyph unicode="s" horiz-adv-x="835" d="M100 106l31 44q10 14 23 4q111 -91 270 -91q114 0 193 48t90 120q5 33 -3.5 58.5t-25.5 43t-52.5 34t-68.5 27t-90 26.5q-157 42 -215 96q-49 44 -49 121q0 16 2 33q15 116 118 188q102 72 248 72h4q157 0 256 -86q13 -9 3 -25l-29 -43q-6 -16 -23 -6q-98 78 -227 78 q-107 0 -179.5 -46t-84.5 -120q-2 -14 -2 -26q0 -56 41 -83q50 -33 198 -75q154 -44 216 -98q51 -44 52 -122q0 -17 -3 -36q-15 -116 -123 -188q-106 -72 -260 -72h-4q-116 0 -192 32t-112 68q-12 7 -2 24z" />
<glyph unicode="t" horiz-adv-x="677" d="M176 848l6 43q3 16 21 16h180l53 318q3 18 19 18h49q19 0 16 -18l-53 -318h260q19 0 16 -16l-6 -43q-3 -19 -22 -19h-260l-80 -503q-9 -71 -10 -120q0 -5 1 -9q1 -51 16.5 -80.5t37 -41t53.5 -12.5q55 0 129 58q15 12 23 0l26 -45q7 -15 -10 -25q-91 -69 -188 -69 q-107 0 -149 87q-26 53 -26 132q0 51 11 112l82 516h-181q-17 0 -14 19z" />
<glyph unicode="u" d="M223 385l80 504q3 18 19 18h51q17 0 14 -18l-80 -506q-8 -47 -8 -88q1 -97 45 -153q62 -80 199 -79q142 0 252 109t143 272l72 447q3 16 18 16h51q18 0 15 -16l-140 -875q-3 -16 -18 -16h-35q-19 0 -16 16l20 207q-60 -113 -157.5 -178t-225.5 -65q-170 0 -251 100 q-58 71 -58 195q0 51 10 110z" />
<glyph unicode="v" horiz-adv-x="948" d="M168 885q-2 9 2.5 15.5t13.5 6.5h66q14 0 18 -14l221 -803l476 803q7 14 22 14h64q24 0 8 -22l-527 -867q-9 -18 -26 -18h-62q-18 0 -24 18z" />
<glyph unicode="w" horiz-adv-x="1316" d="M170 887q-3 20 12 20h66q15 0 18 -16l117 -799l367 799q10 16 22 16h59q16 0 19 -16l113 -799l372 799q10 16 23 16h63q8 0 10.5 -5.5t-1.5 -14.5l-422 -871q-10 -16 -29 -16h-61q-23 0 -23 16l-111 777l-356 -777q-10 -16 -29 -16h-61q-20 0 -23 16z" />
<glyph unicode="x" horiz-adv-x="872" d="M53 23l396 426l-261 438q-10 20 13 20h73q17 0 23 -14l217 -373l342 371q16 16 33 16h69q27 0 5 -22l-410 -430l264 -435q9 -20 -12 -20h-74q-19 0 -24 12l-218 371l-329 -369q-14 -14 -31 -14h-70q-26 0 -6 23z" />
<glyph unicode="y" horiz-adv-x="907" d="M162 -440l256 450l-244 871q-10 26 16 26h60q16 0 20 -18l205 -776l445 776q11 18 24 18h60q24 0 8 -26l-766 -1330q-7 -18 -27 -18h-51q-25 0 -6 27z" />
<glyph unicode="z" horiz-adv-x="923" d="M101.5 9q-3.5 9 9.5 24l700 796h-545q-17 0 -14 17l8 45q3 16 19 16h659q19 0 22 -10t-12 -25l-700 -794h573q18 0 15 -17l-9 -45q-3 -16 -18 -16h-686q-18 0 -21.5 9z" />
<glyph unicode="{" horiz-adv-x="739" d="M238 516l8 57q4 15 16 15q60 3 110.5 62t67.5 159l54 336q5 35 13 67t27 71.5t44.5 68t67.5 48t95 19.5h88q18 0 15 -16l-6 -49q-3 -19 -23 -19h-84q-122 0 -149 -190l-54 -328q-31 -203 -176 -274q55 -32 80.5 -100.5t9.5 -172.5l-51 -327q-34 -193 90 -193h84 q18 0 15 -16l-7 -49q-3 -19 -22 -19h-88q-53 0 -88.5 20t-52 48.5t-22.5 69t-4.5 72.5t7.5 67l51 333q16 101 -15.5 160t-90.5 62q-13 4 -10 18z" />
<glyph unicode="|" horiz-adv-x="442" d="M106 -449l304 1909q3 19 20 19h51q18 0 15 -19l-303 -1909q-3 -18 -19 -18h-51q-20 0 -17 18z" />
<glyph unicode="}" horiz-adv-x="739" d="M68 -315l6 49q3 16 22 16h84q123 3 152 193l51 327q16 104 63.5 172.5t112.5 100.5q-121 70 -90 274l53 328q27 190 -92 190h-84q-17 0 -14 19l6 49q3 16 22 16h89q200 0 161 -274l-53 -336q-16 -99 15.5 -158.5t89.5 -62.5q15 0 12 -17l-8 -57q-3 -13 -19 -16 q-59 -3 -109.5 -62t-66.5 -160l-51 -333q-6 -35 -14.5 -67t-27.5 -72.5t-45 -69t-68 -48.5t-95 -20h-88q-17 0 -14 19z" />
<glyph unicode="~" horiz-adv-x="1132" d="M152 397q-10 10 0 27q57 112 139.5 175t173.5 63q54 0 96.5 -16t66.5 -40t48.5 -52t45 -51.5t54 -39t76.5 -14.5q54 1 101 32t73.5 67t56.5 89q15 24 29 8l29 -39q7 -11 2 -24q-56 -109 -139 -171.5t-177 -62.5q-46 0 -83 12t-61.5 31.5t-45.5 42.5t-40 46t-40 41.5 t-50.5 29.5t-66.5 10q-136 -2 -231 -192q-14 -27 -29 -9z" />
<glyph unicode="&#xa1;" horiz-adv-x="512" d="M209 18l164 998q3 18 20 18h56q17 0 14 -18l-156 -998q-3 -18 -18 -18h-64q-19 0 -16 18zM387 1356q6 37 32.5 60.5t63.5 23.5q38 0 58 -23.5t14 -60.5q-6 -38 -33 -61t-65 -23q-37 0 -56.5 23t-13.5 61z" />
<glyph unicode="&#xa2;" horiz-adv-x="1019" d="M150 455q18 114 72.5 206t130.5 149.5t163.5 88t177.5 31.5h33l61 182q7 18 23 18h45q19 0 12 -18l-67 -192q181 -38 260 -189q6 -12 -6 -24l-45 -35q-16 -10 -25 8q-70 125 -211 156l-266 -770q24 -3 51 -3q111 0 203 46t151 120q16 19 25 7l37 -35q8 -11 -2 -25 q-77 -93 -188 -144.5t-240 -51.5q-20 0 -66 4l-65 -187q-6 -18 -23 -18h-45q-18 0 -12 18l72 201q-146 42 -215 163.5t-41 293.5zM233 455q-22 -139 31.5 -238.5t167.5 -134.5l264 762h-22q-170 -2 -291.5 -109t-149.5 -280z" />
<glyph unicode="&#xa3;" horiz-adv-x="1069" d="M170 23q145 236 193 376.5t40 243.5h-165q-20 0 -17 19l8 53q3 16 23 16h137q-2 10 -9 42t-10 46t-7 45t-4.5 54.5t1 57t7.5 68.5q28 176 146.5 286t287.5 110q224 0 346 -176q10 -17 -2 -29l-45 -41q-16 -16 -29 4q-43 68 -114.5 111t-170.5 43q-127 0 -216 -85.5 t-113 -222.5q-6 -37 -7 -71t3 -67.5t8.5 -57t12 -60t11.5 -57.5h314q17 0 14 -16l-8 -53q-3 -19 -21 -19h-290q4 -221 -191 -557h602q18 0 15 -18l-9 -52q-3 -16 -20 -16h-713q-21 0 -8 23z" />
<glyph unicode="&#xa4;" horiz-adv-x="1196" d="M180 121q-8 10 6 24l138 115q-79 109 -52 279q20 138 113 249l-98 107q-11 14 2 27l55 47q15 10 27 -2l88 -109q126 96 297 96q160 0 256 -90l121 109q17 13 26 2l43 -47q9 -12 -8 -27l-129 -106q63 -104 39 -256q-26 -163 -135 -275l102 -112q13 -13 -2 -25l-55 -49 q-14 -11 -27 2l-96 121q-118 -76 -266 -76q-149 0 -242 72l-135 -123q-17 -14 -27 -2zM365 539q-23 -145 52 -234.5t222 -89.5q144 0 247 89.5t126 234.5q23 146 -51.5 234.5t-219.5 88.5q-148 0 -250.5 -88.5t-125.5 -234.5z" />
<glyph unicode="&#xa5;" horiz-adv-x="1146" d="M233 287l7 37q3 18 20 18h318l26 158h-317q-20 0 -17 18l6 37q3 18 21 18h303l6 17l-340 807q-11 22 21 22h61q19 0 25 -16l301 -741l543 741q13 16 34 16h62q26 0 10 -22l-602 -805v-19h301q9 0 13.5 -5t2.5 -11l-6 -39q-3 -18 -20 -18h-316l-26 -158h315q19 0 16 -18 l-6 -37q-3 -19 -20 -19h-316l-41 -250q-3 -18 -20 -18h-55q-20 0 -17 18l41 250h-317q-20 0 -17 19z" />
<glyph unicode="&#xa6;" horiz-adv-x="446" d="M109 -449l108 685q3 18 23 18h51q15 0 12 -18l-108 -685q-3 -18 -19 -18h-51q-19 0 -16 18zM303 776l109 684q3 19 20 19h51q18 0 15 -19l-109 -684q-3 -18 -18 -18h-52q-19 0 -16 18z" />
<glyph unicode="&#xa7;" horiz-adv-x="1036" d="M82 -100l35 45q10 15 26 2q18 -19 43 -37t67.5 -40.5t106 -36t136.5 -13.5q57 0 111.5 13t103.5 39t83 72.5t44 106.5q17 102 -48 156t-255 102q-195 51 -270 128t-56 210q15 139 141 234q-87 76 -69 221q19 145 151 242t311 96q71 -1 131.5 -14t99.5 -33.5t61 -37 t36 -32.5q11 -8 2 -27l-29 -45q-6 -9 -12 -9.5t-16 5.5q-21 22 -50.5 41.5t-96 39.5t-148.5 20q-130 0 -229 -64.5t-117 -175.5q-10 -56 2.5 -96.5t54 -71.5t97.5 -52.5t149 -47.5q193 -53 268 -123t60 -191q-22 -156 -148 -250q97 -79 72 -225q-15 -82 -60 -146t-109 -102 t-138 -57t-152 -18q-85 1 -157 17.5t-118.5 43t-71 45.5t-42.5 39q-12 15 0 27zM303 653q-10 -56 2.5 -96t54.5 -70.5t97 -52t149 -47.5q101 -25 174 -61q111 69 129 182q17 101 -47.5 153.5t-255.5 100.5q-123 32 -186 67q-102 -70 -117 -176z" />
<glyph unicode="&#xa8;" horiz-adv-x="729" d="M319 1348q6 41 35 66.5t70 25.5q40 0 61 -25.5t15 -66.5q-6 -40 -35.5 -65.5t-69.5 -25.5q-41 0 -61.5 25.5t-14.5 65.5zM655 1348q6 41 35 66.5t70 25.5q40 0 61 -25.5t15 -66.5q-6 -40 -35.5 -65.5t-69.5 -25.5q-41 0 -61.5 25.5t-14.5 65.5z" />
<glyph unicode="&#xa9;" horiz-adv-x="1691" d="M229 709q35 218 151.5 384t296 256.5t396.5 90.5q328 0 497.5 -201t117.5 -530q-53 -327 -286 -528t-560 -201q-217 0 -368.5 91t-215.5 256.5t-29 381.5zM309 709q-30 -193 27.5 -340t192 -227.5t327.5 -80.5q292 0 499 178.5t253 469.5q46 293 -104.5 472t-442.5 179 t-499 -179.5t-253 -471.5zM575 709q16 103 69 184t123.5 127.5t153.5 67t159.5 10.5t142 -50.5t100.5 -107.5q6 -15 -4 -25l-41 -30q-11 -11 -21 6q-73 129 -243 129q-139 0 -238 -85.5t-121 -225.5q-23 -139 49.5 -225.5t210.5 -86.5q88 0 161.5 35t119.5 90q18 18 27 8 l28 -32q10 -8 -2 -23q-62 -75 -152 -116.5t-194 -41.5q-175 0 -265.5 108.5t-62.5 283.5z" />
<glyph unicode="&#xaa;" horiz-adv-x="886" d="M244 1098q25 154 130.5 248t254.5 94q91 0 159.5 -38t104.5 -106l25 111q3 18 20 18h35q17 0 14 -18l-98 -616q-3 -21 -19 -21h-34q-20 0 -17 18l10 113q-56 -68 -137.5 -106.5t-171.5 -38.5q-149 0 -225 94.5t-51 247.5zM322 1098q-20 -121 42 -195t181 -74 q120 0 207 74.5t106 194.5t-44 194t-183 74q-119 0 -204.5 -73.5t-104.5 -194.5z" />
<glyph unicode="&#xab;" horiz-adv-x="1052" d="M240 537l4 18q3 18 18 33l322 303q17 17 26 4l33 -39q9 -15 -8 -29l-303 -282l213 -281q13 -13 0 -26l-45 -39q-15 -15 -25 2l-225 303q-10 13 -10 33zM592 537l4 18q3 20 16 33l324 303q16 15 27 4l32 -39q9 -15 -8 -29l-303 -282l213 -281q14 -14 0 -26l-45 -39 q-15 -15 -25 2l-227 303q-8 16 -8 33z" />
<glyph unicode="&#xac;" horiz-adv-x="1275" d="M268 711l8 51q3 18 21 18h928q8 0 12.5 -5.5t3.5 -14.5l-61 -391q-3 -19 -23 -19h-51q-17 0 -14 19l51 323h-858q-20 0 -17 19z" />
<glyph unicode="&#xad;" horiz-adv-x="681" />
<glyph unicode="&#xae;" horiz-adv-x="1662" d="M215 709q35 218 151.5 384t296 256.5t396.5 90.5q216 0 367.5 -90.5t216.5 -256.5t30 -384q-53 -327 -286 -528t-560 -201q-217 0 -368 91t-215 256.5t-29 381.5zM295 709q-30 -193 27.5 -340t192 -227.5t327.5 -80.5q291 0 498 178.5t253 469.5q46 292 -104.5 471.5 t-441.5 179.5q-292 0 -499 -179.5t-253 -471.5zM635 346l117 735q4 21 24 21q36 -1 77.5 -1t92.5 0.5t78 0.5q118 0 175 -58t40 -163q-15 -95 -80.5 -148t-171.5 -59l158 -326q6 -10 2.5 -16t-14.5 -6h-60q-9 0 -20 14l-152 332h-133l-51 -326q-6 -20 -23 -20h-45 q-17 0 -14 20zM780 752l191 -2q167 0 188 131q10 68 -28 105.5t-117 37.5l-191 -2z" />
<glyph unicode="&#xaf;" horiz-adv-x="665" d="M295 1350l8 53q4 18 21 18h469q15 0 12 -18l-8 -53q-3 -19 -19 -19h-469q-14 0 -14 19z" />
<glyph unicode="&#xb0;" horiz-adv-x="864" d="M295 1124q23 143 122.5 229.5t241.5 86.5q140 0 215 -87t52 -229q-22 -139 -123.5 -226t-241.5 -87q-142 0 -215 86.5t-51 226.5zM377 1124q-17 -104 36.5 -167.5t159.5 -63.5q104 0 179 63.5t92 167.5q17 105 -37.5 169.5t-159.5 64.5q-104 0 -178.5 -64t-91.5 -170z " />
<glyph unicode="&#xb1;" horiz-adv-x="1206" d="M182 125l8 53q3 19 21 19h846q19 0 16 -19l-8 -53q-3 -16 -23 -16h-845q-18 0 -15 16zM274 745l9 52q3 18 20 18h385l55 346q3 19 21 19h55q20 0 17 -19l-56 -346h381q10 0 14 -3.5t3 -12.5l-9 -54q-3 -18 -22 -18h-381l-55 -346q0 -19 -21 -19h-57q-15 0 -15 19l56 346 h-385q-18 0 -15 18z" />
<glyph unicode="&#xb2;" horiz-adv-x="688" d="M140.5 526.5q-1.5 8.5 11.5 20.5l473 457l10 10l15 15t16 17.5t17.5 21.5t16 24.5t15.5 29t11.5 31t8.5 35.5q12 77 -28.5 124.5t-118.5 47.5q-120 0 -209 -92q-14 -14 -23 0l-24 37q-9 14 6 26q113 109 252 109q118 0 182.5 -64.5t42.5 -197.5q-9 -69 -45 -125.5 t-68 -83.5q-266 -250 -393 -373h387q10 0 14 -3.5t3 -12.5l-8 -43q0 -19 -21 -19h-524q-18 0 -19.5 8.5z" />
<glyph unicode="&#xb3;" horiz-adv-x="679" d="M178 745q0 19 19 19h47q17 0 14 -14q-5 -77 42.5 -123.5t131.5 -46.5q90 0 154.5 54.5t77.5 141.5q12 82 -27.5 131.5t-118.5 50.5h-80q-17 0 -14 19l4 35q3 18 23 18h61q76 0 126 42.5t62 123.5q12 73 -25.5 118.5t-109.5 45.5q-108 0 -198 -90q-5 -6 -11.5 -7t-9.5 5 l-27 39q-8 11 5 22q111 111 254 111q109 0 166 -67.5t38 -176.5q-21 -136 -133 -199q57 -28 82.5 -85t13.5 -136q-19 -120 -109 -198t-216 -78q-121 0 -187.5 67.5t-54.5 177.5z" />
<glyph unicode="&#xb4;" horiz-adv-x="540" d="M272 1167q-9 12 4 25l334 256q6 5 14 5.5t11 -5.5l37 -59q12 -14 -6 -25l-349 -227q-18 -12 -26 0z" />
<glyph unicode="&#xb5;" d="M92 -446l213 1335q3 18 21 18h49q17 0 14 -18q-76 -475 -82 -516q-23 -156 40.5 -233t199.5 -77q140 0 250 109t143 272l72 445q3 18 20 18h47q20 0 17 -18l-138 -871q-3 -18 -20 -18h-33q-9 0 -14 4.5t-4 11.5l20 207q-60 -113 -157.5 -178t-225.5 -65q-196 0 -258 133 l-90 -559q0 -19 -18 -19h-52q-14 0 -14 19z" />
<glyph unicode="&#xb6;" horiz-adv-x="1144" d="M283 1044q26 169 145.5 272t286.5 103h45h4h471q17 0 14 -18l-6 -49q-3 -19 -22 -19h-91l-223 -1413q-3 -18 -22 -18h-49q-18 0 -15 18l223 1413h-258l-223 -1413q-3 -18 -22 -18h-49q-18 0 -15 18l119 750q-168 0 -254.5 103t-58.5 271z" />
<glyph unicode="&#xb7;" horiz-adv-x="432" d="M219 573q6 40 33.5 65.5t66.5 25.5t59.5 -25.5t14.5 -65.5q-6 -39 -33.5 -63.5t-66.5 -24.5t-59.5 24.5t-14.5 63.5z" />
<glyph unicode="&#xb8;" horiz-adv-x="581" d="M29 -371q-11 11 2 23l28 33q9 12 25 2q75 -56 147 -56q59 0 101 29t49 78q3 25 -8.5 41.5t-35 25t-51 12t-63.5 3.5h-53q-17 0 -10 18l96 162h80l-62 -106q95 -5 145.5 -40.5t39.5 -115.5q-13 -81 -79 -130.5t-159 -49.5q-111 0 -192 71z" />
<glyph unicode="&#xb9;" horiz-adv-x="452" d="M274 1358l7 45q3 18 22 18h199q19 0 16 -20l-137 -864q0 -19 -21 -19h-45q-16 0 -16 19l129 804h-137q-20 0 -17 17z" />
<glyph unicode="&#xba;" horiz-adv-x="800" d="M233 1100q25 154 134.5 248t261.5 94q154 0 232.5 -94t53.5 -248t-134.5 -249t-262.5 -95q-152 0 -231 95t-54 249zM309 1100q-19 -122 42 -196.5t179 -74.5q120 0 204.5 74.5t103.5 196.5q19 120 -42 193t-180 73t-203.5 -73t-103.5 -193z" />
<glyph unicode="&#xbb;" horiz-adv-x="1024" d="M201 238q-11 9 6 26l303 281l-213 282q-13 17 2 29l43 39q18 11 27 -4l225 -303q12 -12 8 -33l-4 -18q0 -17 -16 -33l-322 -303q-16 -15 -29 -2zM551 238q-9 9 8 26l303 281l-213 282q-12 17 0 29l45 39q18 11 27 -4l223 -303q13 -13 10 -33l-4 -18q0 -19 -18 -33 l-320 -303q-15 -15 -28 -2z" />
<glyph unicode="&#xbc;" horiz-adv-x="1613" d="M319 7q-1 7 7 16l1040 1441q11 15 25 15h57q26 0 10 -23l-1044 -1442q-10 -14 -25 -14h-57q-12 0 -13 7zM336 1358l6 45q3 18 23 18h198q20 0 17 -20l-138 -864q0 -19 -20 -19h-45q-17 0 -17 19l129 804h-137q-19 0 -16 17zM843 219q-3 10 11 25l526 639q16 16 37 16h74 q19 0 16 -20l-94 -596h109q19 0 16 -17l-6 -39q-3 -18 -23 -18h-108l-31 -191q-3 -18 -20 -18h-47q-20 0 -17 18l31 191h-451q-20 0 -23 10zM971 283h358l84 528z" />
<glyph unicode="&#xbd;" horiz-adv-x="1652" d="M326 25l1040 1439q11 15 25 15h55q12 0 15 -7.5t-7 -17.5l-1040 -1440q-10 -14 -25 -14h-55q-26 0 -8 25zM336 1358l6 45q3 18 23 18h198q20 0 17 -20l-138 -864q0 -19 -20 -19h-45q-17 7 -17 19l129 804h-137q-19 0 -16 17zM973 29l473 456q97 90 113 185 q11 77 -30 124.5t-120 47.5q-117 0 -209 -92q-14 -14 -22 0l-25 36q-8 13 6 27q113 109 252 109q119 0 184 -65t43 -198q-10 -70 -45.5 -126t-66.5 -82q-1 0 -72.5 -66.5t-168 -158t-155.5 -148.5h388q21 0 18 -17l-8 -43q-3 -18 -23 -18h-522q-35 0 -10 29z" />
<glyph unicode="&#xbe;" horiz-adv-x="1867" d="M240 745q0 19 18 19h47q17 0 14 -14q-5 -77 43 -123.5t132 -46.5q89 0 153.5 54t77.5 142q12 82 -27 132t-118 50h-80q-18 0 -15 19l4 35q3 18 23 18h61q76 0 126.5 42.5t62.5 123.5q12 73 -25.5 118.5t-109.5 45.5q-109 0 -199 -90q-5 -6 -11 -7t-9 5l-27 39q-9 12 4 22 q111 111 254 111q109 0 166.5 -68t38.5 -176q-21 -136 -133 -199q57 -28 82.5 -85t13.5 -136q-19 -120 -109.5 -198t-216.5 -78q-121 0 -187 67.5t-54 177.5zM530 25l1037 1433q14 21 35 21h49q12 0 14.5 -7.5t-6.5 -17.5l-1034 -1434q-13 -20 -39 -20h-47q-27 0 -9 25z M1087 219q-3 10 11 25l526 639q16 16 37 16h74q19 0 16 -20l-94 -596h108q20 0 17 -17l-6 -39q-3 -18 -23 -18h-108l-31 -191q-3 -18 -21 -18h-47q-19 0 -16 18l31 191h-451q-20 0 -23 10zM1214 283h359l84 528z" />
<glyph unicode="&#xbf;" horiz-adv-x="1030" d="M197 362q12 75 42 138t69 107t83.5 83t89.5 74t84 71t69 84t42 103q6 18 20 18h64q17 0 14 -18q-13 -65 -44.5 -120t-71.5 -94t-86 -75t-91.5 -72.5t-84.5 -76.5t-68 -96t-39 -123q-20 -133 47.5 -214t198.5 -83q190 0 337 157q16 13 27 2l31 -41q11 -13 -4 -28 q-178 -178 -404 -178q-173 0 -263 105t-62 277zM688 1354q6 39 32 62.5t64 23.5t58 -24t14 -62q-6 -37 -33 -60.5t-65 -23.5t-57 23.5t-13 60.5z" />
<glyph unicode="&#xc0;" horiz-adv-x="1320" d="M29 23l792 1378q12 18 29 18h70q17 0 20 -18l358 -1378q4 -11 0.5 -17.5t-14.5 -5.5h-63q-14 0 -17 12l-121 467h-696l-266 -465q-11 -14 -21 -14h-63q-21 0 -8 23zM436 563h627l-195 752zM670 1712l49 64q12 15 26 4l316 -244q13 -9 0 -25l-27 -34q-13 -13 -24 -4 l-338 215q-13 6 -2 24z" />
<glyph unicode="&#xc1;" horiz-adv-x="1320" d="M29 23l792 1378q12 18 29 18h70q17 0 20 -18l358 -1378q4 -11 0.5 -17.5t-14.5 -5.5h-63q-14 0 -17 12l-121 467h-696l-266 -465q-11 -14 -21 -14h-63q-21 0 -8 23zM436 563h627l-195 752zM721 1511q-9 16 6 25l395 246q15 11 23 -4l29 -66q10 -13 -11 -24l-403 -213 q-18 -11 -25 4z" />
<glyph unicode="&#xc2;" horiz-adv-x="1320" d="M29 23l792 1378q12 18 29 18h70q17 0 20 -18l358 -1378q4 -11 0.5 -17.5t-14.5 -5.5h-63q-14 0 -17 12l-121 467h-696l-266 -465q-11 -14 -21 -14h-63q-21 0 -8 23zM436 563h627l-195 752zM575 1522q-30 0 0 20l302 197q13 10 26 10h66q14 0 24 -10l240 -195 q25 -22 -6 -22h-82q-15 0 -27 8l-190 156l-242 -156q-16 -8 -29 -8h-82z" />
<glyph unicode="&#xc3;" horiz-adv-x="1320" d="M29 23l792 1378q12 18 29 18h70q17 0 20 -18l358 -1378q4 -11 0.5 -17.5t-14.5 -5.5h-63q-14 0 -17 12l-121 467h-696l-266 -465q-11 -14 -21 -14h-63q-21 0 -8 23zM436 563h627l-195 752zM623 1593q41 83 96.5 126.5t111.5 43.5q37 0 64.5 -17.5t44 -42.5t31.5 -50 t36.5 -42.5t49.5 -17.5q73 5 139 129q10 22 23 9l28 -21q9 -12 2 -24q-40 -84 -95.5 -127t-115.5 -43q-35 0 -61.5 17.5t-43.5 42t-32 49.5t-36 42t-48 16q-74 -2 -141 -129q-12 -17 -23 -6l-26 21q-8 6 -4 24z" />
<glyph unicode="&#xc4;" horiz-adv-x="1320" d="M29 23l792 1378q12 18 29 18h70q17 0 20 -18l358 -1378q4 -11 0.5 -17.5t-14.5 -5.5h-63q-14 0 -17 12l-121 467h-696l-266 -465q-11 -14 -21 -14h-63q-21 0 -8 23zM436 563h627l-195 752zM659 1620q6 41 36 66.5t71 25.5q38 0 59 -25.5t15 -66.5q-6 -38 -35.5 -63 t-67.5 -25q-41 0 -62.5 24.5t-15.5 63.5zM995 1620q6 41 35 66.5t70 25.5q40 0 61 -25.5t15 -66.5q-6 -38 -35.5 -63t-69.5 -25q-41 0 -61.5 24.5t-14.5 63.5z" />
<glyph unicode="&#xc5;" horiz-adv-x="1320" d="M29 23l792 1378q12 18 29 18h70q17 0 20 -18l358 -1378q4 -11 0.5 -17.5t-14.5 -5.5h-63q-14 0 -17 12l-121 467h-696l-266 -465q-11 -14 -21 -14h-63q-21 0 -8 23zM436 563h627l-195 752zM725 1636q12 83 71 134t142 51q85 0 128.5 -51t29.5 -134q-14 -85 -72.5 -135.5 t-144.5 -50.5q-83 0 -125 50.5t-29 135.5zM788 1636q-9 -54 19.5 -87t83.5 -33t92.5 33t46.5 87t-19 87.5t-83 33.5q-54 0 -92.5 -33.5t-47.5 -87.5z" />
<glyph unicode="&#xc6;" horiz-adv-x="1615" d="M18 27l983 1376q11 18 33 18h690q22 0 17 -18l-6 -49q-3 -19 -23 -19h-571l-88 -565h473q17 0 14 -16l-8 -52q-3 -18 -21 -18h-473l-94 -598h590q17 0 14 -18l-8 -50q-3 -18 -18 -18h-664q-9 0 -13.5 7t-2.5 16l69 448h-475l-323 -457q-11 -14 -25 -14h-59q-28 0 -11 27z M500 557h426l123 774z" />
<glyph unicode="&#xc7;" horiz-adv-x="1419" d="M207 709q27 169 106.5 308.5t192.5 231t252.5 141.5t288.5 50q143 0 269 -49t212 -142q8 -11 -4 -26l-45 -35q-15 -12 -27 0q-157 162 -420 162q-283 0 -484 -176t-247 -465q-46 -287 99.5 -462t428.5 -177q262 2 474 161q15 12 24 0l37 -36q10 -14 -6 -27 q-227 -188 -543 -188q-160 0 -286.5 53.5t-206 148.5t-110.5 231t-5 296zM569 -352q-10 10 2 22l25 31q12 12 25 2q67 -53 141 -53q56 0 95 27.5t46 72.5q5 45 -35 61.5t-114 16.5h-52q-19 0 -8 18l90 154h76l-59 -100q91 -5 138.5 -38.5t37.5 -111.5q-12 -76 -74.5 -123 t-150.5 -47q-105 0 -183 68z" />
<glyph unicode="&#xc8;" horiz-adv-x="1042" d="M195 20l217 1381q3 20 24 20h740q19 0 14 -18l-6 -51q-3 -17 -21 -17h-669l-91 -567h572q19 0 16 -16l-8 -54q-3 -16 -20 -16h-572l-94 -596h688q17 0 14 -16l-8 -54q-3 -16 -20 -16h-760q-19 0 -16 20zM573 1712l50 64q12 15 26 4l316 -244q13 -9 0 -25l-27 -34 q-14 -15 -25 -4l-338 215q-13 6 -2 24z" />
<glyph unicode="&#xc9;" horiz-adv-x="1042" d="M150 20l219 1381q3 20 22 20h739q20 0 17 -18l-8 -51q-3 -17 -19 -17h-669l-91 -567h572q19 0 16 -16l-10 -54q0 -16 -20 -16h-572l-94 -596h688q19 0 16 -16l-8 -54q-3 -16 -22 -16h-760q-19 0 -16 20zM625 1511q-9 15 4 25l395 246q18 11 25 -4l28 -66q8 -15 -10 -24 l-403 -213q-18 -11 -25 4z" />
<glyph unicode="&#xca;" horiz-adv-x="1042" d="M195 20l217 1381q3 20 24 20h740q19 0 14 -18l-6 -51q-3 -17 -21 -17h-669l-91 -567h572q19 0 16 -16l-8 -54q-3 -16 -20 -16h-572l-94 -596h688q17 0 14 -16l-8 -54q-3 -16 -20 -16h-760q-19 0 -16 20zM480.5 1515.5q-3.5 2.5 0 7.5t13.5 11l301 197q13 10 26 10h64 q16 0 26 -10l240 -195q23 -23 -8 -23h-82q-11 0 -25 9l-192 155l-240 -155q-18 -9 -29 -9h-81q-10 0 -13.5 2.5z" />
<glyph unicode="&#xcb;" horiz-adv-x="1042" d="M195 20l217 1381q3 20 24 20h740q19 0 14 -18l-6 -51q-3 -17 -21 -17h-669l-91 -567h572q19 0 16 -16l-8 -54q-3 -16 -20 -16h-572l-94 -596h688q17 0 14 -16l-8 -54q-3 -16 -20 -16h-760q-19 0 -16 20zM571 1624q6 38 33.5 62t67.5 24q38 0 58.5 -24t14.5 -62 q-6 -40 -34 -64t-68 -24q-38 0 -58 24t-14 64zM897 1624q6 38 34 62t66 24q40 0 60 -24t14 -62q-6 -40 -34 -64t-66 -24q-40 0 -60 24t-14 64z" />
<glyph unicode="&#xcc;" horiz-adv-x="473" d="M193 16l221 1387q0 18 20 18h55q17 0 17 -18l-221 -1387q-3 -16 -21 -16h-55q-19 0 -16 16zM246 1712l49 64q9 15 24 4l316 -244q14 -8 0 -25l-27 -34q-11 -14 -24 -4l-336 215q-16 6 -2 24z" />
<glyph unicode="&#xcd;" horiz-adv-x="473" d="M193 16l221 1387q0 18 20 18h55q17 0 17 -18l-221 -1387q-3 -16 -21 -16h-55q-19 0 -16 16zM295 1511q-7 17 6 25l395 246q15 11 23 -4l29 -66q10 -13 -9 -24l-405 -213q-14 -11 -25 4z" />
<glyph unicode="&#xce;" horiz-adv-x="473" d="M118.5 1523.5q-3.5 3.5 0.5 8.5t14 10l318 207q10 10 28 10h60l10 -28l-299 -199q-16 -12 -29 -12h-88q-11 0 -14.5 3.5zM193 16l221 1387q0 18 20 18h55q17 0 17 -18l-221 -1387q-3 -16 -21 -16h-55q-19 0 -16 16zM467 1731l20 30h60q12 0 24 -12l254 -205 q13 -9 12 -15.5t-18 -6.5h-88q-13 0 -26 10z" />
<glyph unicode="&#xcf;" horiz-adv-x="473" d="M193 16l221 1387q0 18 20 18h55q17 0 17 -18l-221 -1387q-3 -16 -21 -16h-55q-19 0 -16 16zM233 1620q6 41 36 66.5t71 25.5q39 0 60 -25.5t14 -66.5q-6 -38 -35.5 -63t-67.5 -25q-41 0 -62.5 24.5t-15.5 63.5zM569 1620q8 41 36.5 66.5t68.5 25.5t61 -25.5t15 -66.5 q-6 -38 -35.5 -63t-69.5 -25t-61 25t-15 63z" />
<glyph unicode="&#xd0;" horiz-adv-x="1363" d="M154 676l8 53q3 16 20 16h107l102 656q3 20 25 20h364q329 0 497.5 -194t117.5 -516q-33 -213 -148.5 -375t-295 -249t-396.5 -87h-365q-19 0 -16 20l100 639h-106q-17 0 -14 17zM276 86h293q289 0 488.5 170t245.5 455q44 285 -102.5 454.5t-434.5 169.5l-293 2 l-92 -592h350q17 0 17 -14l-11 -57q-3 -15 -20 -15h-350z" />
<glyph unicode="&#xd1;" horiz-adv-x="1484" d="M193 18l219 1383q3 20 24 20h74q12 0 22 -14l691 -1274l200 1270q3 18 23 18h57q16 0 13 -18l-220 -1383q-3 -20 -22 -20h-76q-16 0 -22 12l-691 1270l-200 -1264q-3 -18 -21 -18h-55q-19 0 -16 18zM682 1589q41 86 98 132t115 46q37 0 65 -18.5t44.5 -44.5t32 -51.5 t37.5 -43t50 -16.5q74 2 144 131q12 19 24 7l27 -23q12 -7 4 -20q-42 -87 -98.5 -133t-116.5 -46q-36 0 -63.5 18t-45 44t-33 51.5t-37.5 43.5t-50 17q-43 -1 -80 -40.5t-64 -92.5q-10 -17 -24 -8l-27 25q-10 9 -2 22z" />
<glyph unicode="&#xd2;" horiz-adv-x="1632" d="M199 711q53 327 286.5 528t561.5 201q217 0 367.5 -91t214 -256.5t28.5 -381.5q-53 -329 -283.5 -529t-558.5 -200q-329 0 -498.5 200.5t-117.5 528.5zM293 711q-44 -287 103 -463t433 -176t489 176t247 463q46 287 -100.5 463t-432.5 176q-287 0 -491 -176t-248 -463z M827 1688q-14 7 0 24l50 64q9 15 24 4l316 -244q13 -9 0 -25l-27 -34q-11 -15 -25 -4z" />
<glyph unicode="&#xd3;" horiz-adv-x="1632" d="M199 711q53 327 286.5 528t561.5 201q217 0 367.5 -91t214 -256.5t28.5 -381.5q-53 -329 -283.5 -529t-558.5 -200q-329 0 -498.5 200.5t-117.5 528.5zM293 711q-44 -287 103 -463t433 -176t489 176t247 463q46 287 -100.5 463t-432.5 176q-287 0 -491 -176t-248 -463z M877 1511q-7 17 6 25l395 246q15 11 22 -4l29 -66q10 -14 -10 -24l-404 -213q-14 -9 -24 4z" />
<glyph unicode="&#xd4;" horiz-adv-x="1632" d="M201 713q53 326 284.5 526.5t558.5 200.5q217 0 368.5 -91t215.5 -256t29 -380q-35 -218 -151.5 -384t-296 -256.5t-396.5 -90.5q-327 0 -495.5 200.5t-116.5 530.5zM293 711q-44 -287 103 -463t433 -176t489 176t249 463q44 289 -103 463.5t-434 173.5 q-286 0 -488.5 -174.5t-248.5 -462.5zM731 1544l303 197q13 10 27 10h63q14 0 27 -10l240 -195q22 -22 -9 -22h-82q-12 0 -24 8l-193 156l-239 -156q-20 -8 -29 -8h-82q-32 0 -2 20z" />
<glyph unicode="&#xd5;" horiz-adv-x="1632" d="M199 711q53 327 286.5 528t561.5 201q217 0 367.5 -91t214 -256.5t28.5 -381.5q-53 -329 -283.5 -529t-558.5 -200q-329 0 -498.5 200.5t-117.5 528.5zM293 711q-44 -287 103 -463t433 -176t489 176t247 463q46 287 -100.5 463t-432.5 176q-287 0 -491 -176t-248 -463z M756 1589q41 86 98 132t115 46q38 0 66 -18.5t45 -44.5t32 -51.5t36.5 -43t49.5 -16.5q45 1 78.5 37t64.5 94q13 19 25 7l29 -23q9 -6 4 -20q-43 -87 -100 -133t-115 -46q-37 0 -65 18t-45.5 44t-33 51.5t-37.5 43.5t-49 17q-77 -2 -143 -133q-10 -17 -25 -8l-28 25 q-8 8 -2 22z" />
<glyph unicode="&#xd6;" horiz-adv-x="1632" d="M199 711q53 327 286.5 528t561.5 201q217 0 367.5 -91t214 -256.5t28.5 -381.5q-53 -329 -283.5 -529t-558.5 -200q-329 0 -498.5 200.5t-117.5 528.5zM293 711q-44 -287 103 -463t433 -176t489 176t247 463q46 287 -100.5 463t-432.5 176q-287 0 -491 -176t-248 -463z M815 1620q6 41 36 66.5t71 25.5q39 0 59.5 -25.5t13.5 -66.5q-6 -38 -35 -63t-67 -25q-41 0 -62.5 24.5t-15.5 63.5zM1151 1620q8 41 36 66.5t68 25.5t61 -25.5t15 -66.5q-6 -38 -35 -63t-69 -25t-61 25t-15 63z" />
<glyph unicode="&#xd7;" horiz-adv-x="993" d="M219 356q-11 12 2 25l320 272l-232 275q-12 12 4 24l41 37q15 12 27 0l229 -274l316 274q15 12 24 0l33 -37q9 -11 -4 -24l-315 -275l227 -272q13 -13 -2 -25l-43 -39q-16 -10 -25 2l-229 273l-318 -273q-15 -12 -24 0z" />
<glyph unicode="&#xd8;" horiz-adv-x="1607" d="M147 6q-7 10 5 25l1460 1384q17 13 26 4l33 -33q10 -10 -8 -28l-1458 -1383q-14 -14 -25 0zM207 711q53 327 285.5 528t560.5 201q217 0 368 -91t215 -256.5t29 -381.5q-53 -329 -283.5 -529t-558.5 -200q-329 0 -498.5 200.5t-117.5 528.5zM301 711q-46 -287 102.5 -463 t434.5 -176q285 0 487 175.5t248 463.5q46 287 -101.5 463t-433.5 176q-287 0 -490 -176t-247 -463z" />
<glyph unicode="&#xd9;" horiz-adv-x="1363" d="M264 557l133 844q3 18 23 18h55q17 0 14 -18l-133 -846q-36 -227 57 -355t283 -128q187 0 318.5 127.5t167.5 355.5l133 848q3 16 22 16h58q17 0 14 -16l-133 -848q-42 -268 -203.5 -420.5t-390.5 -152.5q-233 -2 -346.5 151t-71.5 424zM692 1712l49 64q9 16 25 4 l315 -244q14 -8 0 -25l-26 -34q-11 -15 -25 -4l-336 215q-16 6 -2 24z" />
<glyph unicode="&#xda;" horiz-adv-x="1363" d="M264 557l133 844q3 18 23 18h55q17 0 14 -18l-133 -846q-36 -227 57 -355t283 -128q187 0 318.5 127.5t167.5 355.5l133 848q3 16 22 16h58q17 0 14 -16l-133 -848q-42 -268 -203.5 -420.5t-390.5 -152.5q-233 -2 -346.5 151t-71.5 424zM741 1511q-7 17 7 25l395 246 q15 11 22 -4l29 -66q10 -13 -8 -24l-406 -213q-13 -10 -24 4z" />
<glyph unicode="&#xdb;" horiz-adv-x="1363" d="M264 557l133 844q3 20 21 20h57q19 -4 17 -20l-134 -846q-38 -227 54.5 -354t281.5 -127q187 0 318.5 127t167.5 354l135 848q3 18 20 18h58q19 0 16 -18l-135 -848q-42 -268 -204 -420.5t-392 -152.5q-230 -2 -343 152t-71 423zM598 1550l303 197q13 10 27 10h63 q14 0 27 -10l239 -195q22 -22 -8 -22h-82q-10 0 -26 8l-191 156l-239 -156q-20 -8 -31 -8h-80q-32 0 -2 20z" />
<glyph unicode="&#xdc;" horiz-adv-x="1363" d="M264 557l133 844q3 18 23 18h55q17 0 14 -18l-133 -846q-36 -227 57 -355t283 -128q187 0 318.5 127.5t167.5 355.5l133 848q3 16 22 16h58q17 0 14 -16l-133 -848q-42 -268 -203.5 -420.5t-390.5 -152.5q-233 -2 -346.5 151t-71.5 424zM680 1620q6 41 35.5 66.5 t70.5 25.5q39 0 60 -25.5t14 -66.5q-6 -38 -35 -63t-67 -25q-41 0 -62.5 24.5t-15.5 63.5zM1016 1620q8 41 36 66.5t68 25.5t61 -25.5t15 -66.5q-6 -38 -35 -63t-69 -25t-61 25t-15 63z" />
<glyph unicode="&#xdd;" d="M250 1399q-9 20 18 20h68q19 0 24 -16l299 -741l545 741q10 16 29 16h70q20 0 4 -22l-617 -824l-88 -557q0 -16 -20 -16h-56q-16 0 -16 16l88 555zM616 1511q-7 17 7 25l395 246q15 11 22 -4l29 -66q10 -13 -8 -24l-406 -213q-13 -10 -24 4z" />
<glyph unicode="&#xde;" horiz-adv-x="1128" d="M158 18l219 1383q3 20 22 20h58q18 0 14 -18l-47 -303h330q217 0 320.5 -99t74.5 -290q-32 -190 -167 -289.5t-351 -99.5h-330l-51 -304q-3 -18 -21 -18h-55q-19 0 -16 18zM315 408h334q174 -1 279.5 77t128.5 224q23 147 -57 226t-257 79h-333z" />
<glyph unicode="&#xdf;" horiz-adv-x="1181" d="M178 18l152 957q16 97 54 180.5t97 149t143.5 102.5t184.5 37q142 0 232.5 -81t68.5 -220q-9 -57 -42.5 -104.5t-75.5 -79t-84 -58.5t-73.5 -57t-37.5 -62q-4 -25 14.5 -51t51 -51t72 -53t77.5 -63.5t68 -76t44 -97t4 -120.5q-23 -141 -138.5 -233t-260.5 -92 q-108 0 -199 53q-18 6 -8 27l31 55q11 14 27 6q77 -49 161 -49q110 0 194 65.5t101 163.5q9 56 -6.5 105t-46.5 84.5t-70 68t-78.5 61.5t-71 58.5t-48.5 66t-10 76.5q6 40 38.5 78t75 68.5t85.5 61.5t75.5 69.5t38.5 79.5q17 100 -47.5 154.5t-175.5 54.5q-65 0 -119.5 -20 t-93.5 -57.5t-69.5 -83.5t-51.5 -105.5t-34.5 -115t-23.5 -120.5l-133 -832q-3 -18 -20 -18h-55q-20 0 -17 18z" />
<glyph unicode="&#xe0;" horiz-adv-x="1181" d="M150 455q34 212 182.5 342.5t357.5 130.5q140 0 234.5 -62.5t130.5 -173.5l43 199q6 18 20 18h37q17 0 14 -18l-139 -875q-3 -16 -20 -16h-35q-9 0 -13.5 4.5t-3.5 11.5l21 199q-72 -110 -186.5 -172.5t-253.5 -62.5q-209 0 -316 131t-73 344zM233 455 q-28 -175 62.5 -283.5t263.5 -108.5q175 0 300.5 107.5t156.5 284.5q26 175 -65.5 282t-268.5 107q-173 0 -297 -107t-152 -282zM543 1330q0 6 6 11l57 62q14 14 25 0l254 -256q7 -10 -4 -23l-33 -28q-12 -12 -23 -2l-276 225q-6 5 -6 11z" />
<glyph unicode="&#xe1;" horiz-adv-x="1181" d="M150 455q34 212 182.5 342.5t357.5 130.5q140 0 234.5 -62.5t130.5 -173.5l43 199q6 18 20 18h37q17 0 14 -18l-139 -875q-3 -16 -20 -16h-35q-9 0 -13.5 4.5t-3.5 11.5l21 199q-72 -110 -186.5 -172.5t-253.5 -62.5q-209 0 -316 131t-73 344zM233 455 q-28 -175 62.5 -283.5t263.5 -108.5q175 0 300.5 107.5t156.5 284.5q26 175 -65.5 282t-268.5 107q-173 0 -297 -107t-152 -282zM627 1096q-10 13 4 24l342 262q17 14 24 0l41 -61q8 -16 -8 -25l-358 -233q-16 -11 -27 0z" />
<glyph unicode="&#xe2;" horiz-adv-x="1181" d="M150 455q34 212 182.5 342.5t357.5 130.5q140 0 234.5 -62.5t130.5 -173.5l43 199q6 18 20 18h37q17 0 14 -18l-139 -875q-3 -16 -20 -16h-35q-9 0 -13.5 4.5t-3.5 11.5l21 199q-72 -110 -186.5 -172.5t-253.5 -62.5q-209 0 -316 131t-73 344zM233 455 q-28 -175 62.5 -283.5t263.5 -108.5q175 0 300.5 107.5t156.5 284.5q26 175 -65.5 282t-268.5 107q-173 0 -297 -107t-152 -282zM446 1085l263 273q11 14 28 14h66q12 0 26 -14l172 -271q11 -16 -10 -16h-67q-14 0 -19 8l-145 230l-217 -228q-7 -10 -25 -10h-65q-18 0 -7 14 z" />
<glyph unicode="&#xe3;" horiz-adv-x="1232" d="M201 455q34 212 182.5 342.5t357.5 130.5q140 0 234.5 -62.5t130.5 -173.5l43 199q6 18 20 18h37q18 0 15 -18l-140 -875q-3 -16 -20 -16h-35q-19 0 -16 16l20 199q-72 -110 -186.5 -172.5t-253.5 -62.5q-209 0 -316 131t-73 344zM285 455q-28 -175 62 -283.5t263 -108.5 q175 0 300.5 107.5t156.5 284.5q26 175 -65.5 282t-268.5 107q-173 0 -296.5 -107t-151.5 -282zM473 1182q43 87 100.5 132.5t116.5 45.5q37 0 64.5 -18t44 -44t32 -51.5t37.5 -43.5t50 -17q74 2 145 133q9 18 22 8l31 -27q9 -6 0 -18q-38 -86 -96 -132t-119 -46 q-36 0 -64 18t-45 43.5t-33 51t-38 43t-49 16.5q-71 -2 -144 -131q-11 -19 -24 -8l-29 24q-8 8 -2 21z" />
<glyph unicode="&#xe4;" horiz-adv-x="1181" d="M150 455q34 212 182.5 342.5t357.5 130.5q140 0 234.5 -62.5t130.5 -173.5l43 199q6 18 20 18h37q17 0 14 -18l-139 -875q-3 -16 -20 -16h-35q-9 0 -13.5 4.5t-3.5 11.5l21 199q-72 -110 -186.5 -172.5t-253.5 -62.5q-209 0 -316 131t-73 344zM233 455 q-28 -175 62.5 -283.5t263.5 -108.5q175 0 300.5 107.5t156.5 284.5q26 175 -65.5 282t-268.5 107q-173 0 -297 -107t-152 -282zM514 1264q6 41 34.5 66.5t69.5 25.5q39 0 60 -25.5t14 -66.5q-6 -39 -34.5 -63.5t-67.5 -24.5q-41 0 -61.5 24t-14.5 64zM848 1264 q8 42 35.5 67t68.5 25t62.5 -25.5t15.5 -66.5q-6 -39 -35.5 -63.5t-70.5 -24.5t-61.5 24.5t-14.5 63.5z" />
<glyph unicode="&#xe5;" horiz-adv-x="1181" d="M150 455q34 212 182.5 342.5t357.5 130.5q140 0 234.5 -62.5t130.5 -173.5l43 199q6 18 20 18h37q17 0 14 -18l-139 -875q-3 -16 -20 -16h-35q-9 0 -13.5 4.5t-3.5 11.5l21 199q-72 -110 -186.5 -172.5t-253.5 -62.5q-209 0 -316 131t-73 344zM233 455 q-28 -175 62.5 -283.5t263.5 -108.5q175 0 300.5 107.5t156.5 284.5q26 175 -65.5 282t-268.5 107q-173 0 -297 -107t-152 -282zM551 1243q14 83 72 133.5t141 50.5q84 0 127 -50t31 -134q-13 -85 -72.5 -135.5t-144.5 -50.5q-83 0 -124.5 50.5t-29.5 135.5zM616 1243 q-9 -54 19 -87.5t82 -33.5t93 33.5t48 87.5q8 54 -20 87.5t-82 33.5t-93.5 -33.5t-46.5 -87.5z" />
<glyph unicode="&#xe6;" horiz-adv-x="1929" d="M150 455q34 212 182.5 342.5t357.5 130.5q136 0 223.5 -59.5t120.5 -166.5l43 189q6 18 21 18h37q17 0 14 -18l-27 -162q69 95 172 147t232 52q215 0 322 -135t69 -361q-3 -16 -23 -16h-815q-12 -162 74.5 -257.5t257.5 -95.5q196 0 322 119q18 15 26 4l35 -36 q8 -11 -6 -25q-72 -69 -173.5 -107t-217.5 -38q-137 0 -229 53.5t-132 152.5q-2 -17 -13.5 -88t-12.5 -80q-3 -18 -19 -18h-39q-17 0 -14 16l18 189q-67 -106 -174.5 -165.5t-242.5 -59.5q-209 0 -316 131t-73 344zM233 455q-28 -175 62.5 -283.5t263.5 -108.5 q170 0 287.5 106t148.5 288q26 175 -60 281t-253 106q-173 0 -297 -107t-152 -282zM1092 494h751q12 159 -78 254.5t-254 95.5q-161 0 -271.5 -94.5t-147.5 -255.5z" />
<glyph unicode="&#xe7;" horiz-adv-x="1019" d="M150 455q18 115 73.5 207.5t131.5 149.5t164.5 87.5t178.5 30.5q118 0 214.5 -50.5t146.5 -146.5q6 -16 -6 -26l-43 -33q-17 -11 -25 6q-39 74 -114.5 120t-188.5 46q-173 0 -297 -108t-152 -283t62.5 -283.5t263.5 -108.5q111 0 203 46t151 120q16 19 25 7l37 -35 q8 -10 -6 -27q-74 -92 -184.5 -143t-239.5 -51q-211 0 -320 131.5t-75 343.5zM266 -352q-10 10 2 22l27 31q9 12 22 2q71 -53 142 -53q56 0 95 27.5t46 72.5q5 45 -35 61.5t-114 16.5h-52q-8 0 -10 5t2 13l90 154h76l-57 -100q90 -5 137.5 -39t36.5 -111q-12 -76 -74.5 -123 t-150.5 -47q-105 0 -183 68z" />
<glyph unicode="&#xe8;" horiz-adv-x="1099" d="M150 455q34 212 184.5 342.5t361.5 130.5q218 0 324.5 -133t71.5 -359q-3 -20 -25 -20h-838q-12 -159 84 -256t269 -97q195 0 321 119q20 16 29 4l35 -36q8 -11 -6 -25q-74 -69 -176 -107t-218 -38q-221 0 -336 131t-81 344zM242 494h772q12 159 -77.5 254.5t-254.5 95.5 q-164 0 -283.5 -95.5t-156.5 -254.5zM535 1317q-15 12 0 24l55 60q16 13 26 0l252 -256q7 -7 -2 -23l-35 -28q-4 -6 -10.5 -6t-9.5 4z" />
<glyph unicode="&#xe9;" horiz-adv-x="1099" d="M150 455q34 212 184.5 342.5t361.5 130.5q218 0 324.5 -133t71.5 -359q-3 -20 -25 -20h-838q-12 -159 84 -256t269 -97q195 0 321 119q20 16 29 4l35 -36q8 -11 -6 -25q-74 -69 -176 -107t-218 -38q-221 0 -336 131t-81 344zM242 494h772q12 159 -77.5 254.5t-254.5 95.5 q-164 0 -283.5 -95.5t-156.5 -254.5zM586 1108q-9 12 4 25l334 253q15 12 24 0l39 -59q8 -16 -8 -22l-350 -230q-16 -9 -25 0z" />
<glyph unicode="&#xea;" horiz-adv-x="1097" d="M150 455q34 212 183.5 342.5t360.5 130.5q218 0 325.5 -133t70.5 -359q0 -20 -23 -20h-838q-12 -159 84 -256t269 -97q195 0 321 119q20 16 29 4l33 -36q11 -11 -7 -25q-154 -145 -391 -145q-221 0 -336 131t-81 344zM242 494h772q12 159 -77.5 254.5t-254.5 95.5 q-164 0 -283.5 -95.5t-156.5 -254.5zM442 1085l263 273q11 14 28 14h66q12 0 26 -14l172 -271q13 -16 -10 -16h-67q-11 0 -19 8l-145 232l-217 -230q-10 -10 -25 -10h-65q-21 0 -7 14z" />
<glyph unicode="&#xeb;" horiz-adv-x="1099" d="M150 455q34 212 184.5 342.5t361.5 130.5q218 0 324.5 -133t71.5 -359q-3 -20 -25 -20h-838q-12 -159 84 -256t269 -97q195 0 321 119q20 16 29 4l35 -36q8 -11 -6 -25q-74 -69 -176 -107t-218 -38q-221 0 -336 131t-81 344zM242 494h772q12 159 -77.5 254.5t-254.5 95.5 q-164 0 -283.5 -95.5t-156.5 -254.5zM492 1257q6 40 34.5 65.5t69.5 25.5q39 0 60 -26t14 -65q-6 -41 -35 -65.5t-68 -24.5q-41 0 -61 24.5t-14 65.5zM825 1257q8 40 36 65.5t69 25.5t62.5 -25.5t15.5 -65.5t-36 -65t-71 -25t-61.5 25t-14.5 65z" />
<glyph unicode="&#xec;" horiz-adv-x="423" d="M174 18l137 873q3 18 21 18h49q16 -3 14 -18l-139 -873q-3 -18 -18 -18h-50q-17 0 -14 18zM203 1307q-16 9 0 22l55 62q14 11 25 0l254 -258q6 -10 -5 -21l-32 -31q-9 -7 -23 -2z" />
<glyph unicode="&#xed;" horiz-adv-x="423" d="M174 18l137 873q3 18 21 18h49q16 -3 14 -18l-139 -873q-3 -18 -18 -18h-50q-17 0 -14 18zM252 1098q-7 11 4 22l336 256q17 14 24 0l37 -57q8 -13 -6 -27l-352 -225q-6 -6 -13 -5.5t-10 5.5z" />
<glyph unicode="&#xee;" horiz-adv-x="423" d="M86 1067l274 287q14 14 33 14h70q13 0 24 -14l183 -285q12 -18 -11 -18h-71q-12 0 -19 10l-153 242l-230 -240q-9 -12 -24 -12h-70q-22 0 -6 16zM174 18l137 873q3 18 21 18h49q16 -3 14 -18l-139 -873q-3 -18 -18 -18h-50q-17 0 -14 18z" />
<glyph unicode="&#xef;" horiz-adv-x="423" d="M150 1251q6 40 34.5 65t69.5 25q38 0 59 -25t15 -65q-6 -41 -35 -65.5t-68 -24.5q-41 0 -61 24.5t-14 65.5zM174 18l137 873q3 18 21 18h49q16 -3 14 -18l-139 -873q-3 -18 -18 -18h-50q-17 0 -14 18zM483 1251q6 40 35 65t70 25t62.5 -25t15.5 -65t-36 -65t-71 -25 t-61.5 25t-14.5 65z" />
<glyph unicode="&#xf0;" horiz-adv-x="1103" d="M182 414q31 196 168.5 313t333.5 117q92 0 163.5 -32t113.5 -87q-39 227 -189 408l-287 -134q-12 -6 -20 2l-29 35q-10 13 10 23l275 129q-99 99 -229 164q-20 8 -9 24l33 49q12 17 29 7q159 -75 272 -197l230 108q13 7 24 -4l27 -32q11 -15 -11 -23l-225 -106 q127 -160 176.5 -363t12.5 -416q-35 -189 -173.5 -304t-330.5 -115q-195 0 -295.5 119.5t-69.5 314.5zM272 412q-25 -155 55 -250.5t234 -95.5q155 0 267 97.5t137 254.5q23 156 -55.5 249t-237.5 93q-155 0 -265 -95.5t-135 -252.5z" />
<glyph unicode="&#xf1;" d="M166 16l139 875q3 16 19 16h36q17 0 17 -16l-21 -207q58 112 156 178t227 66q169 0 249.5 -100.5t47.5 -305.5l-80 -504q-3 -18 -18 -18h-51q-18 0 -15 18l80 506q26 161 -36 240.5t-199 79.5q-142 0 -251 -108.5t-144 -272.5l-70 -447q-3 -16 -19 -16h-51q-19 0 -16 16z M442 1190q42 86 97 131t112 43q44 0 75.5 -27t47 -58.5t41 -57.5t59.5 -25q76 0 142 129q9 18 22 8l29 -26q8 -4 4 -17q-40 -85 -96 -130.5t-115 -45.5q-36 0 -63 17.5t-44 43t-33 50.5t-37 42.5t-48 16.5q-72 -2 -139 -129q-9 -18 -25 -8l-27 24q-9 9 -2 19z" />
<glyph unicode="&#xf2;" horiz-adv-x="1099" d="M150 455q34 212 184.5 342.5t361.5 130.5q212 0 322 -130.5t76 -342.5t-185.5 -343.5t-363.5 -131.5q-211 0 -320 131.5t-75 343.5zM233 455q-28 -175 62 -283.5t264 -108.5t298.5 108.5t152.5 283.5t-62.5 282t-265.5 107q-173 0 -297 -107t-152 -282zM504 1317 q-15 12 0 24l55 60q17 13 27 0l252 -256q7 -7 -2 -23l-35 -28q-4 -6 -10.5 -6t-10.5 4z" />
<glyph unicode="&#xf3;" horiz-adv-x="1099" d="M150 455q34 212 184.5 342.5t361.5 130.5q212 0 322 -130.5t76 -342.5t-185.5 -343.5t-363.5 -131.5q-211 0 -320 131.5t-75 343.5zM233 455q-28 -175 62 -283.5t264 -108.5t298.5 108.5t152.5 283.5t-62.5 282t-265.5 107q-173 0 -297 -107t-152 -282zM586 1106 q-10 13 4 24l334 254q6 6 12.5 6t9.5 -6l41 -59q8 -16 -8 -22l-350 -230q-16 -9 -25 0z" />
<glyph unicode="&#xf4;" horiz-adv-x="1099" d="M150 455q34 212 184.5 342.5t361.5 130.5q212 0 322 -130.5t76 -342.5t-185.5 -343.5t-363.5 -131.5q-211 0 -320 131.5t-75 343.5zM233 455q-28 -175 62 -283.5t264 -108.5t298.5 108.5t152.5 283.5t-62.5 282t-265.5 107q-173 0 -297 -107t-152 -282zM442 1085l263 273 q9 12 28 12h68q15 0 24 -12l172 -271q12 -18 -10 -18h-67q-9 0 -19 10l-143 230l-219 -228q-9 -12 -25 -12h-65q-20 0 -7 16z" />
<glyph unicode="&#xf5;" horiz-adv-x="1099" d="M150 455q34 212 184.5 342.5t361.5 130.5q212 0 322 -130.5t76 -342.5t-185.5 -343.5t-363.5 -131.5q-211 0 -320 131.5t-75 343.5zM233 455q-28 -175 62 -283.5t264 -108.5t298.5 108.5t152.5 283.5t-62.5 282t-265.5 107q-173 0 -297 -107t-152 -282zM418 1169 q43 87 100.5 133t116.5 46q37 0 64 -18t44 -44t32 -51.5t37 -42.5t50 -16q75 0 146 131q9 18 22 8l31 -27q9 -4 2 -18q-40 -87 -97 -132.5t-118 -45.5q-37 0 -65 18t-45.5 43.5t-33.5 51t-37.5 43t-48.5 16.5q-72 -2 -145 -131q-9 -21 -24 -9l-29 25q-8 8 -2 20z" />
<glyph unicode="&#xf6;" horiz-adv-x="1099" d="M150 455q34 212 184.5 342.5t361.5 130.5q212 0 322 -130.5t76 -342.5t-185.5 -343.5t-363.5 -131.5q-211 0 -320 131.5t-75 343.5zM233 455q-28 -175 62 -283.5t264 -108.5t298.5 108.5t152.5 283.5t-62.5 282t-265.5 107q-173 0 -297 -107t-152 -282zM494 1272 q6 41 34.5 66.5t69.5 25.5q40 0 61 -25.5t15 -66.5q-7 -40 -36 -64t-69 -24q-41 0 -61 24t-14 64zM829 1272q6 41 34.5 66.5t68.5 25.5q41 0 62.5 -25.5t15.5 -66.5q-6 -38 -36 -63t-71 -25q-40 0 -61 25t-13 63z" />
<glyph unicode="&#xf7;" horiz-adv-x="1103" d="M248 578l8 53q3 19 20 16h758q18 0 15 -16l-9 -53q-3 -17 -20 -17h-758q-17 0 -14 17zM504 324q8 44 39 71t75 27q45 0 67.5 -26.5t14.5 -71.5q-6 -43 -37.5 -71t-76.5 -28q-44 0 -66 28t-16 71zM596 899q6 43 37.5 69.5t75.5 26.5q45 0 67.5 -26.5t16.5 -69.5 q-8 -45 -39 -72.5t-76 -27.5q-44 0 -67 28t-15 72z" />
<glyph unicode="&#xf8;" horiz-adv-x="1099" d="M100 0q-12 12 4 27l109 102q-94 126 -63 326q34 212 184.5 342.5t361.5 130.5q165 0 273 -84l108 100q15 14 25 4l33 -33q9 -12 -5 -26l-106 -101q104 -129 70 -333q-34 -212 -185.5 -343.5t-363.5 -131.5q-173 0 -279 92l-108 -101q-15 -15 -29 -4zM236 455 q-25 -160 47 -260l616 583q-86 64 -217 64q-173 0 -295.5 -106.5t-150.5 -280.5zM336 137q84 -71 223 -71q175 0 298 107t151 282q27 164 -54 268z" />
<glyph unicode="&#xf9;" d="M223 385l80 504q3 18 19 18h51q17 0 14 -18l-80 -506q-26 -161 36.5 -240.5t199.5 -79.5q142 0 252 109t143 272l72 447q3 16 18 16h51q18 0 15 -16l-140 -875q-3 -16 -18 -16h-35q-19 0 -16 16l20 207q-60 -113 -157.5 -178t-225.5 -65q-170 0 -251 100t-48 305z M539 1296q-16 10 0 23l55 61q15 9 24 0l254 -258q6 -10 -4 -20l-32 -31q-9 -7 -23 -2z" />
<glyph unicode="&#xfa;" d="M223 385l80 504q3 18 19 18h51q17 0 14 -18l-80 -506q-26 -161 36.5 -240.5t199.5 -79.5q142 0 252 109t143 272l72 447q3 16 18 16h51q18 0 15 -16l-140 -875q-3 -16 -18 -16h-35q-19 0 -16 16l20 207q-60 -113 -157.5 -178t-225.5 -65q-170 0 -251 100t-48 305z M580 1092q-8 14 4 26l334 254q17 14 24 0l39 -59q8 -16 -8 -25l-348 -227q-16 -11 -27 0z" />
<glyph unicode="&#xfb;" d="M223 385l80 504q3 18 19 18h51q17 0 14 -18l-80 -506q-26 -161 36.5 -240.5t199.5 -79.5q142 0 252 109t143 272l72 447q3 16 18 16h51q18 0 15 -16l-140 -875q-3 -16 -18 -16h-35q-19 0 -16 16l20 207q-60 -113 -157.5 -178t-225.5 -65q-170 0 -251 100t-48 305z M442 1079l269 279q11 14 28 14h70q15 0 25 -14l178 -279q5 -7 2 -11.5t-13 -4.5h-71q-9 0 -19 10l-147 236l-225 -234q-6 -12 -23 -12h-67q-23 0 -7 16z" />
<glyph unicode="&#xfc;" d="M223 385l80 504q3 18 19 18h51q17 0 14 -18l-80 -506q-26 -161 36.5 -240.5t199.5 -79.5q142 0 252 109t143 272l72 447q3 16 18 16h51q18 0 15 -16l-140 -875q-3 -16 -18 -16h-35q-19 0 -16 16l20 207q-60 -113 -157.5 -178t-225.5 -65q-170 0 -251 100t-48 305z M498 1251q6 40 34.5 65t69.5 25q40 0 61 -25t15 -65q-7 -41 -36 -65.5t-69 -24.5q-41 0 -61 24.5t-14 65.5zM834 1251q6 40 34 65t68 25q41 0 62.5 -25t15.5 -65t-36 -65t-71 -25q-39 0 -59 25t-14 65z" />
<glyph unicode="&#xfd;" horiz-adv-x="907" d="M162 -440l256 450l-244 871q-10 26 16 26h60q16 0 20 -18l205 -776l445 776q11 18 24 18h60q24 0 8 -26l-766 -1330q-7 -18 -27 -18h-51q-25 0 -6 27zM514 1065q-10 14 4 25l334 253q6 6 12.5 6t9.5 -6l39 -59q11 -15 -6 -22l-350 -230q-16 -9 -25 0z" />
<glyph unicode="&#xfe;" horiz-adv-x="1183" d="M82 -449l303 1909q3 19 18 19h52q19 0 16 -19l-123 -774q70 114 185 178t258 64q209 0 316 -130.5t73 -342.5q-34 -213 -183 -344t-358 -131q-143 0 -237 64t-128 179l-106 -672q-3 -18 -21 -18h-51q-17 0 -14 18zM311 455q-28 -177 65 -284.5t269 -107.5 q174 0 298.5 108.5t152.5 283.5t-62.5 282t-265.5 107t-302.5 -107t-154.5 -282z" />
<glyph unicode="&#xff;" horiz-adv-x="907" d="M162 -440l256 450l-244 871q-10 26 16 26h60q16 0 20 -18l205 -776l445 776q11 18 24 18h60q24 0 8 -26l-766 -1330q-7 -18 -27 -18h-51q-25 0 -6 27zM381 1231q6 41 34.5 66.5t69.5 25.5q38 0 59 -25.5t15 -66.5q-6 -39 -34.5 -63.5t-67.5 -24.5q-41 0 -61.5 24 t-14.5 64zM715 1231q6 41 34.5 66.5t69.5 25.5t62.5 -25.5t15.5 -66.5q-8 -39 -36.5 -63.5t-69.5 -24.5t-61.5 24.5t-14.5 63.5z" />
<glyph unicode="&#x152;" horiz-adv-x="1564" d="M201 711q35 214 149.5 374.5t290.5 247t391 88.5h641q10 0 14 -3.5t3 -12.5l-9 -53q-3 -17 -22 -17h-572l-90 -567h471q10 0 15 -4.5t4 -13.5l-8 -52q-3 -16 -23 -16h-471l-94 -596h592q17 0 14 -16l-8 -54q-3 -16 -21 -16h-669q-159 3 -282.5 54t-202 142t-108.5 223 t-5 292zM293 711q-44 -276 95 -443t411 -176l196 1237q-277 -9 -467.5 -174.5t-234.5 -443.5z" />
<glyph unicode="&#x153;" horiz-adv-x="1912" d="M150 455q34 212 182.5 342.5t355.5 130.5q151 0 248 -70.5t127 -195.5q69 125 186.5 195.5t268.5 70.5q219 0 320 -137t65 -359q-3 -16 -23 -16h-813q-12 -161 76.5 -257t259.5 -96q185 0 315 119q17 14 27 4l35 -36q10 -10 -6 -25q-154 -145 -383 -145 q-160 0 -261.5 71.5t-132.5 198.5q-69 -127 -188 -198.5t-272 -71.5q-207 0 -314 130.5t-73 344.5zM233 455q-28 -175 60 -283.5t258 -108.5q172 0 291 107t147 285q28 175 -57.5 282t-257.5 107q-170 0 -291.5 -107t-149.5 -282zM1079 494h748q12 160 -74 255t-250 95 q-162 0 -274.5 -94.5t-149.5 -255.5z" />
<glyph unicode="&#x178;" d="M250 1399q-9 20 18 20h68q19 0 24 -16l299 -741l545 741q10 16 29 16h70q20 0 4 -22l-617 -824l-88 -557q0 -16 -20 -16h-56q-16 0 -16 16l88 555zM555 1620q6 41 36 66.5t71 25.5q39 0 59.5 -25.5t13.5 -66.5q-6 -38 -35 -63t-67 -25q-41 0 -62.5 24.5t-15.5 63.5z M891 1620q8 41 36 66.5t68 25.5t61 -25.5t15 -66.5q-6 -38 -35 -63t-69 -25t-61 25t-15 63z" />
<glyph unicode="&#x2c6;" horiz-adv-x="806" d="M283 1081l274 287q11 14 31 14h69q13 0 27 -14l182 -285q12 -18 -12 -18h-72q-8 0 -18 10l-152 242l-231 -240q-6 -12 -25 -12h-69q-20 0 -4 16z" />
<glyph unicode="&#x2dc;" horiz-adv-x="794" d="M281 1221q-7 11 0 20q42 87 99 133.5t116 44.5q37 0 64.5 -18t44 -44t32 -51.5t37 -42.5t49.5 -16q75 2 145 131q10 21 23 8l31 -26q8 -5 4 -17q-42 -88 -99 -134t-118 -46q-37 0 -65 18t-45.5 43.5t-33.5 51t-37.5 43t-48.5 16.5q-31 0 -60.5 -23t-46 -46.5t-38.5 -61.5 q-9 -21 -25 -8z" />
<glyph unicode="&#x2000;" horiz-adv-x="910" />
<glyph unicode="&#x2001;" horiz-adv-x="1821" />
<glyph unicode="&#x2002;" horiz-adv-x="910" />
<glyph unicode="&#x2003;" horiz-adv-x="1821" />
<glyph unicode="&#x2004;" horiz-adv-x="607" />
<glyph unicode="&#x2005;" horiz-adv-x="455" />
<glyph unicode="&#x2006;" horiz-adv-x="303" />
<glyph unicode="&#x2007;" horiz-adv-x="303" />
<glyph unicode="&#x2008;" horiz-adv-x="227" />
<glyph unicode="&#x2009;" horiz-adv-x="364" />
<glyph unicode="&#x200a;" horiz-adv-x="101" />
<glyph unicode="&#x2010;" horiz-adv-x="813" d="M207 575l6 52q3 18 20 18h549q18 0 15 -18l-6 -52q-3 -18 -23 -18h-549q-15 0 -12 18z" />
<glyph unicode="&#x2011;" horiz-adv-x="813" d="M207 575l6 52q3 18 20 18h549q18 0 15 -18l-6 -52q-3 -18 -23 -18h-549q-15 0 -12 18z" />
<glyph unicode="&#x2012;" horiz-adv-x="813" d="M207 575l6 52q3 18 20 18h549q18 0 15 -18l-6 -52q-3 -18 -23 -18h-549q-15 0 -12 18z" />
<glyph unicode="&#x2013;" horiz-adv-x="1185" d="M246 573l8 54q3 16 22 16h838q17 0 14 -16l-8 -54q-3 -16 -20 -16h-838q-19 0 -16 16z" />
<glyph unicode="&#x2014;" horiz-adv-x="1730" d="M246 573l8 54q3 16 22 16h1383q17 0 14 -16l-8 -54q-3 -18 -20 -18h-1383q-19 0 -16 18z" />
<glyph unicode="&#x2018;" horiz-adv-x="468" d="M274 969q-25 113 64.5 260.5t206.5 214.5q13 10 22 -4l15 -25q10 -13 -9 -26q-70 -48 -134 -130t-81 -169q12 4 19 4q41 0 61.5 -25t14.5 -65q-8 -40 -36 -65.5t-69 -25.5q-29 0 -49.5 15t-24.5 41z" />
<glyph unicode="&#x2019;" horiz-adv-x="468" d="M258 944q-9 15 8 27q71 49 135 130.5t80 168.5q-8 -4 -16 -4q-39 0 -59.5 25t-14.5 65t34.5 65t68.5 25q62 0 75 -55q15 -76 -23.5 -173.5t-106 -179t-140.5 -123.5q-13 -7 -25 5z" />
<glyph unicode="&#x201a;" horiz-adv-x="512" d="M74 -305q-8 13 8 26q72 48 136.5 130t80.5 169q-12 -4 -18 -4q-39 0 -59.5 25t-14.5 65t34.5 65.5t67.5 25.5q31 0 51.5 -15t24.5 -41q16 -76 -22 -173t-106 -178.5t-142 -123.5q-15 -9 -23 4z" />
<glyph unicode="&#x201c;" horiz-adv-x="780" d="M272 969q-22 113 67 261t204 216q14 5 24 -8l17 -23q8 -13 -9 -26q-71 -48 -135 -129.5t-80 -169.5q8 4 17 4q39 0 59.5 -25t14.5 -65q-6 -41 -34.5 -66t-68.5 -25q-63 0 -76 56zM584 969q-22 114 67 261.5t205 215.5q17 7 23 -8l16 -25q8 -13 -8 -24 q-71 -49 -135 -130.5t-80 -168.5q8 4 16 4q41 0 61.5 -25t14.5 -65q-6 -41 -35 -66t-70 -25q-62 0 -75 56z" />
<glyph unicode="&#x201d;" horiz-adv-x="821" d="M279 944q-6 14 8 25q71 48 135 129.5t80 169.5q-8 -4 -17 -4q-39 0 -59 25t-14 65t34 65t68 25q65 0 74 -55q12 -57 -8 -129t-60 -137t-93.5 -122t-107.5 -88q-17 -9 -24 5zM592 942q-9 15 8 27q70 48 134 130t81 169q-12 -4 -16 -4q-40 0 -61 25t-15 65t35 65t69 25 q65 0 74 -55q16 -75 -22.5 -173t-106.5 -179.5t-141 -123.5q-14 -8 -23 5z" />
<glyph unicode="&#x201e;" horiz-adv-x="821" d="M70 -305q-7 12 8 24q71 48 135 129.5t80 169.5q-12 -4 -17 -4q-40 0 -60.5 25t-14.5 65t35 65.5t69 25.5q63 0 76 -56q16 -75 -22.5 -172.5t-107 -179t-142.5 -123.5q-13 -10 -23 4zM381 -307q-7 11 8 26q73 48 137 129.5t78 169.5q-8 -4 -16 -4q-39 0 -59.5 25t-14.5 65 t34.5 65.5t67.5 25.5q63 0 76 -56q16 -76 -22 -173t-106 -178.5t-142 -123.5q-13 -8 -25 4z" />
<glyph unicode="&#x2022;" horiz-adv-x="768" d="M262 657q15 101 87 163.5t173 62.5t154.5 -62.5t38.5 -163.5q-17 -101 -90 -164t-174 -63t-153.5 63t-35.5 164z" />
<glyph unicode="&#x2026;" horiz-adv-x="1617" d="M193 80q6 41 34 66.5t68 25.5t61 -25.5t15 -66.5q-6 -39 -35.5 -63.5t-69.5 -24.5t-59.5 24t-13.5 64zM731 80q6 41 35.5 66.5t69.5 25.5t60.5 -25.5t14.5 -66.5q-6 -39 -35 -63.5t-69 -24.5t-61 24t-15 64zM1270 80q6 41 35 66.5t69 25.5t61 -25.5t15 -66.5 q-6 -39 -35 -63.5t-69 -24.5t-61 24t-15 64z" />
<glyph unicode="&#x202f;" horiz-adv-x="364" />
<glyph unicode="&#x2039;" horiz-adv-x="698" d="M244 537l4 18q3 18 18 33l322 303q15 15 26 4l33 -39q9 -15 -8 -29l-303 -282l213 -281q16 -16 0 -26l-45 -39q-15 -15 -25 2l-225 303q-10 13 -10 33z" />
<glyph unicode="&#x203a;" horiz-adv-x="698" d="M225 236q-10 12 6 28l304 281l-213 282q-10 19 2 27l45 41q17 10 26 -4l223 -303q11 -11 11 -33l-2 -16q-8 -24 -21 -37l-319 -301q-16 -14 -29 -4z" />
<glyph unicode="&#x205f;" horiz-adv-x="455" />
<glyph unicode="&#x20ac;" horiz-adv-x="1273" d="M154 483l8 54q3 16 22 16h146q3 66 16 158q4 20 4 30h-137q-17 0 -14 17l8 53q3 18 20 18h142q69 279 227.5 445t359.5 166q143 0 240.5 -87.5t134.5 -244.5q3 -20 -14 -29l-51 -30q-22 -11 -25 14q-25 133 -105.5 210t-195.5 77q-160 0 -288.5 -141.5t-188.5 -379.5h323 q20 0 17 -18l-8 -53q-3 -17 -23 -17h-330q0 -10 -4 -30q-10 -72 -14 -158h319q18 0 15 -16l-8 -54q-3 -18 -21 -18h-303q11 -184 93.5 -288.5t219.5 -104.5q111 0 207 67t160 178q16 23 31 13l41 -29q15 -9 2 -29q-86 -138 -203 -214t-250 -76q-177 0 -281.5 129t-115.5 354 h-160q-19 0 -16 18z" />
<glyph unicode="&#x2122;" horiz-adv-x="1400" d="M334 1370l4 33q3 18 22 18h428q18 0 15 -18l-4 -33q-3 -18 -21 -18h-178l-86 -539q-3 -18 -20 -18h-37q-18 0 -15 18l86 539h-178q-19 0 -16 18zM799 809l90 577q7 31 35 31h39q19 0 22 -18l148 -412l278 412q15 18 33 18h45q19 0 16 -22l-92 -586q-3 -18 -22 -18h-35 q-18 0 -15 18l76 483l-262 -389q-12 -15 -29 -18h-18q-16 0 -23 18l-139 391l-76 -485q-3 -18 -22 -18h-35q-17 0 -14 18z" />
<glyph unicode="&#x25fc;" horiz-adv-x="911" d="M0 0v911h911v-911h-911z" />
</font>
</defs>
</svg>
