<?xml version="1.0" standalone="no"?>
<!DOCTYPE svg PUBLIC "-//W3C//DTD SVG 1.1//EN" "http://www.w3.org/Graphics/SVG/1.1/DTD/svg11.dtd" >
<svg xmlns="http://www.w3.org/2000/svg" xmlns:xlink="http://www.w3.org/1999/xlink" version="1.1">
<metadata></metadata>
<defs>
<font id="ageomedium_italic" horiz-adv-x="1333" >
<font-face units-per-em="2048" ascent="1556" descent="-492" />
<missing-glyph horiz-adv-x="512" />
<glyph unicode="&#xfb01;" horiz-adv-x="1083" d="M139 797l17 106q4 23 26 23h146l32 227q29 169 140.5 258.5t279.5 89.5q80 0 145.5 -20t101 -45t62.5 -60.5t34.5 -51.5t13.5 -34q6 -14 -9 -24l-92 -92q-15 -12 -24 2q0 1 -6 12t-10.5 18.5t-14 22t-20 25t-24.5 24t-31 23.5t-37.5 18.5t-45.5 13t-53 4.5 q-97 0 -161.5 -48.5t-82.5 -149.5l-32 -213h571q19 0 16 -21l-137 -885q-3 -20 -24 -20h-125q-20 0 -17 20l119 756h-428l-119 -756q-3 -20 -24 -20h-125q-20 0 -17 20l119 756h-145q-22 0 -19 21z" />
<glyph unicode="&#xfb02;" horiz-adv-x="1091" d="M137 795l19 110q8 19 22 19h148l36 229q27 165 144.5 256.5t275.5 89.5q56 0 118 -9t99.5 -18t89.5 -24t64 -18q16 -6 12 -29l-215 -1381q-4 -20 -26 -20h-123q-9 0 -14 6t-3 14l199 1268q-109 49 -215 49q-206 0 -242 -198l-34 -215h239q9 0 15 -6t4 -13l-19 -110 q0 -9 -7 -15t-15 -6h-240l-119 -756q0 -7 -6.5 -12.5t-15.5 -5.5h-127q-18 0 -15 20l117 754h-147q-19 0 -19 21z" />
<glyph unicode="&#xfb03;" horiz-adv-x="1703" d="M139 797l17 106q4 23 26 23h146l32 227q29 169 117.5 258.5t216.5 89.5q114 0 211 -67q14 -10 0 -31l-74 -103q-11 -14 -28 -6q-62 43 -121 43q-121 0 -156 -198l-32 -213h452l35 227q26 168 138 258t280 90q80 0 145 -20t100.5 -44.5t63 -60.5t34.5 -52t13 -34 q6 -15 -8 -24l-92 -92q-8 -5 -14.5 -4t-8.5 6q-1 2 -9 16.5t-16.5 26.5t-22.5 30.5t-32.5 32.5t-41.5 27t-54.5 20.5t-66.5 7.5q-96 0 -161 -48.5t-83 -149.5l-33 -213h574q20 0 16 -21l-139 -885q-3 -20 -25 -20h-125q-19 0 -16 20l119 756h-429l-116 -756q-3 -20 -25 -20 h-125q-19 0 -16 20l117 756h-453l-119 -756q-3 -20 -24 -20h-125q-20 0 -17 20l119 756h-145q-22 0 -19 21z" />
<glyph unicode="&#xfb04;" horiz-adv-x="1710" d="M139 797l17 106q4 23 26 23h146l32 227q29 169 117.5 258.5t216.5 89.5q114 0 211 -67q14 -10 0 -31l-74 -103q-11 -14 -28 -6q-62 43 -121 43q-121 0 -156 -198l-32 -213h452l35 227q27 165 144.5 256.5t275.5 89.5q56 0 118.5 -9t99 -18t91 -24.5t62.5 -17.5 q18 -7 14 -29l-217 -1381q-4 -20 -25 -20h-123q-10 0 -15 6t-3 14l199 1268q-109 49 -213 49q-208 0 -244 -198l-33 -213h240q9 0 13.5 -7t2.5 -16l-16 -106q-1 -9 -9 -15t-16 -6h-237l-121 -758q0 -7 -7 -12.5t-16 -5.5h-127q-17 0 -14 20l117 756h-453l-119 -756 q-3 -20 -24 -20h-125q-20 0 -17 20l119 756h-145q-22 0 -19 21z" />
<glyph horiz-adv-x="0" />
<glyph horiz-adv-x="682" />
<glyph horiz-adv-x="0" />
<glyph horiz-adv-x="0" />
<glyph unicode="&#xd;" horiz-adv-x="0" />
<glyph unicode=" "  horiz-adv-x="512" />
<glyph unicode="&#x09;" horiz-adv-x="512" />
<glyph unicode="&#xa0;" horiz-adv-x="512" />
<glyph unicode="!" horiz-adv-x="516" d="M158 96q9 52 44.5 82.5t88.5 30.5t79 -30.5t17 -82.5q-7 -52 -43.5 -84t-89.5 -32q-52 0 -78 31.5t-18 84.5zM236 414l151 987q3 20 25 20h143q19 0 16 -20l-159 -987q-4 -21 -25 -21h-135q-20 0 -16 21z" />
<glyph unicode="&#x22;" horiz-adv-x="743" d="M219 950q-10 16 10 29q148 102 187 242h-2q-51 3 -77.5 35.5t-17.5 84.5q8 56 47.5 90.5t96.5 34.5q44 0 71.5 -24t32.5 -64q15 -120 -75 -272.5t-205 -210.5q-20 -8 -29 8zM539 950q-10 16 10 29q144 102 186 242h-4q-50 3 -75.5 35.5t-16.5 84.5q9 57 47.5 91t93.5 34 q44 0 73 -24t32 -64q11 -78 -27.5 -178t-107.5 -184t-144 -121q-19 -7 -28 8z" />
<glyph unicode="#" d="M131 424l51 106q13 21 33 21h176l127 301h-207q-21 0 -12 18l53 107q7 20 31 20h197l170 404q10 20 28 20h123q20 0 10 -20l-170 -404h308l170 404q10 20 30 20h121q19 0 12 -20l-172 -404h203q19 0 12 -20l-53 -107q-9 -18 -29 -18h-194l-125 -301h221q9 0 12 -6t-2 -15 l-51 -106q-9 -18 -30 -18h-213l-162 -386q-10 -20 -31 -20h-121q-20 0 -10 20l160 386h-308l-159 -386q-10 -20 -31 -20h-121q-19 0 -12 20l162 386h-187q-19 0 -10 18zM553 551h307l127 301h-307z" />
<glyph unicode="$" horiz-adv-x="1159" d="M121 150q-13 13 0 32l90 119q12 15 29 4q37 -42 117.5 -87t191.5 -58l74 456q-211 55 -296.5 157t-64.5 263q23 160 159.5 272.5t330.5 129.5l10 59q4 21 22 21h74q9 0 14.5 -6t4.5 -15l-11 -59q94 -6 172.5 -33.5t113.5 -52t56 -47.5q11 -15 0 -33l-80 -129 q-11 -17 -24 -4q-103 103 -266 121l-74 -472q216 -59 303.5 -148t67.5 -239q-22 -182 -152.5 -294.5t-345.5 -124.5l-31 -191q-3 -20 -24 -20h-72q-21 0 -18 20l30 191q-69 5 -131.5 21t-104.5 34.5t-78.5 42t-55 39.5t-31.5 31zM442 1044q-12 -82 32.5 -132t178.5 -93 l70 441q-110 -12 -189.5 -72t-91.5 -144zM664 158q120 7 197 67.5t91 155.5q12 73 -39 122t-180 87z" />
<glyph unicode="%" horiz-adv-x="1544" d="M244 1124q23 148 127 238t252 90t223.5 -90t52.5 -238q-23 -147 -127 -236t-252 -89t-223.5 88.5t-52.5 236.5zM342 25l1040 1439q11 15 25 15h137q24 0 8 -23l-1042 -1442q-10 -14 -25 -14h-137q-24 0 -6 25zM410 1124q-11 -72 26 -116.5t109 -44.5q73 0 125.5 44 t64.5 117q12 74 -26 119t-111 45t-124.5 -45t-63.5 -119zM954 307q23 148 127 237t252 89t223 -89t52 -237t-127 -237.5t-252 -89.5t-223 89.5t-52 237.5zM1118 307q-12 -74 26 -119t111 -45t125 45t64 119q11 73 -26.5 117.5t-110.5 44.5t-126 -45t-63 -117z" />
<glyph unicode="&#x26;" horiz-adv-x="1368" d="M125 428q21 133 102.5 229t208.5 144q-107 136 -84 291q26 157 139 252.5t273 95.5q222 0 280 -172q6 -16 -12 -31l-125 -76q-20 -10 -26 6q-40 101 -150 101q-76 0 -132 -50.5t-69 -136.5q-7 -41 4 -82.5t40.5 -85t55 -74t68.5 -77.5l8 -8t7 -8t8 -9l313 -348 q98 156 135 373q3 20 25 20h135q20 0 17 -20q-51 -304 -195 -506l209 -233q9 -9 5.5 -16t-17.5 -7h-172q-21 0 -35 14l-105 115q-186 -162 -426 -162q-250 0 -383 129.5t-102 331.5zM303 432q-21 -129 71.5 -215t260.5 -86q161 0 291 121q-33 38 -209.5 232.5t-192.5 211.5 q-90 -34 -148 -103.5t-73 -160.5z" />
<glyph unicode="'" horiz-adv-x="423" d="M219 952q-13 13 8 27q148 105 189 242q-2 0 -4 2q-51 3 -76.5 36t-16.5 87q7 55 47 88.5t97 33.5q44 0 72 -23.5t32 -64.5q10 -80 -28.5 -180t-107 -183.5t-142.5 -119.5q-18 -9 -33 6z" />
<glyph unicode="(" horiz-adv-x="604" d="M156 288q0 128 20 257q20 123 60.5 249t82 217t92 180.5t79.5 132.5t55 79q14 18 37 18h129q18 -3 6 -18q-27 -36 -55.5 -78.5t-79.5 -132.5t-93 -181t-82.5 -217t-60.5 -249q-21 -129 -21.5 -257.5t12 -217.5t37 -178t39 -127t31.5 -76q10 -17 -10 -17h-129 q-23 0 -31 19q-16 34 -31.5 74.5t-38.5 127.5t-35.5 177t-12.5 218z" />
<glyph unicode=")" horiz-adv-x="604" d="M57 -323q-2 5 4 12q300 397 369 856q20 123 20 248.5t-13 218t-35.5 180t-39.5 133t-32 78.5q-3 8 1 13t13 5h131q20 0 27 -18q15 -35 31 -78.5t38.5 -132.5t35 -181t13 -217.5t-19.5 -248.5q-20 -129 -61 -257t-82 -218t-92 -177t-79 -127t-55 -75q-15 -19 -32 -19h-131 q-9 0 -11 5z" />
<glyph unicode="*" horiz-adv-x="854" d="M236 1139l90 112q15 19 28 6l178 -139l31 277q0 9 7 15.5t16 6.5h135q9 0 13.5 -6.5t2.5 -15.5l-61 -277l223 139q22 12 29 -6l53 -112q6 -16 -12 -27l-264 -135l135 -191q10 -17 -9 -30l-106 -86q-8 -7 -17 -6.5t-14 8.5l-123 229l-196 -229q-18 -18 -31 -2l-82 86 q-13 13 4 30l199 191l-225 135q-15 9 -4 27z" />
<glyph unicode="+" horiz-adv-x="1140" d="M209 539l18 118q3 21 23 21h342l55 346q3 20 25 20h129q19 0 16 -20l-55 -346h342q9 0 14 -6t4 -15l-18 -118q-4 -21 -25 -21h-342l-55 -348q-3 -20 -23 -20h-129q-21 0 -18 20l55 348h-342q-19 0 -16 21z" />
<glyph unicode="," horiz-adv-x="481" d="M44 -262q2 8 9 12q154 107 195 248h-4q-52 3 -78.5 37t-18.5 88q9 57 50 92t98 35q45 1 74 -23.5t32 -66.5q10 -82 -29.5 -184t-109 -187.5t-145.5 -122.5q-18 -9 -31 8l-39 50q-5 6 -3 14z" />
<glyph unicode="-" horiz-adv-x="829" d="M201 541l18 116q3 21 23 21h559q9 0 14 -6t4 -15l-18 -116q-1 -9 -8.5 -15t-16.5 -6h-559q-19 0 -16 21z" />
<glyph unicode="." horiz-adv-x="538" d="M162 104q9 56 48.5 90.5t96.5 34.5q54 0 83 -35t20 -90t-49.5 -89.5t-94.5 -34.5q-57 0 -85 34t-19 90z" />
<glyph unicode="/" horiz-adv-x="796" d="M6 20l850 1440q13 19 31 19h127q22 0 12 -21l-854 -1440q-7 -18 -31 -18h-127q-18 0 -8 20z" />
<glyph unicode="0" horiz-adv-x="1222" d="M221 711q53 328 222.5 528.5t396.5 200.5q149 0 249 -91t136.5 -256.5t1.5 -381.5q-53 -329 -222 -529t-395 -200q-227 0 -334 200.5t-55 528.5zM399 711q-40 -251 25 -403t213 -152q145 0 258.5 152.5t153.5 402.5q40 249 -25.5 402t-210.5 153q-148 0 -261 -152 t-153 -403z" />
<glyph unicode="1" horiz-adv-x="655" d="M338 1278l18 121q7 22 27 22h340q9 0 13.5 -6.5t2.5 -15.5l-217 -1379q-3 -20 -24 -20h-136q-19 0 -16 20l195 1237h-185q-9 0 -14 6t-4 15z" />
<glyph unicode="2" horiz-adv-x="1126" d="M111 8q-2 8 8 19l766 829q10 11 25.5 30.5t44 70.5t34.5 92q15 99 -35.5 161t-150.5 62q-149 0 -287 -142q-16 -16 -31 0l-69 93q-12 16 6 34q183 183 414 183q172 0 263 -105t62 -282q-12 -75 -47.5 -147.5t-64.5 -107.5l-29 -36q-30 -30 -561 -598h557q9 0 13.5 -7 t2.5 -16l-18 -121q-3 -20 -25 -20h-678h-45h-139q-14 0 -16 8z" />
<glyph unicode="3" horiz-adv-x="1116" d="M164 373q3 20 22 20h136q20 0 20 -20q-11 -103 55 -167.5t181 -64.5q121 0 209.5 76.5t107.5 192.5q17 111 -36.5 184.5t-158.5 77.5h-127q-19 0 -16 20l14 99q3 20 25 20h100q96 0 169.5 68.5t88.5 169.5q15 99 -36 159t-150 60q-80 0 -154.5 -40t-132.5 -100 q-15 -15 -28 -2l-72 101q-9 15 2 30q183 183 414 183q173 0 267 -105.5t66 -277.5q-35 -205 -198 -312q85 -47 122 -134t17 -205q-29 -190 -175.5 -314.5t-346.5 -124.5q-196 0 -301.5 111.5t-83.5 294.5z" />
<glyph unicode="4" horiz-adv-x="1253" d="M138.5 312.5q-3.5 7.5 6.5 19.5l818 1071q14 18 34 18l166 -2q18 0 15 -20l-148 -936h164q20 0 16 -21l-18 -116q-4 -21 -23 -21h-163l-45 -285q-3 -20 -25 -20h-135q-20 0 -17 20l45 285h-520h-26h-127q-14 0 -17.5 7.5zM430 463h424l111 700z" />
<glyph unicode="5" horiz-adv-x="1116" d="M168 369q0 9 6.5 14.5t15.5 5.5h136q17 0 20 -20q-11 -102 54 -166t180 -64q121 0 208.5 82t108.5 207q21 123 -45 204t-195 81q-138 0 -217 -76h-149q-9 0 -13.5 5.5t-1.5 14.5l170 742q1 9 9.5 15.5t17.5 6.5h641q9 0 13.5 -6.5t2.5 -15.5l-18 -121q-4 -21 -25 -21 h-503l-99 -432q98 52 207 52q203 0 308.5 -125.5t74.5 -323.5q-31 -201 -176.5 -331t-347.5 -130q-196 0 -300.5 110t-82.5 292z" />
<glyph unicode="6" horiz-adv-x="1105" d="M176 422q14 100 64 186q83 138 489 793q13 20 35 20h139q13 0 17 -8t-2 -20l-345 -549q69 16 123 16q197 -2 298.5 -121.5t70.5 -316.5q-32 -201 -173 -323t-341 -122t-303.5 123t-71.5 322zM348 422q-20 -124 42 -199.5t185 -75.5q121 0 209.5 76.5t108.5 198.5 q19 125 -43.5 200.5t-185.5 75.5q-122 0 -209.5 -76.5t-106.5 -199.5z" />
<glyph unicode="7" horiz-adv-x="993" d="M230 5.5q-3 5.5 3 14.5l668 1237h-620q-9 0 -14 6t-3 15l19 121q4 22 24 22h840q29 0 16 -30l-735 -1371q-13 -20 -33 -20h-153q-9 0 -12 5.5z" />
<glyph unicode="8" horiz-adv-x="1138" d="M174 412q18 117 89.5 207.5t180.5 140.5q-130 91 -100 291q28 175 152 282t301 107t268 -107t63 -282q-15 -97 -65 -171.5t-127 -119.5q93 -50 136 -140.5t24 -207.5q-31 -195 -177.5 -313.5t-353.5 -118.5t-314.5 119t-76.5 313zM350 418q-19 -117 49 -190.5t197 -73.5 q126 0 215.5 73.5t108.5 190.5q20 120 -46.5 195t-193.5 75q-124 0 -217.5 -76.5t-112.5 -193.5zM514 1053q-15 -101 36.5 -163.5t151.5 -62.5q98 0 168.5 62.5t85.5 163.5q17 101 -32.5 162t-149.5 61t-171.5 -61t-88.5 -162z" />
<glyph unicode="9" horiz-adv-x="1105" d="M266 997q32 200 172.5 321.5t339.5 121.5q200 0 304.5 -122t72.5 -321q-10 -65 -31.5 -115.5t-62.5 -119.5l-461 -744q-11 -18 -33 -18h-139q-27 0 -14 29l342 546q-55 -16 -119 -16q-198 0 -300 119.5t-71 318.5zM438 997q-20 -124 43.5 -200t186.5 -76 q120 0 207.5 76.5t107.5 199.5q20 124 -43.5 199.5t-185.5 75.5q-121 0 -208.5 -76t-107.5 -199z" />
<glyph unicode=":" horiz-adv-x="487" d="M127 119q9 61 52.5 98t105.5 37q61 0 92 -36.5t22 -98.5q-11 -62 -53.5 -99.5t-103.5 -37.5q-62 0 -93.5 38t-21.5 99zM250 897q9 61 52.5 98t105.5 37q61 0 92 -36.5t22 -98.5q-9 -60 -52.5 -97.5t-104.5 -37.5t-92.5 37.5t-22.5 97.5z" />
<glyph unicode=";" horiz-adv-x="522" d="M53 -276q-8 16 8 26q155 108 193 248h-2q-52 3 -78 37t-18 88q9 57 49.5 92t97.5 35q45 1 74.5 -23.5t32.5 -66.5q15 -124 -76.5 -280t-208.5 -214q-18 -9 -31 8zM270 897q9 61 52.5 98t105.5 37t94 -37t23 -98q-9 -60 -53 -97.5t-105 -37.5t-93.5 37.5t-23.5 97.5z" />
<glyph unicode="&#x3c;" horiz-adv-x="1103" d="M162 530l24 160q3 24 25 31l969 383q21 6 18 -14l-22 -142q-3 -19 -25 -30l-801 -308l703 -309q19 -6 16 -29l-22 -141q-3 -21 -23 -14l-848 383q-17 7 -14 30z" />
<glyph unicode="=" horiz-adv-x="1073" d="M211 401l18 113q3 23 25 23h733q24 0 21 -23l-19 -113q-4 -22 -26 -22h-734q-22 0 -18 22zM262 725l19 113q3 22 26 22h733q22 0 19 -22l-19 -113q-3 -20 -26 -23h-733q-10 0 -15.5 7t-3.5 16z" />
<glyph unicode="&#x3e;" horiz-adv-x="1103" d="M98 131l23 141q3 21 22 29l803 309l-704 308q-18 11 -15 30l23 142q4 21 22 14l850 -383q16 -8 13 -31l-25 -160q-3 -22 -23 -30l-970 -383q-9 -3 -14.5 0.5t-4.5 13.5z" />
<glyph unicode="?" horiz-adv-x="978" d="M281 1229q-10 17 4 31q176 180 413 180q174 0 269.5 -106t68.5 -277q-12 -73 -40 -134.5t-64 -105t-77.5 -82t-82.5 -73.5t-77 -71t-64 -82.5t-39 -100.5q-7 -21 -25 -21h-147q-20 0 -17 21q18 93 68 167.5t109 124.5t117 98t103 110.5t56 138.5q17 103 -35.5 164 t-152.5 61q-149 0 -285 -139q-16 -16 -29 -3zM338 96q9 53 46 85t89 32t78.5 -32t17.5 -85q-7 -52 -43.5 -84t-89.5 -32q-52 0 -79 31.5t-19 84.5z" />
<glyph unicode="@" horiz-adv-x="1855" d="M217 633q38 239 172.5 422.5t344 284t462.5 100.5q226 0 386 -94t230.5 -266.5t34.5 -397.5q-28 -178 -136.5 -290t-260.5 -116q-69 0 -122 31t-83 86q-53 -76 -133.5 -116.5t-179.5 -40.5q-164 0 -247.5 109.5t-57.5 285.5q28 177 146.5 285t283.5 108q173 0 243 -119 l39 68q8 12 19 12h86q14 0 10 -14l-63 -408q-14 -63 14 -104t92 -41q76 0 133 73.5t74 190.5q27 175 -33 313.5t-191 214.5t-309 76q-314 0 -534.5 -180t-267.5 -471q-44 -292 121 -471.5t477 -179.5q238 0 436 159q21 17 31 0l71 -84q11 -18 -8 -30q-231 -199 -555 -199 q-253 0 -431 100t-255 282.5t-39 420.5zM791 629q-17 -104 33 -167t149 -63q100 0 168 64t86 166q17 108 -32 169.5t-148 61.5t-170 -63.5t-86 -167.5z" />
<glyph unicode="A" d="M18 23l770 1378q9 18 33 18h142q19 0 22 -18l338 -1378q3 -10 -2.5 -16.5t-17.5 -6.5h-138q-17 0 -20 14l-101 416h-620l-234 -416q-8 -14 -22 -14h-139q-24 0 -11 23zM510 588h496l-148 618z" />
<glyph unicode="B" horiz-adv-x="1218" d="M172 20l217 1379q3 22 25 22h403q211 0 318 -96q87 -78 86 -203q0 -29 -4 -61q-13 -88 -68 -159.5t-143 -117.5q111 -46 163 -139q38 -68 38 -155q0 -32 -5 -66q-28 -191 -173 -307.5t-359 -116.5h-482q-19 0 -16 20zM371 164h311q139 0 231.5 73t112.5 197q4 25 4 49 q0 85 -51 143q-65 76 -195 76l-329 -2zM475 831h262q134 0 208.5 61t90.5 163q2 17 2 33q0 72 -52 116q-64 54 -202 53h-239z" />
<glyph unicode="C" horiz-adv-x="1390" d="M197 709q22 142 81.5 262.5t142.5 205.5t185 145.5t211 89t219 28.5h11q135 0 255 -48q126 -50 214 -143q10 -13 -7 -26l-100 -95q-13 -13 -31 -2q-136 140 -370 140q-244 0 -419 -153t-216 -404q-9 -58 -9 -111q0 -174 96 -290q125 -152 371 -154q237 3 416 139 q17 14 31 0l72 -96q14 -14 -4 -29q-227 -188 -543 -188q-160 0 -286.5 53.5t-205 148.5t-109.5 231q-17 74 -17 155q0 68 12 141z" />
<glyph unicode="D" horiz-adv-x="1380" d="M172 20l217 1381q3 20 25 20h381q330 -1 499 -193q129 -147 130 -371q0 -69 -13 -146q-35 -216 -151 -377.5t-294.5 -247.5t-396.5 -86h-381q-19 0 -16 20zM371 164h225q253 0 425 147t212 400q10 61 10 115q-1 172 -97 284q-126 147 -378 147h-223z" />
<glyph unicode="E" horiz-adv-x="1062" d="M172 20l217 1381q3 20 25 20h755q20 0 17 -20l-19 -125q-2 -9 -8.5 -15t-15.5 -6h-598l-72 -448h502q9 0 14 -6t4 -15l-20 -122q-3 -21 -23 -21h-504l-75 -479h620q9 0 14 -6t3 -15l-21 -125q0 -7 -6.5 -12.5t-15.5 -5.5h-777q-19 0 -16 20z" />
<glyph unicode="F" horiz-adv-x="1021" d="M172 20l217 1381q3 20 25 20h755q20 0 17 -20l-19 -125q-2 -9 -8.5 -15t-15.5 -6h-598l-74 -448h504q9 0 14 -6t4 -15l-20 -122q-1 -9 -8 -15t-15 -6h-504l-98 -623q-3 -20 -24 -20h-136q-19 0 -16 20z" />
<glyph unicode="G" horiz-adv-x="1529" d="M197 711q53 328 284 528.5t559 200.5q305 0 478 -191q9 -12 -5 -26l-106 -97q-17 -14 -27 0q-61 64 -154 102t-212 38q-248 0 -424.5 -153t-216.5 -402q-10 -62 -10 -118q0 -169 91 -284q120 -153 355 -153q210 0 350.5 111.5t202.5 320.5h-440q-18 0 -15 20l19 115 q3 20 22 20h594q9 0 15 -6t4 -14q-62 -352 -263 -547q-200 -194 -513 -194h-3q-209 0 -354 90.5t-206 255.5q-38 105 -38 231q0 72 13 152z" />
<glyph unicode="H" horiz-adv-x="1382" d="M172 20l217 1381q3 20 25 20h137q18 0 18 -18l-98 -602h690l94 600q3 20 25 20h141q17 0 17 -18l-219 -1383q-3 -20 -25 -20h-139q-20 0 -17 20l99 623h-691l-98 -623q-3 -20 -22 -20h-138q-19 0 -16 20z" />
<glyph unicode="I" horiz-adv-x="512" d="M170 18l219 1383q1 9 8 14.5t15 5.5h139q17 0 14 -20l-219 -1383q0 -18 -20 -18h-140q-16 0 -16 18z" />
<glyph unicode="J" horiz-adv-x="817" d="M44.5 108q0.5 10 6.5 17l82 111q17 21 35 6q114 -86 180 -86q82 0 122 45t62 157l162 1043q3 20 25 20h135q19 0 16 -20l-165 -1065q-26 -171 -124.5 -262.5t-254.5 -93.5q-67 1 -129.5 24t-93.5 45t-54 45q-5 4 -4.5 14z" />
<glyph unicode="K" horiz-adv-x="1157" d="M170 18l219 1383q3 20 23 20h139q17 0 14 -20l-102 -656l649 664q12 12 25 12h168q13 0 15 -6.5t-9 -17.5l-672 -684l522 -688q19 -25 -14 -25h-184q-16 0 -23 10l-489 668l-105 -660q0 -18 -20 -18h-140q-16 0 -16 18z" />
<glyph unicode="L" horiz-adv-x="917" d="M170 18l219 1383q1 9 8 14.5t15 5.5h139q17 0 14 -20l-194 -1241h493q20 0 17 -21l-21 -121q0 -18 -20 -18h-654q-16 0 -16 18z" />
<glyph unicode="M" horiz-adv-x="1746" d="M172 29l217 1362q1 13 11 21.5t24 8.5h133q17 0 23 -16l354 -1016l674 1018q11 14 26 14h150q19 0 16 -20l-217 -1381q-3 -20 -24 -20h-138q-19 0 -16 20l166 1051l-570 -842q-10 -16 -26 -16h-137q-18 0 -21 14l-301 840l-168 -1047q-3 -20 -24 -20h-127q-28 0 -25 29z " />
<glyph unicode="N" horiz-adv-x="1460" d="M172 20l217 1381q3 20 25 20h166q12 0 22 -14l559 -1126l176 1120q3 20 25 20h137q20 0 17 -20l-220 -1381q-1 -9 -7.5 -14.5t-14.5 -5.5h-166q-15 0 -23 12l-559 1129l-178 -1121q-1 -9 -7.5 -14.5t-14.5 -5.5h-140q-17 0 -14 20z" />
<glyph unicode="O" horiz-adv-x="1624" d="M197 711q53 328 284 528.5t559 200.5q217 0 368.5 -91t216.5 -257q42 -108 42 -236q0 -69 -12 -145q-53 -329 -284.5 -529t-559.5 -200q-217 0 -369 90t-216 256q-42 107 -41 237q0 70 12 146zM373 711q-10 -60 -9 -114q0 -173 97 -289q128 -152 377 -152 q248 0 422.5 152.5t214.5 402.5q10 61 10 116q0 171 -96 286q-127 153 -375 153t-424.5 -152.5t-216.5 -402.5z" />
<glyph unicode="P" horiz-adv-x="1124" d="M172 20l217 1379q3 22 25 22h463q213 0 317 -110q81 -86 80 -222q0 -38 -6 -81q-32 -194 -171 -305t-352 -111h-305l-90 -572q-3 -20 -24 -20h-138q-19 0 -16 20zM467 758h301h8q129 0 210 62q84 64 104 186q4 27 4 52q0 84 -49 134q-64 66 -199 65h-301z" />
<glyph unicode="Q" horiz-adv-x="1624" d="M197 711q53 328 284 528.5t559 200.5q217 0 368.5 -91t216.5 -257q42 -107 42 -236q0 -69 -12 -145q-36 -228 -164 -398t-322 -256l324 -200q15 -11 2 -27l-86 -113q-16 -16 -29 -6l-424 281q-78 -10 -145 -10q-217 0 -368.5 90.5t-216.5 255.5q-41 108 -41 237 q0 70 12 146zM373 711q-9 -59 -9 -113q0 -172 98 -289q128 -153 376 -153t422.5 152.5t214.5 402.5q10 60 10 114q0 172 -97 288q-127 153 -374 153q-248 0 -424.5 -153t-216.5 -402z" />
<glyph unicode="R" horiz-adv-x="1155" d="M172 20l217 1381q1 9 8 14.5t15 5.5q64 1 137.5 1t163 -1t137.5 0q212 0 316 -110q81 -86 81 -222q0 -38 -6 -81q-28 -168 -139 -274.5t-283 -131.5l275 -577q5 -12 0.5 -18.5t-17.5 -6.5h-168q-15 0 -18 10l-256 582h-195l-90 -572q-3 -20 -24 -20h-138q-19 0 -16 20z M467 758h283h8q122 0 202 63q83 65 103 185q4 28 4 53q1 82 -47 132q-62 66 -193 66h-282z" />
<glyph unicode="S" horiz-adv-x="1159" d="M121 152q-14 10 0 28l88 119q14 21 31 4q21 -21 50.5 -42t77.5 -47t115 -42t140 -16q136 0 226 61.5t105 163.5q2 13 2 24q0 67 -58 112q-68 52 -247 93q-225 53 -317 157q-74 84 -74 207q0 30 4 62q24 174 180 290q155 115 367 114h4q84 -1 157 -16.5t120 -39.5 t74.5 -43.5t43.5 -37.5q11 -11 -2 -31l-75 -125q-13 -19 -31 -4q-134 121 -324 121q-129 0 -224.5 -63t-109.5 -157q-3 -20 -3 -37q0 -39 15 -67q22 -42 89.5 -77t199.5 -70q225 -59 317 -149q76 -74 77 -191q0 -25 -4 -52q-23 -193 -169 -307q-144 -114 -382 -114h-4 q-98 1 -183.5 21t-140.5 50.5t-86.5 55t-48.5 45.5z" />
<glyph unicode="T" horiz-adv-x="1101" d="M227 1276l19 125q3 20 24 20h1014q17 0 14 -20l-18 -125q-4 -21 -25 -21h-417l-197 -1237q0 -7 -6 -12.5t-14 -5.5h-140q-16 0 -16 18l194 1237h-417q-18 0 -15 21z" />
<glyph unicode="U" horiz-adv-x="1372" d="M256 306q-10 54 -10 117t10 134l133 844q3 18 23 18h139q19 0 16 -20l-133 -844q-9 -56 -9 -105q-1 -120 53 -192q76 -102 233 -102q158 0 264.5 101.5t136.5 297.5l133 846q3 18 25 18h139q19 0 16 -18l-133 -846q-30 -186 -118 -317t-212.5 -193.5t-277.5 -62.5 q-114 0 -202.5 36.5t-146.5 108t-79 179.5z" />
<glyph unicode="V" horiz-adv-x="1325" d="M231 1395q-6 24 21 24h151q17 0 21 -14l274 -1190l648 1190q7 14 24 14h154q24 0 12 -24l-768 -1377q-9 -18 -31 -18h-151q-22 0 -25 18z" />
<glyph unicode="W" horiz-adv-x="1802" d="M229 1401q-1 9 4.5 14.5t14.5 5.5h143q17 0 21 -18l141 -1108l473 1108q7 18 29 18h139q8 0 13 -5.5t5 -12.5l127 -1116l498 1120q1 6 8 10t13 4h147q20 0 10 -20l-637 -1385q-10 -16 -26 -16h-119q-20 0 -23 16l-123 1180l-497 -1180q-6 -16 -25 -16h-119q-17 0 -20 16z " />
<glyph unicode="X" horiz-adv-x="1185" d="M9 5.5q-2 5.5 7 14.5l586 687l-356 694q-10 20 16 20h176q19 0 25 -12l268 -549l459 547q9 12 29 12h170q25 0 8 -20l-592 -690l356 -689q10 -20 -16 -20h-174q-19 0 -25 12l-270 543l-457 -543q-12 -12 -26 -12h-170q-12 0 -14 5.5z" />
<glyph unicode="Y" horiz-adv-x="1177" d="M233 1395q-5 11 0.5 17.5t18.5 6.5h154q18 0 24 -16l275 -678l487 678q10 16 33 16h151q13 0 16 -6.5t-6 -17.5l-618 -828l-88 -549q0 -7 -6.5 -12.5t-14.5 -5.5h-139q-18 0 -18 18l88 547z" />
<glyph unicode="Z" horiz-adv-x="1161" d="M66 33l931 1224h-690q-18 0 -14 19l18 125q3 20 23 20h950q18 0 21.5 -10t-7.5 -25l-931 -1222h739q20 0 16 -21l-18 -123q-3 -20 -25 -20h-1001q-38 0 -12 33z" />
<glyph unicode="[" horiz-adv-x="679" d="M90 -309l270 1708q4 22 27 22h377q19 0 16 -22l-16 -105q-3 -20 -23 -20h-231l-231 -1456h231q19 0 16 -23l-16 -104q-2 -9 -9 -16t-16 -7l-374 2q-9 0 -15.5 6t-5.5 15z" />
<glyph unicode="\" horiz-adv-x="780" d="M233 1454q-4 25 21 25h125q19 0 22 -17l396 -1437q3 -11 -3 -18t-18 -7h-125q-19 0 -22 16z" />
<glyph unicode="]" horiz-adv-x="679" d="M59 -307l17 104q3 23 26 23h232l231 1454h-231q-11 0 -16.5 5.5t-4.5 14.5l17 105q3 22 26 22h377q9 0 14 -6.5t3 -15.5l-271 -1708q-3 -21 -22 -21h-379q-9 0 -14.5 6.5t-4.5 16.5z" />
<glyph unicode="^" horiz-adv-x="1187" d="M193.5 537q-3.5 7 3.5 18l508 846q12 18 32 18h164q19 0 25 -18l241 -846q3 -11 -2.5 -18t-17.5 -7h-139q-22 0 -25 17l-190 708l-416 -708q-14 -17 -29 -17h-139q-12 0 -15.5 7z" />
<glyph unicode="_" horiz-adv-x="1198" d="M70 -252l14 96q3 23 27 23h936q21 0 18 -23l-14 -96q-6 -22 -27 -22h-936q-24 0 -18 22z" />
<glyph unicode="`" horiz-adv-x="563" d="M289.5 1354.5q0.5 9.5 7.5 15.5l102 107q17 13 27 0l248 -275q12 -9 -2 -20l-62 -62q-13 -13 -24 -2l-291 223q-6 4 -5.5 13.5z" />
<glyph unicode="a" horiz-adv-x="1187" d="M145 463q34 215 184 348t359 135q115 0 196.5 -45.5t123.5 -130.5l47 137q6 19 26 19h97q17 0 14 -19l-139 -887q-3 -20 -25 -20h-96q-14 0 -21 18l-2 138q-143 -176 -374 -176q-209 0 -317 134q-82 101 -81 250q0 47 8 99zM309 463q-5 -34 -5 -64q0 -99 56 -167 q74 -89 215 -89q143 0 247 88t130 232q4 30 4 57q0 104 -60 174q-76 88 -218 88t-244 -88t-125 -231z" />
<glyph unicode="b" horiz-adv-x="1183" d="M143 20l228 1438q3 21 22 21h125q8 0 14 -6t5 -15l-109 -684q136 172 367 172q209 0 316 -134q81 -101 81 -250q0 -47 -8 -99q-34 -215 -184 -349t-359 -134q-231 0 -319 180l-48 -140q-10 -20 -28 -20h-86q-20 0 -17 20zM379 463q-5 -33 -5 -63q0 -100 59 -168 q77 -89 220 -89q141 0 243.5 89t125.5 231q5 34 5 64q0 99 -56 167q-74 88 -215 88q-143 0 -248.5 -88.5t-128.5 -230.5z" />
<glyph unicode="c" horiz-adv-x="1026" d="M145 463q18 117 74.5 211.5t134.5 153t168 89.5t183 31q124 0 221 -52.5t147 -152.5q10 -17 -8 -28l-107 -80q-20 -13 -30 6q-71 139 -252 139q-142 0 -243 -87t-124 -230q-5 -34 -6 -65q1 -98 57 -166q74 -88 215 -89q91 0 167 37t128 99q16 23 33 6l78 -80 q11 -11 0 -29q-79 -94 -190 -145t-242 -51q-215 0 -327 134q-85 102 -85 253q0 46 8 96z" />
<glyph unicode="d" horiz-adv-x="1183" d="M147 463q34 216 183 349.5t358 133.5q113 0 192.5 -44.5t120.5 -125.5l109 684q4 19 23 19h127q8 0 12.5 -6t3.5 -13l-227 -1440q-1 -9 -8 -14.5t-15 -5.5h-88q-16 0 -20 18l-7 140q-142 -178 -376 -178q-209 0 -315 134q-81 101 -81 249q0 48 8 100zM309 463 q-5 -34 -5 -64q0 -99 56 -167q74 -89 215 -89q143 0 248.5 89t128.5 231q5 33 5 62q0 101 -59 169q-77 88 -220 88q-141 0 -243.5 -88.5t-125.5 -230.5z" />
<glyph unicode="e" horiz-adv-x="1105" d="M145 463q34 215 188 349t369 134q226 0 332 -139q76 -100 75 -260q0 -62 -11 -133q-4 -21 -23 -21h-770q3 -117 81 -185.5t212 -68.5q159 0 266 92q23 19 33 2l72 -81q13 -14 -2 -29q-152 -143 -400 -143q-225 0 -341 133q-90 102 -89 254q0 46 8 96zM326 530h620 q0 117 -71 186.5t-197 69.5t-220.5 -69.5t-131.5 -186.5z" />
<glyph unicode="f" horiz-adv-x="638" d="M139 797l17 106q4 23 26 23h146l32 227q27 168 116 258t218 90q114 0 211 -67q14 -10 0 -31l-71 -103q-12 -15 -31 -6q-62 43 -121 43q-121 0 -156 -198l-32 -213h227q9 0 13.5 -7t2.5 -16l-16 -106q-1 -9 -8.5 -15t-16.5 -6h-227l-119 -756q-3 -20 -24 -20h-125 q-20 0 -17 20l119 756h-145q-22 0 -19 21z" />
<glyph unicode="g" horiz-adv-x="1185" d="M123 -358l78 110q4 7 12 9t12 -3q108 -74 275 -80q156 0 256.5 84t126.5 234l24 154q-147 -173 -372 -173q-209 2 -317 135q-82 101 -82 249q0 47 9 100q34 217 184 351t359 134q117 0 199.5 -47t122.5 -133l53 139q6 21 27 21h86q8 0 12 -6t2 -15l-141 -905 q-33 -219 -192.5 -352t-379.5 -133q-196 0 -350 96q-18 11 -4 31zM309 463q-5 -34 -5 -64q0 -99 56 -167q74 -89 215 -89q145 0 250.5 89t128.5 231q5 33 5 62q0 100 -59 169q-77 88 -222 88q-141 0 -243.5 -88.5t-125.5 -230.5z" />
<glyph unicode="h" horiz-adv-x="1116" d="M143 20l228 1438q3 21 20 21h127q20 0 17 -21l-107 -688q126 176 338 176q168 0 250 -104q58 -74 59 -200q0 -51 -10 -110l-78 -512q-3 -20 -24 -20h-127q-18 0 -15 20l78 500q7 41 7 75q0 80 -36 124q-51 63 -159 63q-118 0 -211.5 -93.5t-122.5 -237.5l-68 -431 q-3 -20 -24 -20h-127q-18 0 -15 20z" />
<glyph unicode="i" horiz-adv-x="454" d="M150 20l139 885q1 9 7.5 15t14.5 6h127q18 0 15 -21l-138 -885q-3 -20 -24 -20h-127q-17 0 -14 20zM309 1268q9 54 47 85t93 31q53 0 80 -31q20 -23 20 -59q0 -12 -2 -26q-9 -54 -46 -87.5t-89 -33.5q-54 -1 -83 33q-22 26 -22 64q0 11 2 24z" />
<glyph unicode="j" horiz-adv-x="507" d="M-198 -407q-1 9 5 16l74 104q15 18 33 6q59 -41 113 -41q56 0 95 47.5t56 143.5l162 1036q4 21 25 21l122 -2q9 0 15 -6t4 -13l-164 -1052q-25 -156 -114.5 -248t-215.5 -92q-118 0 -202 67q-7 4 -8 13zM360 1266q7 54 45.5 86t92.5 32t81 -32q21 -25 21 -62 q0 -12 -2 -24q-9 -53 -46.5 -86t-90.5 -33q-54 0 -82 33q-21 25 -21 61q0 12 2 25z" />
<glyph unicode="k" horiz-adv-x="946" d="M141 18l230 1442q4 19 20 19h127q9 0 14.5 -5.5t4.5 -13.5l-148 -932l422 385q13 13 27 13h178q12 0 16.5 -4t1 -10.5t-13.5 -14.5l-451 -399l381 -471q10 -12 5.5 -19.5t-21.5 -7.5h-176q-18 0 -25 10l-356 445l-70 -437q0 -7 -6.5 -12.5t-15.5 -5.5h-127q-17 0 -17 18z " />
<glyph unicode="l" horiz-adv-x="454" d="M150 20l227 1438q3 21 20 21h127q9 0 14.5 -6t4.5 -15l-228 -1438q-3 -20 -24 -20h-127q-17 0 -14 20z" />
<glyph unicode="m" horiz-adv-x="1683" d="M143 20l140 885q2 9 8.5 15t15.5 6h90q9 0 15 -6t6 -15l2 -135q123 176 319 176q105 0 175 -48.5t94 -145.5q63 91 154.5 142.5t199.5 51.5q156 0 230 -104q52 -72 52 -194q0 -53 -10 -116l-80 -512q-3 -20 -22 -20h-127q-19 0 -16 20l77 500q7 46 7 83q0 179 -168 179 q-112 0 -197 -93.5t-111 -252.5l-65 -416q-3 -20 -25 -20h-125q-19 0 -16 20l78 500q7 45 7 83q0 179 -169 179q-106 0 -191.5 -94t-113.5 -237l-68 -431q-3 -20 -24 -20h-125q-20 0 -17 20z" />
<glyph unicode="n" horiz-adv-x="1116" d="M143 20l140 885q1 9 7.5 15t14.5 6h92q9 0 15 -6t6 -15v-143q130 184 348 184q168 0 250 -104q58 -74 59 -200q0 -51 -10 -110l-78 -512q-3 -20 -24 -20h-127q-18 0 -15 20l78 500q7 41 7 75q0 80 -36 124q-51 63 -159 63q-118 0 -212 -95t-122 -238l-68 -429 q-3 -20 -24 -20h-125q-20 0 -17 20z" />
<glyph unicode="o" horiz-adv-x="1107" d="M145 465q34 215 188 348t369 133q216 0 328 -132q86 -102 85 -253q0 -46 -7 -96q-34 -217 -188 -351t-371 -134q-215 0 -327 134q-85 103 -85 254q0 46 8 97zM309 463q-5 -33 -6 -64q0 -99 57 -167q74 -90 215 -89q142 0 244 89t125 231q5 34 5 65q1 99 -55 166 q-74 88 -216 88q-141 0 -243.5 -88.5t-125.5 -230.5z" />
<glyph unicode="p" horiz-adv-x="1183" d="M68 -446l215 1351q2 9 8.5 15t15.5 6h84q21 0 21 -21l6 -137q142 178 377 178q209 0 317 -134q82 -102 82 -252q0 -47 -8 -99q-35 -215 -185.5 -348t-359.5 -133q-229 0 -313 167l-95 -593q0 -9 -6.5 -15t-15.5 -6h-125q-18 0 -18 21zM379 463q-5 -33 -5 -63 q0 -99 59 -168q77 -89 220 -89q142 0 244 88.5t125 231.5q5 34 5 65q0 99 -55 166q-74 88 -216 88q-143 0 -248.5 -88.5t-128.5 -230.5z" />
<glyph unicode="q" horiz-adv-x="1183" d="M145 461q34 217 184 351t359 134q117 0 198.5 -46t121.5 -132l51 137q11 21 28 21h87q20 0 16 -21l-217 -1351q0 -9 -7 -15t-16 -6h-123q-18 0 -18 21l94 593q-139 -167 -368 -167q-209 0 -317 133q-82 100 -82 248q0 47 9 100zM309 463q-5 -34 -5 -64q0 -99 56 -167 q74 -89 215 -89q143 0 248.5 89t128.5 231q5 33 5 62q0 100 -59 169q-77 88 -220 88q-141 0 -243.5 -88.5t-125.5 -230.5z" />
<glyph unicode="r" horiz-adv-x="710" d="M143 20l140 885q3 21 22 21h86q10 0 15.5 -6.5t5.5 -14.5l4 -74q120 113 260 113q73 0 143 -24q8 -2 10 -9t-2 -16l-55 -131q-6 -19 -27 -12q-65 26 -127 26q-61 0 -116 -38t-96 -105l-97 -615q-3 -20 -24 -20h-125q-20 0 -17 20z" />
<glyph unicode="s" horiz-adv-x="835" d="M88 82q-13 13 2 31l70 98q9 15 28 6q106 -76 240 -78h11q83 1 137 29q58 30 65 82q1 8 1 15q0 43 -38 67q-45 28 -162 61q-148 43 -208 107q-49 53 -48 135q0 18 2 37q18 126 128 202q108 75 256 74h8q69 -1 131 -19.5t90 -35.5t49 -35q15 -11 2 -31l-66 -100 q-10 -17 -28 -6q-101 65 -199 67h-15q-73 0 -124 -27q-56 -30 -64 -77q-2 -10 -1 -18q1 -40 33 -64q40 -28 153 -61q155 -42 220 -103q54 -51 54 -138q0 -17 -2 -36q-19 -128 -130 -206q-108 -76 -265 -76h-8q-118 0 -200.5 33t-121.5 67z" />
<glyph unicode="t" horiz-adv-x="651" d="M150 795l18 110q4 21 25 21h145l51 309q0 9 6.5 14.5t14.5 5.5h127q16 0 16 -20l-51 -311h221q21 0 18 -19l-18 -110q0 -9 -7 -15t-16 -6h-221l-65 -414q-11 -71 -11 -116q1 -34 7 -53q14 -44 67 -46q39 0 101 43q20 10 26 -4l41 -104q7 -22 -8 -31q-96 -67 -197 -67h-6 q-120 0 -170 85q-33 56 -33 145q0 46 9 101l73 463h-145q-18 0 -18 19z" />
<glyph unicode="u" horiz-adv-x="1120" d="M197 391l79 514q4 21 25 21h127q8 0 12 -6t2 -15l-80 -499q-6 -40 -7 -75q0 -192 200 -192q118 0 212.5 95t123.5 243l67 428q4 21 25 21h125q20 0 16 -21l-141 -887q0 -7 -6 -12.5t-14 -5.5h-93q-18 0 -22 18l2 146q-136 -187 -356 -187q-168 0 -248 105q-58 76 -58 203 q0 49 9 106z" />
<glyph unicode="v" horiz-adv-x="948" d="M158 899q-3 11 2.5 19t17.5 8h144q15 0 18 -17l166 -716l389 714q10 16 29 19l139 -2q13 0 17.5 -7t-1.5 -18l-506 -881q-9 -18 -30 -18h-137q-21 0 -27 18z" />
<glyph unicode="w" horiz-adv-x="1314" d="M156 907q0 17 14 17h149q21 0 21 -17l66 -696l309 696q10 17 26 17h123q8 0 15 -5t8 -12l88 -704l285 704q10 17 24 17h150q18 0 12 -19l-404 -889q-10 -16 -24 -16h-144q-19 0 -22 16l-82 693l-305 -693q-10 -16 -27 -16h-141q-21 0 -21 16z" />
<glyph unicode="x" horiz-adv-x="958" d="M40.5 7q-2.5 7 6.5 18l395 430l-262 444q-6 11 -1 19t18 8h163q18 0 29 -19l182 -313l285 315q21 17 37 17h162q12 0 14 -7t-8 -18l-412 -436l260 -440q7 -11 2.5 -18t-18.5 -7h-162q-25 0 -31 16l-180 308l-270 -308q-13 -16 -33 -16h-162q-12 0 -14.5 7z" />
<glyph unicode="y" horiz-adv-x="958" d="M141 -440l250 444l-231 893q-3 26 22 29h142q18 0 22 -19l158 -700l395 700q11 19 31 19h139q11 -2 14.5 -9.5t-4.5 -19.5l-766 -1346q-11 -18 -30 -18h-127q-28 0 -15 27z" />
<glyph unicode="z" horiz-adv-x="921" d="M89 9q-4 9 7 22l588 743h-432q-9 0 -14.5 6t-4.5 15l19 110q3 19 22 19l676 2q17 0 21 -10t-8 -25l-588 -741h463q20 0 16 -21l-18 -109q-3 -20 -21 -20h-704q-18 0 -22 9z" />
<glyph unicode="{" horiz-adv-x="739" d="M225 489l17 111q3 11 18 14q52 11 105 62.5t67 132.5l51 332q6 37 14.5 70.5t28 73.5t45.5 68t68 47.5t94 18.5h101q21 0 18 -20l-16 -111q-3 -22 -27 -22h-76q-66 0 -86 -125l-51 -324q-14 -96 -66.5 -164.5t-126.5 -109.5q59 -39 90 -108.5t17 -164.5l-51 -323 q-21 -127 45 -127h76q21 0 18 -23l-16 -108q-2 -9 -9.5 -16t-17.5 -7h-100q-206 0 -160 281l53 332q12 81 -24.5 132t-87.5 60q-14 5 -11 18z" />
<glyph unicode="|" horiz-adv-x="442" d="M72 -444l301 1900q3 23 24 23h117q10 0 16 -6.5t5 -16.5l-302 -1900q-1 -10 -9 -16.5t-17 -6.5h-117q-21 0 -18 23z" />
<glyph unicode="}" horiz-adv-x="739" d="M59 -311l17 110q4 23 26 23h74q66 0 86 125l51 323q14 95 67.5 164.5t127.5 108.5q-136 90 -109 274l52 324q20 125 -45 125h-74q-22 0 -19 22l17 111q3 20 26 20h101q52 1 87.5 -18.5t52 -47.5t22.5 -68.5t4.5 -73t-7.5 -70.5l-51 -332q-16 -81 21 -132.5t90 -62.5 q12 -4 10 -16l-16 -111q-3 -13 -19 -16q-53 -9 -106 -60t-64 -132l-53 -332q-46 -281 -250 -281h-100q-10 0 -15.5 7t-3.5 16z" />
<glyph unicode="~" horiz-adv-x="1155" d="M145 444q59 114 149.5 183t186.5 69q55 0 100 -16t72 -39.5t53.5 -51.5t47 -51.5t50 -38.5t64.5 -14q58 1 105.5 53t93.5 136q6 12 16 13.5t17 -7.5l67 -86q10 -13 2 -29q-58 -114 -147.5 -186t-187.5 -72q-63 0 -113.5 22.5t-82 54t-59 63t-61 53t-72.5 20.5 q-102 -2 -198 -186q-6 -12 -16 -13.5t-17 7.5l-68 86q-10 14 -2 30z" />
<glyph unicode="&#xa1;" horiz-adv-x="509" d="M166 20l160 986q3 20 22 20h135q9 0 14.5 -5.5t4.5 -14.5l-152 -986q-3 -20 -24 -20h-144q-19 0 -16 20zM348 1325q9 51 45.5 83t87.5 32q52 0 79 -32t18 -83q-7 -52 -43 -83.5t-89 -31.5q-51 0 -78 31.5t-20 83.5z" />
<glyph unicode="&#xa2;" horiz-adv-x="1026" d="M145 463q18 115 73.5 209t132.5 152.5t166 90t181 33.5h15l57 162q7 20 27 20h77q9 0 13.5 -5.5t1.5 -14.5l-62 -176q174 -46 246 -193q11 -14 -6 -24l-111 -82q-15 -13 -28 6q-53 101 -158 127l-215 -625h20q91 0 167 37.5t128 100.5q17 20 31 6l82 -84q10 -10 -2 -25 q-77 -95 -188.5 -146.5t-243.5 -51.5q-35 0 -49 2l-66 -183q-1 -9 -9 -14.5t-17 -5.5h-76q-20 0 -17 20l72 205q-138 45 -204 167.5t-38 291.5zM309 463q-17 -104 19.5 -181.5t115.5 -113.5l211 612h-4q-132 -8 -226 -94.5t-116 -222.5z" />
<glyph unicode="&#xa3;" horiz-adv-x="1052" d="M164 25q135 222 183.5 359.5t43.5 236.5h-164q-19 0 -16 22l14 88q3 23 23 23h117q-11 39 -16.5 61.5t-11.5 61t-4.5 79.5t9.5 88q28 174 154 285t297 111q224 0 346 -176q11 -18 -6 -31l-101 -94q-22 -18 -35 4q-88 129 -233 129q-96 0 -165.5 -64.5t-84.5 -163.5 q-5 -33 -5.5 -64t4 -61.5t9 -52.5t13 -57t12.5 -55h258q9 0 15 -6.5t5 -16.5l-14 -88q-1 -10 -9 -16t-18 -6h-223q0 -186 -147 -461h489q9 0 15.5 -6t5.5 -15l-19 -116q-3 -23 -26 -23h-705q-24 0 -10 25z" />
<glyph unicode="&#xa4;" horiz-adv-x="1196" d="M162 143q-10 13 4 27l137 119q-56 109 -33 250q16 113 86 217l-100 114q-10 13 4 27l111 96q14 14 28 0l93 -110q120 71 262 71q139 0 231 -67l125 114q8 6 16 6t13 -6l80 -94q10 -16 -5 -28l-133 -115q41 -93 23 -225q-23 -138 -107 -242l103 -119q13 -13 -4 -26 l-111 -95q-13 -16 -27 -2l-104 125q-101 -55 -231 -55q-124 0 -209 51l-146 -129q-6 -6 -14 -6t-12 6zM426 539q-19 -117 42 -188.5t179 -71.5q117 0 199.5 71.5t101.5 188.5t-41.5 188.5t-177.5 71.5q-118 1 -201 -70t-102 -190z" />
<glyph unicode="&#xa5;" horiz-adv-x="1177" d="M233 1395q-5 11 0.5 17.5t18.5 6.5h154q18 0 24 -16l275 -678l485 678q13 16 35 16h151q13 0 16 -6.5t-6 -17.5l-589 -791h10h237q20 0 17 -20l-10 -64q-3 -20 -23 -20h-270l-23 -144h271q19 0 16 -20l-10 -64q-3 -20 -25 -20h-270l-35 -232q-3 -20 -25 -20h-137 q-19 0 -16 20l35 232h-273q-19 0 -16 20l10 64q3 20 25 20h272l23 144h-273q-21 0 -18 20l10 64q3 20 25 20h243h6z" />
<glyph unicode="&#xa6;" horiz-adv-x="442" d="M72 -446l108 679q4 21 25 21h114q9 0 14 -6t3 -15l-109 -679q0 -9 -6.5 -15t-15.5 -6h-115q-18 0 -18 21zM266 778l109 680q3 21 22 21h115q9 0 14 -6t4 -15l-108 -680q-3 -20 -23 -20h-114q-9 0 -14.5 5.5t-4.5 14.5z" />
<glyph unicode="&#xa7;" horiz-adv-x="1093" d="M76 -139q-11 14 2 30l80 105q15 18 30 6q19 -18 46 -35.5t69.5 -38.5t101 -34t121.5 -13q64 0 120.5 17.5t101 59.5t53.5 103q11 73 -43.5 115t-208.5 78q-203 47 -286 139t-62 240q18 133 125 229q-72 84 -54 225q20 155 159 255t333 98q73 -1 136.5 -14.5t106 -34 t67 -37.5t40.5 -33q13 -13 0 -33l-72 -108q-12 -21 -30 -6q-118 94 -285 94q-110 0 -187 -48t-89 -124q-13 -84 41 -127t213 -86q203 -55 284.5 -135.5t63.5 -219.5q-21 -149 -131 -245q84 -84 53 -238q-23 -109 -96.5 -186t-174 -113t-217.5 -35q-86 0 -161.5 17t-125 44 t-78.5 48.5t-46 40.5zM379 643q-14 -86 41.5 -136t210.5 -91q77 -20 137 -45q89 54 104 143q11 76 -43.5 123.5t-205.5 83.5q-89 19 -150 49q-83 -52 -94 -127z" />
<glyph unicode="&#xa8;" horiz-adv-x="731" d="M287 1325q9 54 47 86.5t92 32.5q53 0 80 -32.5t18 -86.5q-7 -53 -45.5 -86t-91.5 -33q-54 0 -81 32.5t-19 86.5zM625 1325q9 54 46 86.5t91 32.5t80.5 -32.5t17.5 -86.5q-7 -54 -45 -86.5t-92 -32.5t-80 32t-18 87z" />
<glyph unicode="&#xa9;" horiz-adv-x="1675" d="M221 709q35 218 151.5 384t295.5 256.5t395 90.5q217 0 369 -90.5t217 -256.5t30 -384q-53 -327 -286.5 -528t-561.5 -201q-216 0 -366.5 91t-214.5 256.5t-29 381.5zM350 709q-43 -268 97 -433t409 -165q270 0 460.5 164.5t233.5 433.5q28 178 -25.5 314.5t-178.5 211 t-302 74.5q-270 0 -460.5 -165t-233.5 -435zM565 709q14 89 55.5 162.5t98.5 120t125 76.5t138.5 33.5t134.5 -10t117 -52.5t83 -97q7 -17 -6 -27l-86 -67q-17 -12 -31 8q-28 47 -80 72.5t-119 25.5q-110 1 -188.5 -66.5t-95.5 -178.5q-19 -112 38.5 -180t168.5 -68 q67 0 129 27t100 69q22 22 35 6l63 -63q11 -12 -6 -29q-61 -74 -151 -116t-195 -42q-176 0 -266 109t-62 287z" />
<glyph unicode="&#xaa;" horiz-adv-x="886" d="M229 1098q25 155 131.5 250.5t257.5 95.5q158 0 232 -113l27 78q11 21 28 21h80q19 0 16 -21l-98 -621q-3 -22 -24 -22h-82q-19 0 -19 20l-4 82q-54 -55 -124 -85.5t-142 -30.5q-150 0 -227 96t-52 250zM371 1098q-15 -95 35 -152t147 -57q95 0 164 57.5t84 151.5 t-36.5 151.5t-146.5 57.5q-97 0 -164.5 -56.5t-82.5 -152.5z" />
<glyph unicode="&#xab;" horiz-adv-x="1052" d="M219 532l4 27q3 22 21 37l329 307q6 6 15.5 6t17.5 -6l66 -80q10 -16 -6 -32l-271 -246l193 -246q11 -18 -6 -31l-88 -80q-9 -7 -18.5 -6.5t-14.5 6.5l-234 308q-11 14 -8 36zM596 532l4 27q3 22 21 37l329 307q16 13 33 0l66 -80q10 -17 -7 -32l-268 -246l191 -246 q12 -15 -4 -31l-91 -80q-17 -15 -32 0l-234 308q-11 14 -8 36z" />
<glyph unicode="&#xac;" horiz-adv-x="1280" d="M258 672l18 110q3 22 23 25h934q10 0 16 -7t4 -16l-65 -411q-3 -23 -27 -23h-112q-20 0 -17 23l43 276h-801q-19 0 -16 23z" />
<glyph unicode="&#xad;" horiz-adv-x="681" />
<glyph unicode="&#xae;" horiz-adv-x="1650" d="M209 709q35 218 151.5 384t296 256.5t396.5 90.5q216 0 367.5 -90.5t216.5 -256.5t30 -384q-53 -327 -286 -528t-560 -201q-217 0 -368 91t-215 256.5t-29 381.5zM340 709q-43 -268 96 -433t408 -165q270 0 460.5 164.5t233.5 433.5q43 270 -96.5 435t-409.5 165 q-269 0 -459 -165t-233 -435zM614 350l115 729q7 23 29 23h268q117 0 174.5 -60t40.5 -165q-13 -88 -72 -146.5t-149 -75.5l141 -307q5 -9 -0.5 -15.5t-17.5 -6.5h-117q-15 0 -25 14l-127 309h-65l-49 -301q0 -9 -8 -15.5t-19 -6.5h-98q-11 0 -16.5 7t-4.5 17zM829 780h144 q53 0 86 23.5t39 68.5q15 95 -94 95h-144z" />
<glyph unicode="&#xaf;" horiz-adv-x="665" d="M279 1296l16 105q3 20 24 20h480q17 0 14 -20l-16 -105q-3 -20 -21 -20h-479q-21 0 -18 20z" />
<glyph unicode="&#xb0;" horiz-adv-x="864" d="M276 1114q25 151 130.5 242.5t255.5 91.5t227.5 -92t52.5 -242q-23 -149 -129.5 -240.5t-255.5 -91.5q-150 0 -227 91t-54 241zM426 1114q-12 -80 30.5 -130t123.5 -50q82 0 140.5 49.5t70.5 130.5q13 83 -29.5 132.5t-124.5 49.5q-83 0 -140 -49.5t-71 -132.5z" />
<glyph unicode="&#xb1;" horiz-adv-x="1206" d="M178 106l19 111q3 21 22 21h842q9 0 14 -6t4 -15l-18 -111q-3 -20 -23 -20h-841q-9 0 -14.5 5.5t-4.5 14.5zM268 711l19 118q2 9 8.5 15t15.5 6h342l49 309q3 18 23 21h129q18 0 18 -21l-49 -309h342q9 0 14 -6t3 -15l-19 -118q-2 -9 -8.5 -15t-15.5 -6h-342l-47 -307 q-4 -21 -25 -21h-129q-20 0 -16 21l47 307h-342q-9 0 -14 6t-3 15z" />
<glyph unicode="&#xb2;" horiz-adv-x="679" d="M152 555l426 471q9 9 24.5 27t39.5 58t28 71q8 50 -20 82.5t-81 31.5q-93 0 -168 -75q-13 -13 -26 0l-51 79q-11 15 4 27q113 113 264 113q120 0 183 -66t42 -196q-5 -28 -15 -56.5t-20.5 -50.5t-24 -43.5t-23 -34.5t-18 -24.5t-9.5 -12.5q-173 -186 -279 -297h277 q9 0 13.5 -6.5t2.5 -15.5l-14 -96q-2 -9 -9 -16t-16 -7h-520q-39 3 -10 37z" />
<glyph unicode="&#xb3;" horiz-adv-x="690" d="M172 754q3 20 25 20h106q14 0 14 -16q-3 -53 31.5 -84t95.5 -31q65 0 110.5 38.5t55.5 102.5q9 67 -18 108t-84 44h-74q-19 0 -16 20l12 74q4 21 23 21h57q50 0 87.5 37.5t47.5 99.5q7 51 -18 82.5t-74 32.5q-36 0 -80 -20t-80 -54q-16 -13 -24 -2l-54 78q-9 11 4 24 q111 111 261 111q114 0 174 -67.5t41 -176.5q-18 -125 -115 -199q100 -69 76 -221q-19 -121 -111 -198.5t-223 -77.5q-124 0 -192.5 69t-57.5 185z" />
<glyph unicode="&#xb4;" horiz-adv-x="563" d="M264 1178q-7 15 6 28l334 271q17 14 27 -2l69 -105q4 -6 2 -14t-8 -13l-364 -227q-18 -11 -27 4z" />
<glyph unicode="&#xb5;" horiz-adv-x="1126" d="M70 -440l213 1343q2 9 8.5 16t15.5 7h125q9 0 14 -7t3 -16q-6 -36 -40 -248.5t-40 -248.5q-42 -267 190 -267q120 0 214.5 95t123.5 243l68 426q4 23 24 23h125q20 0 16 -21l-139 -885q-3 -20 -24 -20h-93q-18 0 -18 20l-2 144q-136 -187 -356 -187q-119 0 -189 58 l-76 -475q-2 -11 -10 -18t-18 -7h-117q-22 0 -18 25z" />
<glyph unicode="&#xb6;" horiz-adv-x="1155" d="M268 1044q26 169 145.5 272t286.5 103h60h4h493q22 0 19 -20l-19 -117q-3 -22 -26 -22h-70l-211 -1336q-3 -22 -24 -22h-111q-9 0 -13.5 6.5t-2.5 15.5l211 1336h-185l-211 -1336q-3 -22 -24 -22h-109q-21 0 -18 22l119 746q-168 0 -255 103t-59 271z" />
<glyph unicode="&#xb7;" horiz-adv-x="432" d="M176 571q9 60 50.5 97t101.5 37q58 0 88.5 -37t21.5 -97q-9 -57 -51 -94t-100 -37q-59 0 -89.5 36.5t-21.5 94.5z" />
<glyph unicode="&#xb8;" horiz-adv-x="595" d="M23 -344l53 59q11 11 24 2q79 -43 138 -43q44 0 74 22t36 56q6 36 -25 52t-83 16h-95q-17 0 -10 18l96 162h138l-45 -76q183 -21 159 -174q-15 -88 -87.5 -141t-170.5 -51q-56 -1 -110.5 19t-91.5 52q-11 8 0 27z" />
<glyph unicode="&#xb9;" horiz-adv-x="450" d="M254 1298l16 101q1 9 9.5 15.5t17.5 6.5h238q19 0 16 -20l-135 -860q-1 -10 -8.5 -16.5t-16.5 -6.5h-108q-22 0 -19 23l117 737h-107q-20 0 -20 20z" />
<glyph unicode="&#xba;" horiz-adv-x="800" d="M229 1100q25 155 135 250.5t265 95.5q156 0 236 -95t55 -251q-25 -157 -135 -252.5t-267 -95.5q-155 0 -234.5 96t-54.5 252zM369 1100q-15 -95 32.5 -153t139.5 -58t157 58t80 153q15 92 -33 150.5t-139 58.5q-92 0 -157 -57.5t-80 -151.5z" />
<glyph unicode="&#xbb;" horiz-adv-x="1054" d="M182 268q-15 15 4 31l269 246l-191 246q-12 14 6 32l90 80q16 13 33 0l232 -307q11 -14 8 -37l-4 -27q-3 -21 -21 -36l-327 -308q-22 -14 -33 0zM561 268q-16 13 2 31l271 246l-193 246q-10 16 6 32l90 80q16 13 33 0l231 -307q12 -15 9 -37l-4 -27q-3 -21 -21 -36 l-328 -308q-21 -14 -32 0z" />
<glyph unicode="&#xbc;" horiz-adv-x="1628" d="M290 7q-3 7 5 18l1040 1439q11 15 27 15h131q11 0 15 -7t-3 -16l-1042 -1442q-14 -14 -29 -14h-129q-12 0 -15 7zM311 1298l17 101q4 22 24 22h238q19 0 16 -20l-133 -860q-1 -10 -9.5 -16.5t-17.5 -6.5h-108q-9 0 -14.5 6.5t-4.5 16.5l117 737h-104q-11 0 -16.5 5.5 t-4.5 14.5zM848 223l491 660q15 19 35 16h152q19 0 16 -20l-90 -570h98q11 0 15.5 -5.5t1.5 -14.5l-13 -82q0 -9 -6.5 -15t-15.5 -6h-100l-25 -163q-1 -10 -8.5 -16.5t-16.5 -6.5h-110q-22 0 -19 20l25 166h-414q-39 0 -16 37zM1055 309h243l66 416z" />
<glyph unicode="&#xbd;" horiz-adv-x="1660" d="M291.5 7.5q-3.5 7.5 5.5 19.5l1038 1437q11 15 27 15h127q14 0 17.5 -7.5t-5.5 -19.5l-1038 -1438q-14 -14 -29 -14h-125q-14 0 -17.5 7.5zM311 1298l17 101q4 22 26 22h236q21 0 18 -20l-135 -860q-3 -23 -27 -23h-106q-21 0 -18 23l116 737h-106q-11 0 -16.5 5.5 t-4.5 14.5zM983.5 10q-3.5 10 9.5 27q26 31 132.5 149t200.5 220l93 102q10 10 25.5 28t39 57.5t27.5 70.5q8 50 -19 82t-79 32q-90 0 -170 -76q-5 -7 -12 -6.5t-12 6.5l-54 80q-10 13 4 27q113 113 265 113q120 0 183 -66.5t42 -196.5q-3 -19 -8 -38.5t-12 -37t-14.5 -33.5 t-16 -30t-15.5 -25.5t-15 -22t-13 -16.5l-10 -12l-5 -6q-3 0 -278 -299h276q20 0 17 -20l-15 -96q-2 -9 -8.5 -16t-15.5 -7h-520q-19 0 -22.5 10z" />
<glyph unicode="&#xbe;" horiz-adv-x="1869" d="M227 754q3 20 25 20h106q14 0 17 -16q-4 -52 29.5 -83.5t95.5 -31.5q65 0 110.5 38.5t55.5 102.5q9 67 -18 109t-85 43h-74q-19 0 -16 20l12 74q3 21 23 21h57q50 2 87.5 38.5t47.5 98.5q7 51 -17.5 82t-72.5 33q-38 0 -81.5 -19.5t-79.5 -54.5q-17 -13 -25 -2l-53 78 q-7 13 4 24q115 111 260 111q114 0 174 -67.5t41 -176.5q-18 -128 -115 -199q100 -69 76 -221q-17 -121 -110 -198.5t-224 -77.5q-124 0 -192.5 69t-57.5 185zM496 29l1030 1425q21 25 47 25h115q14 0 18 -7.5t-6 -19.5l-1030 -1427q-18 -25 -47 -25h-115q-28 0 -12 29z M1090 223l491 660q15 19 35 16h151q20 0 17 -20l-90 -570h100q19 0 16 -20l-12 -82q-4 -21 -24 -21h-101l-24 -163q-1 -10 -8.5 -16.5t-16.5 -6.5h-111q-21 0 -18 20l25 166h-414q-39 0 -16 37zM1296 309h244l66 416z" />
<glyph unicode="&#xbf;" horiz-adv-x="978" d="M168 362q12 73 39.5 134.5t63.5 105.5t77.5 82.5t83 74t77.5 71.5t64 82.5t39 99.5q3 20 25 20h147q20 0 17 -20q-14 -68 -44.5 -126t-68.5 -99.5t-81 -79.5t-85 -73t-78 -72t-62 -85t-34 -104q-17 -102 35.5 -162.5t151.5 -60.5q154 0 286 139q17 17 27 0l74 -99 q13 -13 -4 -30q-180 -180 -416 -180q-172 0 -266.5 105.5t-67.5 276.5zM633 1323q9 53 45 85t88 32q53 0 80 -32.5t18 -84.5q-7 -52 -44.5 -83.5t-90.5 -31.5q-52 0 -78 31t-18 84z" />
<glyph unicode="&#xc0;" d="M18 23l770 1378q9 18 33 18h142q19 0 22 -18l338 -1378q3 -10 -2.5 -16.5t-17.5 -6.5h-138q-17 0 -20 14l-101 416h-620l-234 -416q-8 -14 -22 -14h-139q-24 0 -11 23zM510 588h496l-148 618zM666 1688l88 116q16 16 28 4l308 -254q14 -14 2 -26l-52 -68q-15 -15 -28 -6 l-342 205q-19 10 -4 29z" />
<glyph unicode="&#xc1;" d="M18 23l770 1378q9 18 33 18h142q19 0 22 -18l338 -1378q3 -10 -2.5 -16.5t-17.5 -6.5h-138q-17 0 -20 14l-101 416h-620l-234 -416q-8 -14 -22 -14h-139q-24 0 -11 23zM510 588h496l-148 618zM711 1528q-7 17 12 28l385 254q22 14 29 -4l53 -116q7 -18 -12 -29l-408 -205 q-19 -9 -29 8z" />
<glyph unicode="&#xc2;" d="M18 23l770 1378q9 18 33 18h142q19 0 22 -18l338 -1378q3 -10 -2.5 -16.5t-17.5 -6.5h-138q-17 0 -20 14l-101 416h-620l-234 -416q-8 -14 -22 -14h-139q-24 0 -11 23zM510 588h496l-148 618zM565.5 1529q-1.5 5 9.5 13l279 203q13 10 29 10h125q14 0 24 -10l211 -201 q11 -9 8 -14.5t-18 -5.5h-158q-11 0 -24 10l-123 117l-160 -117q-13 -10 -29 -10h-157q-15 0 -16.5 5z" />
<glyph unicode="&#xc3;" d="M18 23l770 1378q9 18 33 18h142q19 0 22 -18l338 -1378q3 -10 -2.5 -16.5t-17.5 -6.5h-138q-17 0 -20 14l-101 416h-620l-234 -416q-8 -14 -22 -14h-139q-24 0 -11 23zM510 588h496l-148 618zM641 1599q42 84 99 131.5t112 47.5q37 0 64.5 -15t44 -37t30.5 -43.5 t33 -36.5t43 -14q63 2 117 105q13 20 28 8l45 -45q15 -8 5 -25q-39 -82 -96.5 -129t-114.5 -47q-43 0 -75 23t-47.5 50.5t-39 50.5t-51.5 22q-62 -2 -121 -107q-11 -21 -27 -8l-43 43q-12 12 -6 26z" />
<glyph unicode="&#xc4;" d="M18 23l770 1378q9 18 33 18h142q19 0 22 -18l338 -1378q3 -10 -2.5 -16.5t-17.5 -6.5h-138q-17 0 -20 14l-101 416h-620l-234 -416q-8 -14 -22 -14h-139q-24 0 -11 23zM510 588h496l-148 618zM635 1622q9 54 46 87.5t91 33.5t81.5 -33.5t18.5 -87.5q-7 -52 -45.5 -85.5 t-91.5 -33.5t-80.5 33t-19.5 86zM971 1622q9 54 47.5 87.5t91.5 33.5q54 0 80.5 -33.5t17.5 -87.5q-7 -52 -45.5 -85.5t-91.5 -33.5q-52 0 -80 33t-20 86z" />
<glyph unicode="&#xc5;" d="M18 23l770 1378q9 18 33 18h142q19 0 22 -18l338 -1378q3 -10 -2.5 -16.5t-17.5 -6.5h-138q-17 0 -20 14l-101 416h-620l-234 -416q-8 -14 -22 -14h-139q-24 0 -11 23zM510 588h496l-148 618zM735 1640q13 85 72.5 136t144.5 51q86 0 130 -51t30 -136q-13 -86 -73 -137 t-146 -51q-85 0 -128 51t-30 137zM831 1640q-7 -43 14 -68.5t64 -25.5q40 0 70 26t37 68q6 41 -15.5 67t-62.5 26t-71 -26t-36 -67z" />
<glyph unicode="&#xc6;" horiz-adv-x="1662" d="M2.5 8q-3.5 8 5.5 21l973 1374q14 18 35 18h753q22 0 19 -22l-19 -115q-3 -22 -24 -22h-481l-74 -457h385q9 0 14 -6t4 -15l-20 -118q0 -9 -7 -15t-16 -6h-387l-76 -483h504q20 0 17 -23l-19 -119q-3 -20 -22 -20h-662q-19 3 -16 23l63 409h-467l-290 -418 q-14 -14 -29 -14h-146q-14 0 -17.5 8zM598 590h381l111 704z" />
<glyph unicode="&#xc7;" horiz-adv-x="1390" d="M197 709q22 142 81.5 262.5t142.5 205.5t185 145.5t211 89t219 28.5q141 2 266.5 -47.5t213.5 -143.5q10 -13 -7 -26l-100 -95q-13 -13 -31 -2q-136 140 -370 140q-244 0 -419 -153t-216 -404q-38 -249 87 -401.5t371 -153.5q237 3 416 139q17 14 31 0l72 -96 q14 -14 -4 -29q-227 -188 -543 -188q-160 0 -286.5 53.5t-205 148.5t-109.5 231t-5 296zM551 -328l51 58q9 12 23 2q71 -41 131 -41q41 0 70.5 20.5t33.5 52.5q6 34 -23 49t-79 15h-90q-9 0 -11.5 5t2.5 13l91 154h131l-43 -72q173 -21 149 -166q-12 -83 -81 -133.5 t-163 -48.5q-53 -1 -104.5 18t-87.5 50q-12 9 0 24z" />
<glyph unicode="&#xc8;" horiz-adv-x="1062" d="M172 20l217 1381q3 20 25 20h755q20 0 17 -20l-19 -125q-2 -9 -8.5 -15t-15.5 -6h-598l-72 -448h502q9 0 14 -6t4 -15l-20 -122q-3 -21 -23 -21h-504l-75 -479h620q9 0 14 -6t3 -15l-21 -125q0 -7 -6.5 -12.5t-15.5 -5.5h-777q-19 0 -16 20zM559 1688l88 116q17 16 29 4 l307 -254q12 -12 2 -26l-51 -68q-16 -16 -29 -6l-344 205q-17 10 -2 29z" />
<glyph unicode="&#xc9;" horiz-adv-x="1062" d="M172 20l217 1381q3 20 25 20h755q20 0 17 -20l-19 -125q-2 -9 -8.5 -15t-15.5 -6h-598l-72 -448h502q9 0 14 -6t4 -15l-20 -122q-3 -21 -23 -21h-504l-75 -479h620q9 0 14 -6t3 -15l-21 -125q0 -7 -6.5 -12.5t-15.5 -5.5h-777q-19 0 -16 20zM629 1528q-10 16 10 28 l387 254q8 6 16 5t11 -9l53 -116q7 -18 -12 -29l-408 -205q-8 -4 -16 -2t-11 10z" />
<glyph unicode="&#xca;" horiz-adv-x="1062" d="M172 20l217 1381q3 20 25 20h755q20 0 17 -20l-19 -125q-2 -9 -8.5 -15t-15.5 -6h-598l-72 -448h502q9 0 14 -6t4 -15l-20 -122q-3 -21 -23 -21h-504l-75 -479h620q9 0 14 -6t3 -15l-21 -125q0 -7 -6.5 -12.5t-15.5 -5.5h-777q-19 0 -16 20zM482.5 1515q-0.5 6 11.5 15 l276 203q16 8 29 8h125q12 0 24 -8l213 -201q20 -23 -12 -23h-158q-11 0 -22 11l-125 116l-160 -116q-15 -11 -29 -11h-157q-15 0 -15.5 6z" />
<glyph unicode="&#xcb;" horiz-adv-x="1062" d="M172 20l217 1381q3 20 25 20h755q20 0 17 -20l-19 -125q-2 -9 -8.5 -15t-15.5 -6h-598l-72 -448h502q9 0 14 -6t4 -15l-20 -122q-3 -21 -23 -21h-504l-75 -479h620q9 0 14 -6t3 -15l-21 -125q0 -7 -6.5 -12.5t-15.5 -5.5h-777q-19 0 -16 20zM551 1628q8 51 44 83t87 32 q50 0 76.5 -32t17.5 -83q-8 -50 -44 -81t-87 -31t-76.5 31t-17.5 81zM870 1628q8 51 44 83t87 32t77 -32t18 -83q-8 -50 -44 -81t-87 -31t-77 31t-18 81z" />
<glyph unicode="&#xcc;" horiz-adv-x="512" d="M170 18l219 1383q1 9 8 14.5t15 5.5h139q17 0 14 -20l-219 -1383q0 -18 -20 -18h-140q-16 0 -16 18zM252 1688l88 116q16 16 29 4l309 -254q13 -13 0 -26l-51 -68q-12 -16 -29 -6l-342 205q-16 9 -4 29z" />
<glyph unicode="&#xcd;" horiz-adv-x="512" d="M170 18l219 1383q1 9 8 14.5t15 5.5h139q17 0 14 -20l-219 -1383q0 -18 -20 -18h-140q-16 0 -16 18zM301 1528q-6 16 10 28l387 254q22 14 29 -4l53 -116q7 -18 -12 -29l-408 -205q-18 -9 -28 8z" />
<glyph unicode="&#xce;" horiz-adv-x="512" d="M136 1527q-2 5 11 13l291 213q16 12 31 12h127l22 -34l-270 -199q-13 -10 -29 -10h-167q-14 0 -16 5zM170 18l219 1383q1 9 8 14.5t15 5.5h139q17 0 14 -20l-219 -1383q0 -18 -20 -18h-140q-16 0 -16 18zM438 1731l37 34h125q15 0 27 -12l223 -211q10 -9 7 -14.5 t-17 -5.5h-166q-14 0 -27 10z" />
<glyph unicode="&#xcf;" horiz-adv-x="512" d="M170 18l219 1383q1 9 8 14.5t15 5.5h139q17 0 14 -20l-219 -1383q0 -18 -20 -18h-140q-16 0 -16 18zM225 1626q9 54 47 87.5t93 33.5q53 0 80 -33.5t18 -87.5q-7 -52 -45.5 -85.5t-91.5 -33.5q-54 0 -81.5 33t-19.5 86zM563 1626q7 54 45.5 87.5t91.5 33.5 q54 0 81.5 -33.5t19.5 -87.5q-9 -53 -47 -86t-92 -33q-53 0 -80.5 33.5t-18.5 85.5z" />
<glyph unicode="&#xd0;" horiz-adv-x="1372" d="M152 655l14 95q3 20 22 20h103l98 631q3 20 25 20h381q330 0 499 -192.5t117 -517.5q-35 -216 -151 -377.5t-294.5 -247.5t-396.5 -86h-381q-19 0 -16 20l96 615h-102q-17 0 -14 20zM371 164h225q253 0 425 147t212 400q40 252 -86.5 399t-378.5 147h-225l-76 -487h287 q17 0 14 -20l-14 -95q-3 -20 -23 -20h-287z" />
<glyph unicode="&#xd1;" horiz-adv-x="1460" d="M170 20l219 1381q3 20 25 20h166q12 0 22 -14l559 -1126l176 1120q3 20 25 20h137q20 0 17 -20l-222 -1381q0 -9 -6 -14.5t-14 -5.5h-166q-15 0 -23 12l-559 1129l-180 -1121q0 -9 -6 -14.5t-14 -5.5h-140q-16 0 -16 20zM668 1595q42 86 101 135.5t116 49.5 q38 0 67 -15.5t46 -38t32.5 -44.5t35 -37.5t44.5 -14.5q66 3 121 107q12 25 31 10l47 -45q14 -10 4 -27q-41 -86 -100 -135t-119 -49q-37 0 -66 15.5t-46.5 38t-33 45t-35 38t-43.5 14.5q-66 -2 -125 -110q-4 -10 -12 -12t-14 4l-47 45q-14 10 -4 26z" />
<glyph unicode="&#xd2;" horiz-adv-x="1624" d="M197 711q53 328 284 528.5t559 200.5q217 0 368.5 -91t216.5 -256.5t30 -381.5q-53 -329 -284.5 -529t-559.5 -200q-217 0 -368.5 90.5t-216 256t-29.5 382.5zM373 711q-40 -250 88 -402.5t377 -152.5q248 0 422.5 152.5t214.5 402.5q41 249 -86 402t-375 153 t-424.5 -152.5t-216.5 -402.5zM801 1692l88 116q17 16 29 4l307 -253q13 -13 2 -27l-51 -68q-16 -16 -29 -6l-344 205q-17 10 -2 29z" />
<glyph unicode="&#xd3;" horiz-adv-x="1624" d="M197 711q53 328 284 528.5t559 200.5q217 0 368.5 -91t216.5 -256.5t30 -381.5q-53 -329 -284.5 -529t-559.5 -200q-217 0 -368.5 90.5t-216 256t-29.5 382.5zM373 711q-40 -250 88 -402.5t377 -152.5q248 0 422.5 152.5t214.5 402.5q41 249 -86 402t-375 153 t-424.5 -152.5t-216.5 -402.5zM862 1528q-6 16 10 28l388 254q18 12 28 -4l53 -116q7 -18 -14 -29l-405 -205q-9 -4 -17.5 -2t-11.5 10z" />
<glyph unicode="&#xd4;" horiz-adv-x="1624" d="M195 713q53 327 286 527t561 200t496 -200t117 -527q-53 -330 -284.5 -531.5t-559.5 -201.5q-217 0 -369 91t-217 257.5t-30 384.5zM373 713q-40 -252 88 -405.5t377 -153.5t424 153.5t215 405.5q40 249 -87 401t-376 152t-426 -152t-215 -401zM721 1546l276 203 q13 10 29 10h125q15 0 25 -10l213 -201q17 -20 -13 -20h-157q-11 0 -23 8l-125 117l-160 -117q-16 -8 -28 -8h-158q-28 0 -4 18z" />
<glyph unicode="&#xd5;" horiz-adv-x="1624" d="M197 711q53 328 284 528.5t559 200.5q217 0 368.5 -91t216.5 -256.5t30 -381.5q-53 -329 -284.5 -529t-559.5 -200q-217 0 -368.5 90.5t-216 256t-29.5 382.5zM373 711q-40 -250 88 -402.5t377 -152.5q248 0 422.5 152.5t214.5 402.5q41 249 -86 402t-375 153 t-424.5 -152.5t-216.5 -402.5zM752 1595q42 86 101 135.5t116 49.5q38 0 66.5 -15.5t45.5 -38t32 -44.5t34.5 -37.5t44.5 -14.5q68 3 123 107q12 25 31 10l47 -45q11 -11 4 -27q-42 -86 -101.5 -135t-119.5 -49q-31 0 -56.5 11.5t-41 28.5t-30.5 36.5t-27.5 36.5t-30 27.5 t-38.5 10.5q-66 -2 -125 -110q-9 -21 -26 -8l-47 45q-11 11 -2 26z" />
<glyph unicode="&#xd6;" horiz-adv-x="1624" d="M197 711q53 328 284 528.5t559 200.5q217 0 368.5 -91t216.5 -256.5t30 -381.5q-53 -329 -284.5 -529t-559.5 -200q-217 0 -368.5 90.5t-216 256t-29.5 382.5zM373 711q-40 -250 88 -402.5t377 -152.5q248 0 422.5 152.5t214.5 402.5q41 249 -86 402t-375 153 t-424.5 -152.5t-216.5 -402.5zM782 1626q9 54 46.5 87.5t91.5 33.5t81 -33.5t19 -87.5q-7 -52 -45.5 -85.5t-91.5 -33.5q-54 0 -81.5 33t-19.5 86zM1118 1626q9 54 47 87.5t92 33.5t81 -33.5t18 -87.5q-7 -52 -45.5 -85.5t-91.5 -33.5q-52 0 -80.5 33t-20.5 86z" />
<glyph unicode="&#xd7;" horiz-adv-x="1009" d="M205 381q-10 14 6 27l285 247l-207 244q-13 16 4 29l96 84q19 13 29 0l207 -244l284 246q18 14 29 0l74 -86q11 -14 -4 -29l-285 -246l205 -245q12 -12 -6 -29l-97 -84q-16 -13 -26 0l-207 246l-285 -246q-19 -12 -28 0z" />
<glyph unicode="&#xd8;" horiz-adv-x="1558" d="M139 18q-13 12 4 29l1454 1380q16 16 33 3l51 -56q14 -14 -4 -28l-1456 -1383q-14 -14 -28 0zM197 711q53 328 284 528.5t559 200.5q217 0 368.5 -91t216.5 -256.5t30 -381.5q-53 -329 -284.5 -529t-559.5 -200q-217 0 -368.5 90.5t-216 256t-29.5 382.5zM373 711 q-40 -250 88 -402.5t377 -152.5q248 0 422.5 152.5t214.5 402.5q41 249 -86 402t-375 153t-424.5 -152.5t-216.5 -402.5z" />
<glyph unicode="&#xd9;" horiz-adv-x="1327" d="M233 557l134 844q3 18 22 18h139q20 0 17 -20l-133 -844q-31 -194 44 -296.5t232 -102.5q158 0 265 101.5t137 297.5l133 846q3 18 24 18h139q20 0 17 -18l-133 -846q-46 -278 -210.5 -425.5t-397.5 -147.5q-234 0 -353 149t-76 426zM643 1688l88 116q17 16 29 4 l307 -254q14 -14 2 -26l-51 -68q-16 -16 -29 -6l-342 205q-19 10 -4 29z" />
<glyph unicode="&#xda;" horiz-adv-x="1327" d="M233 557l134 844q3 18 22 18h139q20 0 17 -20l-133 -844q-31 -194 44 -296.5t232 -102.5q158 0 265 101.5t137 297.5l133 846q3 18 24 18h139q20 0 17 -18l-133 -846q-46 -278 -210.5 -425.5t-397.5 -147.5q-234 0 -353 149t-76 426zM709 1528q-6 16 10 28l387 254 q8 6 16 5t11 -9l53 -116q4 -8 0.5 -16t-12.5 -13l-408 -205q-8 -4 -16 -2t-11 10z" />
<glyph unicode="&#xdb;" horiz-adv-x="1327" d="M233 557l134 844q3 20 22 20l137 -2q9 0 14 -5t3 -13l-133 -844q-31 -197 44.5 -300t233.5 -103t265.5 102t138.5 301l133 844q3 20 24 20h137q20 0 17 -20l-135 -844q-30 -187 -118 -318.5t-213 -195t-278 -63.5q-233 0 -351.5 149.5t-74.5 427.5zM573 1546l279 203 q13 10 29 10h123q16 0 26 -10l211 -201q20 -20 -10 -20h-158q-8 0 -24 8l-123 117l-160 -117q-20 -8 -31 -8h-155q-28 0 -7 18z" />
<glyph unicode="&#xdc;" horiz-adv-x="1327" d="M233 557l134 844q3 18 22 18h139q20 0 17 -20l-133 -844q-31 -194 44 -296.5t232 -102.5q158 0 265 101.5t137 297.5l133 846q3 18 24 18h139q20 0 17 -18l-133 -846q-46 -278 -210.5 -425.5t-397.5 -147.5q-234 0 -353 149t-76 426zM633 1626q9 54 46 87.5t91 33.5 t81.5 -33.5t18.5 -87.5q-7 -52 -45.5 -85.5t-91.5 -33.5t-80.5 33t-19.5 86zM971 1626q7 54 45.5 87.5t91.5 33.5q54 0 80.5 -33.5t17.5 -87.5q-8 -53 -45.5 -86t-91.5 -33q-52 0 -79.5 33t-18.5 86z" />
<glyph unicode="&#xdd;" horiz-adv-x="1177" d="M233 1395q-5 11 0.5 17.5t18.5 6.5h154q18 0 24 -16l275 -678l487 678q10 16 33 16h151q13 0 16 -6.5t-6 -17.5l-618 -828l-88 -549q0 -7 -6.5 -12.5t-14.5 -5.5h-139q-18 0 -18 18l88 547zM635 1528q-7 18 10 28l387 254q8 6 16 5t11 -9l53 -116q7 -18 -12 -29 l-408 -205q-8 -4 -15.5 -2t-10.5 10z" />
<glyph unicode="&#xde;" horiz-adv-x="1128" d="M152 23l217 1376q3 22 26 22h137q20 0 17 -20l-45 -277h260q213 0 316.5 -109.5t74.5 -303.5q-32 -193 -170.5 -303.5t-351.5 -110.5h-260l-43 -277q-3 -20 -25 -20h-135q-21 0 -18 23zM399 461h256q135 0 218.5 64t103.5 184q19 121 -45 186.5t-199 65.5h-256z" />
<glyph unicode="&#xdf;" horiz-adv-x="1159" d="M147 20l152 955q21 134 83 238.5t167.5 167t238.5 63.5q156 -2 246 -89.5t66 -238.5q-9 -52 -36.5 -96t-62 -74.5t-68.5 -57t-60.5 -54t-32.5 -54.5q-4 -23 12 -47t44 -48t62 -51t66.5 -62t58 -75t36.5 -95.5t1 -118.5q-23 -147 -141.5 -242.5t-271.5 -95.5 q-104 0 -201 53q-16 10 -4 31l71 129q3 8 11 10t16 -2q60 -43 133 -43q81 0 138.5 45t68.5 111q7 43 -6 83.5t-38.5 73.5t-58 65l-65 64t-58.5 65t-39.5 73t-6.5 83q6 38 33 76t61.5 68.5t68.5 60t60 62t31 63.5q11 79 -33 117.5t-125 38.5q-39 0 -73 -9.5t-60 -23.5 t-48.5 -40.5t-38 -48.5t-30 -61t-22.5 -64t-17.5 -71.5t-13 -70t-11 -72t-10.5 -66.5l-114 -725q-3 -20 -27 -20h-133q-9 0 -14.5 5.5t-4.5 14.5z" />
<glyph unicode="&#xe0;" horiz-adv-x="1187" d="M145 463q34 215 184 348t359 135q115 0 196.5 -45.5t123.5 -130.5l47 137q6 19 26 19h97q17 0 14 -19l-139 -887q-3 -20 -25 -20h-96q-14 0 -21 18l-2 138q-143 -176 -374 -176q-209 0 -316.5 133.5t-73.5 349.5zM309 463q-23 -142 51 -231t215 -89q143 0 247 88t130 232 q20 142 -55.5 230.5t-218.5 88.5q-142 0 -244 -88t-125 -231zM524 1308.5q0 8.5 8 14.5l103 107q17 14 27 0l249 -275q7 -7 -2 -20l-61 -62q-16 -9 -27 -2l-289 225q-8 4 -8 12.5z" />
<glyph unicode="&#xe1;" horiz-adv-x="1187" d="M145 463q34 215 184 348t359 135q115 0 196.5 -45.5t123.5 -130.5l47 137q6 19 26 19h97q17 0 14 -19l-139 -887q-3 -20 -25 -20h-96q-14 0 -21 18l-2 138q-143 -176 -374 -176q-209 0 -316.5 133.5t-73.5 349.5zM309 463q-23 -142 51 -231t215 -89q143 0 247 88t130 232 q20 142 -55.5 230.5t-218.5 88.5q-142 0 -244 -88t-125 -231zM612 1108q-11 14 6 31l347 282q18 14 28 -2l72 -110q11 -15 -6 -29l-379 -236q-19 -11 -29 5z" />
<glyph unicode="&#xe2;" horiz-adv-x="1187" d="M145 463q34 215 184 348t359 135q115 0 196.5 -45.5t123.5 -130.5l47 137q6 19 26 19h97q17 0 14 -19l-139 -887q-3 -20 -25 -20h-96q-14 0 -21 18l-2 138q-143 -176 -374 -176q-209 0 -316.5 133.5t-73.5 349.5zM309 463q-23 -142 51 -231t215 -89q143 0 247 88t130 232 q20 142 -55.5 230.5t-218.5 88.5q-142 0 -244 -88t-125 -231zM426 1104l262 272q10 10 29 10h131q16 0 26 -10l175 -270q9 -19 -13 -19h-137q-9 0 -20 11l-113 182l-170 -180q-13 -13 -29 -13h-135q-20 0 -6 17z" />
<glyph unicode="&#xe3;" horiz-adv-x="1187" d="M145 463q34 215 184 348t359 135q115 0 196.5 -45.5t123.5 -130.5l47 137q6 19 26 19h97q17 0 14 -19l-139 -887q-3 -20 -25 -20h-96q-14 0 -21 18l-2 138q-143 -176 -374 -176q-209 0 -316.5 133.5t-73.5 349.5zM309 463q-23 -142 51 -231t215 -89q143 0 247 88t130 232 q20 142 -55.5 230.5t-218.5 88.5q-142 0 -244 -88t-125 -231zM446 1188q44 86 104 136t116 50q38 0 66.5 -15.5t45 -37.5t31.5 -44t34 -37.5t44 -14.5q69 2 125 110q4 9 11 10.5t11 -4.5l53 -49q11 -7 3 -18q-39 -86 -99 -136.5t-119 -50.5q-37 0 -65.5 15.5t-46 38t-33 44 t-35 36.5t-43.5 14q-66 0 -121 -109q-13 -17 -28 -8l-49 47q-12 8 -5 23z" />
<glyph unicode="&#xe4;" horiz-adv-x="1187" d="M145 463q34 215 184 348t359 135q115 0 196.5 -45.5t123.5 -130.5l47 137q6 19 26 19h97q17 0 14 -19l-139 -887q-3 -20 -25 -20h-96q-14 0 -21 18l-2 138q-143 -176 -374 -176q-209 0 -316.5 133.5t-73.5 349.5zM309 463q-23 -142 51 -231t215 -89q143 0 247 88t130 232 q20 142 -55.5 230.5t-218.5 88.5q-142 0 -244 -88t-125 -231zM498 1235q9 54 46.5 86.5t92.5 32.5q52 0 79.5 -33t18.5 -86q-7 -52 -45.5 -85.5t-91.5 -33.5t-80.5 33t-19.5 86zM836 1235q9 54 46.5 86.5t90.5 32.5t80.5 -33t19.5 -86q-9 -53 -47 -86t-90 -33 q-54 0 -81.5 33t-18.5 86z" />
<glyph unicode="&#xe5;" horiz-adv-x="1187" d="M145 463q34 215 184 348t359 135q115 0 196.5 -45.5t123.5 -130.5l47 137q6 19 26 19h97q17 0 14 -19l-139 -887q-3 -20 -25 -20h-96q-14 0 -21 18l-2 138q-143 -176 -374 -176q-209 0 -316.5 133.5t-73.5 349.5zM309 463q-23 -142 51 -231t215 -89q143 0 247 88t130 232 q20 142 -55.5 230.5t-218.5 88.5q-142 0 -244 -88t-125 -231zM600 1251q13 85 72.5 136t144.5 51q86 0 130 -51t30 -136q-14 -86 -73.5 -138t-147.5 -52q-84 0 -126.5 52t-29.5 138zM698 1249q-6 -39 15.5 -63.5t60.5 -24.5q40 0 69.5 24.5t35.5 63.5q6 40 -15 65t-61 25 t-68.5 -25t-36.5 -65z" />
<glyph unicode="&#xe6;" horiz-adv-x="1921" d="M145 463q34 215 184 348t359 135q115 0 196.5 -45.5t123.5 -130.5l47 137q8 19 28 19h95q17 0 14 -19l-12 -78q145 117 338 117q228 0 332.5 -145t64.5 -387q-1 -9 -8.5 -15t-16.5 -6h-768q3 -117 80 -185.5t211 -68.5q164 0 268 94q19 15 31 3l72 -84q12 -15 -2 -29 q-152 -143 -398 -143q-205 0 -319 120q-1 -6 -6 -40t-6 -40q-3 -20 -25 -20h-94q-18 0 -21 20l-4 136q-143 -176 -374 -176q-209 0 -316.5 133.5t-73.5 349.5zM309 463q-23 -142 51 -231t215 -89q143 0 247 88t130 232q20 142 -55.5 230.5t-218.5 88.5q-142 0 -244 -88 t-125 -231zM1143 530h620q0 117 -72 186.5t-198 69.5t-219.5 -69.5t-130.5 -186.5z" />
<glyph unicode="&#xe7;" horiz-adv-x="1026" d="M145 463q18 117 74.5 211.5t134.5 153t168 89.5t183 31q124 0 221 -52.5t147 -152.5q10 -17 -8 -28l-107 -80q-20 -13 -30 6q-71 139 -252 139q-142 0 -243 -87t-124 -230t50.5 -231.5t215.5 -88.5q91 0 167 37t128 99q16 23 33 6l78 -80q11 -11 0 -29q-79 -94 -190 -145 t-242 -51q-215 0 -326.5 133.5t-77.5 349.5zM256 -352q-13 9 2 24l49 58q9 12 23 2q71 -41 131 -41q41 0 70.5 20.5t33.5 52.5q6 34 -23 49t-79 15h-90q-8 0 -10 5t2 13l90 154h131l-43 -72q172 -21 151 -166q-13 -84 -82 -134t-163 -48q-53 -1 -105 18t-88 50z" />
<glyph unicode="&#xe8;" horiz-adv-x="1105" d="M145 463q34 215 188 349t369 134q226 0 331.5 -139t64.5 -393q-4 -21 -23 -21h-770q3 -117 81 -185.5t212 -68.5q159 0 266 92q23 19 33 2l72 -81q13 -14 -2 -29q-152 -143 -400 -143q-224 0 -340.5 133t-81.5 350zM326 530h620q0 117 -71 186.5t-197 69.5t-220.5 -69.5 t-131.5 -186.5zM498 1306.5q0 8.5 6 14.5l102 106q19 13 29 0l248 -274q9 -9 -2 -20l-62 -62q-13 -10 -24 -2l-291 225q-6 4 -6 12.5z" />
<glyph unicode="&#xe9;" horiz-adv-x="1105" d="M145 463q34 215 188 349t369 134q226 0 331.5 -139t64.5 -393q-4 -21 -23 -21h-770q3 -117 81 -185.5t212 -68.5q159 0 266 92q23 19 33 2l72 -81q13 -14 -2 -29q-152 -143 -400 -143q-224 0 -340.5 133t-81.5 350zM326 530h620q0 117 -71 186.5t-197 69.5t-220.5 -69.5 t-131.5 -186.5zM569 1122q-9 14 6 29l332 270q17 14 27 -2l70 -104q10 -13 -7 -27l-362 -225q-17 -14 -29 2z" />
<glyph unicode="&#xea;" horiz-adv-x="1103" d="M143 463q35 216 189.5 349.5t369.5 133.5q226 0 331.5 -139t64.5 -393q-4 -21 -23 -21h-770q2 -116 79.5 -185t211.5 -69q161 0 268 92q19 19 33 2l70 -81q17 -14 -2 -29q-149 -143 -398 -143q-224 0 -341 133t-83 350zM326 530h620q0 117 -72 186.5t-198 69.5 t-219.5 -69.5t-130.5 -186.5zM408 1091q1 4 6 9l260 272q13 10 28 10h132q16 0 26 -10l174 -270q6 -9 2.5 -14t-12.5 -5h-139q-12 0 -19 11l-114 182l-170 -180q-10 -13 -27 -13h-137q-6 0 -8.5 2t-1.5 6z" />
<glyph unicode="&#xeb;" horiz-adv-x="1105" d="M145 463q34 215 188 349t369 134q226 0 331.5 -139t64.5 -393q-4 -21 -23 -21h-770q3 -117 81 -185.5t212 -68.5q159 0 266 92q23 19 33 2l72 -81q13 -14 -2 -29q-152 -143 -400 -143q-224 0 -340.5 133t-81.5 350zM326 530h620q0 117 -71 186.5t-197 69.5t-220.5 -69.5 t-131.5 -186.5zM463 1247q9 53 46.5 86t90.5 33q52 0 79.5 -33t18.5 -86q-8 -53 -45.5 -85t-91.5 -32q-52 0 -79 32t-19 85zM799 1247q8 53 44.5 86t90.5 33q51 0 78.5 -33t19.5 -86q-9 -52 -46.5 -84.5t-88.5 -32.5q-54 0 -80.5 32t-17.5 85z" />
<glyph unicode="&#xec;" horiz-adv-x="454" d="M147 20l140 887q4 19 24 19h127q9 0 14 -5.5t3 -13.5l-140 -887q-3 -20 -22 -20h-129q-20 0 -17 20zM197 1293.5q0 9.5 6 15.5l102 106q17 12 29 0l248 -274q10 -11 -2 -23l-62 -59q-14 -11 -26 -2l-289 223q-6 4 -6 13.5z" />
<glyph unicode="&#xed;" horiz-adv-x="454" d="M147 20l140 887q4 19 24 19h127q9 0 14 -5.5t3 -13.5l-140 -887q-3 -20 -22 -20h-129q-20 0 -17 20zM236 1122q-11 15 6 29l333 272q6 5 14 4.5t11 -6.5l72 -106q10 -16 -8 -27l-363 -227q-18 -12 -29 2z" />
<glyph unicode="&#xee;" horiz-adv-x="454" d="M72 1081l274 287q12 12 31 12h137q20 0 29 -12l182 -285q12 -18 -10 -18h-146q-13 0 -20 10l-119 193l-180 -191q-12 -12 -29 -12h-143q-22 0 -6 16zM147 20l140 887q4 19 24 19h127q9 0 14 -5.5t3 -13.5l-140 -887q-3 -20 -22 -20h-129q-20 0 -17 20z" />
<glyph unicode="&#xef;" horiz-adv-x="454" d="M129 1227q9 55 46 87t93 32q53 0 80.5 -32.5t18.5 -86.5q-7 -52 -46 -85.5t-92 -33.5t-80.5 33t-19.5 86zM147 20l140 887q4 19 24 19h127q9 0 14 -5.5t3 -13.5l-140 -887q-3 -20 -22 -20h-129q-20 0 -17 20zM467 1227q9 55 46.5 87t90.5 32q54 0 81.5 -32.5t19.5 -86.5 q-9 -53 -47.5 -86t-90.5 -33q-54 0 -81.5 33t-18.5 86z" />
<glyph unicode="&#xf0;" horiz-adv-x="1103" d="M174 416q31 196 168.5 314t333.5 118q125 0 201 -66q-48 174 -158 305l-240 -112q-12 -8 -20 4l-49 57q-9 15 8 25l225 106q-77 74 -188 133q-7 3 -9 11.5t3 15.5l75 111q13 19 31 10q152 -67 272 -193l209 99q18 7 25 -4l47 -58q12 -16 -8 -24l-205 -97 q109 -153 155.5 -356t10.5 -401q-35 -198 -177 -316t-337 -118q-196 0 -300 121t-73 315zM344 416q-19 -120 44.5 -196.5t184.5 -76.5q122 0 213 78.5t111 200.5q19 127 -42.5 198.5t-192.5 71.5q-123 0 -210.5 -76t-107.5 -200z" />
<glyph unicode="&#xf1;" horiz-adv-x="1118" d="M139 20l142 885q3 21 20 21h92q9 0 16 -6t7 -15v-143q127 184 348 184q169 0 250.5 -104.5t48.5 -309.5l-80 -512q-3 -20 -22 -20h-127q-8 0 -13 5.5t-4 14.5l80 500q22 136 -30 199t-160 63q-117 0 -210.5 -94.5t-123.5 -238.5l-68 -429q-3 -20 -22 -20h-125 q-9 0 -14.5 5.5t-4.5 14.5zM446 1210q42 84 99 131.5t112 47.5q36 0 63 -15t43 -36t30 -42t33 -35.5t44 -13.5q59 2 119 105q6 19 25 8l47 -49q11 -4 4 -15q-39 -85 -96.5 -133.5t-114.5 -48.5q-43 0 -74.5 23t-47.5 50.5t-39.5 50.5t-51.5 22q-62 -2 -117 -107 q-5 -9 -12.5 -11t-13.5 5l-47 45q-11 6 -5 18z" />
<glyph unicode="&#xf2;" horiz-adv-x="1107" d="M145 465q34 215 188 348t369 133q216 0 328 -132.5t78 -348.5q-34 -217 -188 -351t-371 -134q-215 0 -326.5 134t-77.5 351zM309 463q-23 -141 51 -230.5t215 -89.5q142 0 244 89t125 231q23 143 -50.5 231t-215.5 88q-141 0 -243.5 -88.5t-125.5 -230.5zM481 1306.5 q0 8.5 6 14.5l103 106q19 12 28 0l248 -274q9 -9 -2 -20l-61 -62q-13 -10 -25 -2l-291 225q-6 4 -6 12.5z" />
<glyph unicode="&#xf3;" horiz-adv-x="1107" d="M145 465q34 215 188.5 349t371.5 134q215 0 327 -134t78 -349q-34 -217 -189 -351t-370 -134q-217 0 -329 134t-77 351zM311 465q-23 -142 51.5 -231t215.5 -89q142 0 242.5 88.5t123.5 231.5q22 143 -51 230t-215 87q-141 0 -242.5 -87.5t-124.5 -229.5zM553 1118 q-9 16 6 31l332 270q18 11 27 -2l69 -106q5 -4 3 -12.5t-9 -14.5l-363 -225q-17 -14 -28 4z" />
<glyph unicode="&#xf4;" horiz-adv-x="1107" d="M145 465q34 215 188 348t369 133q216 0 328 -132.5t78 -348.5q-34 -217 -188 -351t-371 -134q-215 0 -326.5 134t-77.5 351zM309 463q-23 -141 51 -230.5t215 -89.5q142 0 244 89t125 231q23 143 -50.5 231t-215.5 88q-141 0 -243.5 -88.5t-125.5 -230.5zM412 1094.5 q1 3.5 6 7.5l260 272q12 12 31 12h129q16 0 28 -12l172 -270q6 -8 3 -12.5t-13 -4.5h-139q-10 0 -19 9l-112 184l-172 -182q-11 -11 -27 -11h-137q-6 0 -8.5 2t-1.5 5.5z" />
<glyph unicode="&#xf5;" horiz-adv-x="1107" d="M145 465q34 215 188 348t369 133q216 0 328 -132.5t78 -348.5q-34 -217 -188 -351t-371 -134q-215 0 -326.5 134t-77.5 351zM309 463q-23 -141 51 -230.5t215 -89.5q142 0 244 89t125 231q23 143 -50.5 231t-215.5 88q-141 0 -243.5 -88.5t-125.5 -230.5zM424 1188 q44 86 103.5 136t115.5 50q38 0 66.5 -15.5t45.5 -37.5t32 -44t34.5 -37.5t44.5 -14.5q64 2 123 110q4 9 11.5 10.5t11.5 -4.5l53 -47q10 -5 4 -18q-40 -87 -99.5 -136.5t-119.5 -49.5q-45 0 -78 23.5t-49.5 51.5t-40.5 50.5t-53 21.5q-63 -2 -123 -109q-14 -20 -29 -8 l-49 47q-10 10 -4 21z" />
<glyph unicode="&#xf6;" horiz-adv-x="1107" d="M145 465q34 215 188 348t369 133q216 0 328 -132.5t78 -348.5q-34 -217 -188 -351t-371 -134q-215 0 -326.5 134t-77.5 351zM309 463q-23 -141 51 -230.5t215 -89.5q142 0 244 89t125 231q23 143 -50.5 231t-215.5 88q-141 0 -243.5 -88.5t-125.5 -230.5zM463 1249 q7 54 45 86.5t92 32.5q52 0 80 -33t20 -86q-9 -53 -47 -86t-90 -33q-54 0 -81.5 33t-18.5 86zM799 1249q11 54 48 86.5t89 32.5q55 0 82 -33t18 -86q-7 -52 -45.5 -85.5t-91.5 -33.5q-52 0 -80 33t-20 86z" />
<glyph unicode="&#xf7;" horiz-adv-x="1103" d="M225 543l19 116q2 9 8.5 14.5t13.5 4.5h785q21 0 18 -19l-18 -116q-4 -19 -23 -19h-784q-9 0 -14.5 6t-4.5 13zM469 301q9 58 51 93.5t101 35.5q58 0 87.5 -35t20.5 -94q-9 -58 -49.5 -93.5t-99.5 -35.5q-60 0 -90 35t-21 94zM567 918q9 58 51 92t101 34t88 -34t20 -92 q-9 -59 -50 -95.5t-99 -36.5q-60 0 -90 36.5t-21 95.5z" />
<glyph unicode="&#xf8;" horiz-adv-x="1107" d="M90 10q-15 12 2 29l111 104q-88 127 -58 322q34 215 188 348t369 133q164 0 269 -76l98 93q17 17 31 2l51 -56q17 -13 -2 -28l-98 -95q87 -129 57 -321q-34 -217 -188 -351t-371 -134q-160 0 -268 79l-109 -104q-8 -6 -16 -6t-13 6zM309 463q-18 -113 27 -195l500 475 q-67 39 -158 39q-141 0 -243.5 -88.5t-125.5 -230.5zM414 186q68 -43 161 -43q142 0 244 89t125 231q18 118 -29 196z" />
<glyph unicode="&#xf9;" horiz-adv-x="1120" d="M197 391l79 514q4 21 25 21h127q8 0 12 -6t2 -15l-80 -499q-42 -267 193 -267q118 0 212.5 95t123.5 243l67 428q4 21 25 21h125q20 0 16 -21l-141 -887q0 -7 -6 -12.5t-14 -5.5h-93q-18 0 -22 18l2 146q-136 -187 -356 -187q-168 0 -248 105t-49 309zM496.5 1289.5 q0.5 9.5 7.5 15.5l102 106q17 13 27 0l248 -274q11 -8 0 -23l-64 -59q-13 -13 -24 -2l-291 223q-6 4 -5.5 13.5z" />
<glyph unicode="&#xfa;" horiz-adv-x="1120" d="M197 391l79 514q4 21 25 21h127q8 0 12 -6t2 -15l-80 -499q-42 -267 193 -267q118 0 212.5 95t123.5 243l67 428q4 21 25 21h125q20 0 16 -21l-141 -887q0 -7 -6 -12.5t-14 -5.5h-93q-18 0 -22 18l2 146q-136 -187 -356 -187q-168 0 -248 105t-49 309zM569 1116 q-7 12 6 29l334 270q6 6 14.5 5.5t12.5 -7.5l70 -104q5 -6 2.5 -14.5t-9.5 -12.5l-362 -227q-19 -9 -29 4z" />
<glyph unicode="&#xfb;" horiz-adv-x="1120" d="M197 391l79 514q4 21 25 21h127q8 0 12 -6t2 -15l-80 -499q-42 -267 193 -267q118 0 212.5 95t123.5 243l67 428q4 21 25 21h125q20 0 16 -21l-141 -887q0 -7 -6 -12.5t-14 -5.5h-93q-18 0 -22 18l2 146q-136 -187 -356 -187q-168 0 -248 105t-49 309zM420 1098l264 276 q12 12 29 12h133q17 0 26 -12l177 -274q6 -8 2 -12.5t-15 -4.5h-139q-9 0 -20 11l-113 184l-174 -182q-10 -13 -27 -13h-137q-21 0 -6 15z" />
<glyph unicode="&#xfc;" horiz-adv-x="1120" d="M197 391l79 514q4 21 25 21h127q8 0 12 -6t2 -15l-80 -499q-42 -267 193 -267q118 0 212.5 95t123.5 243l67 428q4 21 25 21h125q20 0 16 -21l-141 -887q0 -7 -6 -12.5t-14 -5.5h-93q-18 0 -22 18l2 146q-136 -187 -356 -187q-168 0 -248 105t-49 309zM467 1227 q9 55 46 87t91 32q53 0 80.5 -32.5t20.5 -86.5q-9 -53 -47.5 -86t-90.5 -33q-53 0 -80.5 33t-19.5 86zM803 1227q10 55 47 87t90 32q55 0 82 -32.5t18 -86.5q-7 -52 -45.5 -85.5t-91.5 -33.5q-52 0 -80 33t-20 86z" />
<glyph unicode="&#xfd;" horiz-adv-x="958" d="M141 -440l250 444l-231 893q-3 26 22 29h142q18 0 22 -19l158 -700l395 700q11 19 31 19h139q11 -2 14.5 -9.5t-4.5 -19.5l-766 -1346q-11 -18 -30 -18h-127q-28 0 -15 27zM528 1081q-8 14 9 31l331 270q6 6 14.5 5.5t12.5 -7.5l70 -106q5 -4 2.5 -12.5t-9.5 -14.5 l-362 -225q-19 -13 -29 4z" />
<glyph unicode="&#xfe;" horiz-adv-x="1183" d="M68 -446l303 1904q3 21 22 21h123q9 0 14.5 -6t4.5 -15l-109 -682q138 170 367 170q209 0 317 -133t74 -350q-34 -215 -185 -349t-360 -134q-114 0 -193 44.5t-118 127.5l-97 -598q0 -9 -6.5 -15t-15.5 -6h-123q-18 0 -18 21zM377 465q-22 -146 54.5 -234t219.5 -88 q141 0 243.5 89t125.5 231t-51 230.5t-215 88.5q-143 0 -248 -86.5t-129 -230.5z" />
<glyph unicode="&#xff;" horiz-adv-x="958" d="M141 -440l250 444l-231 893q-3 26 22 29h142q18 0 22 -19l158 -700l395 700q11 19 31 19h139q11 -2 14.5 -9.5t-4.5 -19.5l-766 -1346q-11 -18 -30 -18h-127q-28 0 -15 27zM365 1208q9 54 46 86.5t91 32.5q52 0 80 -33t20 -86q-9 -53 -47 -85.5t-90 -32.5q-54 0 -81 32.5 t-19 85.5zM700 1208q11 54 48.5 86.5t89.5 32.5q55 0 82 -33t18 -86q-7 -52 -45.5 -85t-91.5 -33q-52 0 -80.5 32.5t-20.5 85.5z" />
<glyph unicode="&#x152;" horiz-adv-x="1552" d="M197 711q51 321 273.5 512.5t543.5 197.5h645q22 0 18 -22l-18 -117q-3 -22 -25 -22h-483l-72 -455h385q9 0 14.5 -6.5t4.5 -16.5l-21 -116q0 -9 -6.5 -15t-15.5 -6h-385l-78 -485h502q9 0 14 -6t4 -15l-18 -119q-3 -20 -23 -20h-665q-321 5 -483 197.5t-111 513.5z M375 711q-38 -239 78.5 -382t347.5 -155l170 1071q-235 -11 -396.5 -154t-199.5 -380z" />
<glyph unicode="&#x153;" horiz-adv-x="1904" d="M145 465q34 215 188 348t369 133q132 0 227.5 -52.5t143.5 -148.5q74 95 185.5 148t242.5 53q97 0 172.5 -26t123.5 -73.5t77 -113.5t32.5 -146.5t-10.5 -172.5q-4 -21 -24 -21h-768q3 -117 81 -185.5t212 -68.5q164 0 268 94q19 15 31 3l71 -84q13 -14 -2 -29 q-155 -143 -399 -143q-137 0 -236 53t-147 149q-77 -96 -189.5 -149t-244.5 -53q-215 0 -326.5 134t-77.5 351zM309 463q-23 -141 51 -230.5t215 -89.5q142 0 244 87.5t125 234.5q23 141 -50.5 229t-215.5 88q-141 0 -243.5 -88.5t-125.5 -230.5zM1124 530h621 q0 117 -71 186.5t-197 69.5t-221 -69.5t-132 -186.5z" />
<glyph unicode="&#x178;" horiz-adv-x="1177" d="M233 1395q-5 11 0.5 17.5t18.5 6.5h154q18 0 24 -16l275 -678l487 678q10 16 33 16h151q13 0 16 -6.5t-6 -17.5l-618 -828l-88 -549q0 -7 -6.5 -12.5t-14.5 -5.5h-139q-18 0 -18 18l88 547zM559 1626q8 54 45.5 87.5t91.5 33.5q53 0 80.5 -33.5t20.5 -87.5 q-9 -53 -47.5 -86t-90.5 -33q-55 0 -82 33t-18 86zM895 1626q9 54 47 87.5t90 33.5q55 0 82.5 -33.5t18.5 -87.5q-7 -52 -46 -85.5t-92 -33.5q-52 0 -80 33t-20 86z" />
<glyph unicode="&#x2c6;" horiz-adv-x="778" d="M227.5 1077.5q-1.5 4.5 5.5 12.5l275 286q13 13 31 13h137q19 0 29 -13l182 -284q13 -19 -10 -19h-146q-13 0 -20 10l-119 193l-180 -191q-12 -12 -29 -12h-143q-11 0 -12.5 4.5z" />
<glyph unicode="&#x2dc;" horiz-adv-x="786" d="M270 1247q45 88 105.5 138.5t118.5 50.5q38 0 66 -15.5t45 -38t32 -44.5t34.5 -37.5t45.5 -14.5q66 2 125 111q9 18 26 8l52 -51q8 -8 2 -17q-40 -89 -101 -139.5t-121 -50.5q-37 0 -65 15.5t-45.5 38t-33 45t-36 38t-45.5 14.5q-66 -3 -121 -110q-6 -11 -14 -13t-14 5 l-50 47q-9 6 -6 20z" />
<glyph unicode="&#x2000;" horiz-adv-x="913" />
<glyph unicode="&#x2001;" horiz-adv-x="1827" />
<glyph unicode="&#x2002;" horiz-adv-x="913" />
<glyph unicode="&#x2003;" horiz-adv-x="1827" />
<glyph unicode="&#x2004;" horiz-adv-x="609" />
<glyph unicode="&#x2005;" horiz-adv-x="456" />
<glyph unicode="&#x2006;" horiz-adv-x="304" />
<glyph unicode="&#x2007;" horiz-adv-x="304" />
<glyph unicode="&#x2008;" horiz-adv-x="228" />
<glyph unicode="&#x2009;" horiz-adv-x="365" />
<glyph unicode="&#x200a;" horiz-adv-x="101" />
<glyph unicode="&#x2010;" horiz-adv-x="829" d="M201 541l18 116q3 21 23 21h559q9 0 14 -6t4 -15l-18 -116q-1 -9 -8.5 -15t-16.5 -6h-559q-19 0 -16 21z" />
<glyph unicode="&#x2011;" horiz-adv-x="829" d="M201 541l18 116q3 21 23 21h559q9 0 14 -6t4 -15l-18 -116q-1 -9 -8.5 -15t-16.5 -6h-559q-19 0 -16 21z" />
<glyph unicode="&#x2012;" horiz-adv-x="829" d="M201 541l18 116q3 21 23 21h559q9 0 14 -6t4 -15l-18 -116q-1 -9 -8.5 -15t-16.5 -6h-559q-19 0 -16 21z" />
<glyph unicode="&#x2013;" horiz-adv-x="1185" d="M242 541l18 114q3 23 25 23h829q10 0 16 -6.5t5 -16.5l-19 -114q-1 -10 -9 -16.5t-17 -6.5h-830q-21 0 -18 23z" />
<glyph unicode="&#x2014;" horiz-adv-x="1730" d="M242 539l18 116q4 21 25 21h1374q23 0 20 -21l-18 -116q-3 -23 -27 -23h-1374q-21 0 -18 23z" />
<glyph unicode="&#x2018;" horiz-adv-x="423" d="M233 979q-18 120 71.5 272t205.5 209q17 10 29 -6l39 -47q9 -15 -9 -29q-147 -104 -188 -241h4q51 -3 76.5 -36.5t17.5 -84.5q-9 -57 -48 -91t-95 -34q-45 0 -73.5 23.5t-29.5 64.5z" />
<glyph unicode="&#x2019;" horiz-adv-x="423" d="M217 950q-11 19 6 29q151 108 191 242l-4 2q-53 3 -78.5 35.5t-16.5 84.5q9 57 48.5 91t95.5 34q46 0 73.5 -23.5t30.5 -64.5q10 -80 -28.5 -180t-107 -183.5t-142.5 -119.5q-18 -9 -29 6z" />
<glyph unicode="&#x201a;" horiz-adv-x="464" d="M43 -295q-9 15 8 29q151 104 189 241h-2q-52 3 -78.5 35.5t-18.5 85.5q11 57 50 91t96 34q44 0 70.5 -24t31.5 -64q11 -79 -27 -178.5t-107 -183t-144 -119.5q-19 -11 -29 6z" />
<glyph unicode="&#x201c;" horiz-adv-x="743" d="M229 977q-9 80 30 180t107.5 183.5t143.5 119.5q17 10 29 -6l39 -47q9 -15 -11 -29q-150 -109 -186 -241h4q50 -3 75.5 -36.5t16.5 -84.5q-7 -57 -46 -91t-95 -34q-44 0 -73 24t-34 62zM549 977q-9 80 29.5 180t107 183.5t143.5 119.5q17 10 29 -6l39 -47q10 -16 -10 -29 q-150 -106 -187 -241h2q51 -3 77.5 -36.5t17.5 -84.5q-7 -57 -47 -91t-97 -34q-44 0 -71.5 23.5t-32.5 62.5z" />
<glyph unicode="&#x201d;" horiz-adv-x="806" d="M252 950q-10 16 10 29q148 102 187 242h-3q-51 3 -77 35.5t-17 84.5q8 56 47.5 90.5t96.5 34.5q44 0 71.5 -24t32.5 -64q10 -79 -29 -178.5t-108 -183.5t-144 -121q-19 -7 -28 8zM571 950q-9 15 11 29q144 102 186 242h-4q-50 3 -75.5 35.5t-16.5 84.5q9 57 47.5 91 t93.5 34q44 0 73 -24t32 -64q11 -78 -27.5 -178t-107.5 -184t-144 -121q-20 -8 -29 8z" />
<glyph unicode="&#x201e;" horiz-adv-x="784" d="M43 -297q-11 15 8 27q148 102 189 241h-2q-52 3 -78.5 36.5t-18.5 86.5q9 56 49 89.5t97 33.5q44 0 70.5 -23t31.5 -63q10 -80 -28.5 -180t-107 -183.5t-142.5 -119.5q-17 -8 -31 6zM360.5 -283q2.5 8 10.5 13q144 102 188 241h-4q-51 3 -76.5 36.5t-17.5 86.5 q9 55 48 89t95 34q44 1 72 -22.5t31 -63.5q11 -79 -27.5 -179.5t-107 -184t-142.5 -119.5q-17 -8 -31 6l-37 49q-4 6 -1.5 14z" />
<glyph unicode="&#x2022;" horiz-adv-x="768" d="M207 662q20 126 109.5 202t215.5 76q127 0 192.5 -76t45.5 -202q-20 -127 -111 -205t-217 -78t-190.5 78t-44.5 205z" />
<glyph unicode="&#x2026;" horiz-adv-x="1617" d="M162 104q9 56 48.5 90.5t96.5 34.5q54 0 83 -35t20 -90t-49.5 -89.5t-94.5 -34.5q-57 0 -85 34t-19 90zM702 104q9 56 49 90.5t97 34.5q54 0 82.5 -35t19.5 -90t-49 -89.5t-94 -34.5q-57 0 -85.5 34t-19.5 90zM1241 104q9 56 48.5 90.5t94.5 34.5q56 0 85 -35t20 -90 t-49.5 -89.5t-96.5 -34.5q-55 0 -83 34t-19 90z" />
<glyph unicode="&#x202f;" horiz-adv-x="365" />
<glyph unicode="&#x2039;" horiz-adv-x="698" d="M227 532l4 27q3 22 21 37l330 307q20 16 32 0l66 -80q10 -16 -6 -32l-271 -246l193 -246q11 -18 -6 -31l-88 -80q-18 -15 -33 0l-233 308q-12 15 -9 36z" />
<glyph unicode="&#x203a;" horiz-adv-x="698" d="M197 266q-12 19 2 33l270 246l-193 246q-10 16 9 32l88 80q19 16 33 -2l231 -305q12 -15 8 -37l-4 -27q-3 -21 -20 -38l-328 -304q-7 -9 -17 -9.5t-16 7.5z" />
<glyph unicode="&#x205f;" horiz-adv-x="456" />
<glyph unicode="&#x20ac;" horiz-adv-x="1273" d="M152 463l14 90q1 10 9 16t18 6h139q3 74 14 136v4h-133q-21 0 -18 22l14 88q1 10 9.5 16.5t17.5 6.5h139q69 270 226 431t355 161q143 0 240.5 -87.5t134.5 -244.5q3 -20 -16 -31l-123 -69q-12 -7 -19.5 -4t-9.5 14q-52 250 -235 250q-121 0 -221.5 -113.5t-151.5 -306.5 h248q21 0 18 -23l-14 -88q-3 -22 -27 -22h-256v-4q-11 -62 -14 -136h250q21 0 18 -22l-14 -90q-4 -21 -27 -21h-223q14 -136 76.5 -213t161.5 -77q168 0 290 210q17 23 35 11l99 -70q17 -11 4 -31q-86 -138 -203 -214t-250 -76q-172 0 -276.5 122.5t-118.5 337.5h-162 q-9 0 -14 6t-4 15z" />
<glyph unicode="&#x2122;" horiz-adv-x="1400" d="M315 1331l11 68q4 22 24 22h441q19 0 16 -20l-10 -68q-3 -20 -23 -20h-160l-79 -498q-3 -20 -25 -20h-82q-19 0 -16 20l80 498h-158q-10 0 -15 4.5t-4 13.5zM791 811l90 575q7 31 37 31h71q21 0 27 -18l125 -348l239 350q10 16 33 16h84q19 0 16 -20l-92 -586 q-3 -20 -24 -20h-82q-20 0 -17 20l60 375l-193 -283q-11 -18 -32 -18h-31q-20 0 -27 18l-102 281l-60 -373q-3 -20 -24 -20h-82q-19 0 -16 20z" />
<glyph unicode="&#x25fc;" horiz-adv-x="921" d="M0 0v922h922v-922h-922z" />
</font>
</defs>
</svg>
